<?xml version="1.0" standalone="no"?><!DOCTYPE svg PUBLIC "-//W3C//DTD SVG 1.1//EN" "http://www.w3.org/Graphics/SVG/1.1/DTD/svg11.dtd"><svg t="1625194167385" class="icon" viewBox="0 0 1024 1024" version="1.1" xmlns="http://www.w3.org/2000/svg" p-id="7198" xmlns:xlink="http://www.w3.org/1999/xlink" width="200" height="200"><defs><style type="text/css"></style></defs><path d="M947.774605 83.523527a143.743461 143.743461 0 0 0-32.255879-43.199838 157.823408 157.823408 0 0 0-47.167823-29.43989 152.831427 152.831427 0 0 0-57.919783-10.879959H213.05736A155.199418 155.199418 0 0 0 107.969754 40.323689c-13.43995 12.351954-24.319909 26.815899-32.255879 43.199838A119.487552 119.487552 0 0 0 63.80992 136.451328v614.653695c0 18.879929 0.128 36.479863 0.511998 52.927802 0.447998 16.383939 2.55999 30.719885 6.655975 43.071838a56.191789 56.191789 0 0 0 21.43992 29.43989c10.431961 7.295973 25.599904 10.879959 45.439829 10.879959v67.711746c0 18.879929 7.423972 35.199868 22.143917 48.639818 14.719945 13.43995 32.383879 20.223924 53.183801 20.223924 20.671922 0 38.271856-6.783975 52.543803-20.223924 14.335946-13.43995 21.503919-29.631889 21.503919-48.639818v-67.711746h449.150316v67.711746c0 18.879929 7.167973 35.199868 21.503919 48.639818 14.271946 13.43995 31.87188 20.223924 52.479803 20.223924 20.735922 0 38.527856-6.783975 53.247801-20.223924a63.487762 63.487762 0 0 0 22.143917-48.639818v-67.711746c20.671922 0 36.223864-3.583987 46.655825-10.879959a55.487792 55.487792 0 0 0 21.439919-29.43989c3.903985-12.351954 5.951978-26.879899 5.951978-43.711836V136.451328c0-18.879929-4.031985-36.479863-12.031955-52.927801z m-616.957686-10.367961A40.447848 40.447848 0 0 1 357.568818 64.0036h308.478844c10.55996 0 19.519927 3.007989 26.751899 9.151966a28.095895 28.095895 0 0 1 11.007959 22.335916 28.799892 28.799892 0 0 1-11.007959 23.359912A40.447848 40.447848 0 0 1 666.047662 128.00336H357.568818a40.447848 40.447848 0 0 1-26.751899-9.151966 29.119891 29.119891 0 0 1 0-45.695828z m-29.759889 740.157224a61.43977 61.43977 0 0 1-45.18383 18.68793A62.847764 62.847764 0 0 1 191.80944 768.00096c0-17.599934 5.951978-32.703877 18.111932-45.31183A60.927772 60.927772 0 0 1 255.8092 704.0012c17.663934 0 32.767877 6.271976 45.183831 18.68793 12.607953 12.607953 18.75193 27.519897 18.751929 45.31183a61.951768 61.951768 0 0 1-18.751929 45.31183z m512.318079-0.255999a60.031775 60.031775 0 0 1-44.799832 18.943929 61.759768 61.759768 0 0 1-46.335826-18.943929A62.463766 62.463766 0 0 1 703.80752 768.00096c0-17.407935 6.143977-32.575878 18.431931-45.055831a61.759768 61.759768 0 0 1 46.335826-18.943929c17.599934 0 32.511878 6.271976 44.799832 18.943929A62.463766 62.463766 0 0 1 831.80704 768.00096a62.463766 62.463766 0 0 1-18.431931 45.055831zM895.6788 512.00192H127.80968V192.00312h767.99712v319.9988h-0.128z" fill="#B88287" p-id="7199"></path></svg>