<?xml version="1.0" encoding="UTF-8"?>
<svg width="24px" height="24px" viewBox="0 0 24 24" version="1.1" xmlns="http://www.w3.org/2000/svg" xmlns:xlink="http://www.w3.org/1999/xlink">
    <title>身份证识别 (1)</title>
    <g id="新版领证" stroke="none" stroke-width="1" fill="none" fill-rule="evenodd">
        <g id="电子证-身份信息页面" transform="translate(-126.000000, -623.000000)" fill="#0059FF" fill-rule="nonzero">
            <g id="编组-2" transform="translate(126.000000, 621.000000)">
                <g id="身份证识别-(1)" transform="translate(0.000000, 2.000000)">
                    <path d="M22.9051758,16.083939 C23.3106577,16.083939 23.6564053,16.3777801 23.7219582,16.7779281 L23.7329958,16.911759 L23.7329958,22.9051758 C23.7329958,23.3106577 23.4391547,23.6564053 23.0390067,23.7219582 L22.9051758,23.7329959 L16.8413943,23.7329959 C16.4103168,23.7332458 16.0511994,23.402634 16.0158777,22.9730061 C15.9805559,22.5433781 16.2808538,22.1585526 16.7061837,22.0883934 L16.8413943,22.0773558 L22.0773558,22.0773558 L22.0773558,16.911759 C22.0773558,16.4545666 22.4479834,16.083939 22.9051758,16.083939 L22.9051758,16.083939 Z M0.829975792,16.1101533 C1.23545774,16.1101533 1.58120526,16.4039944 1.64675817,16.8041424 L1.65779579,16.9379733 L1.65779579,22.0773558 L6.95032498,22.0773558 C7.38140248,22.0771056 7.74052001,22.4077174 7.77584178,22.8373455 C7.81116354,23.2669735 7.51086552,23.651799 7.08553557,23.7219582 L6.95032498,23.7329958 L0.829975792,23.7329958 C0.42449383,23.7329958 0.0787462984,23.4391547 0.0131933813,23.0390067 L0.00215579203,22.9051758 L0.00215579203,16.9379733 C0.00215579203,16.7184218 0.0893722916,16.5078625 0.244618656,16.3526161 C0.399865021,16.1973698 0.610424277,16.1101533 0.829975792,16.1101533 L0.829975792,16.1101533 Z M18.0762258,4.96907579 C19.2192067,4.96907579 20.1457758,5.89564489 20.1457758,7.03862579 L20.1457758,18.0762258 C20.1457758,18.4572194 19.8369194,18.7660758 19.4559258,18.7660758 L5.65892578,18.7660758 C4.51594488,18.7660758 3.58937578,17.8395067 3.58937578,16.6965258 L3.58937578,7.03862579 C3.58937578,5.89564489 4.51594488,4.96907579 5.65892578,4.96907579 L18.0762258,4.96907579 Z M18.0762258,6.34877577 L5.65892578,6.34877577 C5.47596618,6.34877577 5.30050013,6.42145619 5.17112816,6.55082817 C5.04175619,6.68020014 4.96907579,6.85566619 4.96907579,7.03862579 L4.96907579,16.6965258 C4.96907579,16.8794854 5.04175619,17.0549514 5.17112816,17.1843234 C5.30050013,17.3136954 5.47596618,17.3863758 5.65892578,17.3863758 L18.7660758,17.3863758 L18.7660758,7.03862579 C18.7660758,6.85566619 18.6933954,6.68020014 18.5640234,6.55082817 C18.4346514,6.42145619 18.2591854,6.34877577 18.0762258,6.34877577 Z M12.5574258,11.8675758 L12.5574258,13.2472758 L7.03862579,13.2472758 L7.03862579,11.8675758 L12.5574258,11.8675758 L12.5574258,11.8675758 Z M16.6965258,9.10817579 L16.6965258,10.4878758 L7.03862579,10.4878758 L7.03862579,9.10817579 L16.6965258,9.10817579 Z M6.95032498,0.00215565026 C7.38140241,0.00190572069 7.74051982,0.332517528 7.77584158,0.762145485 C7.81116334,1.19177344 7.51086543,1.57659892 7.08553557,1.64675817 L6.95032498,1.65779579 L1.65779579,1.65779579 L1.65779579,6.96412199 C1.65804597,7.39519949 1.32743413,7.75431702 0.897806097,7.78963879 C0.468178064,7.82496055 0.0833525387,7.52466253 0.0131933813,7.09933258 L0.00215579203,6.96412199 L0.00215579203,0.829975792 C0.00215579203,0.42449383 0.295996856,0.0787462984 0.696144881,0.0131933813 L0.829975792,0.00215565026 L6.95032498,0.00215565026 Z M22.9051758,0.00215579203 C23.3106577,0.00215579203 23.6564053,0.295996856 23.7219582,0.696144881 L23.7329958,0.829975792 L23.7329958,6.93100919 C23.7325288,7.36182224 23.4017128,7.72026214 22.9723189,7.75520443 C22.5429249,7.79014671 22.1585085,7.48990944 22.0883934,7.06484007 L22.0773558,6.93100919 L22.0773558,1.65779579 L16.9131387,1.65779579 C16.4820612,1.65804597 16.1229436,1.32743413 16.0876219,0.897806097 C16.0523001,0.468178064 16.3525981,0.0833525387 16.7779281,0.0131933813 L16.9131387,0.00215579203 L22.9051758,0.00215579203 Z" id="形状"></path>
                </g>
            </g>
        </g>
    </g>
</svg>