<?xml version="1.0" encoding="UTF-8"?>
<svg width="66px" height="66px" viewBox="0 0 66 66" version="1.1" xmlns="http://www.w3.org/2000/svg" xmlns:xlink="http://www.w3.org/1999/xlink">
    <title>高龄</title>
    <defs>
        <linearGradient x1="50%" y1="0%" x2="50%" y2="92.1298574%" id="linearGradient-1">
            <stop stop-color="#FFDA9B" offset="0%"></stop>
            <stop stop-color="#FFFFFF" stop-opacity="0" offset="100%"></stop>
        </linearGradient>
        <linearGradient x1="67.5652976%" y1="45.9289612%" x2="73.0360423%" y2="58.2280171%" id="linearGradient-2">
            <stop stop-color="#DA3136" stop-opacity="0" offset="0%"></stop>
            <stop stop-color="#DA3136" stop-opacity="0.5" offset="100%"></stop>
        </linearGradient>
        <linearGradient x1="50%" y1="16.2796924%" x2="50%" y2="100%" id="linearGradient-3">
            <stop stop-color="#FF8020" offset="0%"></stop>
            <stop stop-color="#FF5318" offset="100%"></stop>
        </linearGradient>
        <linearGradient x1="30.5887004%" y1="100%" x2="30.5887004%" y2="50%" id="linearGradient-4">
            <stop stop-color="#FF9262" offset="0%"></stop>
            <stop stop-color="#FFBA6A" offset="100%"></stop>
        </linearGradient>
    </defs>
    <g id="页面-1" stroke="none" stroke-width="1" fill="none" fill-rule="evenodd">
        <g id="首页5版备份-12" transform="translate(-194.000000, -611.000000)" fill-rule="nonzero">
            <g id="编组-4" transform="translate(16.000000, 557.000000)">
                <g id="编组-28备份" transform="translate(178.000000, 53.000000)">
                    <g id="高龄" transform="translate(0.000000, 1.000000)">
                        <rect id="矩形" fill="#FFFFFF" opacity="0" x="0" y="0" width="65.6228571" height="65.6228571"></rect>
                        <g id="编组" transform="translate(0.000000, 19.045714)">
                            <path d="M65.6228571,36.1114286 C65.6228571,27.2070205 50.9326801,19.9885714 32.8114286,19.9885714 C14.6901769,19.9885714 0,27.2070205 0,36.1114286 C0,45.0158367 65.6228571,45.0158367 65.6228571,36.1114286 Z" id="椭圆形备份" fill="url(#linearGradient-1)"></path>
                            <g id="编组-2" transform="translate(10.560000, 0.000000)">
                                <polygon id="矩形" fill="url(#linearGradient-2)" points="0 22.0628571 9.96364041 22.0628571 19.9885714 30.1714286 10.1412205 29.7994871"></polygon>
                                <path d="M17.8108804,-2.23313431e-14 C17.8108804,1.67618188 19.1635234,3.03499578 20.8320932,3.03499578 C22.5006629,3.03499578 23.853306,1.67618188 23.853306,-2.23313431e-14 L31.7638095,-2.23313431e-14 C32.5969705,-2.23313431e-14 33.272381,0.675410434 33.272381,1.50857143 L33.272381,28.6628571 C33.272381,29.4960181 32.5969705,30.1714286 31.7638095,30.1714286 L23.853306,30.1714286 L23.853306,30.1714286 C23.853306,28.4952467 22.5006629,27.1364327 20.8320932,27.1364327 C19.1635234,27.1364327 17.8108804,28.4952467 17.8108804,30.1714286 L10.0780952,30.1714286 C9.24493424,30.1714286 8.56952381,29.4960181 8.56952381,28.6628571 L8.56952381,1.50857143 C8.56952381,0.675410434 9.24493424,-2.23313431e-14 10.0780952,-2.23313431e-14 L17.8108804,-2.23313431e-14 L17.8108804,-2.23313431e-14 Z" id="形状结合备份-3" fill="url(#linearGradient-3)"></path>
                                <path d="M23.0111408,3.03499578 C24.6797106,3.03499578 26.0323536,1.67618188 26.0323536,0 L33.9428571,0 C34.7760181,0 35.4514286,0.675410434 35.4514286,1.50857143 L35.4514286,28.6628571 C35.4514286,29.4960181 34.7760181,30.1714286 33.9428571,30.1714286 L26.0323536,30.1714286 C26.0323536,28.4952467 24.6797106,27.1364327 23.0111408,27.1364327 C21.342571,27.1364327 19.989928,28.4952467 19.989928,30.1714286 L12.2571429,30.1714286 C11.4239819,30.1714286 10.7485714,29.4960181 10.7485714,28.6628571 L10.7485714,1.50857143 C10.7485714,0.675410434 11.4239819,0 12.2571429,0 L19.989928,0 C19.989928,1.67618188 21.342571,3.03499578 23.0111408,3.03499578 Z" id="形状结合" fill="url(#linearGradient-4)"></path>
                                <polygon id="￥备份" fill="#FFFFFF" points="24.0271972 20.7428571 24.0271972 18.2940696 26.7288582 18.2940696 26.7288582 17.2952221 24.0271972 17.2952221 24.0271972 15.9097239 24.0431834 15.8936134 26.7288582 15.8936134 26.7288582 14.8947659 24.6026989 14.8947659 27.72 9.24 25.6098271 9.24 23.1 14.1859064 20.5901729 9.24 18.48 9.24 21.5973011 14.8947659 19.4871279 14.8947659 19.4871279 15.8936134 22.1568166 15.8936134 22.1728028 15.9097239 22.1728028 17.2952221 19.4871279 17.2952221 19.4871279 18.2940696 22.1728028 18.2940696 22.1728028 20.7428571"></polygon>
                            </g>
                        </g>
                    </g>
                </g>
            </g>
        </g>
    </g>
</svg>