<?xml version="1.0" encoding="UTF-8"?>
<svg width="16px" height="18px" viewBox="0 0 16 18" version="1.1" xmlns="http://www.w3.org/2000/svg" xmlns:xlink="http://www.w3.org/1999/xlink">
    <title>形状</title>
    <defs>
        <linearGradient x1="50%" y1="0%" x2="50%" y2="100%" id="linearGradient-1">
            <stop stop-color="#FF7936" offset="0%"></stop>
            <stop stop-color="#FF5121" offset="100%"></stop>
        </linearGradient>
        <path d="M129,79.3078542 C129,80.8039676 129.466574,82.2439676 130.33924,83.454413 C130.382441,83.5272875 130.427083,83.597247 130.478924,83.665749 L136.01085,89.7500405 C136.161335,89.9103644 136.363661,90 136.579667,90 C136.792794,90 136.99584,89.9103644 137.171525,89.7201619 L142.67825,83.6650202 C142.732252,83.5950607 142.779053,83.5192712 142.804254,83.4740891 C143.68282,82.266942 144.157116,80.8071533 144.157895,79.3078542 C144.158615,75.2778947 140.758673,72 136.579667,72 C132.399222,72 129,75.2786235 129,79.3078542 Z M136.578947,81.9211336 C135.086342,81.9204049 133.875266,80.7522267 133.871666,79.3100405 C133.911267,77.8940891 135.111543,76.7652632 136.578947,76.7652632 C138.046351,76.7652632 139.246627,77.8940891 139.286228,79.3100405 C139.282628,80.7522267 138.071552,81.9189474 136.578947,81.9204049 L136.578947,81.9211336 Z" id="path-2"></path>
    </defs>
    <g id="页面-1" stroke="none" stroke-width="1" fill="none" fill-rule="evenodd">
        <g id="首页5版备份-12" transform="translate(-145.000000, -1053.000000)" fill-rule="nonzero">
            <g id="编组-4备份" transform="translate(16.000000, 786.000000)">
                <g id="形状" transform="translate(0.000000, 195.000000)">
                    <use fill="#FF5500" xlink:href="#path-2"></use>
                    <use fill="url(#linearGradient-1)" xlink:href="#path-2"></use>
                </g>
            </g>
        </g>
    </g>
</svg>