<?xml version="1.0" encoding="UTF-8"?>
<svg width="165px" height="22px" viewBox="0 0 165 22" version="1.1" xmlns="http://www.w3.org/2000/svg" xmlns:xlink="http://www.w3.org/1999/xlink">
    <title>编组 17</title>
    <defs>
        <linearGradient x1="50%" y1="0%" x2="50%" y2="100%" id="linearGradient-1">
            <stop stop-color="#FF7936" offset="0%"></stop>
            <stop stop-color="#FF5121" offset="100%"></stop>
        </linearGradient>
    </defs>
    <g id="页面-1" stroke="none" stroke-width="1" fill="none" fill-rule="evenodd">
        <g id="首页5版备份-12" transform="translate(-26.000000, -233.000000)">
            <g id="编组-19" transform="translate(16.000000, 216.000000)">
                <g id="编组-17" transform="translate(10.658828, 17.871241)">
                    <g id="编组-20" transform="translate(0.862090, 0.000000)">
                        <path d="M10.1268054,18.5573793 L11.4832941,18.4344828 C12.0406608,18.3798621 12.4922734,18.3081724 12.8381322,18.2194138 C13.1839909,18.1306552 13.4652084,17.9906897 13.6817847,17.7995172 C13.8983611,17.6083448 14.0701551,17.3523103 14.1971669,17.0314138 C14.3241786,16.7105172 14.4392983,16.2974483 14.5425259,15.7922069 L14.7475862,14.7885517 L18.1272414,14.7885517 L18.5248072,12.8426897 L15.145152,12.8426897 L15.2790689,12.1872414 L17.0610689,12.1872414 L18.7141057,4.09655172 L14.2488643,4.09655172 L14.4037057,3.33868966 L19.7701885,3.33868966 L20.1551996,1.45427586 L16.1815444,1.45427586 L17.0387516,0.266275862 L14.335911,0.0614482759 L13.4573375,1.45427586 L10.1596134,1.45427586 L9.99775103,0.0409655172 L7.14976407,0.245793103 L7.41492374,1.45427586 L3.48223409,1.45427586 L3.09722299,3.33868966 L8.32032644,3.33868966 L8.16548502,4.09655172 L3.8641057,4.09655172 L2.21106892,12.1872414 L12.9440344,12.1872414 L12.8101175,12.8426897 L0.397565809,12.8426897 L2.48689958e-13,14.7885517 L4.07606897,14.7885517 L3.4584939,15.5054483 C3.67917759,15.6283448 3.92702436,15.7853793 4.20203423,15.9765517 C4.4770441,16.1677241 4.74926403,16.3725517 5.01869403,16.5910345 C5.28812403,16.8095172 5.54459634,17.0245862 5.78811096,17.2362414 C6.03162558,17.4478966 6.24448969,17.6424828 6.42670328,17.82 L7.87219117,16.0584828 C7.65180199,15.8673103 7.38982344,15.6624828 7.08625551,15.444 C6.78268758,15.2255172 6.46205069,15.0070345 6.12434483,14.7885517 L12.4125517,14.7885517 L12.3204839,15.2391724 C12.2479455,15.5942069 12.1492361,15.8434138 12.0243556,15.9867931 C11.899475,16.1301724 11.6416775,16.2223448 11.2509628,16.2633103 L9.89028919,16.4066897 L10.1268054,18.5573793 Z M12.0572092,4.09655172 L10.3161747,4.09655172 L10.4710161,3.33868966 L12.2120506,3.33868966 L12.0572092,4.09655172 Z M6.14710714,8.5617931 L5.18441749,8.5617931 L5.73682471,5.85806897 L7.7236523,5.85806897 C7.56389758,6.17213793 7.31971639,6.43158621 6.99110874,6.63641379 C6.66250108,6.84124138 6.16863639,7.05289655 5.50951467,7.27137931 L6.14710714,8.5617931 Z M15.5691761,8.5617931 L7.23269335,8.5617931 C7.65130734,8.38427586 8.0105655,8.19651724 8.31046784,7.99851724 C8.61037018,7.80051724 8.86457187,7.59227586 9.07307291,7.3737931 C9.28157395,7.15531034 9.45531319,6.92317241 9.59429065,6.67737931 C9.73326811,6.43158621 9.84710131,6.15848276 9.93579023,5.85806897 L11.6973075,5.85806897 L11.6261641,6.20627586 C11.5508359,6.57496552 11.5235952,6.87537931 11.5444422,7.10751724 C11.5652891,7.33965517 11.6375639,7.52058621 11.7612664,7.65031034 C11.8849689,7.78003448 12.0641368,7.8722069 12.2987702,7.92682759 C12.5334035,7.98144828 12.8282375,8.00875862 13.1832719,8.00875862 L15.6821685,8.00875862 L15.5691761,8.5617931 Z M15.9918513,6.49303448 L14.5170927,6.49303448 C14.2166789,6.49303448 14.0318575,6.44524138 13.9626284,6.34965517 C13.8933993,6.25406897 13.8688441,6.0902069 13.8889626,5.85806897 L16.1215833,5.85806897 L15.9918513,6.49303448 Z M15.1590556,10.5691034 L4.77429697,10.5691034 L4.88728935,10.016069 L15.272048,10.016069 L15.1590556,10.5691034 Z M26.2346235,18.5164138 C28.3670313,18.6393103 30.5313761,18.6393103 32.727658,18.5164138 C33.3368553,18.4754483 33.8444101,18.414 34.2503221,18.332069 C34.6562341,18.2501379 34.9982024,18.1135862 35.276227,17.9224138 C35.5542517,17.7312414 35.7916053,17.4717931 35.9882879,17.144069 C36.1849704,16.8163448 36.3909412,16.3930345 36.6062001,15.8741379 C36.7166195,15.6010345 36.7988102,15.3825517 36.8527722,15.2186897 C36.9067342,15.0548276 36.9710848,14.8568276 37.0458241,14.6246897 L34.7105805,13.7234483 C34.6578662,13.9146207 34.5948369,14.1228621 34.5214927,14.3481724 C34.4481484,14.5734828 34.367279,14.8022069 34.2788846,15.0343448 C34.1904902,15.2664828 34.1084467,15.4508276 34.0327543,15.5873793 C33.9570618,15.723931 33.8630527,15.8331724 33.7507269,15.9151034 C33.6384011,15.9970345 33.4968197,16.055069 33.3259828,16.0892069 C33.1551459,16.1233448 32.9386083,16.1472414 32.6763701,16.1608966 C31.7912793,16.2155172 30.9192935,16.2394138 30.0604126,16.2325862 C29.2015317,16.2257586 28.3393106,16.2018621 27.4737494,16.1608966 C27.0395738,16.1472414 26.7715,16.0892069 26.669528,15.9867931 C26.567556,15.8843793 26.5474065,15.6488276 26.6090796,15.2801379 C27.3445525,15.0889655 28.1265707,14.8704828 28.9551344,14.6246897 C29.7836981,14.3788966 30.6191629,14.1160345 31.461529,13.8361034 C32.3038951,13.5561724 33.1305872,13.2694138 33.9416053,12.9758276 C34.7526234,12.6822414 35.5151509,12.392069 36.2291878,12.1053103 L35.7067965,9.7497931 C35.0774806,10.0228966 34.4058042,10.3028276 33.6917672,10.5895862 C32.9777303,10.8763448 32.2480194,11.1562759 31.5026345,11.4293793 C30.7572496,11.7024828 30.0112408,11.961931 29.2646082,12.2077241 C28.5179755,12.4535172 27.7960106,12.6788276 27.0987132,12.8836552 L27.194966,12.4125517 C28.2487703,11.8663448 29.2514414,11.303069 30.2029792,10.7227241 C31.1545169,10.1423793 32.061749,9.54496552 32.9246754,8.93048276 L39.0285375,8.93048276 L39.526541,6.49303448 L35.962541,6.49303448 C37.2703688,5.30503448 38.4884848,4.02144828 39.616889,2.64227586 L37.79218,1.14703448 C37.0205774,2.11655172 36.1768085,3.03827586 35.2608733,3.9122069 L35.5705561,2.39648276 L31.7812458,2.39648276 L32.1662569,0.512068966 L29.422009,0.409655172 L29.0160734,2.39648276 L25.226763,2.39648276 L24.7580539,4.69055172 L28.5473642,4.69055172 L28.1790927,6.49303448 L22.3210237,6.49303448 L21.8230203,8.93048276 L28.6232961,8.93048276 C26.0384849,10.4871724 23.227999,11.8117241 20.1918387,12.9041379 L20.7589386,15.3415862 C21.3826747,15.0957931 21.9866255,14.8465862 22.5707911,14.5939655 C23.1549566,14.3413448 23.732992,14.0853103 24.3048973,13.8258621 L23.9282561,15.6693103 C23.8166586,16.2155172 23.7764951,16.6627241 23.8077656,17.010931 C23.839036,17.3591379 23.9484207,17.6424828 24.1359197,17.8609655 C24.3234186,18.0794483 24.5917482,18.2364828 24.9409083,18.332069 C25.2900684,18.4276552 25.7213068,18.4891034 26.2346235,18.5164138 Z M30.9442651,6.49303448 L31.3125366,4.69055172 L34.4259159,4.69055172 C34.0749888,5.00462069 33.718629,5.31186207 33.3568367,5.61227586 C32.9950443,5.91268966 32.6209917,6.20627586 32.2346789,6.49303448 L30.9442651,6.49303448 Z" id="尊老" fill="#FF5000" fill-rule="nonzero"></path>
                        <path d="M40.6769444,19.008 C43.0282846,18.3935172 44.9720621,17.7687931 46.5082769,17.1338276 C48.0444916,16.4988621 49.3019146,15.758069 50.2805458,14.9114483 C50.8119195,15.1845517 51.358196,15.4849655 51.9193755,15.8126897 C52.480555,16.1404138 53.0266843,16.4749655 53.5577635,16.8163448 C54.0888427,17.1577241 54.5905928,17.4922759 55.0630136,17.82 C55.5354345,18.1477241 55.9417456,18.4481379 56.2819469,18.7212414 L57.9474676,16.2837931 C57.6097617,16.0653103 57.207341,15.8126897 56.7402056,15.525931 C56.2730701,15.2391724 55.7773029,14.9421724 55.252904,14.634931 C54.7285052,14.3276897 54.1904511,14.0204483 53.6387419,13.7132069 C53.0870327,13.4059655 52.5577514,13.1226207 52.0508981,12.8631724 C52.1113932,12.7675862 52.167777,12.6754138 52.2200495,12.5866552 C52.272322,12.4978966 52.3218782,12.4057241 52.3687181,12.3101379 L58.3701664,12.3101379 L58.863985,9.89317241 L53.4360539,9.89317241 C53.6075574,9.38793103 53.7668743,8.8587931 53.9140046,8.30575862 C54.061135,7.75272414 54.2139188,7.15531034 54.3723561,6.51351724 C54.4362301,6.26772414 54.5287009,5.88196552 54.6497686,5.35624138 C54.7708363,4.83051724 54.8954651,4.27065517 55.0236548,3.67665517 C55.1518446,3.08265517 55.2792633,2.50913793 55.4059109,1.95610345 C55.5325584,1.40306897 55.6251765,0.983172414 55.6837652,0.696413793 L53.1485298,0.573517241 C53.092731,0.84662069 53.0042978,1.24603448 52.8832302,1.77175862 C52.7621625,2.29748276 52.6403237,2.84368966 52.5177138,3.41037931 C52.3951038,3.97706897 52.2753575,4.51303448 52.1584747,5.01827586 C52.0415919,5.52351724 51.9512135,5.89903448 51.8873395,6.14482759 C51.7093727,6.8822069 51.5330216,7.56155172 51.3582865,8.18286207 C51.1835513,8.80417241 50.9953818,9.37427586 50.7937781,9.89317241 L47.9671574,9.89317241 L46.8815712,9.89317241 L41.9042608,9.89317241 L41.4104423,12.3101379 L49.4601664,12.3101379 C49.056525,12.8153793 48.5835073,13.2591724 48.0411132,13.6415172 C47.4987191,14.0238621 46.8540586,14.372069 46.1071314,14.6861379 C45.3602043,15.0002069 44.4979793,15.2937931 43.5204564,15.5668966 C42.5429336,15.84 41.4103951,16.119931 40.1228409,16.4066897 L40.6769444,19.008 Z M62.2004658,10.4052414 C63.8703648,10.1184828 65.4332622,9.78734483 66.8891578,9.41182759 C68.3450534,9.03631034 69.7363079,8.60958621 71.0629211,8.13165517 C73.0965032,9.00558621 75.6934735,9.69517241 78.8538321,10.2004138 L79.9328391,7.92682759 C78.8658293,7.73565517 77.8807504,7.54448276 76.9776026,7.35331034 C76.0744548,7.16213793 75.2164575,6.95048276 74.4036105,6.71834483 C75.99364,5.95365517 77.491315,5.07289655 78.8966354,4.07606897 L79.3820842,1.70006897 L70.9227049,1.70006897 C71.0899459,1.54986207 71.2510568,1.39624138 71.4060376,1.2392069 C71.5610184,1.08217241 71.7153018,0.928551724 71.8688876,0.778344828 L69.3856381,0 C69.0372064,0.368689655 68.6155428,0.778344828 68.1206473,1.22896552 C67.6257519,1.67958621 67.0898909,2.1302069 66.5130644,2.58082759 C65.9362379,3.03144828 65.3417186,3.46841379 64.7295065,3.89172414 C64.1172943,4.31503448 63.5250883,4.69055172 62.9528885,5.01827586 L63.8983732,7.10751724 C64.3911374,6.83441379 64.8676038,6.54082759 65.3277723,6.22675862 C65.7879408,5.91268966 66.2426767,5.5917931 66.69198,5.26406897 C66.9558301,5.50986207 67.2210752,5.74882759 67.4877153,5.98096552 C67.7543554,6.21310345 68.0442681,6.43158621 68.3574536,6.63641379 C67.4277238,6.90951724 66.4359219,7.16896552 65.3820479,7.41475862 C64.3281739,7.66055172 63.2095851,7.8722069 62.0262814,8.04972414 L62.2004658,10.4052414 Z M71.504103,5.57131034 C71.0462905,5.33917241 70.6111269,5.07972414 70.1986121,4.79296552 C69.7860973,4.5062069 69.3907987,4.18531034 69.0127163,3.83027586 L75.4443026,3.83027586 C74.9735633,4.06241379 74.4098069,4.33210345 73.7530334,4.63934483 C73.0962598,4.94658621 72.3466164,5.25724138 71.504103,5.57131034 Z M69.5925565,9.01241379 L72.0500458,9.11482759 L71.7863969,10.4052414 L78.2794314,10.4052414 L77.7814279,12.8426897 L73.6643934,12.8426897 C73.9722935,13.0065517 74.3434398,13.2284483 74.7778323,13.5083793 C75.2122248,13.7883103 75.6540688,14.0818966 76.1033642,14.3891379 C76.5526597,14.6963793 76.9828673,14.9967931 77.3939871,15.2903793 C77.8051069,15.5839655 78.1467768,15.8331724 78.4189968,16.038 L78.4189968,16.038 L76.6352061,18.3525517 C76.3468356,18.0931034 75.9897126,17.7858621 75.5638371,17.4308276 C75.1379617,17.0757931 74.7011473,16.7241724 74.2533941,16.3759655 C73.8056409,16.0277586 73.367358,15.7000345 72.9385454,15.3927931 C72.5097327,15.0855517 72.1427713,14.8431724 71.8376611,14.6656552 L71.8376611,14.6656552 L73.3366693,12.8426897 L71.2883934,12.8426897 L70.698322,15.7307586 C70.5950944,16.236 70.4669434,16.6627241 70.313869,17.010931 C70.1607946,17.3591379 69.9656543,17.6458966 69.7284479,17.8712069 C69.4912416,18.0965172 69.2071605,18.2672069 68.8762047,18.3832759 C68.5452488,18.4993448 68.1502757,18.5778621 67.6912852,18.6188276 L67.6912852,18.6188276 L65.9824046,18.7622069 L65.7551418,16.3657241 L67.0953326,16.2223448 C67.4450818,16.1813793 67.7234357,16.0721379 67.9303945,15.8946207 C68.1373534,15.7171034 68.2840768,15.4166897 68.3705648,14.9933793 L68.3705648,14.9933793 L68.8099796,12.8426897 L65.9219106,12.8426897 L66.9473503,14.4403448 C66.0947001,15.2050345 65.1391595,15.921931 64.0807285,16.5910345 C63.0222975,17.2601379 61.8839543,17.936069 60.665699,18.6188276 L60.665699,18.6188276 L59.8072137,16.3042759 C60.8386985,15.8673103 61.8534825,15.345 62.8515657,14.7373448 C63.8496489,14.1296897 64.743373,13.4981379 65.5327382,12.8426897 L65.5327382,12.8426897 L62.0506693,12.8426897 L62.5486727,10.4052414 L69.3079831,10.4052414 L69.5925565,9.01241379 Z M50.2721858,0.783931034 L48.4101168,4.50806897 L51.2032203,4.50806897 L44.6859789,9.16324138 L46.5480479,5.43910345 L43.7549444,5.43910345 L50.2721858,0.783931034 Z" id="头条" fill="#333333" fill-rule="nonzero"></path>
                        <polygon id="路径-12" fill="#FF5000" points="50.2721858 0.783931034 43.7549444 5.43910345 46.5480479 5.43910345 44.6859789 9.16324138 51.2032203 4.50806897 48.4101168 4.50806897"></polygon>
                    </g>
                    <g id="编组-16" transform="translate(81.341172, 0.128759)">
                        <path d="M19.0007672,0 L72,0 C77.5228475,3.38577616e-15 82,4.4771525 82,10 C82,15.5228475 77.5228475,20 72,20 L19.0007672,20 C17.5603441,20 16.1466417,19.6110963 14.9088964,18.8743431 L5.77444818,13.4371715 C3.87615076,12.3072326 3.25327314,9.85236198 4.38321208,7.95406456 C4.72389301,7.3817206 5.20210423,6.90350939 5.77444818,6.56282846 L14.9088964,1.12565692 C16.1466417,0.388903745 17.5603441,-1.5117554e-15 19.0007672,0 Z" id="矩形" fill="url(#linearGradient-1)"></path>
                        <text id="边听边看" font-family="PingFangSC-Regular, PingFang SC" font-size="14" font-weight="normal" fill="#FFFFFF">
                            <tspan x="18" y="15">边听边看</tspan>
                        </text>
                        <circle id="椭圆形" fill="#FFFFFF" cx="8" cy="10" r="2"></circle>
                    </g>
                </g>
            </g>
        </g>
    </g>
</svg>