<?xml version="1.0" encoding="UTF-8"?>
<svg width="66px" height="66px" viewBox="0 0 66 66" version="1.1" xmlns="http://www.w3.org/2000/svg" xmlns:xlink="http://www.w3.org/1999/xlink">
    <title>优待说明</title>
    <defs>
        <linearGradient x1="50%" y1="0%" x2="50%" y2="92.1298574%" id="linearGradient-1">
            <stop stop-color="#FFDA9B" offset="0%"></stop>
            <stop stop-color="#FFFFFF" stop-opacity="0" offset="100%"></stop>
        </linearGradient>
        <linearGradient x1="50.0018474%" y1="99.9964289%" x2="50.0018474%" y2="0.000375594711%" id="linearGradient-2">
            <stop stop-color="#C2CFDD" offset="11.19%"></stop>
            <stop stop-color="#DAE0E8" offset="92.05%"></stop>
        </linearGradient>
        <linearGradient x1="50%" y1="16.2796924%" x2="50%" y2="100%" id="linearGradient-3">
            <stop stop-color="#FF8020" offset="0%"></stop>
            <stop stop-color="#FF5318" offset="100%"></stop>
        </linearGradient>
        <path d="M4.46567647,12.8107941 C5.86526471,12.8166176 6.24573529,13.1349706 6.24961765,14.3569412 C6.25932353,17.3405294 6.25252941,20.3241176 6.25252941,23.3077059 C6.25252941,26.2340294 6.25835294,29.1603529 6.25058824,32.0876471 C6.24670588,33.4387059 5.87691176,33.7376471 4.27155882,33.7386176 C3.46014706,33.7386176 2.64776471,33.7531765 1.83635294,33.7347353 C0.749294118,33.7095 0.0533823529,33.1504412 0.0504705882,32.2254706 C0.0349411765,26.2573235 0.0359117647,20.5813235 0.0465882353,14.6131765 C0.0485294118,13.6891765 0.715323529,12.8496176 1.82761765,12.8175882 C2.706,12.7923529 3.58632353,12.8078824 4.46567647,12.8107941 Z M19.3535294,0.0155294118 C21.9653824,0.508588235 22.7234118,2.36726471 22.7457353,4.70832353 C22.7748529,7.85982353 21.9411176,10.7560588 20.0484706,13.3145294 C19.9417059,13.4591471 19.8737647,13.6319118 19.7233235,13.9133824 L20.7540882,13.9133824 L20.7540882,13.9133824 C23.7939706,13.9133824 26.8328824,13.8997941 29.8727647,13.9192059 C32.0362059,13.9327941 33.1145294,15.3032647 32.6408824,17.3842059 L32.3108824,18.7760294 L32.3108824,18.7760294 C31.3616471,22.8457059 30.4318235,26.9192647 29.4573529,30.9831176 C29.0167059,32.8175294 27.9529412,33.6046765 26.0748529,33.6056471 C21.0375,33.6085588 15.9991765,33.6134118 10.9618235,33.6027353 C8.78964706,33.5978824 7.58514706,32.3642647 7.58320588,30.1794706 C7.58029412,25.311 7.63561765,20.4405882 7.55117647,15.5740588 C7.52302941,13.9745294 8.07626471,12.9806471 9.4215,12.1294412 C12.1527353,10.4017941 14.0948824,8.02870588 14.6995588,4.73452941 C14.8102059,4.12985294 14.9965588,3.53585294 15.1780588,2.94670588 C15.6332647,1.47044118 16.4922353,0.413470588 18.1237941,0.180529412 C18.2577353,0.161117647 18.3819706,0.0718235294 18.5091176,0.0155294118 L19.3535294,0.0155294118 L19.3535294,0.0155294118 Z" id="path-4"></path>
        <linearGradient x1="9.38280424%" y1="14.5401815%" x2="73.2624961%" y2="101.651265%" id="linearGradient-5">
            <stop stop-color="#EBEEF2" offset="8.84%"></stop>
            <stop stop-color="#D2D9E3" offset="100%"></stop>
        </linearGradient>
        <linearGradient x1="30.5887004%" y1="100%" x2="30.5887004%" y2="50%" id="linearGradient-6">
            <stop stop-color="#FF9262" offset="0%"></stop>
            <stop stop-color="#FFBA6A" offset="100%"></stop>
        </linearGradient>
        <path d="M4.83644118,14.1686471 C5.94679412,14.1735 6.24767647,14.4714706 6.25155882,15.6138529 C6.25835294,18.4042941 6.2535,21.1947353 6.2535,23.9851765 C6.2535,26.7222353 6.25738235,29.4583235 6.25155882,32.1953824 C6.24864706,33.4590882 5.95552941,33.7376471 4.68211765,33.7386176 C4.03861765,33.7386176 3.39414706,33.7522059 2.75064706,33.7347353 C1.88876471,33.7104706 1.3365,33.1882941 1.33455882,32.3235 C1.32194118,26.7426176 1.32291176,21.1627059 1.33164706,15.5818235 C1.33261765,14.718 1.66844118,14.2045588 2.54973529,14.1744706 C3.24661765,14.1502059 4.13858824,14.1647647 4.83644118,14.1686471 Z M19.9659706,1.54905882 C22.4584412,2.01979412 23.1825,3.79402941 23.2028824,6.02735294 C23.2310294,9.03423529 22.4341765,11.7994412 20.6288824,14.2404706 C20.5269706,14.3782941 20.4629118,14.5432941 20.3182941,14.8121471 L21.3024706,14.8121471 L21.3024706,14.8121471 C24.2035588,14.8121471 27.1036765,14.7995294 30.0047647,14.817 C32.0692059,14.8296176 33.099,16.1379706 32.6467059,18.1237941 C32.5457647,18.5673529 32.4351176,19.0089706 32.3312647,19.4515588 C31.4257059,23.3348824 30.5385882,27.2230588 29.6077941,31.1015294 C29.1875294,32.8524706 28.1722941,33.6027353 26.3796176,33.6037059 C21.5722941,33.6056471 16.764,33.6114706 11.9566765,33.6007941 C9.8835,33.5959412 8.73335294,32.4186176 8.73238235,30.3337941 C8.72947059,25.6875882 8.78285294,21.0394412 8.70229412,16.3942059 C8.67608824,14.8674706 9.20311765,13.9192059 10.4872059,13.1068235 C13.0942059,11.4577941 14.9470588,9.19341176 15.5235882,6.04967647 C15.6293824,5.47217647 15.807,4.90632353 15.9807353,4.34338235 C16.4155588,2.93408824 17.2347353,1.92564706 18.7925294,1.70338235 C18.9196765,1.68785294 19.0371176,1.60244118 19.1594118,1.54905882 L19.9659706,1.54905882 L19.9659706,1.54905882 Z" id="path-7"></path>
    </defs>
    <g id="页面-1" stroke="none" stroke-width="1" fill="none" fill-rule="evenodd">
        <g id="首页5版备份-12" transform="translate(-194.000000, -691.000000)" fill-rule="nonzero">
            <g id="编组-4" transform="translate(16.000000, 557.000000)">
                <g id="编组-28备份-3" transform="translate(178.000000, 133.000000)">
                    <g id="优待说明" transform="translate(0.000000, 1.000000)">
                        <rect id="矩形" fill="#FFFFFF" opacity="0" x="0" y="0" width="65.6228571" height="65.6228571"></rect>
                        <g id="编组" transform="translate(0.000000, 13.045714)">
                            <path d="M65.6228571,42.1114286 C65.6228571,33.2070205 50.9326801,25.9885714 32.8114286,25.9885714 C14.6901769,25.9885714 0,33.2070205 0,42.1114286 C0,51.0158367 65.6228571,51.0158367 65.6228571,42.1114286 Z" id="椭圆形备份" fill="url(#linearGradient-1)"></path>
                            <g transform="translate(17.000000, 0.000000)">
                                <g id="路径-5">
                                    <use fill="url(#linearGradient-2)" xlink:href="#path-4"></use>
                                    <use fill="url(#linearGradient-3)" xlink:href="#path-4"></use>
                                </g>
                                <g id="路径-7">
                                    <use fill="url(#linearGradient-5)" xlink:href="#path-7"></use>
                                    <use fill="url(#linearGradient-6)" xlink:href="#path-7"></use>
                                </g>
                            </g>
                        </g>
                    </g>
                </g>
            </g>
        </g>
    </g>
</svg>