<?xml version="1.0" encoding="UTF-8"?>
<svg width="36px" height="39px" viewBox="0 0 36 39" version="1.1" xmlns="http://www.w3.org/2000/svg" xmlns:xlink="http://www.w3.org/1999/xlink">
    <title>编组 52</title>
    <g id="页面-1" stroke="none" stroke-width="1" fill="none" fill-rule="evenodd">
        <g id="首页5版备份-12" transform="translate(-308.000000, -486.000000)" fill-rule="nonzero" stroke="#FF6E30" stroke-width="2">
            <g id="编组-50" transform="translate(141.000000, 465.000000)">
                <g id="地图-(2)" transform="translate(168.000000, 22.000000)">
                    <path d="M16.2820333,20.4362667 C16.6843666,20.8193334 17.3133666,20.8216 17.7157,20.4391 C20.3019667,17.9826 25.3203667,13.4192333 25.3203667,8.3266 C25.3203667,3.73093332 21.5951,0.00566667773 17,0.00566667773 C12.4049,0.00566667773 8.67963332,3.73093332 8.67963332,8.32603332 C8.67963332,13.4356666 13.6334333,17.9157333 16.2820333,20.4362667 L16.2820333,20.4362667 Z M17,5.20256668 C18.1260346,5.18740041 19.1730846,5.77944455 19.7405256,6.75217001 C20.3079665,7.72489546 20.3079665,8.9277379 19.7405256,9.90046335 C19.1730846,10.8731888 18.1260346,11.4652329 17,11.4500667 C15.2912072,11.4270514 13.9180397,10.0352644 13.9180397,8.32631668 C13.9180397,6.61736891 15.2912072,5.22558197 17,5.20256668 Z" id="形状"></path>
                    <path d="M33.8889333,30.0225667 L30.4084667,18.9878667 C30.0955775,17.9957083 29.1753258,17.3213 28.135,17.3213 L25.4376667,17.3213 C23.6713667,20.1778667 21.2041,22.5238667 19.5607667,24.0799333 L19.2763,24.3496667 C18.662745,24.9338848 17.8477738,25.2593862 17.0005667,25.2586 C16.1507006,25.2591257 15.3333564,24.9319444 14.7186,24.3451333 L14.3882333,24.0312 C12.6553666,22.3884333 10.2504333,20.0996667 8.53343332,17.3213 L5.64796668,17.3213 C4.59760788,17.3213 3.67098591,18.008656 3.36656668,19.0139333 L0.1054,29.7828667 C-0.431233322,31.5548333 1.16903332,33.235 2.9648,32.7862 L10.3173,30.9479333 C11.0175204,30.7728959 11.7593407,30.924594 12.3346333,31.3604667 L18.1645,35.7770667 C18.7467891,36.2183435 19.4993343,36.3681006 20.2062,36.1833667 L32.2178333,33.0457333 C32.8495749,32.880853 33.3860182,32.4640304 33.7018768,31.8926143 C34.0177355,31.3211983 34.0853515,30.6452246 33.8889333,30.0225667 L33.8889333,30.0225667 Z" id="路径"></path>
                </g>
            </g>
        </g>
    </g>
</svg>