<?xml version="1.0" encoding="UTF-8"?>
<svg width="29px" height="35px" viewBox="0 0 29 35" version="1.1" xmlns="http://www.w3.org/2000/svg" xmlns:xlink="http://www.w3.org/1999/xlink">
    <title>编组 6</title>
    <g id="页面-1" stroke="none" stroke-width="1" fill="none" fill-rule="evenodd" stroke-linejoin="round">
        <g id="首页5版备份-12" transform="translate(-87.000000, -488.000000)" stroke="#FF6E30" stroke-width="2">
            <g id="编组-6" transform="translate(89.000000, 490.000000)">
                <path d="M16.3778435,26.2700119 C16.7192866,27.8684504 16.2206362,29.3285447 15.249646,30.307104 C14.4828614,31.0798659 13.4188509,31.5555556 12.2251069,31.5555556 C11.0313628,31.5555556 9.96735236,31.0798659 9.20056781,30.307104 C8.22957755,29.3285446 7.7309272,27.8684504 8.07237029,26.2700119 L8.07237029,26.2700119 Z M12.2230693,-1 C13.4273175,-1 14.5275379,-0.539742283 15.3485019,0.212406424 C16.0280988,0.835037837 16.5161512,1.6572333 16.7169479,2.58471968 C18.6033865,3.44513686 20.2038116,4.81818339 21.3569165,6.50321927 C22.605815,8.32823856 23.3294723,10.5178254 23.3294723,12.8136201 L23.3294723,12.8136201 L23.3294723,18.9802459 L25.1937008,23.2368129 C25.5788113,24.0406757 25.5048122,25.1458512 24.9981121,25.9628131 C24.4727418,26.792982 23.5598739,27.2903535 22.5837249,27.2823922 L22.5837249,27.2823922 L1.86037614,27.2823922 C0.884227151,27.2903535 -0.0286433653,26.7929779 -0.555354099,25.960685 C-1.06689363,25.1478516 -1.14189976,24.1311615 -0.755412488,23.252684 L-0.755412488,23.252684 L1.1166663,18.9781924 L1.1166663,12.8136201 C1.11666628,10.5053478 1.83183016,8.3050221 3.0844729,6.47453133 C4.23317415,4.79593057 5.83354933,3.42874183 7.74653211,2.57329904 C7.96874974,1.64120514 8.46173534,0.817268324 9.13895407,0.196815753 C9.95003732,-0.546280486 11.025076,-1 12.2230693,-1 Z" id="形状" fill-rule="nonzero"></path>
                <path d="M8.1959196,7.82604761 C6.55462558,9.12342999 5.73397857,10.9869839 5.73397857,13.4167094" id="路径-4" stroke-linecap="round"></path>
            </g>
        </g>
    </g>
</svg>