<?xml version="1.0" encoding="UTF-8"?>
<svg width="20px" height="16px" viewBox="0 0 20 16" version="1.1" xmlns="http://www.w3.org/2000/svg" xmlns:xlink="http://www.w3.org/1999/xlink">
    <title>形状</title>
    <defs>
        <linearGradient x1="50%" y1="0%" x2="50%" y2="100%" id="linearGradient-1">
            <stop stop-color="#FF7936" offset="0%"></stop>
            <stop stop-color="#FF5121" offset="100%"></stop>
        </linearGradient>
        <filter x="-4.7%" y="-5.9%" width="109.5%" height="111.9%" filterUnits="objectBoundingBox" id="filter-2">
            <feGaussianBlur stdDeviation="0.316455696" in="SourceGraphic"></feGaussianBlur>
        </filter>
    </defs>
    <g id="页面-1" stroke="none" stroke-width="1" fill="none" fill-rule="evenodd">
        <g id="首页5版备份-12" transform="translate(-317.000000, -309.000000)" fill="url(#linearGradient-1)" fill-rule="nonzero">
            <g id="logo" transform="translate(16.000000, 216.000000)">
                <path d="M315.065564,97.1874364 C314.641742,96.766274 313.954161,96.7658459 313.529807,97.1864802 C313.105454,97.6071144 313.105022,98.2895254 313.528844,98.7106878 C314.139955,99.3171707 314.483276,100.139758 314.483276,100.997477 C314.483276,101.855197 314.139955,102.677784 313.528844,103.284267 C313.254335,103.556711 313.147127,103.953807 313.247604,104.325973 C313.348081,104.698139 313.640979,104.988833 314.015964,105.088555 C314.39095,105.188277 314.791055,105.081875 315.065564,104.809431 C316.084102,103.798571 316.656312,102.42754 316.656312,100.997955 C316.656312,99.5683706 316.084102,98.1973394 315.065564,97.1864802 L315.065564,97.1874364 Z M309.978491,93.2363537 C310.618229,92.7601583 311.137534,93.0288549 311.137534,93.8148641 L311.137534,93.8148641 L311.137534,108.181047 C311.137534,108.977574 310.624009,109.239577 309.978491,108.759557 L309.978491,108.759557 L305.344245,105.310488 L302.446155,105.310488 C301.647446,105.310488 301,104.661217 301,103.886683 L301,103.886683 L301,98.1111406 C301,97.3241752 301.640701,96.6863794 302.446155,96.6863794 L302.446155,96.6863794 L305.344245,96.6863794 Z M317.087718,93.8583985 C317.462555,93.7585915 317.862568,93.8648353 318.137076,94.1371088 C321.954308,97.926591 321.954308,104.06932 318.137076,107.858802 C317.862568,108.131076 317.462555,108.237319 317.087718,108.137512 C316.712881,108.037705 316.420168,107.747011 316.31984,107.37493 C316.219512,107.00285 316.326811,106.605912 316.60132,106.333638 C319.570098,103.386671 319.570098,98.6092394 316.60132,95.6622726 C316.326811,95.3899991 316.219512,94.9930608 316.31984,94.6209804 C316.420168,94.2489 316.712881,93.9582054 317.087718,93.8583985 Z" id="形状" filter="url(#filter-2)"></path>
            </g>
        </g>
    </g>
</svg>