<?xml version="1.0" encoding="UTF-8"?>
<svg width="24px" height="20px" viewBox="0 0 24 20" version="1.1" xmlns="http://www.w3.org/2000/svg" xmlns:xlink="http://www.w3.org/1999/xlink">
    <title>音量</title>
    <g id="小程序/H5" stroke="none" stroke-width="1" fill="none" fill-rule="evenodd">
        <g id="发现页面备份" transform="translate(-263.000000, -400.000000)" fill="#000000" fill-rule="nonzero">
            <g id="编组-2备份-2" transform="translate(0.000000, 320.000000)">
                <g id="编组-2" transform="translate(253.000000, 72.000000)">
                    <g id="音量" transform="translate(10.000000, 8.000000)">
                        <path d="M12.3447848,0.137106788 C12.1585265,0.0517384106 11.9515728,0.00776076159 11.7420323,0.00776076159 C11.3824503,0.00776076159 11.0487376,0.139693709 10.7978063,0.380277318 L5.60326987,4.79615066 L1.51593543,4.79615066 C1.21843957,4.79615066 0.897661424,4.89704056 0.646730132,5.0651904 L0.543253311,5.0651904 L0.318191225,5.30318709 C0.124172185,5.50755381 0.00258692053,5.84126656 0.00258692053,6.17756623 L0.00258692053,13.6977442 C0.00258692053,14.0857823 0.175910596,14.5100373 0.43977649,14.7739031 C0.703642384,15.040356 1.12789735,15.2110927 1.51593543,15.2110927 L5.60844371,15.2110927 L10.8003932,19.4950331 C11.0176945,19.6993998 11.4031457,19.9089404 11.7213369,19.9089404 C11.8662045,19.9089404 12.1481788,19.9089404 12.4223924,19.7019868 C12.6810844,19.5933361 12.8828642,19.432947 13.019971,19.2208195 C13.1674255,18.9983444 13.2372724,18.7267177 13.2372724,18.393005 L13.2372724,1.4745447 C13.2372724,1.14083195 13.1648386,0.869205298 13.019971,0.646730132 C12.8699296,0.413907285 12.6422806,0.24317053 12.3447848,0.137106788 Z M11.7032285,1.62199917 L11.7032285,18.2533113 L6.36899834,13.8529594 L6.15687086,13.6770488 L6.15687086,13.6796358 L1.53404387,13.6796358 L1.53404387,6.33019454 L6.16463162,6.33019454 L11.7032285,1.62199917 L11.7032285,1.62199917 Z M21.6085472,4.47537252 C21.0678808,3.6294495 20.4056291,2.89476407 19.6450745,2.29718543 L19.6424876,2.29459851 C19.6088576,2.26614238 19.5855753,2.24803394 19.5674669,2.23251242 C19.4510555,2.16007864 19.3191225,2.12127483 19.1768419,2.12127483 C18.9103891,2.12127483 18.6180671,2.25838162 18.3723096,2.49637831 L18.3697227,2.49896523 C18.1524214,2.8481995 18.2688328,3.4276697 18.6025455,3.66825331 L18.6051325,3.67084023 C18.7629346,3.73551325 18.9854098,3.92177152 19.1432119,4.06922599 C19.3863825,4.29428808 19.7537252,4.68232616 20.1288286,5.24886175 C20.7574503,6.20084851 21.5076573,7.82802152 21.5076573,10.1847061 C21.5076573,12.5388038 20.7988411,14.1659768 20.2064363,15.1153767 C19.8520281,15.6844992 19.5027939,16.0699503 19.2725579,16.2950124 C19.0500828,16.5097268 18.8767591,16.6442467 18.7525869,16.6959851 L18.75,16.698572 C18.390418,16.9520902 18.3050497,17.4384313 18.5404594,17.9066639 C18.6387624,18.1058568 18.9854098,18.2403767 19.2466887,18.2403767 C19.3449917,18.2403767 19.6062707,18.2403767 19.6968129,18.1498344 C19.7149214,18.131726 19.7356167,18.1136175 19.7821813,18.0774007 C20.509106,17.4849959 21.1429015,16.7580712 21.6628725,15.9095613 C22.6665977,14.2746275 23.176221,12.3499586 23.176221,10.1821192 C23.176221,8.02462748 22.6484892,6.10513245 21.6085472,4.47537252 L21.6085472,4.47537252 Z" id="形状"></path>
                        <path d="M17.8161217,6.45954056 C17.2004346,5.75072434 16.5640522,5.41959851 16.4269454,5.37044702 L16.3855546,5.37044702 L16.3364031,5.33681705 C16.2536217,5.2799048 16.144971,5.25144868 16.0259727,5.25144868 C15.7181291,5.25144868 15.3818295,5.44805464 15.3068088,5.67570364 L15.299048,5.70157285 L15.2835265,5.72485513 C15.1852235,5.87489652 15.1722889,6.09219785 15.2473096,6.31208609 C15.3223303,6.52938742 15.4697848,6.70271109 15.625,6.7544495 L15.6405215,6.75962334 L15.656043,6.76738411 C15.6741515,6.77773179 16.1009934,7.01314156 16.5252483,7.5356995 C16.9158733,8.0142798 17.381519,8.83692053 17.381519,10.0372517 C17.381519,12.5362169 15.9742343,13.3614445 15.8112583,13.4493998 C15.4542632,13.6925704 15.2162666,14.1711507 15.4335679,14.4945157 L15.4413286,14.5048634 L15.4465025,14.517798 C15.5577401,14.7428601 15.9354305,14.9989652 16.1527318,14.9989652 C16.2950124,14.9989652 16.3700331,14.9963783 16.4554015,14.9006623 L16.5123137,14.84375 L16.5743998,14.84375 C16.7347889,14.7842508 17.316846,14.4401904 17.8833816,13.7003311 C18.4162873,13.0044495 19.0500828,11.7756623 19.0500828,9.88721026 C19.0500828,8.22640728 18.3800704,7.1062707 17.8161217,6.45954056 L17.8161217,6.45954056 Z" id="路径"></path>
                    </g>
                </g>
            </g>
        </g>
    </g>
</svg>