<?xml version="1.0" encoding="UTF-8"?>
<svg width="16px" height="16px" viewBox="0 0 16 16" version="1.1" xmlns="http://www.w3.org/2000/svg" xmlns:xlink="http://www.w3.org/1999/xlink">
    <title>上一条备份 2</title>
    <g id="小程序/H5" stroke="none" stroke-width="1" fill="none" fill-rule="evenodd">
        <g id="播放展开暂停" transform="translate(-232.000000, -695.000000)" fill="#333333" fill-rule="nonzero">
            <g id="播放控件备份" transform="translate(0.000000, 645.000000)">
                <g id="上一条备份" transform="translate(240.000000, 58.000000) scale(-1, 1) translate(-240.000000, -58.000000) translate(232.000000, 50.000000)">
                    <path d="M14.1928681,14.2791411 L5.32400307,8.24769939 C4.77952454,7.92753067 4.59930982,7.22776074 4.91947853,6.68328221 C5.01917178,6.51457055 5.15912577,6.37461656 5.3297546,6.27492331 L14.1947853,0.289493865 C14.7392638,-0.0287576687 15.4390337,0.155291411 15.7572853,0.699769939 C15.8588957,0.876150307 15.9125767,1.07553681 15.9125767,1.27875767 L15.9125767,13.2917945 C15.9125767,13.922546 15.4006902,14.4344325 14.7699387,14.4325153 C14.5667178,14.4363497 14.3673313,14.3807515 14.1928681,14.2791411 L14.1928681,14.2791411 Z M2.91411043,13.1154141 L2.91411043,1.45705521 C2.91411043,0.651840491 2.26226994,0 1.45705521,0 C0.651840491,0 0,0.651840491 0,1.45705521 L0,13.1154141 C0,13.9206288 0.651840491,14.5724693 1.45705521,14.5724693 C2.26226994,14.5724693 2.91411043,13.9206288 2.91411043,13.1154141 Z" id="形状"></path>
                </g>
            </g>
        </g>
    </g>
</svg>