<?xml version="1.0" encoding="UTF-8"?>
<svg width="36px" height="36px" viewBox="0 0 36 36" version="1.1" xmlns="http://www.w3.org/2000/svg" xmlns:xlink="http://www.w3.org/1999/xlink">
    <title>关  闭 (1)</title>
    <g id="添加赡养扶养人" stroke="none" stroke-width="1" fill="none" fill-rule="evenodd">
        <g id="200" transform="translate(-169.000000, -574.000000)" fill="#FFFFFF" fill-rule="nonzero">
            <g id="关--闭-(1)" transform="translate(169.000000, 574.000000)">
                <path d="M18,36 C8.0588745,36 0,27.9411255 0,18 C0,8.0588745 8.0588745,0 18,0 C27.9411255,0 36,8.0588745 36,18 C36,27.9411255 27.9411255,36 18,36 Z M18,33.6015 C26.6164705,33.6015 33.6015,26.6164705 33.6015,18 C33.6015,9.38352948 26.6164705,2.3985 18,2.3985 C9.38352948,2.3985 2.3985,9.38352948 2.3985,18 C2.3985,26.6164705 9.38352948,33.6015 18,33.6015 Z" id="形状"></path>
                <path d="M23.97825,22.2435 C24.4566666,22.7219167 24.4566666,23.4975833 23.97825,23.976 C23.4998333,24.4544166 22.7241667,24.4544166 22.24575,23.976 L18.243,19.97325 L14.24025,23.976 C13.7618333,24.4544166 12.9861667,24.4544166 12.50775,23.976 C12.0293334,23.4975833 12.0293334,22.7219167 12.50775,22.2435 L16.5105,18.24075 L12.50775,14.238 C12.0293334,13.7595833 12.0293334,12.9839167 12.50775,12.5055 C12.9861667,12.0270834 13.7618333,12.0270834 14.24025,12.5055 L18.243,16.50825 L22.24575,12.5055 C22.7241667,12.0270833 23.4998333,12.0270834 23.97825,12.5055 C24.4566666,12.9839167 24.4566667,13.7595833 23.97825,14.238 L19.9755,18.24075 L23.97825,22.2435 Z" id="路径"></path>
            </g>
        </g>
    </g>
</svg>