<?xml version="1.0" encoding="UTF-8"?>
<svg width="16px" height="16px" viewBox="0 0 16 16" version="1.1" xmlns="http://www.w3.org/2000/svg" xmlns:xlink="http://www.w3.org/1999/xlink">
    <title>上一条备份 2</title>
    <g id="小程序/H5" stroke="none" stroke-width="1" fill="none" fill-rule="evenodd">
        <g id="播放展开" transform="translate(-176.000000, -695.000000)" fill="#333333" fill-rule="nonzero">
            <g id="播放控件" transform="translate(0.000000, 645.000000)">
                <g id="上一条备份-2" transform="translate(176.000000, 50.000000)">
                    <path d="M5.05981595,13.7731979 L5.05981595,1.53192101 C5.05981595,0.686445552 4.37538344,0.00201303681 3.52990798,0.00201303681 C2.68443252,0.00201303681 2,0.686445552 2,1.53192101 L2,13.7731979 C2,14.6186733 2.68443252,15.3031058 3.52990798,15.3031058 C4.37538344,15.3031058 5.05981595,14.6186733 5.05981595,13.7731979 Z" id="形状"></path>
                    <path d="M14.299816,13.7731979 L14.299816,1.53192101 C14.299816,0.686445552 13.6153834,0.00201303681 12.769908,0.00201303681 C11.9244325,0.00201303681 11.24,0.686445552 11.24,1.53192101 L11.24,13.7731979 C11.24,14.6186733 11.9244325,15.3031058 12.769908,15.3031058 C13.6153834,15.3031058 14.299816,14.6186733 14.299816,13.7731979 Z" id="形状备份"></path>
                </g>
            </g>
        </g>
    </g>
</svg>