<?xml version="1.0" encoding="UTF-8"?>
<svg width="16px" height="19px" viewBox="0 0 16 19" version="1.1" xmlns="http://www.w3.org/2000/svg" xmlns:xlink="http://www.w3.org/1999/xlink">
    <title>路径</title>
    <g id="个人权益" stroke="none" stroke-width="1" fill="none" fill-rule="evenodd">
        <g id="签约家庭医生" transform="translate(-141.000000, -513.000000)" fill="#FFFFFF" fill-rule="nonzero">
            <g id="编组-14" transform="translate(33.000000, 255.000000)">
                <g id="编组-15" transform="translate(108.000000, 255.000000)">
                    <g id="电--话" transform="translate(0.000000, 3.000000)">
                        <path d="M10.1198673,13.2532846 C10.1798625,13.2532846 10.5396987,12.9657073 10.6596312,12.9081918 C10.8995543,12.7931609 11.0794821,12.6781299 11.2593905,12.6206145 C12.5189042,12.1029938 13.5984322,12.4480681 15.0378544,14.1160167 C15.9374932,15.1512765 16.1773776,16.0140085 15.8775173,16.8192251 C15.6376136,17.3943798 15.0978303,17.8544849 14.2581867,18.3146087 C14.1981914,18.3721427 13.7184034,18.6597015 13.5384756,18.717217 C11.4993135,19.9250418 6.76123483,17.1643179 3.34264582,12.3330557 C-0.0759818876,7.55929042 -0.975601409,2.44045089 1.12353661,1.17512915 L1.42341623,1.00258274 L1.72329586,0.830036348 C2.80286252,0.197366195 3.46257832,-0.0902111398 4.24226534,0.0248197869 C5.02195235,0.139850732 5.74166345,0.715005402 6.28144679,1.75028384 C7.48096528,3.93583451 7.24104223,4.97111292 5.68168753,5.94887587 C5.56173567,6.00639134 5.14190421,6.23645321 5.14190421,6.29396867 C4.78204866,6.52403054 5.38180791,8.07692962 6.94118194,10.1474679 C8.4405607,12.3330557 9.70003578,13.540862 10.1198673,13.2532846 L10.1198673,13.2532846 Z" id="路径"></path>
                    </g>
                </g>
            </g>
        </g>
    </g>
</svg>