<?xml version="1.0" encoding="UTF-8"?>
<svg width="24px" height="24px" viewBox="0 0 24 24" version="1.1" xmlns="http://www.w3.org/2000/svg" xmlns:xlink="http://www.w3.org/1999/xlink">
    <title>形状</title>
    <g id="惠老服务" stroke="none" stroke-width="1" fill="none" fill-rule="evenodd">
        <g id="服务详情（有图）" transform="translate(-236.000000, -1558.000000)" fill="#FF5500" fill-rule="nonzero">
            <g id="编组-6" transform="translate(0.000000, 1536.000000)">
                <g id="编组备份-2" transform="translate(18.000000, 8.000000)">
                    <g id="导航" transform="translate(176.000000, 0.000000)">
                        <g id="编组-3" transform="translate(42.000000, 11.000000)">
                            <path d="M17.3426394,27 C14.1386722,26.9382864 10.6527078,25.1023077 6.93188867,21.5426347 C4.50592518,19.3218724 2.47782615,16.7023931 0.935378504,13.7975816 C0.108366769,12.1723953 -0.180688064,10.3264091 0.109958366,8.52621414 C0.485546708,6.94727301 1.32142008,5.51537198 2.51164811,4.41197611 C3.24788281,3.64848049 4.21808052,3.15282357 5.26819138,3.00370672 C5.2930911,2.99876443 5.31871946,2.99876443 5.34361918,3.00370672 C7.42474077,2.99513539 8.84844051,4.95796979 9.89157271,6.3902389 L10.1487129,6.73309207 C11.0977031,7.89842191 11.5373475,9.39685646 11.3684148,10.8901867 C11.1317494,11.7669485 10.6743476,12.5684334 10.0398569,13.2181598 C10.2567118,13.6407263 10.5052807,14.0461502 10.7855636,14.4301457 C11.4353082,15.6850582 12.5854528,16.6066672 13.9518169,16.9672592 C14.1463864,16.7709757 14.328956,16.5635495 14.5003828,16.3449807 C15.0335001,15.6803277 15.8234437,15.2728968 16.6740748,15.2238508 C17.959776,15.29585 19.1897634,15.7724159 20.1883247,16.585835 C22.1597331,17.9572477 23.9845716,19.4795157 24,21.3969221 C23.9337152,22.4892652 23.5023561,23.527665 22.7751554,24.3454593 C21.5515153,25.9484701 19.6735266,26.9182911 17.6580648,26.9880001 L17.3426394,27 L17.3426394,27 Z M5.33504784,5.13196777 C4.83425602,5.27705439 4.37894784,5.5479373 4.01248992,5.91881579 C3.1087213,6.72723263 2.46626455,7.78655373 2.16708021,8.96163766 C1.97590257,10.32196 2.21570151,11.707996 2.85278749,12.9250203 C4.29493416,15.5665186 6.16020205,17.9538382 8.37444536,19.9920812 C11.6598404,23.1351877 14.757523,24.8220252 17.3426394,24.871739 L17.608351,24.871739 C19.0000532,24.8175096 20.2940054,24.1417485 21.1337436,23.0306174 C21.5485965,22.5849083 21.8168794,22.0234863 21.9017357,21.4209218 C21.9017357,20.3495057 19.7186152,18.849523 19.0029082,18.3446718 C18.3540465,17.8019561 17.5624113,17.4579227 16.7229315,17.3538261 C16.4915053,17.3915399 16.2823646,17.5132528 16.1349375,17.6966793 C15.7070617,18.4448387 14.9674496,18.9628493 14.118101,19.1092343 L14.0323876,19.1092343 C14.0044141,19.1109509 13.9763618,19.1109509 13.9483884,19.1092343 C11.879575,18.7841285 10.0786413,17.5176509 9.07300965,15.6807026 C8.01959184,14.1712916 7.4933115,13.0741614 8.11387659,12.2513138 C8.18416159,12.162172 8.25530372,12.0756016 8.32816012,11.9898883 C8.73831183,11.5898239 9.06542301,11.1127025 9.29072171,10.5859045 C9.37464453,9.65285498 9.077889,8.72549523 8.46787297,8.01450578 L8.19959,7.65022429 C7.42474077,6.58395094 6.36275162,5.12682497 5.35047625,5.12682497 L5.3264765,5.12682497 L5.33504784,5.13196777 L5.33504784,5.13196777 Z" id="形状"></path>
                        </g>
                    </g>
                </g>
            </g>
        </g>
    </g>
</svg>