<?xml version="1.0" encoding="UTF-8"?>
<svg width="16px" height="16px" viewBox="0 0 16 16" version="1.1" xmlns="http://www.w3.org/2000/svg" xmlns:xlink="http://www.w3.org/1999/xlink"><path d="M7.2,14.3504 C4.29981525,13.9841141 2.01588593,11.7001848 1.64960001,8.80000001 L0.400000012,8.80000001 C0.293913412,8.80000002 0.19217184,8.75785728 0.117157286,8.68284273 C0.0421427309,8.60782817 0,8.5060866 0,8.4 L0,7.60000001 C0,7.49391341 0.0421427309,7.39217184 0.117157286,7.31715729 C0.19217184,7.24214273 0.293913412,7.2 0.400000012,7.2 L1.64960001,7.2 C2.01588593,4.29981525 4.29981525,2.01588593 7.2,1.64960001 L7.2,0.400000012 C7.2,0.293913412 7.24214273,0.19217184 7.31715729,0.117157286 C7.39217184,0.0421427309 7.49391341,0 7.60000001,0 L8.4,0 C8.5060866,0 8.60782817,0.0421427309 8.68284273,0.117157286 C8.75785728,0.19217184 8.80000002,0.293913412 8.80000001,0.400000012 L8.80000001,1.64960001 C11.7001848,2.01588593 13.9841141,4.29981525 14.3504,7.2 L15.6,7.2 C15.7060866,7.2 15.8078282,7.24214273 15.8828427,7.31715729 C15.9578573,7.39217184 16,7.49391341 16,7.60000001 L16,8.4 C16,8.5060866 15.9578573,8.60782817 15.8828427,8.68284273 C15.8078282,8.75785728 15.7060866,8.80000002 15.6,8.80000001 L14.3504,8.80000001 C13.9841141,11.7001848 11.7001848,13.9841141 8.80000001,14.3504 L8.80000001,15.6 C8.80000002,15.7060866 8.75785728,15.8078282 8.68284273,15.8828427 C8.60782817,15.9578573 8.5060866,16 8.4,16 L7.60000001,16 C7.49391341,16 7.39217184,15.9578573 7.31715729,15.8828427 C7.24214273,15.8078282 7.2,15.7060866 7.2,15.6 L7.2,14.3504 L7.2,14.3504 Z M8.00000001,12.8 C10.6509668,12.8 12.8,10.6509668 12.8,8.00000001 C12.8,5.34903321 10.6509668,3.20000001 8.00000001,3.20000001 C5.34903321,3.20000001 3.20000001,5.34903321 3.20000001,8.00000001 C3.20000001,10.6509668 5.34903321,12.8 8.00000001,12.8 Z M8.00000001,10.4 C6.67451661,10.4 5.60000001,9.32548341 5.60000001,8.00000001 C5.60000001,6.67451661 6.67451661,5.60000001 8.00000001,5.60000001 C9.32548341,5.60000001 10.4,6.67451661 10.4,8.00000001 C10.4,9.32548341 9.32548341,10.4 8.00000001,10.4 Z" id="形状"></path>
</svg>