<?xml version="1.0" encoding="UTF-8"?>
<svg width="18px" height="18px" viewBox="0 0 18 18" version="1.1" xmlns="http://www.w3.org/2000/svg" xmlns:xlink="http://www.w3.org/2000/svg"><path d="M7.00096695,17.4193535 C6.77820958,17.4218533 6.56356826,17.3357766 6.40429839,17.1800189 C6.24502853,17.0242611 6.15418796,16.8115921 6.15177615,16.5888332 L6.15177615,4.6492107 L3.98307352,4.6492107 C3.90243177,4.65039358 3.82812694,4.6056418 3.79146125,4.53380785 C3.74960404,4.46278504 3.75476391,4.37351936 3.80452573,4.30779245 L6.77451607,0.0958061454 C6.8149033,0.0371725962 6.88187301,0.0025443499 6.95306387,0.00346521484 C7.0228171,0.00271591372 7.08827898,0.0370834031 7.12725686,0.0949351777 L10.101602,4.30692148 C10.1479973,4.37345279 10.1535666,4.46025763 10.1160538,4.53217238 C10.0785411,4.60408712 10.0041649,4.64919013 9.92305423,4.6492107 L7.74999677,4.6492107 L7.74999677,12.6289912 L8.39886563,11.8999936 C10.105294,9.97575693 12.5508524,8.86987033 15.1227147,8.85945507 C15.4938846,8.85414883 15.822426,9.09859075 15.9240025,9.45563055 C15.9858099,9.69500396 15.9331516,9.94950696 15.7814297,10.1446998 C15.6297078,10.3398926 15.3960664,10.4537189 15.1488437,10.4528854 C11.4848427,10.4086478 8.35537637,13.0865768 7.83273844,16.7133812 C7.76610165,17.1208188 7.41381761,17.4197992 7.00096695,17.4193535 Z" id="路径"></path>
</svg>