<?xml version="1.0" encoding="UTF-8"?>
<svg width="24px" height="24px" viewBox="0 0 24 24" version="1.1" xmlns="http://www.w3.org/2000/svg" xmlns:xlink="http://www.w3.org/1999/xlink">
    <title>形状</title>
    <g id="小程序/H5" stroke="none" stroke-width="1" fill="none" fill-rule="evenodd">
        <g id="视频页" transform="translate(-203.000000, -365.000000)" fill="#333333" fill-rule="nonzero" stroke="#333333" stroke-width="0.5">
            <g id="编组-3" transform="translate(0.000000, 88.000000)">
                <g id="编组-10备份" transform="translate(0.000000, 270.000000)">
                    <g id="收-藏" transform="translate(203.000000, 7.000000)">
                        <path d="M17.5955557,22.9999367 C17.2858016,22.9999367 16.9378765,22.9118469 16.614897,22.751805 L12.0066701,20.4674617 L7.36982037,22.7481604 C7.0762163,22.9031084 6.74001137,22.9846107 6.39722598,22.9846107 C5.95185226,22.9861893 5.5178421,22.8453555 5.15965032,22.5830246 C4.51078813,22.1007035 4.1782605,21.264794 4.33167524,20.5038436 L5.2800338,15.6281595 L1.64513243,12.2700284 C1.08374383,11.706228 0.868311564,10.8885133 1.07992363,10.1246695 L1.08727824,10.099946 C1.35152836,9.3149754 2.00701401,8.76498446 2.80195783,8.65948339 L7.85206393,7.74940344 L10.1187699,3.18653538 C10.482845,2.46414077 11.2234678,2 12.0066916,2 C12.8236563,2 13.5833968,2.48159641 13.9019464,3.19964309 L16.1612978,7.74793282 L21.212135,8.62312281 C22.0136467,8.73820059 22.6724854,9.30859042 22.8952672,10.0802951 C23.1445466,10.8387559 22.9408964,11.6717058 22.3689604,12.2329432 L22.3564877,12.245305 L18.7318656,15.6281595 L19.647924,20.512582 C19.7954465,21.2939081 19.4820365,22.0825232 18.8294755,22.5742861 C18.4801313,22.8531607 18.0441322,23.0035415 17.5955772,22.9999367 L17.5955557,22.9999367 Z M12.0088851,19.1390647 L17.1507519,21.6874803 C17.3019516,21.7631427 17.4759034,21.8104157 17.5948245,21.8104157 C17.7783459,21.8104157 17.9486203,21.7544042 18.0734123,21.6510984 L18.0968954,21.6321935 C18.3890372,21.4146695 18.5314415,21.0698408 18.4675939,20.7315554 L17.4326143,15.2069438 L21.5255234,11.3868672 C21.7765696,11.134432 21.862438,10.7728723 21.750893,10.4404054 L21.7398611,10.4054728 C21.649757,10.0833754 21.3745637,9.84554493 21.0403337,9.80091972 L21.0168506,9.79729646 L15.3538167,8.81590204 L12.8053127,3.68484145 C12.6812304,3.39821955 12.3457997,3.19015865 12.0066701,3.19015865 C11.6734328,3.19015865 11.3548617,3.39677024 11.1933612,3.71612945 L8.66096432,8.81370677 L2.96784531,9.83875092 C2.62211378,9.881676 2.3534552,10.1093878 2.22941592,10.4644042 C2.14133255,10.7888573 2.24556597,11.179531 2.48633292,11.4232491 L6.58367199,15.2076685 L5.508328,20.7351786 C5.4437278,21.0545592 5.59641137,21.422662 5.87900502,21.6328968 C6.02067818,21.7383979 6.20417803,21.7965834 6.39649482,21.7965834 C6.54476993,21.7965834 6.68717425,21.7624181 6.80975121,21.6969435 L6.82738508,21.6867557 L12.0088851,19.1390647 L12.0088851,19.1390647 Z" id="形状"></path>
                    </g>
                </g>
            </g>
        </g>
    </g>
</svg>