<?xml version="1.0" standalone="no"?><svg t="1625194193199" class="icon" viewBox="0 0 1024 1024" version="1.1" xmlns="http://www.w3.org/2000/svg" p-id="7340" xmlns:xlink="http://www.w3.org/1999/xlink" width="200" height="200"><defs><style type="text/css"></style></defs><path d="M960 703.424L928 192c-4.352-62.976-99.2-192-416-192S103.36 126.464 96 192L64 703.424A128.64 128.64 0 0 0 192.384 832h40.256l-70.144 192h87.36l17.536-64h489.216l17.536 64h87.36l-70.144-192h40.256A128.384 128.384 0 0 0 960 703.424zM384 64h256s32 0 32 32S640 128 640 128H384s-32 0-32-32S384 64 384 64zM204.8 256c4.608-36.608 45.312-64 76.416-64h461.568c31.68 0 71.296 28.416 76.416 64l12.8 192c3.52 35.328-29.184 64-63.68 64h-512.64C220.544 512 188.48 483.584 192 448l12.8-192z m19.2 512a64 64 0 1 1 0-128 64 64 0 0 1 0 128z m60.928 128l17.536-64h419.072l17.536 64H284.928z m451.072-192a64 64 0 1 1 128 0 64 64 0 0 1-128 0z" fill="#DB9C12" p-id="7341"></path></svg>