<?xml version="1.0" encoding="UTF-8"?>
<svg width="13px" height="88px" viewBox="0 0 13 88" version="1.1" xmlns="http://www.w3.org/2000/svg" xmlns:xlink="http://www.w3.org/1999/xlink">
    <title>编组 10</title>
    <g id="小程序/H5" stroke="none" stroke-width="1" fill="none" fill-rule="evenodd">
        <g id="线路导航页面-公交-详情页" transform="translate(-22.000000, -489.000000)">
            <g id="编组-10" transform="translate(22.000000, 489.000000)">
                <path d="M7.60811864,35.9254218 C8.68173827,35.9254218 9.573226,35.033934 9.573226,33.9627109 C9.573226,32.8914877 8.6793418,32 7.60811864,32 C6.53449901,32 5.64061481,32.8914877 5.64061481,33.9627109 C5.64301128,35.033934 6.53689548,35.9254218 7.60811864,35.9254218 Z M11.9002007,40.9196702 L9.486953,40.0281825 L7.9675895,37.2626534 C7.87892002,37.1739839 7.78785407,37.0853144 7.78785407,36.9942485 L7.60811864,36.8169095 C6.98263935,36.1914302 6.08875514,36.1027607 5.28354042,36.4598351 L1.08252432,37.8881327 C0.72544993,37.9768021 0.457045022,38.3338765 0.368375544,38.6909509 L0.0113011573,41.9908934 C-0.0773683213,42.5253067 0.368375544,43.0621166 0.90518536,43.150786 L0.993854838,43.150786 C1.53066465,43.150786 1.97640852,42.7937117 1.97640852,42.2592983 L2.24481343,39.6735046 L3.8528464,39.1390913 C3.58444149,39.7645706 3.31603659,40.3876534 3.13869763,40.8333972 C2.78162324,41.6362155 2.78162324,42.7074387 3.22736711,43.5989264 L0.457045022,50.0214724 C0.188640114,50.6469517 0.464234439,51.4305982 1.08252432,51.7157784 C1.78948367,52.0416986 2.63304195,51.4353911 2.87029272,50.9129601 L4.92646603,46.275786 C6.17742462,48.5069018 7.60811864,51.0926956 7.60811864,51.181365 C7.87652355,51.6271089 8.32226741,51.8955138 8.77040775,51.8955138 C8.95014318,51.8955138 9.21615162,51.8068443 9.39588705,51.7181748 C10.0213663,51.3611005 10.2897712,50.5582822 9.93269686,49.9351994 C9.84402738,49.7578604 7.69918459,45.7437692 6.26849057,43.3353144 L7.51944916,40.5697853 L7.96519303,41.3726035 C8.05386251,41.6410084 8.32226741,41.7296779 8.50200284,41.8183474 L11.2723249,42.8823811 C11.3609944,42.8823811 11.5407298,42.9710506 11.6293993,42.9710506 C12.0751432,42.9710506 12.434614,42.7026457 12.611953,42.2569018 C12.7030189,41.7224885 12.434614,41.0994057 11.9002007,40.9196702 L11.9002007,40.9196702 Z" id="形状" fill="#999999" fill-rule="nonzero" transform="translate(6.314725, 41.947757) scale(-1, 1) translate(-6.314725, -41.947757) "></path>
                <circle id="椭圆形" fill="#D8D8D8" cx="6" cy="21" r="3"></circle>
                <circle id="椭圆形备份-15" fill="#D8D8D8" cx="6" cy="3" r="3"></circle>
                <circle id="椭圆形备份-5" fill="#D8D8D8" cx="6" cy="67" r="3"></circle>
                <circle id="椭圆形备份-14" fill="#D8D8D8" cx="6" cy="85" r="3"></circle>
            </g>
        </g>
    </g>
</svg>