<?xml version="1.0" encoding="UTF-8"?>
<svg width="21px" height="20px" viewBox="0 0 21 20" version="1.1" xmlns="http://www.w3.org/2000/svg" xmlns:xlink="http://www.w3.org/1999/xlink">
    <title>113</title>
    <defs>
        <linearGradient x1="29.7665128%" y1="23.8532598%" x2="67.911676%" y2="78.653556%" id="linearGradient-1">
            <stop stop-color="#FF8E39" offset="0%"></stop>
            <stop stop-color="#FF5318" offset="100%"></stop>
        </linearGradient>
        <path d="M8.52568404,16.6930045 C8.53152084,16.6979962 9.11542953,17.1920587 9.90877627,17.4209536 C10.8589154,17.6952171 11.6757238,17.4715357 12.4057813,16.7370974 L13.642038,17.8914999 C12.7867755,18.7518386 11.7554361,19.1955409 10.6531969,19.1955409 C10.2275112,19.1955409 9.7912964,19.1293738 9.35050371,18.9954312 C8.23149798,18.6553888 7.4648174,18.006086 7.3810994,17.9332079 L7.95482231,17.3142987 L8.52568404,16.6930045 Z M10.486562,2.78304866 C14.3045146,2.78304866 17.4106067,6.01569716 17.4106067,9.98921756 L17.410764,10.5632835 C17.4131232,13.2537104 17.4508706,13.3287151 18.054829,14.5287911 L18.0986622,14.6158677 C18.2283024,14.8737127 18.2117593,15.1780987 18.0548867,15.4213155 C17.8980142,15.6645322 17.6229404,15.8123109 17.3270032,15.8123109 L3.66597749,15.8123109 C3.36584018,15.8123109 3.0837855,15.6675531 2.92819478,15.418747 C2.77334796,15.1711611 2.75875596,14.8706083 2.89546293,14.6135383 C2.93237209,14.5343929 3.56251738,13.1327374 3.56251738,9.98916209 C3.56251738,6.01569716 6.66860948,2.78304866 10.486562,2.78304866 Z M12.7755024,0.62 L12.7755024,2.28388359 L8.19762166,2.28388359 L8.19762166,0.62 L12.7755024,0.62 Z" id="path-2"></path>
    </defs>
    <g id="小程序" stroke="none" stroke-width="1" fill="none" fill-rule="evenodd">
        <g id="H5" transform="translate(-28.000000, -293.000000)" fill-rule="nonzero">
            <g id="编组-2" transform="translate(16.000000, 273.000000)">
                <g id="形状结合" transform="translate(12.000000, 20.000000)">
                    <use fill="#E14D31" xlink:href="#path-2"></use>
                    <use fill="url(#linearGradient-1)" xlink:href="#path-2"></use>
                </g>
            </g>
        </g>
    </g>
</svg>