<?xml version="1.0" encoding="UTF-8"?>
<svg width="20px" height="20px" viewBox="0 0 20 20" version="1.1" xmlns="http://www.w3.org/2000/svg" xmlns:xlink="http://www.w3.org/1999/xlink">
    <title>119</title>
    <defs>
        <linearGradient x1="22.7147755%" y1="1.63155936%" x2="22.7147755%" y2="100%" id="linearGradient-1">
            <stop stop-color="#C7B6FF" offset="0%"></stop>
            <stop stop-color="#A68EF9" offset="100%"></stop>
        </linearGradient>
        <linearGradient x1="0%" y1="48.5303435%" x2="96.1004267%" y2="51.1571898%" id="linearGradient-2">
            <stop stop-color="#FF7B1B" offset="0%"></stop>
            <stop stop-color="#E14D31" offset="100%"></stop>
        </linearGradient>
        <path d="M18.1835714,19.047619 L9.55357143,19.047619 C9.06047619,19.047619 8.66071429,18.6478571 8.66071429,18.1547619 C8.66071429,17.6616667 9.06047619,17.2619048 9.55357143,17.2619048 L18.1835714,17.2619048 C18.6766667,17.2619048 19.0764286,17.6616667 19.0764286,18.1547619 C19.0764286,18.6478571 18.6767262,19.047619 18.1835714,19.047619 L18.1835714,19.047619 Z" id="path-3"></path>
    </defs>
    <g id="小程序" stroke="none" stroke-width="1" fill="none" fill-rule="evenodd">
        <g id="H5" transform="translate(-28.000000, -353.000000)">
            <g id="编组-2备份-2" transform="translate(16.000000, 333.000000)">
                <rect id="矩形" x="0" y="0" width="343" height="60"></rect>
                <g id="宫格" transform="translate(12.000000, 16.000000)" fill-rule="nonzero">
                    <g id="119" transform="translate(0.000000, 4.000000)">
                        <path d="M13.9329762,0.261488095 L18.8155952,5.1439881 C19.1642696,5.49266911 19.1642696,6.05798565 18.8155952,6.40666667 L6.5497619,18.672381 C6.42343853,18.8500445 6.23653386,18.9754097 6.02422619,19.024881 C5.9510119,19.0440476 5.875,19.0539881 5.79815476,19.0539881 C5.76270278,19.0539881 5.7272834,19.0518379 5.69208333,19.047619 L0.910654762,19.0289881 C0.418333333,19.0270833 0.0204761905,18.6270238 0.0213082171,18.1347619 L0.0288095238,13.3764881 C0.0181481314,13.2795271 0.0233552302,13.1814769 0.0442261905,13.0861905 C0.0880012338,12.8532671 0.222533655,12.6472824 0.418214286,12.5135714 L12.6702976,0.261488095 C13.0189286,-0.0872023809 13.5842857,-0.0872023809 13.9329762,0.261488095 Z" id="形状结合" fill="url(#linearGradient-1)"></path>
                        <path d="M5.54333333,14.4864293 C5.30647498,14.4867378 5.07926635,14.3926067 4.91202381,14.224881 C4.56333333,13.87625 4.56333333,13.3108929 4.91202381,12.9622024 L8.95202381,8.92220238 C9.30065476,8.5735119 9.8660119,8.5735119 10.2147024,8.92220238 C10.5633929,9.27083333 10.5633929,9.83619048 10.2147024,10.184881 L6.17470238,14.224881 C6.00743034,14.392599 5.78020709,14.4867273 5.54333333,14.4864293 L5.54333333,14.4864293 Z" id="路径" fill="#FFFFFF"></path>
                        <polygon id="路径" fill="#725CF4" points="10.3882738 2.54047619 16.5363095 8.68857143 15.273631 9.95125 9.12559524 3.80315476"></polygon>
                        <g id="路径">
                            <use fill="url(#linearGradient-2)" xlink:href="#path-3"></use>
                            <use fill="#725CF4" xlink:href="#path-3"></use>
                        </g>
                    </g>
                </g>
            </g>
        </g>
    </g>
</svg>