<?xml version="1.0" encoding="UTF-8"?>
<svg width="20px" height="20px" viewBox="0 0 20 20" version="1.1" xmlns="http://www.w3.org/2000/svg" xmlns:xlink="http://www.w3.org/1999/xlink">
    <title>密码</title>
    <defs>
        <linearGradient x1="50%" y1="0%" x2="50%" y2="100%" id="linearGradient-1">
            <stop stop-color="#6BD897" offset="0%"></stop>
            <stop stop-color="#4EBF76" offset="100%"></stop>
        </linearGradient>
        <path d="M1.84082031,7.40625 L16.0151367,7.40625 C17.0317604,7.40625 17.855957,8.24575 17.855957,9.28125 L17.855957,18.09375 C17.855957,19.12925 17.0317604,19.96875 16.0151367,19.96875 L1.84082031,19.96875 C0.824196615,19.96875 0,19.12925 0,18.09375 L0,9.28125 C0,8.24575 0.824196615,7.40625 1.84082031,7.40625 Z" id="path-2"></path>
    </defs>
    <g id="小程序" stroke="none" stroke-width="1" fill="none" fill-rule="evenodd">
        <g id="H5" transform="translate(-28.000000, -232.000000)" fill-rule="nonzero">
            <g id="编组-2备份-4" transform="translate(28.000000, 232.000000)">
                <g id="138" transform="translate(1.000000, 0.000000)">
                    <g id="137" transform="translate(0.312500, 0.000000)">
                        <path d="M14.5989323,8.250375 L12.758112,8.250375 L12.758112,5.7261875 C12.758112,3.6034375 11.0247956,1.8765 8.8942915,1.8765 C6.76378743,1.8765 5.03047103,3.6034375 5.03047103,5.7261875 L5.03047103,8.250375 L3.18965072,8.250375 L3.18965072,5.7261875 C3.18965072,2.5695625 5.74875911,0.0015 8.8942915,0.0015 C12.0398239,0.0015 14.5989323,2.5695625 14.5989323,5.7261875 L14.5989323,8.250375 Z" id="路径" fill="#41BC72"></path>
                        <g id="路径">
                            <use fill="#E14D31" xlink:href="#path-2"></use>
                            <use fill="url(#linearGradient-1)" xlink:href="#path-2"></use>
                        </g>
                        <path d="M8.92104476,16.532375 C8.41273291,16.532375 8.0006346,16.112625 8.0006346,15.594875 L8.0006346,11.7835625 C8.0006346,11.2658125 8.41273291,10.8460625 8.92104476,10.8460625 C9.42935661,10.8460625 9.84145492,11.2658125 9.84145492,11.7835625 L9.84145492,15.594875 C9.84145492,16.112625 9.42935661,16.532375 8.92104476,16.532375 Z" id="路径" fill="#FFFFFF"></path>
                    </g>
                </g>
            </g>
        </g>
    </g>
</svg>