<?xml version="1.0" encoding="UTF-8"?>
<svg width="20px" height="20px" viewBox="0 0 20 20" version="1.1" xmlns="http://www.w3.org/2000/svg" xmlns:xlink="http://www.w3.org/1999/xlink">
    <title>形状</title>
    <defs>
        <linearGradient x1="78.2691789%" y1="80.2839725%" x2="20.821971%" y2="22.4049027%" id="linearGradient-1">
            <stop stop-color="#00C97E" offset="0%"></stop>
            <stop stop-color="#55D9A3" offset="100%"></stop>
        </linearGradient>
        <path d="M17.7852344,1.58539062 L17.6552344,1.45539062 C16.7425248,0.539910768 15.502961,0.0253660223 14.2102344,0.0253660223 C12.9175077,0.0253660223 11.677944,0.539910768 10.7652344,1.45539062 L9.33523437,2.88539062 C9.29418722,2.92973895 9.25597804,2.97663204 9.22083437,3.02579062 L10.6196344,5.44899062 C10.9446185,5.40752382 11.2469836,5.26045197 11.4802344,5.03039062 L12.9102344,3.60039062 C13.2531083,3.25488585 13.7236672,3.06666232 14.2102344,3.08039062 C14.6933341,3.08512644 15.1571375,3.2706478 15.5102344,3.60039062 L15.6402344,3.73039062 C15.9857392,4.07326459 16.1739627,4.54382343 16.1602344,5.03039062 C16.1554986,5.51349033 15.9699772,5.97729372 15.6402344,6.33039062 L12.7802344,9.19039062 L14.3740344,11.9515906 L17.7852344,8.54039062 C18.7172082,7.61208534 19.2331482,6.34568719 19.2152344,5.03039062 C19.2079726,3.73912673 18.6945401,2.50222121 17.7852344,1.58539062 L17.7852344,1.58539062 Z M8.81523437,14.3903906 L7.32023437,15.8853906 C6.97736041,16.2308954 6.50680157,16.4191189 6.02023437,16.4053906 C5.5395569,16.3887866 5.07976219,16.2048688 4.72023437,15.8853906 L4.59023437,15.7553906 C4.2447296,15.4125167 4.05650607,14.9419578 4.07023437,14.4553906 C4.07497019,13.9722909 4.26049155,13.5084875 4.59023437,13.1553906 L7.42683437,10.3187906 L5.80833437,7.51664062 L2.38023437,10.9453906 C1.50199556,11.9033313 1.01492705,13.1557932 1.01518528,14.4553906 C1.00940169,15.7683773 1.52351633,17.030295 2.44523437,17.9653906 L2.57523437,18.0953906 C3.4781994,19.0253123 4.72416061,19.5425037 6.02023437,19.5253906 C7.31392031,19.5302519 8.55527894,19.014971 9.46523437,18.0953906 L10.9602344,16.6003906 C10.9810344,16.5795906 10.9953344,16.5548906 11.0148344,16.5334406 L9.54973437,13.9958406 C9.27180472,14.0533041 9.01659896,14.1903925 8.81523437,14.3903906 Z M6.36603437,0.681890625 C6.13546432,0.276354607 5.7052792,0.0254514407 5.23878058,0.0244227341 C4.77228196,0.0234003388 4.34099784,0.27240965 4.10864696,0.676927983 C3.87629608,1.08144632 3.87850468,1.57944908 4.11443437,1.98189062 L13.8644344,18.8688906 C14.2258419,19.4853683 15.0170755,19.6945578 15.635937,19.3372475 C16.2547984,18.9799372 16.4692318,18.1901086 16.1160344,17.5688906 L6.36603437,0.681890625 Z" id="path-2"></path>
    </defs>
    <g id="小程序" stroke="none" stroke-width="1" fill="none" fill-rule="evenodd">
        <g id="H5" transform="translate(-28.000000, -429.000000)" fill-rule="nonzero">
            <g id="形状" transform="translate(28.000000, 429.000000)">
                <use fill="#1071E2" xlink:href="#path-2"></use>
                <use fill="url(#linearGradient-1)" xlink:href="#path-2"></use>
            </g>
        </g>
    </g>
</svg>