<?xml version="1.0" encoding="UTF-8"?>
<svg width="148px" height="148px" viewBox="0 0 148 148" version="1.1" xmlns="http://www.w3.org/2000/svg" xmlns:xlink="http://www.w3.org/1999/xlink">
    <!-- Generator: Sketch 61 (89581) - https://sketch.com -->
    <title>编组 6</title>
    <desc>Created with Sketch.</desc>
    <g id="Components" stroke="none" stroke-width="1" fill="none" fill-rule="evenodd">
        <g id="移动端-空状态图片" transform="translate(-95.000000, -162.000000)">
            <g id="暂无内容" transform="translate(95.000000, 161.000000)">
                <g id="编组-6" transform="translate(2.000000, 0.000000)">
                    <rect id="矩形" fill="#D8D8D8" opacity="0" x="0" y="0" width="148" height="148"></rect>
                    <g id="编组-5" transform="translate(18.000000, 14.000000)">
                        <g id="编组-2">
                            <path d="M33.12,90.0169492 C10.6288784,84.8244821 1.39338972,77.5677966 5.41353383,68.2468927 C11.44375,54.2655367 88.6755668,79.6871531 95.7783168,52.9887006 C102.881067,26.290248 48.7289284,2.84217094e-14 31.9546832,2.84217094e-14 C24.9847052,2.84217094e-14 22.0493241,2.3191332 23.1485399,6.95739959 C23.5914713,8.82639929 25.7298422,12.4771561 29.5636526,17.9096701" id="路径-3" stroke="#D5E1FD" stroke-width="0.96" stroke-linecap="round" stroke-dasharray="1.920000108083089,2.560000069936117"></path>
                            <path d="M98.7255338,46.9875706 L81.4455338,46.9875706 L81.4455338,36.2168289 C81.4455338,31.3965084 85.3332862,27.4519774 90.0859148,27.4519774 C94.8377815,27.4519774 98.7255338,31.3965084 98.7255338,36.2168289 L98.7255338,46.9875706 Z" id="Fill-1" fill="#EBECF1"></path>
                            <path d="M89.7404903,27.4519774 C89.9740466,27.4519774 90.2030233,27.4687339 90.432,27.4870137 C90.2396596,27.4664489 90.0198419,27.4519774 89.7404903,27.4519774 Z M21.1863868,38.246966 L21.1863868,99.3959719 C21.1863868,105.333101 16.3183417,110.19096 10.368,110.19096 L70.26831,110.19096 C76.2178885,110.19096 81.0859335,105.333101 81.0859335,99.3959719 L81.0859335,36.0884252 C81.0859335,31.3387217 84.9808275,27.4519774 89.7404903,27.4519774 L32.003247,27.4519774 C26.0544318,27.4519774 21.1863868,32.3098365 21.1863868,38.246966 Z" id="Stroke-7" stroke="#A6A8B6" stroke-width="0.96" fill="#FFFFFF" stroke-linecap="round" stroke-linejoin="round"></path>
                            <path d="M87.7718325,36.165812 C87.7718325,33.1527252 90.2062697,30.6884562 93.1819473,30.6884562 C95.9621983,30.6884562 98.26915,32.8412132 98.56,35.58221 C98.2347977,31.056396 94.4850468,27.4519774 89.9360311,27.4519774 C85.1755575,27.4519774 81.28,31.3965084 81.28,36.2168289 L81.28,46.9875706 L87.7718325,46.9875706 L87.7718325,36.165812 Z" id="Fill-5" fill="#DCDDE1"></path>
                            <path d="M74.6171875,108.606823 C67.9645,109.485211 65.1304804,103.799153 65.1304804,100.904376 L65.1304804,95.1242938 L26.7958039,95.1242938 L5.12,95.1242938 L5.12,100.904376 C5.12,105.678747 9.99699852,109.585217 15.9582843,109.585217 C41.1095058,109.96397 59.3163668,110.004885 70.5788672,109.707962 C72.5268592,109.656605 73.8729659,109.289559 74.6171875,108.606823 Z" id="Stroke-11" fill="#D3E0FC"></path>
                            <path d="M42.688,78.5892655 L71.36,78.5892655 C71.7134622,78.5892655 72,78.3027278 72,77.9492655 L72,75.2072316 C72,74.8537694 71.7134622,74.5672316 71.36,74.5672316 L42.688,74.5672316 C42.3345378,74.5672316 42.048,74.8537694 42.048,75.2072316 L42.048,77.9492655 C42.048,78.3027278 42.3345378,78.5892655 42.688,78.5892655 Z" id="Stroke-39" fill="#EBECF1"></path>
                            <path d="M42.688,62.1180791 L71.36,62.1180791 C71.7134622,62.1180791 72,61.8315413 72,61.4780791 L72,58.7360452 C72,58.382583 71.7134622,58.0960452 71.36,58.0960452 L42.688,58.0960452 C42.3345378,58.0960452 42.048,58.382583 42.048,58.7360452 L42.048,61.4780791 C42.048,61.8315413 42.3345378,62.1180791 42.688,62.1180791 Z" id="Stroke-39备份" fill="#EBECF1"></path>
                            <path d="M42.688,84.3350282 L56.384,84.3350282 C56.7374622,84.3350282 57.024,84.0484905 57.024,83.6950282 L57.024,80.9529944 C57.024,80.5995321 56.7374622,80.3129944 56.384,80.3129944 L42.688,80.3129944 C42.3345378,80.3129944 42.048,80.5995321 42.048,80.9529944 L42.048,83.6950282 C42.048,84.0484905 42.3345378,84.3350282 42.688,84.3350282 Z" id="Stroke-40" fill="#EBECF1"></path>
                            <path d="M42.688,67.8638418 L56.384,67.8638418 C56.7374622,67.8638418 57.024,67.577304 57.024,67.2238418 L57.024,64.4818079 C57.024,64.1283457 56.7374622,63.8418079 56.384,63.8418079 L42.688,63.8418079 C42.3345378,63.8418079 42.048,64.1283457 42.048,64.4818079 L42.048,67.2238418 C42.048,67.577304 42.3345378,67.8638418 42.688,67.8638418 Z" id="Stroke-40备份" fill="#EBECF1"></path>
                            <path d="M42.688,45.519209 L71.36,45.519209 C71.7134622,45.519209 72,45.2326713 72,44.879209 L72,42.1371751 C72,41.7837129 71.7134622,41.4971751 71.36,41.4971751 L42.688,41.4971751 C42.3345378,41.4971751 42.048,41.7837129 42.048,42.1371751 L42.048,44.879209 C42.048,45.2326713 42.3345378,45.519209 42.688,45.519209 Z" id="Stroke-39备份-2" fill="#EBECF1"></path>
                            <path d="M42.688,51.2649718 L56.384,51.2649718 C56.7374622,51.2649718 57.024,50.978434 57.024,50.6249718 L57.024,47.8829379 C57.024,47.5294756 56.7374622,47.2429379 56.384,47.2429379 L42.688,47.2429379 C42.3345378,47.2429379 42.048,47.5294756 42.048,47.8829379 L42.048,50.6249718 C42.048,50.978434 42.3345378,51.2649718 42.688,51.2649718 Z" id="Stroke-40备份-2" fill="#EBECF1"></path>
                            <path d="M70.848,110.19096 L70.848,110.19096 C64.8874789,110.19096 60.0104804,105.224052 60.0104804,99.1536447 L60.0104804,91.8045198 L21.6758039,91.8045198 L0,91.8045198 L0,99.1536447 C0,105.224052 4.87699852,110.19096 10.8382843,110.19096 L70.848,110.19096 Z" id="Stroke-11" stroke="#A6A8B6" stroke-width="0.96" fill="#F6F7F8" stroke-linecap="round" stroke-linejoin="round"></path>
                            <path d="M93.7876256,72.9173091 C100.28617,79.3991636 100.28617,89.9091273 93.7876256,96.3917165 C87.2890812,102.873571 76.7539864,102.873571 70.2554421,96.3917165 C63.7568978,89.9091273 63.7568978,79.3991636 70.2554421,72.9173091 C76.7539864,66.4347199 87.2890812,66.4347199 93.7876256,72.9173091 Z" id="Stroke-15" stroke="#A6A8B6" stroke-width="0.96" fill="#FFFFFF" stroke-linecap="round" stroke-linejoin="round"></path>
                            <path d="M91.3895015,75.3094249 C96.5628779,80.4700141 96.5628779,88.837753 91.3895015,93.9990497 C86.216125,99.1596388 77.8276519,99.1596388 72.6535662,93.9990497 C67.4801897,88.837753 67.4801897,80.4700141 72.6535662,75.3094249 C77.8276519,70.1488358 86.216125,70.1488358 91.3895015,75.3094249" id="Fill-17" stroke="#A6A8B6" stroke-width="0.96" fill="#FFFFFF" stroke-linecap="round" stroke-linejoin="round"></path>
                            <path d="M100.495933,103.312524 L100.495933,103.312524 C100.091292,103.716164 99.4283707,103.716164 99.0237303,103.312524 L93.6154803,97.9176419 C93.2108399,97.5140016 93.2108399,96.8527187 93.6154803,96.4490784 C94.0209034,96.0446575 94.6830423,96.0446575 95.0876827,96.4490784 L100.495933,101.843961 C100.901356,102.247601 100.901356,102.908103 100.495933,103.312524 Z" id="Stroke-23" stroke="#A6A8B6" stroke-width="0.864" fill="#B6D3F1" stroke-linecap="round" stroke-linejoin="round"></path>
                            <path d="M109.118854,111.913547 L109.118854,111.913547 C107.92266,113.106784 105.964497,113.106784 104.768303,111.913547 L97.6651455,104.827947 C96.4689515,103.634709 96.4689515,101.681386 97.6651455,100.488148 C98.8613396,99.294911 100.819503,99.294911 102.015697,100.488148 L109.118854,107.573748 C110.315049,108.766986 110.315049,110.720309 109.118854,111.913547" id="Fill-25" stroke="#A6A8B6" stroke-width="0.864" fill="#FFFFFF" stroke-linecap="round" stroke-linejoin="round"></path>
                            <path d="M107.686981,110.485212 L107.686981,110.485212 C107.141622,111.029223 106.24929,111.029223 105.703931,110.485212 L98.905019,103.703105 C98.3596603,103.159094 98.3596603,102.268968 98.905019,101.724957 C99.4503777,101.180946 100.34271,101.180946 100.888069,101.724957 L107.686981,108.507064 C108.23234,109.051075 108.23234,109.941202 107.686981,110.485212" id="Fill-29" fill="#E3EBFC"></path>
                            <polygon id="Stroke-31" stroke="#A6A8B6" stroke-width="0.96" fill="#E3EBFC" stroke-linecap="round" stroke-linejoin="round" points="28.224 51.0096045 38.016 51.0096045 38.016 41.2418079 28.224 41.2418079"></polygon>
                            <polygon id="Stroke-35" stroke="#A6A8B6" stroke-width="0.96" fill="#E7F0FA" stroke-linecap="round" stroke-linejoin="round" points="28.224 67.6723164 38.016 67.6723164 38.016 57.9045198 28.224 57.9045198"></polygon>
                            <polygon id="Stroke-38" stroke="#A6A8B6" stroke-width="0.96" fill="#E7F0FA" stroke-linecap="round" stroke-linejoin="round" points="28.224 84.3350282 38.016 84.3350282 38.016 74.5672316 28.224 74.5672316"></polygon>
                            <path d="M98.56,46.9875706 L81.28,46.9875706 L81.28,36.2168289 C81.28,31.3965084 85.1677523,27.4519774 89.920381,27.4519774 C94.6722477,27.4519774 98.56,31.3965084 98.56,36.2168289 L98.56,46.9875706 Z" id="Stroke-3" stroke="#A6A8B6" stroke-width="0.96" stroke-linecap="round" stroke-linejoin="round"></path>
                        </g>
                        <g id="编组" transform="translate(73.600000, 84.909605)" stroke="#D3E0FC" stroke-linecap="round" stroke-width="2.56">
                            <path d="M3.045568,5.99366045 C1.198528,4.64149096 -0.000192,2.46001638 -0.000192,0.000191525424" id="Stroke-1"></path>
                            <path d="M7.449024,7.43042034 C7.050304,7.43042034 6.659904,7.39913785 6.277824,7.33912655" id="Stroke-3"></path>
                        </g>
                        <g id="编组备份-2" transform="translate(3.840000, 8.937853)">
                            <path d="M107.776,60.1389831 C107.776,61.6200335 106.572622,62.820339 105.08778,62.820339 C103.602938,62.820339 102.4,61.6200335 102.4,60.1389831 C102.4,58.6579326 103.602938,57.4576271 105.08778,57.4576271 C106.572622,57.4576271 107.776,58.6579326 107.776,60.1389831 Z" id="Stroke-3" stroke="#E3EBFC" stroke-width="1.28" stroke-linecap="round"></path>
                            <path d="M78.417408,1.7643322 C78.417408,2.73873695 77.6255232,3.52866441 76.648704,3.52866441 C75.6718848,3.52866441 74.88,2.73873695 74.88,1.7643322 C74.88,0.789927458 75.6718848,0 76.648704,0 C77.6255232,0 78.417408,0.789927458 78.417408,1.7643322 Z" id="Stroke-5" stroke="#3B71E8" stroke-width="1.28" fill="#FFFFFF" stroke-linecap="round"></path>
                            <path d="M101.12,48.200335 C101.12,49.4345223 100.117015,50.4350282 98.8802306,50.4350282 C97.6429851,50.4350282 96.64,49.4345223 96.64,48.200335 C96.64,46.9661476 97.6429851,45.9661017 98.8802306,45.9661017 C100.117015,45.9661017 101.12,46.9661476 101.12,48.200335" id="Fill-9" fill="#3B71E8"></path>
                            <path d="M46.8195328,7.07224226 C46.8195328,8.15711887 45.9378688,9.03713989 44.8497664,9.03713989 C43.7622016,9.03713989 42.88,8.15711887 42.88,7.07224226 C42.88,5.98682938 43.7622016,5.10734463 44.8497664,5.10734463 C45.9378688,5.10734463 46.8195328,5.98682938 46.8195328,7.07224226" id="Fill-11" fill="#3B71E8"></path>
                            <path d="M6.1651968,30.1156415 C6.1651968,31.8140123 4.7851776,33.1906205 3.0825984,33.1906205 C1.3800192,33.1906205 0,31.8140123 0,30.1156415 C0,28.4172706 1.3800192,27.0406625 3.0825984,27.0406625 C4.7851776,27.0406625 6.1651968,28.4172706 6.1651968,30.1156415" id="Fill-13" fill="#3B71E8"></path>
                            <path d="M31.462784,12.1809403 C31.462784,13.6197559 30.293504,14.7861458 28.8511232,14.7861458 C27.4087424,14.7861458 26.24,13.6197559 26.24,12.1809403 C26.24,10.7421247 27.4087424,9.57627119 28.8511232,9.57627119 C30.293504,9.57627119 31.462784,10.7421247 31.462784,12.1809403 Z" id="Stroke-15" stroke="#DCE6FE" stroke-width="0.96" stroke-linecap="round"></path>
                            <path d="M93.9438336,9.52519774 C93.9438336,10.9355369 92.7971348,12.0788701 91.3841767,12.0788701 C89.9698462,12.0788701 88.8238336,10.9355369 88.8238336,9.52519774 C88.8238336,8.11485861 89.9698462,6.97152542 91.3841767,6.97152542 C92.7971348,6.97152542 93.9438336,8.11485861 93.9438336,9.52519774" id="Fill-17" fill="#E3EBFC"></path>
                            <path d="M10.4110336,46.051139 C10.4110336,47.1558576 9.512704,48.0514305 8.4057856,48.0514305 C7.297792,48.0514305 6.4,47.1558576 6.4,46.051139 C6.4,44.9464203 7.297792,44.0508475 8.4057856,44.0508475 C9.512704,44.0508475 10.4110336,44.9464203 10.4110336,46.051139" id="Fill-17备份" stroke="#D2E8F5" stroke-width="0.64"></path>
                            <g id="编组" transform="translate(28.114683, 54.100082) rotate(26.000000) translate(-28.114683, -54.100082) translate(24.274683, 52.504037)" fill="#FEB70F">
                                <line x1="0.50007552" y1="0.205981763" x2="7.66252032" y2="2.78008346" id="Fill-39"></line>
                            </g>
                            <g id="编组" transform="translate(13.158400, 48.079878)">
                                <line x1="2.68353792" y1="0.0656395932" x2="0.10305792" y2="7.21038061" id="Fill-42" fill="#FEB70F"></line>
                                <g id="编组-3" transform="translate(13.721600, 3.631986)" stroke="#3B71E8" stroke-linecap="round" stroke-linejoin="round" stroke-width="1.28">
                                    <line x1="0" y1="4.46892655" x2="4.48" y2="0" id="路径-2"></line>
                                    <line x1="0" y1="4.46892655" x2="4.48" y2="0" id="路径-2" transform="translate(2.240000, 2.234463) scale(-1, 1) translate(-2.240000, -2.234463) "></line>
                                </g>
                            </g>
                        </g>
                    </g>
                </g>
            </g>
        </g>
    </g>
</svg>