<?xml version="1.0" encoding="UTF-8"?>
<svg width="148px" height="148px" viewBox="0 0 148 148" version="1.1" xmlns="http://www.w3.org/2000/svg" xmlns:xlink="http://www.w3.org/1999/xlink">
    <!-- Generator: Sketch 61 (89581) - https://sketch.com -->
    <title>矩形</title>
    <desc>Created with Sketch.</desc>
    <g id="Components" stroke="none" stroke-width="1" fill="none" fill-rule="evenodd">
        <g id="移动端-空状态图片" transform="translate(-387.000000, -161.000000)">
            <g id="即将上线" transform="translate(387.000000, 161.000000)">
                <g id="Group-17">
                    <rect id="矩形" fill="#D8D8D8" opacity="0" x="0" y="0" width="148" height="148"></rect>
                    <path d="M54.79092,40.202663 C61.9592497,23.3689426 73.5926707,15.9404067 89.691183,17.9170555 C113.838951,20.8820287 123.809549,80.9063162 81.1802493,87.2330477 C38.5509499,93.5597791 25.8396497,108.314832 43.5093367,132.083786" id="路径-4" stroke="#D7E2FE" stroke-width="0.972972973" stroke-linecap="round" stroke-dasharray="1.945945945945946,2.594594594594595" transform="translate(73.135226, 74.844636) rotate(-97.000000) translate(-73.135226, -74.844636) "></path>
                    <path d="M138.067629,94.1412085 C138.067629,95.205605 137.207716,96.0684866 136.146981,96.0684866 C135.086246,96.0684866 134.226332,95.205605 134.226332,94.1412085 C134.226332,93.0768121 135.086246,92.2139304 136.146981,92.2139304 C137.207716,92.2139304 138.067629,93.0768121 138.067629,94.1412085 Z" id="Stroke-9" stroke="#D7E2FE" stroke-width="0.972972973" stroke-linecap="round" transform="translate(136.146981, 94.141209) rotate(-97.000000) translate(-136.146981, -94.141209) "></path>
                    <path d="M48.0676293,98.1412085 C48.0676293,99.205605 47.2077158,100.068487 46.1469807,100.068487 C45.0862455,100.068487 44.226332,99.205605 44.226332,98.1412085 C44.226332,97.0768121 45.0862455,96.2139304 46.1469807,96.2139304 C47.2077158,96.2139304 48.0676293,97.0768121 48.0676293,98.1412085 Z" id="Stroke-9-Copy" stroke="#D5E1FD" stroke-width="0.972972973" stroke-linecap="round" transform="translate(46.146981, 98.141209) rotate(-97.000000) translate(-46.146981, -98.141209) "></path>
                    <path d="M92.1085773,78.3371921 C92.1085773,81.0875176 89.8861124,83.3170679 87.1458314,83.3170679 C84.4043827,83.3170679 82.1825016,81.0875176 82.1825016,78.3371921 C82.1825016,75.5868667 84.4043827,73.3573164 87.1458314,73.3573164 C89.8861124,73.3573164 92.1085773,75.5868667 92.1085773,78.3371921" id="Fill-15" fill="#FFFFFF"></path>
                    <path d="M95.8918919,26.9524617 C95.8918919,28.0309989 95.0205728,28.9053254 93.9457456,28.9053254 C92.8709185,28.9053254 92,28.0309989 92,26.9524617 C92,25.8739246 92.8709185,25 93.9457456,25 C95.0205728,25 95.8918919,25.8739246 95.8918919,26.9524617" id="Fill-19" fill="#3B71E8"></path>
                    <path d="M27.1891892,101.603282 C27.1891892,103.041332 26.0274304,104.207101 24.5943275,104.207101 C23.1612246,104.207101 22,103.041332 22,101.603282 C22,100.165233 23.1612246,99 24.5943275,99 C26.0274304,99 27.1891892,100.165233 27.1891892,101.603282" id="Fill-19备份" fill="#3B71E8" transform="translate(24.594595, 101.603550) scale(-1, 1) translate(-24.594595, -101.603550) "></path>
                    <path d="M22.6714595,69.8458107 C22.6714595,71.4175089 21.4017297,72.6910355 19.8354378,72.6910355 C18.2691459,72.6910355 17,71.4175089 17,69.8458107 C17,68.2741124 18.2691459,67 19.8354378,67 C21.4017297,67 22.6714595,68.2741124 22.6714595,69.8458107" id="Fill-21" fill="#E3EBFC"></path>
                    <path d="M77.8251978,74.7629992 C77.9816519,74.6540406 78.1346032,74.5386383 78.2887222,74.4255791 C78.1468627,74.5292655 78.000333,74.6241649 77.8567222,74.7243365 C77.8456303,74.7372241 77.8357059,74.7501116 77.8251978,74.7629992" id="路径" fill="#E7F0FA"></path>
                    <line x1="106" y1="46.0710059" x2="111.837838" y2="48.4142012" id="Stroke-41" stroke="#83A7F8" stroke-width="1.16756757" stroke-linecap="round"></line>
                    <line x1="110.335135" y1="44.0710059" x2="108" y2="49.9289941" id="Stroke-44" stroke="#83A7F8" stroke-width="1.16756757" stroke-linecap="round"></line>
                    <path d="M39.9990999,53 L40.0009001,54.4708081 M42.295836,54.1025612 L41.1539363,55.0295697 M42.867656,56.5970975 L41.4341396,56.2679917 M41.2804285,58.5899269 L40.6340507,57.2687624 M38.7211895,58.590716 L39.3643314,57.2679733 M37.132749,56.5988515 L38.5654554,56.2662377 M37.7030312,54.1039602 L38.8471966,55.0281707" id="Stroke-44-Copy" stroke="#83A7F8" stroke-width="1.16756757" stroke-linecap="round"></path>
                    <path d="M108.9991,65 L109.0009,66.4708081 M111.295836,66.1025612 L110.153936,67.0295697 M111.867656,68.5970975 L110.43414,68.2679917 M110.280428,70.5899269 L109.634051,69.2687624 M107.721189,70.590716 L108.364331,69.2679733 M106.132749,68.5988515 L107.565455,68.2662377 M106.703031,66.1039602 L107.847197,67.0281707" id="Stroke-44-Copy-2" stroke="#3B71E8" stroke-width="1.16756757" opacity="0.390457589" stroke-linecap="round"></path>
                    <path d="M57,54.5 C53.4101491,54.5 50.5,57.4101491 50.5,61 L50.5,127 C50.5,130.589851 53.4101491,133.5 57,133.5 L93,133.5 C96.5898509,133.5 99.5,130.589851 99.5,127 L99.5,61 C99.5,57.4101491 96.5898509,54.5 93,54.5 L57,54.5 Z" id="Rectangle-18" stroke="#979797" fill="#E7F0FA"></path>
                    <path d="M50.8918919,61 L88.8918919,61 C92.7578851,61 95.8918919,64.1340068 95.8918919,68 L95.8918919,129 C95.8918919,132.865993 92.7578851,136 88.8918919,136 L57.8918919,136 C54.0258986,136 50.8918919,132.865993 50.8918919,129 L50.8918919,61 L50.8918919,61 Z" id="Rectangle-18" fill="#FFFFFF"></path>
                    <rect id="Rectangle-18" stroke="#979797" fill="#FFFFFF" x="55.5" y="66.5" width="40" height="58" rx="3"></rect>
                    <circle id="Oval-6" stroke="#979797" fill="#FFFFFF" cx="75.5" cy="95.5" r="11"></circle>
                    <circle id="Oval-6" fill="#E7F0FA" cx="77" cy="97" r="8"></circle>
                    <circle id="Oval-6" fill="#3B71E8" cx="76.5" cy="98.5" r="5.5"></circle>
                    <rect id="Rectangle-18" stroke="#979797" fill="#EBECF1" x="67.5" y="59.5" width="15" height="2" rx="1"></rect>
                    <rect id="Rectangle-14" stroke="#979797" x="15.5" y="116.5" width="119" height="1" rx="0.5"></rect>
                    <rect id="Rectangle-16" fill="#FFFFFF" x="22" y="117" width="108" height="24"></rect>
                    <circle id="Oval-5" stroke="#CCE0F5" fill="#FFFFFF" cx="70.5" cy="26.5" r="12.5"></circle>
                    <rect id="Rectangle" fill="#CCE0F5" x="62" y="20" width="16" height="10" rx="2.44"></rect>
                    <path d="M68.5,31 L72.5,31 C73.3284271,31 74,31.6715729 74,32.5 C74,33.3284271 73.3284271,34 72.5,34 L68.5,34 C67.6715729,34 67,33.3284271 67,32.5 C67,31.6715729 67.6715729,31 68.5,31 Z" id="Rectangle-2" fill="#E7F0FA"></path>
                    <polyline id="Path-2" stroke="#FFFFFF" stroke-width="0.5" points="65.4676308 25.4926732 71.4569919 22.3437108 74.4940853 27.488511"></polyline>
                    <path d="M65.5,24 C66.3284271,24 67,24.6715729 67,25.5 C67,26.3284271 66.3284271,27 65.5,27 C64.6715729,27 64,26.3284271 64,25.5 C64,24.6715729 64.6715729,24 65.5,24 Z" id="Rectangle-11" fill="#FFFFFF"></path>
                    <path d="M71.5,21 C72.3284271,21 73,21.6715729 73,22.5 C73,23.3284271 72.3284271,24 71.5,24 C70.6715729,24 70,23.3284271 70,22.5 C70,21.6715729 70.6715729,21 71.5,21 Z" id="Rectangle-11-Copy" fill="#FFFFFF"></path>
                    <path d="M74.5,26 C75.3284271,26 76,26.6715729 76,27.5 C76,28.3284271 75.3284271,29 74.5,29 C73.6715729,29 73,28.3284271 73,27.5 C73,26.6715729 73.6715729,26 74.5,26 Z" id="Rectangle-11-Copy-2" fill="#FFFFFF"></path>
                    <circle id="Oval-5-Copy" stroke="#CCE0F5" fill="#FFFFFF" cx="22" cy="74.5" r="12.5"></circle>
                    <circle id="Oval-5-Copy-2" stroke="#CCE0F5" fill="#FFFFFF" cx="121.5" cy="85.8573164" r="12.5"></circle>
                    <g id="Group-2" transform="translate(21.000000, 68.000000)">
                        <g id="Rectangle-4">
                            <path d="M4,1.23076923 C5.52940392,1.23076923 6.76923077,2.47059608 6.76923077,4 C6.76923077,5.52940392 5.52940392,6.76923077 4,6.76923077 C2.47059608,6.76923077 1.23076923,5.52940392 1.23076923,4 C1.23076923,2.47059608 2.47059608,1.23076923 4,1.23076923 Z" id="Mask-Copy" fill="#CCE0F5" transform="translate(4.000000, 4.000000) rotate(49.000000) translate(-4.000000, -4.000000) "></path>
                            <path d="M2.2213447,3.68287797 L5.29826777,3.68287797 C5.46820154,3.68287797 5.60596008,3.82063651 5.60596008,3.99057028 C5.60596008,4.16050405 5.46820154,4.29826259 5.29826777,4.29826259 L2.2213447,4.29826259 C2.05141093,4.29826259 1.91365239,4.16050405 1.91365239,3.99057028 C1.91365239,3.82063651 2.05141093,3.68287797 2.2213447,3.68287797 Z" id="Rectangle" fill="#FFFFFF" transform="translate(3.759806, 4.182878) rotate(49.000000) translate(-3.759806, -4.182878) "></path>
                            <path d="M-5.17582477,5.08996322 L2.949762,5.08996322 C4.84330972,5.08996322 6.37833343,6.62498694 6.37833343,8.51853465 C6.37833343,10.4120824 4.84330972,11.9471061 2.949762,11.9471061 L-5.17582477,11.9471061 C-7.06937249,11.9471061 -8.6043962,10.4120824 -8.6043962,8.51853465 C-8.6043962,6.62498694 -7.06937249,5.08996322 -5.17582477,5.08996322 Z" id="Mask" fill="#CCE0F5" transform="translate(-1.113031, 8.518535) rotate(49.000000) translate(1.113031, -8.518535) "></path>
                        </g>
                    </g>
                    <path d="M21.9014092,75 L18,78.1958698 C19.2860525,79.7619246 20.2484034,80.822104 20.8870527,81.376408 C21.8450266,82.207864 23.2107983,82.207864 24.0412493,81.376408 C24.8717003,80.544952 25.198885,79.7767387 24.8793133,78.8512924 C24.6662656,78.2343281 23.6736309,76.950564 21.9014092,75 Z" id="Path-5" fill="#FFFFFF" transform="translate(21.500000, 78.500000) rotate(-360.000000) translate(-21.500000, -78.500000) "></path>
                    <path d="M15.1447387,73 C14.794616,73.6666667 15.079703,74.3333333 16,75" id="Path-6" stroke="#FFFFFF" stroke-linecap="round" stroke-linejoin="round"></path>
                    <g id="shou" transform="translate(65.000000, 95.000000)">
                        <path d="M6.47597896,14.8345352 L6.47597896,3.75831665 C6.47597896,1.40881909 8.40204709,-0.5 10.7682576,-0.5 C13.0568012,-0.5 14.5071435,1.30000482 14.5071435,3.75831665 L14.5071435,9.74457572 C14.6572307,9.7422459 14.8251084,9.74782197 15.01548,9.75928043 C15.1135035,9.76518046 15.2097175,9.77211877 15.3471723,9.78282917 C15.7343488,9.81299778 15.8084318,9.81793174 15.9164808,9.81793174 C17.3268711,9.81793174 18.6387636,10.5114519 19.4352491,11.6459896 C19.9483889,11.4361194 20.49985,11.3276299 21.0621512,11.3276299 C22.6984966,11.3276299 24.177804,12.2539929 24.8978925,13.6772443 C25.3220674,13.5414929 25.7653885,13.4715882 26.2104265,13.4715882 C27.3544602,13.4715882 28.4332556,13.9154614 29.2438725,14.7198696 L29.2438857,14.7198827 C30.0546095,15.5244566 30.5016485,16.5954136 30.5,17.7300598 L30.5,24.4233528 C30.5,32.1866743 24.129521,38.5 16.300455,38.5 C12.9381827,38.5 9.67507025,37.3119831 7.11119122,35.1541535 C4.57941039,33.0221484 2.87426996,30.0700388 2.30988862,26.8408275 C2.24275744,26.4591139 0.951169248,21.5700457 -0.441250555,16.3890579 C-0.57102444,15.9128709 -0.483375541,15.4025991 -0.203017777,14.9911445 C0.0766467053,14.5796018 0.521544265,14.3106975 1.01391927,14.2540222 C1.98110396,14.137307 2.25650536,14.1047114 2.28329386,14.104481 C2.29625118,14.1036362 2.33113503,14.0996019 2.44863131,14.0851612 C2.53213366,14.074824 2.53213366,14.074824 2.62609002,14.0636962 C2.94779731,14.0264029 3.22631298,14.0066613 3.53349707,14.0066613 C4.5685913,14.0066613 5.51974227,14.2594373 6.35247071,14.758386 C6.3939062,14.7831227 6.4350777,14.8085077 6.47597896,14.8345352 Z" id="Shape" stroke="#979797" fill="#FFFFFF" fill-rule="nonzero" stroke-linejoin="round"></path>
                        <path d="M26.2104265,13.9715882 C27.2226177,13.9715882 28.1747902,14.3633797 28.8916809,15.0747796 C29.6077901,15.7854566 30.0014547,16.7284306 30,17.7300598 L30,17.7300598 L30,24.4233528 C30,29.4206566 27.2614668,33.7960298 23.193563,36.1529629 C25.3326473,33.9116598 27.010306,30.6946793 28.2266036,26.5028353 L28.2266036,26.5028353 L28.2266036,17.7392948 C28.2266036,16.7830222 27.1196249,16.3683757 24.9056675,16.495355 L24.9056675,16.495355 L24.9059536,14.2028279 C25.3236513,14.0506148 25.7659246,13.9715882 26.2104265,13.9715882 Z" id="Combined-Shape" fill="#CCE0F5" fill-rule="nonzero"></path>
                        <path d="M14.5,16.1275221 L14.5,9.79573984 L14.8546923,9.43875137 C14.7739215,9.52004504 14.6425423,9.52046893 14.5612486,9.43969815 C14.5220454,9.40074712 14.5,9.34776662 14.5,9.29250295 L14.5,16.1275221 Z" id="Rectangle-19" stroke="#979797" fill="#D8D8D8"></path>
                        <path d="M19.5,16.785561 L19.5,11.717449 L19.8178522,11.4556903 C19.7350079,11.5239145 19.6125426,11.5120626 19.5443184,11.4292183 C19.5156668,11.3944269 19.5,11.3507579 19.5,11.3056873 L19.5,16.785561 Z" id="Rectangle-19-Copy" stroke="#979797" fill="#D8D8D8"></path>
                        <path d="" id="Rectangle-19-Copy-2" stroke="#979797" fill="#D8D8D8"></path>
                    </g>
                    <path d="M124,81 L126.805651,81 C127.910221,81 128.805651,81.8954305 128.805651,83 L128.805651,89.8181818 C128.805651,90.9227513 127.910221,91.8181818 126.805651,91.8181818 L124,91.8181818 C122.895431,91.8181818 122,90.9227513 122,89.8181818 L122,83 C122,81.8954305 122.895431,81 124,81 Z" id="Rectangle-7" fill="#E7F0FA"></path>
                    <path d="M117,79 L124,79 C125.104569,79 126,79.8954305 126,81 L126,91 C126,92.1045695 125.104569,93 124,93 L117,93 C115.895431,93 115,92.1045695 115,91 L115,81 C115,79.8954305 115.895431,79 117,79 Z" id="Rectangle-7" fill="#CCE0F5"></path>
                    <g id="Group-4" transform="translate(116.000000, 83.000000)" fill="#FFFFFF">
                        <path d="M0.457549341,0 L0.927066044,0 C1.17976357,9.09136931e-18 1.38461538,0.204851817 1.38461538,0.457549341 C1.38461538,0.710246864 1.17976357,0.915098681 0.927066044,0.915098681 L0.457549341,0.915098681 C0.204851817,0.915098681 3.09465213e-17,0.710246864 0,0.457549341 C-3.09465213e-17,0.204851817 0.204851817,1.57442084e-16 0.457549341,0 Z" id="Rectangle-8-Copy"></path>
                        <path d="M3.22678011,0 L8.54245066,0 C8.79514818,-2.68464387e-16 9,0.204851817 9,0.457549341 C9,0.710246864 8.79514818,0.915098681 8.54245066,0.915098681 L3.22678011,0.915098681 C2.97408259,0.915098681 2.76923077,0.710246864 2.76923077,0.457549341 C2.76923077,0.204851817 2.97408259,4.64197819e-17 3.22678011,0 Z" id="Rectangle-8-Copy-2"></path>
                    </g>
                    <g id="Group-4-Copy" transform="translate(116.000000, 85.000000)" fill="#FFFFFF">
                        <path d="M0.457549341,0 L0.927066044,0 C1.17976357,9.09136931e-18 1.38461538,0.204851817 1.38461538,0.457549341 C1.38461538,0.710246864 1.17976357,0.915098681 0.927066044,0.915098681 L0.457549341,0.915098681 C0.204851817,0.915098681 3.09465213e-17,0.710246864 0,0.457549341 C-3.09465213e-17,0.204851817 0.204851817,1.57442084e-16 0.457549341,0 Z" id="Rectangle-8-Copy"></path>
                        <path d="M3.22678011,0 L8.54245066,0 C8.79514818,-2.68464387e-16 9,0.204851817 9,0.457549341 C9,0.710246864 8.79514818,0.915098681 8.54245066,0.915098681 L3.22678011,0.915098681 C2.97408259,0.915098681 2.76923077,0.710246864 2.76923077,0.457549341 C2.76923077,0.204851817 2.97408259,4.64197819e-17 3.22678011,0 Z" id="Rectangle-8-Copy-2"></path>
                    </g>
                    <path d="" id="Path-3" stroke="#979797"></path>
                </g>
            </g>
        </g>
    </g>
</svg>