<?xml version="1.0" encoding="UTF-8"?>
<svg width="148px" height="148px" viewBox="0 0 148 148" version="1.1" xmlns="http://www.w3.org/2000/svg" xmlns:xlink="http://www.w3.org/1999/xlink">
    <!-- Generator: Sketch 61 (89581) - https://sketch.com -->
    <title>矩形</title>
    <desc>Created with Sketch.</desc>
    <g id="Components" stroke="none" stroke-width="1" fill="none" fill-rule="evenodd">
        <g id="移动端-空状态图片" transform="translate(-682.000000, -161.000000)">
            <g id="系统维护" transform="translate(668.000000, 161.000000)">
                <g id="Group-2" transform="translate(14.000000, 0.000000)">
                    <rect id="矩形" fill="#D8D8D8" opacity="0" x="0" y="0" width="148" height="148"></rect>
                    <path d="M79.6978463,15.8533962 C87.303662,8.11766091 95.9325936,6.93067882 105.584641,12.29245 C120.062713,20.3351067 114.090876,55.7115522 77.7650681,64.5510933 C41.4392604,73.3906344 42.4192358,94.7317907 62.0640217,105.645223" id="路径-4" stroke="#D7E2FE" stroke-width="0.972972973" stroke-linecap="round" stroke-dasharray="1.945945945945946,2.594594594594595" transform="translate(80.719215, 57.322611) rotate(-97.000000) translate(-80.719215, -57.322611) "></path>
                    <path d="M134.067629,65.1412085 C134.067629,66.205605 133.207716,67.0684866 132.146981,67.0684866 C131.086246,67.0684866 130.226332,66.205605 130.226332,65.1412085 C130.226332,64.0768121 131.086246,63.2139304 132.146981,63.2139304 C133.207716,63.2139304 134.067629,64.0768121 134.067629,65.1412085 Z" id="Stroke-9" stroke="#D7E2FE" stroke-width="0.972972973" stroke-linecap="round" transform="translate(132.146981, 65.141209) rotate(-97.000000) translate(-132.146981, -65.141209) "></path>
                    <path d="M45.0676293,66.1412085 C45.0676293,67.205605 44.2077158,68.0684866 43.1469807,68.0684866 C42.0862455,68.0684866 41.226332,67.205605 41.226332,66.1412085 C41.226332,65.0768121 42.0862455,64.2139304 43.1469807,64.2139304 C44.2077158,64.2139304 45.0676293,65.0768121 45.0676293,66.1412085 Z" id="Stroke-9-Copy" stroke="#D5E1FD" stroke-width="0.972972973" stroke-linecap="round" transform="translate(43.146981, 66.141209) rotate(-97.000000) translate(-43.146981, -66.141209) "></path>
                    <path d="M92.1085773,78.3371921 C92.1085773,81.0875176 89.8861124,83.3170679 87.1458314,83.3170679 C84.4043827,83.3170679 82.1825016,81.0875176 82.1825016,78.3371921 C82.1825016,75.5868667 84.4043827,73.3573164 87.1458314,73.3573164 C89.8861124,73.3573164 92.1085773,75.5868667 92.1085773,78.3371921" id="Fill-15" fill="#FFFFFF"></path>
                    <path d="M95.8918919,26.9524617 C95.8918919,28.0309989 95.0205728,28.9053254 93.9457456,28.9053254 C92.8709185,28.9053254 92,28.0309989 92,26.9524617 C92,25.8739246 92.8709185,25 93.9457456,25 C95.0205728,25 95.8918919,25.8739246 95.8918919,26.9524617" id="Fill-19" fill="#3B71E8"></path>
                    <path d="M125.189189,79.6032823 C125.189189,81.0413318 124.02743,82.2071006 122.594328,82.2071006 C121.161225,82.2071006 120,81.0413318 120,79.6032823 C120,78.1652328 121.161225,77 122.594328,77 C124.02743,77 125.189189,78.1652328 125.189189,79.6032823" id="Fill-19备份" fill="#3B71E8" transform="translate(122.594595, 79.603550) scale(-1, 1) translate(-122.594595, -79.603550) "></path>
                    <path d="M22.6714595,69.8458107 C22.6714595,71.4175089 21.4017297,72.6910355 19.8354378,72.6910355 C18.2691459,72.6910355 17,71.4175089 17,69.8458107 C17,68.2741124 18.2691459,67 19.8354378,67 C21.4017297,67 22.6714595,68.2741124 22.6714595,69.8458107" id="Fill-21" fill="#E3EBFC"></path>
                    <path d="M77.8251978,74.7629992 C77.9816519,74.6540406 78.1346032,74.5386383 78.2887222,74.4255791 C78.1468627,74.5292655 78.000333,74.6241649 77.8567222,74.7243365 C77.8456303,74.7372241 77.8357059,74.7501116 77.8251978,74.7629992" id="路径" fill="#E7F0FA"></path>
                    <path d="M74,65.139739 L76.5996836,61.5 L86,61.5 C89.5898509,61.5 92.5,58.5898509 92.5,55 L92.5,40 C92.5,36.4101491 89.5898509,33.5 86,33.5 L62,33.5 C58.4101491,33.5 55.5,36.4101491 55.5,40 L55.5,55 C55.5,58.5898509 58.4101491,61.5 62,61.5 L71.4003164,61.5 L74,65.139739 Z" id="Combined-Shape" stroke="#979797" fill="#FFFFFF"></path>
                    <path d="M35.1724138,100.5 C32.3992594,100.5 29.9315119,102.259395 29.0274894,104.881061 L23.8550756,119.881061 C23.6199974,120.562787 23.5,121.278881 23.5,122 C23.5,125.589851 26.4101491,128.5 30,128.5 L117.363444,128.5 C118.084563,128.5 118.800657,128.380003 119.482383,128.144924 C122.876131,126.974666 124.678626,123.274809 123.508368,119.881061 L118.335955,104.881061 C117.431932,102.259395 114.964185,100.5 112.19103,100.5 L35.1724138,100.5 Z" id="Rectangle" stroke="#979797"></path>
                    <path d="M93.2495536,39.7453107 L93.2495536,54.7453107 C93.2495536,58.611304 90.1155468,61.7453107 86.2495536,61.7453107 L77.106,61.745 L74.2495536,65.7453107 L71.392,61.745 L62.2495536,61.7453107 C60.158385,61.7453107 58.2813867,60.8283393 56.9987133,59.3745512 C57.7056102,59.6153876 58.4624093,59.7453107 59.2495536,59.7453107 L59.2495536,59.7453107 L83.2495536,59.7453107 C87.1155468,59.7453107 90.2495536,56.611304 90.2495536,52.7453107 L90.2495536,52.7453107 L90.2498823,34.0002293 C92.0631811,35.2652001 93.2495536,37.3667093 93.2495536,39.7453107 Z" id="Combined-Shape" fill="#D3E0FC"></path>
                    <path d="M74,65.139739 L76.5996836,61.5 L86,61.5 C89.5898509,61.5 92.5,58.5898509 92.5,55 L92.5,40 C92.5,36.4101491 89.5898509,33.5 86,33.5 L62,33.5 C58.4101491,33.5 55.5,36.4101491 55.5,40 L55.5,55 C55.5,58.5898509 58.4101491,61.5 62,61.5 L71.4003164,61.5 L74,65.139739 Z" id="Combined-Shape" stroke="#979797"></path>
                    <polygon id="Rectangle" fill="#E3EBFC" points="36 101 112 101 116 119 32 119"></polygon>
                    <polygon id="Rectangle" fill="#D3E0FC" points="38 101 110 101 112 115 36 115"></polygon>
                    <path d="M108.34179,112.904305 L40,112.904305 L40,112.904305 L40,74 L108.34179,74 C108.700029,74 108.990439,74.2904099 108.990439,74.6486486 L108.990439,112.255657 C108.990439,112.613895 108.700029,112.904305 108.34179,112.904305 Z" id="Stroke-31" stroke="#A6A8B6" stroke-width="0.972972973" fill="#FFFFFF" stroke-linecap="round" stroke-linejoin="round"></path>
                    <line x1="17.5" y1="54.4103696" x2="40.5" y2="74.4103696" id="Line" stroke="#A6A8B6" stroke-linecap="square"></line>
                    <line x1="109.5" y1="54.4103696" x2="132.5" y2="74.4103696" id="Line-Copy" stroke="#A6A8B6" stroke-linecap="square" transform="translate(121.000000, 64.410370) scale(1, -1) translate(-121.000000, -64.410370) "></line>
                    <rect id="矩形" stroke="#979797" fill="#E3EBFC" x="65" y="81" width="19" height="7.41439294" rx="0.648648649"></rect>
                    <rect id="矩形" fill="#D3E0FC" x="66" y="82" width="17" height="2.34319527" rx="0.648648649"></rect>
                    <line x1="115" y1="39" x2="120.837838" y2="41.3431953" id="Stroke-41" stroke="#83A7F8" stroke-width="1.16756757" stroke-linecap="round"></line>
                    <line x1="119.335135" y1="37" x2="117" y2="42.8579882" id="Stroke-44" stroke="#83A7F8" stroke-width="1.16756757" stroke-linecap="round"></line>
                    <path d="M40.9990999,47 L41.0009001,48.4708081 M43.295836,48.1025612 L42.1539363,49.0295697 M43.867656,50.5970975 L42.4341396,50.2679917 M42.2804285,52.5899269 L41.6340507,51.2687624 M39.7211895,52.590716 L40.3643314,51.2679733 M38.132749,50.5988515 L39.5654554,50.2662377 M38.7030312,48.1039602 L39.8471966,49.0281707" id="Stroke-44-Copy" stroke="#83A7F8" stroke-width="1.16756757" stroke-linecap="round"></path>
                    <path d="M111.9991,59 L112.0009,60.4708081 M114.295836,60.1025612 L113.153936,61.0295697 M114.867656,62.5970975 L113.43414,62.2679917 M113.280428,64.5899269 L112.634051,63.2687624 M110.721189,64.590716 L111.364331,63.2679733 M109.132749,62.5988515 L110.565455,62.2662377 M109.703031,60.1039602 L110.847197,61.0281707" id="Stroke-44-Copy-2" stroke="#3B71E8" stroke-width="1.16756757" opacity="0.390457589" stroke-linecap="round"></path>
                    <g id="Group" transform="translate(65.000000, 46.000000)" fill="#979797">
                        <circle id="Oval-3" cx="1.5" cy="1.5" r="1.5"></circle>
                        <circle id="Oval-3-Copy" cx="9.5" cy="1.5" r="1.5"></circle>
                        <circle id="Oval-3-Copy-2" cx="17.5" cy="1.5" r="1.5"></circle>
                    </g>
                </g>
            </g>
        </g>
    </g>
</svg>