<?xml version="1.0" encoding="UTF-8"?>
<svg width="148px" height="148px" viewBox="0 0 148 148" version="1.1" xmlns="http://www.w3.org/2000/svg" xmlns:xlink="http://www.w3.org/1999/xlink">
    <!-- Generator: Sketch 61 (89581) - https://sketch.com -->
    <title>矩形</title>
    <desc>Created with Sketch.</desc>
    <g id="Components" stroke="none" stroke-width="1" fill="none" fill-rule="evenodd">
        <g id="移动端-空状态图片" transform="translate(-550.000000, -402.000000)">
            <g id="无网络" transform="translate(504.000000, 402.000000)">
                <g id="编组-6" transform="translate(46.000000, 0.000000)">
                    <rect id="矩形" fill="#D8D8D8" opacity="0" x="0" y="0" width="148" height="148"></rect>
                    <g id="编组-5" transform="translate(14.000000, 19.000000)">
                        <path d="M65.6978463,6.85339622 C73.303662,-0.882339092 81.9325936,-2.06932118 91.5846412,3.29244997 C106.062713,11.3351067 100.090876,46.7115522 63.7650681,55.5510933 C27.4392604,64.3906344 28.4192358,85.7317907 48.0640217,96.6452227" id="路径-4" stroke="#D3E0FC" stroke-width="0.972972973" stroke-linecap="round" stroke-dasharray="1.945945945945946,2.594594594594595"></path>
                        <g id="编组-2" transform="translate(0.000000, 7.635224)">
                            <path d="M29.1858616,55.2693112 C31.0784886,57.1667136 43.8364995,52.9015124 54.3270941,42.3747077 C64.8176886,31.847903 69.0682184,19.0452698 67.1767589,17.1466959 C63.7820562,13.7402757 52.5261211,19.5133231 42.0349427,30.0407136 C31.5443481,40.5675183 25.7911589,51.8628911 29.1852778,55.2693112 C29.1858616,55.2693112 29.1858616,55.2693112 29.1858616,55.2693112 Z" id="Stroke-51" stroke="#A6A8B6" stroke-width="0.875675676" stroke-linecap="round" stroke-linejoin="round"></path>
                            <path d="M38.7587481,24.9302047 C39.1498832,23.712329 38.8667481,22.3239858 37.9035049,21.3574178 C36.5327805,19.9819621 34.3103157,19.9819621 32.9401751,21.3574178 C31.5694508,22.7328734 31.5694508,24.9624237 32.9401751,26.3378793 C33.9034184,27.3044473 35.2869859,27.5891456 36.5006724,27.1960746 L69.3828778,63.9139444 C71.0069643,65.6953586 73.7846076,65.7574533 75.4857535,64.0498497 C77.1874832,62.342832 77.1256022,59.5556012 75.3503157,57.9259089 L38.7587481,24.9302047 Z" id="Stroke-5" stroke="#A6A8B6" stroke-width="0.972972973" fill="#D3E0FC" stroke-linecap="round" stroke-linejoin="round"></path>
                            <path d="M64.1656216,2.57816568 C64.1656216,3.64256213 63.3057081,4.50544379 62.244973,4.50544379 C61.1842378,4.50544379 60.3243243,3.64256213 60.3243243,2.57816568 C60.3243243,1.51376923 61.1842378,0.650887574 62.244973,0.650887574 C63.3057081,0.650887574 64.1656216,1.51376923 64.1656216,2.57816568 Z" id="Stroke-9" stroke="#D3E0FC" stroke-width="0.972972973" stroke-linecap="round"></path>
                            <polygon id="Fill-11" stroke="#A6A8B6" stroke-width="0.972972973" fill="#FFFFFF" stroke-linecap="round" stroke-linejoin="round" points="73.1767784 59.8816568 80.2516541 68.5339053 87.3265297 77.1861538 73.1767784 77.1861538 59.027027 77.1861538 66.1019027 68.5339053"></polygon>
                            <path d="M115.82846,96.3315953 C116.415265,95.2909449 116.756757,94.0871656 116.756757,92.7983842 C116.756757,89.3070491 114.28901,86.4144786 111.04819,85.8413396 C111.45664,85.1869486 111.695867,84.4113047 111.695867,83.5762844 C111.695867,81.2506027 109.85997,79.3649318 107.595535,79.3649318 C106.930814,79.3649318 106.30566,79.5311858 105.751117,79.8186928 C105.759639,79.6680641 105.773031,79.5186855 105.773031,79.3649318 C105.773031,75.0754522 102.386727,71.5978675 98.2084794,71.5978675 C94.5202509,71.5978675 91.4516983,74.3104336 90.7833248,77.898021 C86.2422809,79.7499411 83.027027,84.2925519 83.027027,89.6151816 C83.027027,92.0864918 83.7300975,94.3852978 84.9262304,96.3315953 L115.82846,96.3315953 Z" id="Fill-1" fill="#E3EBFC"></path>
                            <path d="M118.679542,96.2014178 C119.309229,95.0923035 119.675676,93.8093282 119.675676,92.4357585 C119.675676,88.7147304 117.027593,85.6318592 113.549944,85.0210137 C113.988243,84.3235707 114.244951,83.4968976 114.244951,82.6069417 C114.244951,80.1282546 112.274893,78.1185264 109.844981,78.1185264 C109.131684,78.1185264 108.460845,78.2957182 107.865777,78.6021401 C107.874922,78.4416017 107.889293,78.2823955 107.889293,78.1185264 C107.889293,73.5468442 104.255528,69.840471 99.7719473,69.840471 C95.8141944,69.840471 92.5214014,72.7314954 91.8041852,76.5551083 C86.9312958,78.5288653 83.4810811,83.370332 83.4810811,89.0431347 C83.4810811,91.6770312 84.2355298,94.1270744 85.5190724,96.2014178 L118.679542,96.2014178 Z" id="Fill-1备份" stroke="#A6A8B6" stroke-width="0.972972973" stroke-linecap="round" stroke-linejoin="round"></path>
                            <path d="M78.1085773,61.701968 C78.1085773,64.4522935 75.8861124,66.6818438 73.1458314,66.6818438 C70.4043827,66.6818438 68.1825016,64.4522935 68.1825016,61.701968 C68.1825016,58.9516426 70.4043827,56.7220923 73.1458314,56.7220923 C75.8861124,56.7220923 78.1085773,58.9516426 78.1085773,61.701968" id="Fill-15" fill="#FFFFFF"></path>
                            <path d="M78.1085773,61.701968 C78.1085773,64.4522935 75.8861124,66.6818438 73.1458314,66.6818438 C70.4043827,66.6818438 68.1825016,64.4522935 68.1825016,61.701968 C68.1825016,58.9516426 70.4043827,56.7220923 73.1458314,56.7220923 C75.8861124,56.7220923 78.1085773,58.9516426 78.1085773,61.701968 Z" id="Stroke-17" stroke="#A6A8B6" stroke-width="0.972972973" stroke-linecap="round" stroke-linejoin="round"></path>
                            <path d="M36.1943611,22.9765657 C36.1943611,23.623625 35.6715204,24.1481633 35.0268622,24.1481633 C34.3819293,24.1481633 33.8592259,23.623625 33.8592259,22.9765657 C33.8592259,22.3295064 34.3819293,21.804968 35.0268622,21.804968 C35.6715204,21.804968 36.1943611,22.3295064 36.1943611,22.9765657 Z" id="Stroke-17备份" fill="#FFFFFF"></path>
                            <path d="M12.3243243,35.147728 C12.3243243,36.2262651 11.4530052,37.1005917 10.3781781,37.1005917 C9.30335091,37.1005917 8.43243243,36.2262651 8.43243243,35.147728 C8.43243243,34.0691909 9.30335091,33.1952663 10.3781781,33.1952663 C11.4530052,33.1952663 12.3243243,34.0691909 12.3243243,35.147728" id="Fill-19" fill="#3B71E8"></path>
                            <path d="M79.7837838,14.4946855 C79.7837838,13.056636 80.9455426,11.8914032 82.3786454,11.8914032 C83.8117483,11.8914032 84.972973,13.056636 84.972973,14.4946855 C84.972973,15.932735 83.8117483,17.0985037 82.3786454,17.0985037 C80.9455426,17.0985037 79.7837838,15.932735 79.7837838,14.4946855 Z" id="Fill-19备份" fill="#3B71E8"></path>
                            <path d="M22.1322941,51.6209562 C22.1322941,53.1926544 20.8625643,54.4661811 19.2962724,54.4661811 C17.7299805,54.4661811 16.4608346,53.1926544 16.4608346,51.6209562 C16.4608346,50.049258 17.7299805,48.7751456 19.2962724,48.7751456 C20.8625643,48.7751456 22.1322941,50.049258 22.1322941,51.6209562" id="Fill-21" fill="#E3EBFC"></path>
                            <path d="M65.4910144,26.7831854 C63.4244198,31.6822209 59.8998357,37.0349172 54.3305384,42.6234379 C43.83936,53.1508284 31.0807654,57.4160296 29.1887222,55.5174556 C37.2659546,63.622568 53.1349492,65.5767929 63.8567222,58.0891124 C67.871987,53.4413846 70.3081168,47.3836391 70.3081168,40.7494675 C70.3081168,35.2488166 68.6367438,30.1406509 65.776787,25.9059112" id="路径" fill="#F6F7F8"></path>
                            <path d="M63.8251978,58.1277751 C63.9816519,58.0188166 64.1346032,57.9034142 64.2887222,57.790355 C64.1468627,57.8940414 64.000333,57.9889408 63.8567222,58.0891124 C63.8456303,58.102 63.8357059,58.1148876 63.8251978,58.1277751" id="路径" fill="#E7F0FA"></path>
                            <path d="M27.1705816,25.1310166 C27.1705816,20.5067207 30.9062141,16.7587799 35.5140195,16.7587799" id="Fill-23" fill="#FFFFFF"></path>
                            <path d="M23.0840951,20.0662 C23.0840951,15.4419041 26.8197276,11.6939633 31.427533,11.6939633" id="Stroke-25" stroke="#1B65B9" stroke-width="1.62162162" stroke-linecap="round"></path>
                            <path d="M28.0213881,20.0475716 C28.0213881,18.1062215 29.5896637,16.5327787 31.5240908,16.5327787" id="Stroke-25备份" stroke="#1B65B9" stroke-width="1.62162162" stroke-linecap="round"></path>
                            <path d="M17.3112324,20.0662 C17.3112324,12.2428568 23.6312757,5.90099882 31.4277081,5.90099882" id="Fill-26" fill="#FFFFFF"></path>
                            <path d="M17.3112324,20.0662 C17.3112324,12.2428568 23.6312757,5.90099882 31.4277081,5.90099882" id="Stroke-28" stroke="#3B71E8" stroke-width="1.62162162" stroke-linecap="round"></path>
                            <path d="M103.135135,100.302009 L44.7567568,100.302009 L44.7567568,100.302009 L44.7567568,82.728045 L103.135135,82.728045 C103.493374,82.728045 103.783784,83.0184549 103.783784,83.3766936 L103.783784,99.6533608 C103.783784,100.0116 103.493374,100.302009 103.135135,100.302009 Z" id="Stroke-31" stroke="#A6A8B6" stroke-width="0.972972973" fill="#FFFFFF" stroke-linecap="round" stroke-linejoin="round"></path>
                            <path d="M94.9621622,82.6627219 L50.5945946,82.6627219 C50.5945946,79.4274444 53.2173052,76.8047337 56.4525828,76.8047337 L89.104174,76.8047337 C92.3394515,76.8047337 94.9621622,79.4274444 94.9621622,82.6627219 L94.9621622,82.6627219 L94.9621622,82.6627219 Z" id="Stroke-31备份" stroke="#A6A8B6" stroke-width="0.972972973" fill="#FFFFFF" stroke-linecap="round" stroke-linejoin="round"></path>
                            <rect id="矩形" fill="#EBECF1" x="86.4648649" y="86.2428379" width="10.5081081" height="4.10059172" rx="0.648648649"></rect>
                            <rect id="矩形备份-2" fill="#EBECF1" x="86.4648649" y="92.6866249" width="10.5081081" height="4.10059172" rx="0.648648649"></rect>
                            <rect id="矩形备份" fill="#EBECF1" x="73.0378378" y="86.2428379" width="10.5081081" height="4.10059172" rx="0.648648649"></rect>
                            <rect id="矩形备份-4" fill="#EBECF1" x="59.027027" y="86.2428379" width="10.5081081" height="4.10059172" rx="0.648648649"></rect>
                            <rect id="矩形备份-3" fill="#EBECF1" x="73.0378378" y="92.6866249" width="10.5081081" height="4.10059172" rx="0.648648649"></rect>
                            <rect id="矩形备份-6" fill="#EBECF1" x="59.027027" y="92.6866249" width="10.5081081" height="4.10059172" rx="0.648648649"></rect>
                            <path d="M31.0393072,79.1094065 C32.4765992,78.2920658 34.1393199,77.8249089 35.9118081,77.8249089 C41.3559844,77.8249089 45.7695243,82.232369 45.7695243,87.6690456 C45.7695243,88.3488141 45.7002749,89.011662 45.5691432,89.6531751 L45.519048,89.8400379 C46.2004909,89.6369902 46.9231887,89.5273738 47.6709341,89.5273738 C51.8074767,89.5273738 55.1609124,92.8761901 55.1609124,97.0070344 C55.1609124,98.8484419 54.4942034,100.534621 53.3891609,101.838246 L2.82167773,101.84266 C1.24294029,100.059372 0.285236757,97.7154944 0.285236757,95.1487062 C0.285236757,89.5634221 4.81885794,85.0367819 10.4111099,85.0367819 C16.0033618,85.0367819 20.536983,89.5634221 20.536983,95.1487062" id="Stroke-35" fill="#FFFFFF"></path>
                            <path d="M51.0807784,102.134867 C52.08655,100.9719 52.6960476,99.4687768 52.6960476,97.8251254 C52.6960476,94.1379091 49.6438661,91.1487356 45.8789278,91.1487356 C45.1983557,91.1487356 44.5419221,91.2492065 43.9210258,91.4311048 C44.0651864,90.8059526 44.1483302,90.1578168 44.1483302,89.4899808 C44.1483302,84.6371707 40.1312785,80.7030454 35.1761772,80.7030454 C33.5629196,80.7030454 32.0529212,81.1252859 30.7447477,81.8555058 C29.0691322,77.7230654 24.9582085,74.7975892 20.1419037,74.7975892 C13.838398,74.7975892 8.72840787,79.8020907 8.72840787,85.9754693 C8.72840787,86.5539978 8.78741313,87.1174229 8.87390949,87.6723112 C5.30744348,88.918019 2.75010162,92.2453788 2.75010162,96.1663706 C2.75010162,98.4575011 3.62914598,100.543093 5.0660583,102.134867 L51.0807784,102.134867 Z" id="Fill-33" fill="#E3EBFC"></path>
                            <path d="M31.8958464,80.753903 C32.7560508,85.2319025 32.7807551,88.263051 29.6681547,91.795985 C28.0004572,93.6888926 25.9954411,94.4562513 24.2203719,94.8130746 C27.3991937,92.6260448 31.1015336,88.5436024 30.6358434,82.8241509 C30.6528089,81.8265157 31.4338833,81.1721446 31.8958464,80.753903 Z" id="Fill-47备份" fill="#D3E0FC"></path>
                            <path d="M16.6311827,101.84266 C16.6311827,101.84266 20.2553744,101.84266 20.2553744,101.84266 C20.2553744,101.84266 21.9322808,99.7111959 21.0397897,95.0860873 C20.7360434,93.5119991 19.9201785,92.2480573 18.8503868,91.2982817 C20.3332315,96.0459448 19.044016,99.7111959 16.6311827,101.84266 Z" id="Fill-47备份-2" fill="#D3E0FC"></path>
                            <path d="M31.0393072,79.1094065 C32.4765992,78.2920658 34.1393199,77.8249089 35.9118081,77.8249089 C41.3559844,77.8249089 45.7695243,82.232369 45.7695243,87.6690456 C45.7695243,88.3488141 45.7002749,89.011662 45.5691432,89.6531751 L45.519048,89.8400379 C46.2004909,89.6369902 46.9231887,89.5273738 47.6709341,89.5273738 C51.8074767,89.5273738 55.1609124,92.8761901 55.1609124,97.0070344 C55.1609124,98.8484419 54.4942034,100.534621 53.3891609,101.838246 L2.82167773,101.84266 C1.24294029,100.059372 0.285236757,97.7154944 0.285236757,95.1487062 C0.285236757,89.5634221 4.81885794,85.0367819 10.4111099,85.0367819 C16.0033618,85.0367819 20.536983,89.5634221 20.536983,95.1487062" id="Stroke-35" stroke="#A6A8B6" stroke-width="0.972972973" stroke-linecap="round" stroke-linejoin="round"></path>
                            <path d="M31.8095611,84.0965866 C31.8095611,82.3411324 31.4585704,80.6685954 30.8236903,79.1476997 C28.9183126,74.5835186 24.4571921,71.3811219 19.257959,71.3811219 C12.325894,71.3811219 6.70709261,77.0740227 6.70709261,84.0965866 C6.70709261,84.0965866 6.73752372,84.5697751 6.79838593,85.5161521" id="Stroke-37" stroke="#A6A8B6" stroke-width="0.972972973" stroke-linecap="round" stroke-linejoin="round"></path>
                            <path d="M46.9453816,55.0673864 C43.7952843,55.0673864 40.753187,54.6087059 37.8727978,53.7704278 C33.4576411,55.6754456 30.0868735,56.1733746 29.1855114,55.2689012 C38.1156519,64.2298657 56.5795654,65.6896763 67.0707438,55.1628716 C71.1420519,51.0775107 73.407133,45.7859899 74.1409492,40.317558 C68.3305492,49.198268 58.3239114,55.0673864 46.9453816,55.0673864" id="Fill-47" fill="#E3EBFC"></path>
                            <path d="M67.1804368,17.1185775 C69.07248,19.0171515 64.8213665,31.8197846 54.3307719,42.3465893 C43.8401773,52.8739799 31.0809989,57.1391811 29.1889557,55.2411929 C38.1190962,64.2015716 56.5835935,65.661968 67.0747719,55.1345775 C77.5653665,44.607187 76.1105773,26.079542 67.1804368,17.1185775 Z" id="Stroke-49" stroke="#A6A8B6" stroke-width="0.972972973" stroke-linecap="round" stroke-linejoin="round"></path>
                            <line x1="91.4594595" y1="51.4002789" x2="97.2972973" y2="53.7434742" id="Stroke-41" stroke="#3B71E8" stroke-width="1.16756757" stroke-linecap="round"></line>
                            <line x1="95.5459459" y1="49.6428824" x2="93.2108108" y2="55.5008706" id="Stroke-44" stroke="#3B71E8" stroke-width="1.16756757" stroke-linecap="round"></line>
                            <g id="编组-3" transform="translate(102.486486, 26.686391)">
                                <ellipse id="椭圆形" fill="#CCE0F5" cx="6.48648649" cy="6.68430256" rx="4.54054054" ry="4.55621302"></ellipse>
                                <path d="M8.97840432,1.13092512 C10.2971509,0.276345725 11.3076587,-0.0548354364 11.6901919,0.34216606 C12.4437613,1.12441542 10.473698,4.43776405 7.2899279,7.74270431 C4.10615781,11.047735 0.914287633,13.0927764 0.160631054,12.3104366 C-0.216153687,11.9193119 0.0879044571,10.8953898 0.88423892,9.55619919" id="Stroke-12" stroke="#C4C5CE" stroke-width="0.972972973" stroke-linecap="round" stroke-linejoin="round" transform="translate(5.925405, 6.326314) rotate(-360.000000) translate(-5.925405, -6.326314) "></path>
                            </g>
                            <polygon id="Stroke-63" stroke="#3B71E8" stroke-width="0.583783784" fill="#3B71E8" stroke-linejoin="round" points="49.8194231 0.175426823 44.7567568 6.78000386 48.0383689 6.78000386 45.8179356 12.7552221 51.6808995 6.08027889 48.0383689 6.08027889"></polygon>
                        </g>
                    </g>
                </g>
            </g>
        </g>
    </g>
</svg>