<?xml version="1.0" encoding="UTF-8"?>
<svg width="50px" height="50px" viewBox="0 0 50 50" version="1.1" xmlns="http://www.w3.org/2000/svg" xmlns:xlink="http://www.w3.org/1999/xlink">
    <title>编组 11</title>
    <defs>
        <filter x="-30.0%" y="-75.0%" width="160.0%" height="250.0%" filterUnits="objectBoundingBox" id="filter-1">
            <feOffset dx="0" dy="3" in="SourceAlpha" result="shadowOffsetOuter1"></feOffset>
            <feGaussianBlur stdDeviation="1.5" in="shadowOffsetOuter1" result="shadowBlurOuter1"></feGaussianBlur>
            <feColorMatrix values="0 0 0 0 0.352941176   0 0 0 0 0.682352941   0 0 0 0 0.0862745098  0 0 0 0.3 0" type="matrix" in="shadowBlurOuter1" result="shadowMatrixOuter1"></feColorMatrix>
            <feMerge>
                <feMergeNode in="shadowMatrixOuter1"></feMergeNode>
                <feMergeNode in="SourceGraphic"></feMergeNode>
            </feMerge>
        </filter>
        <linearGradient x1="9.48065889%" y1="42.9803534%" x2="87.2943785%" y2="55.3408744%" id="linearGradient-2">
            <stop stop-color="#BFE399" offset="0%"></stop>
            <stop stop-color="#51A90A" offset="100%"></stop>
        </linearGradient>
        <path d="M36.3399317,10.4291029 L39.9452732,15.1407191 L0.803839927,15.1407191 L4.40918138,10.4291029 L36.3399317,10.4291029 Z M11.9371814,0.474797975 L10.8080655,2.86858234 C10.6608275,3.17953124 10.6608275,3.55957989 10.8040861,3.87052879 C10.9294374,4.14260908 11.1492374,4.32399594 11.3941729,4.3650914 L11.5004821,4.37396987 L16.5375661,4.37466513 C17.9916673,6.57325337 19.2280169,8.32570145 19.8793054,9.23426619 L4.40918138,9.23365698 L11.1025416,0.474985304 L11.9371814,0.474797975 Z M29.6465715,0.474985304 L36.3399317,9.23365698 L31.3821814,9.23279797 L31.4054688,9.21588847 L28.3174501,2.85871094 C28.1920988,2.59526812 27.9753456,2.42251873 27.7338376,2.38344768 L27.6290129,2.37501265 L25.5090592,2.37565411 C25.9020748,1.76126298 26.3023025,1.12553382 26.703747,0.474956076 L29.6465715,0.474985304 Z M24.2081655,4.37466513 L27.1713813,4.37396987 L29.5331814,9.23279797 L20.8652127,9.23426619 C21.5167377,8.32570145 22.7535362,6.57325337 24.2081655,4.37466513 Z M14.0428903,0.474956076 C14.4441892,1.12553382 14.8442715,1.76126298 15.2371445,2.37565411 L12.9052123,2.37501265 L13.8021814,0.474797975 Z" id="path-3"></path>
        <filter x="-5.1%" y="-13.6%" width="110.2%" height="127.3%" filterUnits="objectBoundingBox" id="filter-4">
            <feGaussianBlur stdDeviation="1.5" in="SourceAlpha" result="shadowBlurInner1"></feGaussianBlur>
            <feOffset dx="0" dy="-1" in="shadowBlurInner1" result="shadowOffsetInner1"></feOffset>
            <feComposite in="shadowOffsetInner1" in2="SourceAlpha" operator="arithmetic" k2="-1" k3="1" result="shadowInnerInner1"></feComposite>
            <feColorMatrix values="0 0 0 0 0.35557727   0 0 0 0 0.755349864   0 0 0 0 0.106739226  0 0 0 1 0" type="matrix" in="shadowInnerInner1" result="shadowMatrixInner1"></feColorMatrix>
            <feGaussianBlur stdDeviation="1.5" in="SourceAlpha" result="shadowBlurInner2"></feGaussianBlur>
            <feOffset dx="0" dy="1" in="shadowBlurInner2" result="shadowOffsetInner2"></feOffset>
            <feComposite in="shadowOffsetInner2" in2="SourceAlpha" operator="arithmetic" k2="-1" k3="1" result="shadowInnerInner2"></feComposite>
            <feColorMatrix values="0 0 0 0 1   0 0 0 0 1   0 0 0 0 1  0 0 0 0.5 0" type="matrix" in="shadowInnerInner2" result="shadowMatrixInner2"></feColorMatrix>
            <feMerge>
                <feMergeNode in="shadowMatrixInner1"></feMergeNode>
                <feMergeNode in="shadowMatrixInner2"></feMergeNode>
            </feMerge>
        </filter>
        <linearGradient x1="31.3315872%" y1="20.221648%" x2="65.9091291%" y2="84.9041261%" id="linearGradient-5">
            <stop stop-color="#FFDE65" offset="0%"></stop>
            <stop stop-color="#FFB44C" offset="100%"></stop>
        </linearGradient>
        <path d="M20.3745566,0.803839927 C26.4312118,0.803839927 31.3338395,5.710447 31.3338395,11.7671023 C31.3338395,17.8197782 20.3705771,32.7266315 20.3705771,32.7266315 C20.3705771,32.7266315 9.41129419,17.8197782 9.41129419,11.7671023 C9.41129419,5.71442641 14.3179013,0.803839927 20.3745566,0.803839927 Z M20.3745566,7.04752728 C17.7680072,7.04752728 15.6549815,9.16055299 15.6549815,11.7671023 C15.6549815,13.4532441 16.5545274,15.0113034 18.014769,15.8543743 C19.4750106,16.6974452 21.2741025,16.6974452 22.7343441,15.8543743 C24.1945857,15.0113034 25.0941316,13.4532441 25.0941316,11.7671023 C25.0941316,9.16055299 22.9811059,7.04752728 20.3745566,7.04752728 Z" id="path-6"></path>
        <filter x="-41.1%" y="-18.8%" width="182.1%" height="156.4%" filterUnits="objectBoundingBox" id="filter-7">
            <feOffset dx="0" dy="3" in="SourceAlpha" result="shadowOffsetOuter1"></feOffset>
            <feGaussianBlur stdDeviation="2.5" in="shadowOffsetOuter1" result="shadowBlurOuter1"></feGaussianBlur>
            <feColorMatrix values="0 0 0 0 0.937113002   0 0 0 0 0.661024317   0 0 0 0 0.248448558  0 0 0 0.392139355 0" type="matrix" in="shadowBlurOuter1"></feColorMatrix>
        </filter>
        <filter x="-27.4%" y="-9.4%" width="154.7%" height="137.6%" filterUnits="objectBoundingBox" id="filter-8">
            <feGaussianBlur stdDeviation="1" in="SourceAlpha" result="shadowBlurInner1"></feGaussianBlur>
            <feOffset dx="0" dy="0" in="shadowBlurInner1" result="shadowOffsetInner1"></feOffset>
            <feComposite in="shadowOffsetInner1" in2="SourceAlpha" operator="arithmetic" k2="-1" k3="1" result="shadowInnerInner1"></feComposite>
            <feColorMatrix values="0 0 0 0 1   0 0 0 0 1   0 0 0 0 1  0 0 0 1 0" type="matrix" in="shadowInnerInner1"></feColorMatrix>
        </filter>
    </defs>
    <g id="页面-1" stroke="none" stroke-width="1" fill="none" fill-rule="evenodd">
        <g id="惠老服务" transform="translate(-302.000000, -17.000000)" fill-rule="nonzero">
            <g id="编组-13" transform="translate(25.000000, 17.000000)">
                <g id="编组-22备份-3" transform="translate(266.000000, 0.000000)">
                    <g id="编组-11" transform="translate(11.000000, 0.000000)">
                        <g transform="translate(5.000000, 2.000000)">
                            <g id="交通出行" filter="url(#filter-1)" transform="translate(0.000000, 26.000000)">
                                <g id="形状结合">
                                    <use fill="url(#linearGradient-2)" xlink:href="#path-3"></use>
                                    <use fill="black" fill-opacity="1" filter="url(#filter-4)" xlink:href="#path-3"></use>
                                </g>
                            </g>
                            <g id="形状结合">
                                <use fill="black" fill-opacity="1" filter="url(#filter-7)" xlink:href="#path-6"></use>
                                <use fill="url(#linearGradient-5)" xlink:href="#path-6"></use>
                                <use fill="black" fill-opacity="1" filter="url(#filter-8)" xlink:href="#path-6"></use>
                            </g>
                        </g>
                    </g>
                </g>
            </g>
        </g>
    </g>
</svg>