<?xml version="1.0" encoding="UTF-8"?>
<svg width="30px" height="24px" viewBox="0 0 30 24" version="1.1" xmlns="http://www.w3.org/2000/svg" xmlns:xlink="http://www.w3.org/1999/xlink">
    <title>tongzhi-2 2</title>
    <g id="页面-1" stroke="none" stroke-width="1" fill="none" fill-rule="evenodd">
        <g id="首页5版备份-12" transform="translate(-329.000000, -54.000000)" fill="#FFFFFF" fill-rule="nonzero">
            <g id="mail" transform="translate(329.000000, 54.000000)">
                <path d="M26.5402687,1 L3.38473125,1 C1.51869375,1 0,2.517625 0,4.3836625 L0,20.0600875 C0,21.926125 1.51869375,23.44375 3.38473125,23.44375 L26.5402687,23.44375 C28.4063063,23.44375 29.925,21.926125 29.925,20.0600875 L29.925,4.3836625 C29.925,2.517625 28.4063063,1 26.5402687,1 Z M26.5402687,21.30625 L3.38473125,21.30625 C2.69645625,21.30625 2.1375,20.7472938 2.1375,20.0600875 L2.1375,4.3836625 C2.1375,3.69645625 2.69645625,3.1375 3.38473125,3.1375 L26.2474312,3.1375 L15.9778125,12.48265 C15.4904625,12.9689312 14.6995875,12.9678625 14.1491812,12.4228 L5.9914125,5.51760625 C5.53933125,5.1360625 4.86495,5.1916375 4.484475,5.64265 C4.10293125,6.09259375 4.15850625,6.766975 4.60951875,7.14851875 L12.7020937,13.9938625 C13.3668562,14.658625 14.240025,14.9888688 15.10785,14.9888688 C15.9639187,14.9888688 16.8157125,14.667175 17.4516188,14.0291313 L27.7875,4.6252 L27.7875,20.0600875 C27.7875,20.7472938 27.2285437,21.30625 26.5402687,21.30625 Z" id="形状"></path>
            </g>
        </g>
    </g>
</svg>