<?xml version="1.0" encoding="UTF-8"?>
<svg width="38px" height="38px" viewBox="0 0 38 38" version="1.1" xmlns="http://www.w3.org/2000/svg" xmlns:xlink="http://www.w3.org/1999/xlink">
    <title>扫码</title>
    <g id="小程序" stroke="none" stroke-width="1" fill="none" fill-rule="evenodd">
        <g id="H5" transform="translate(-169.000000, -161.000000)" fill="#FFFFFF" fill-rule="nonzero">
            <g id="编组-12" transform="translate(55.000000, 161.000000)">
                <g id="scan" transform="translate(114.000000, 0.000000)">
                    <path d="M36.4489796,23.4785385 C37.2311697,23.4734807 37.8915167,24.0585983 37.9806122,24.8357143 L37.9806122,36.4683674 C37.9769841,37.2472551 37.3962575,37.9026464 36.6234694,38 L24.8163265,38 C24.0156577,37.9761222 23.3648786,37.3464702 23.3145991,36.547025 C23.2643195,35.7475797 23.831081,35.0413528 24.622449,34.9173469 L34.8979592,34.9173469 L34.8979592,25.0295918 C34.8979592,24.6182357 35.0613698,24.2237275 35.3522425,23.9328548 C35.6431153,23.641982 36.0376234,23.4785385 36.4489796,23.4785385 L36.4489796,23.4785385 Z M1.55102039,23.4785714 C2.33321054,23.4734807 2.99355749,24.0585983 3.08265307,24.8357143 L3.08265307,34.8979592 L13.1836735,34.8979592 C13.5950297,34.8979592 13.9895378,35.0613698 14.2804105,35.3522425 C14.5712833,35.6431153 14.7347268,36.0376234 14.7347268,36.4489796 C14.7397845,37.2311697 14.154667,37.8915167 13.377551,37.9806122 L1.55102039,37.9806122 C0.772132686,37.9769841 0.116741311,37.3962575 0.0192649149,36.6234694 L0.0192649149,24.9908163 C0.0142135323,24.5794507 0.172682231,24.1828814 0.45992595,23.8883657 C0.747169669,23.59385 1.13965395,23.4255181 1.55102039,23.4204082 L1.55102039,23.4785714 Z M36.4489796,17.4489796 C37.3055845,17.4489796 38,18.1933062 38,19.1114796 C38,20.029653 37.3055845,20.7739796 36.4489796,20.7739796 L1.55102039,20.7739796 C0.694415484,20.7739796 0,20.029653 0,19.1114796 C0,18.1933062 0.694415484,17.4489796 1.55102039,17.4489796 L36.4489796,17.4489796 Z M36.3687507,0 C37.1884376,0.00377828476 37.8781592,0.608529768 37.9806122,1.41328853 L37.9806122,13.8704172 C37.9554837,14.7042101 37.2928497,15.3819122 36.4515285,15.4342719 C35.6102073,15.4866316 34.8669873,14.8964229 34.7364858,14.0723156 L34.7364858,3.23037375 L24.1267644,3.23037375 C23.2841555,3.20550814 22.5992877,2.54980711 22.5463745,1.71728843 C22.4934612,0.884769754 23.0899104,0.149325903 23.9227312,0.0201898367 L36.3687507,0.0201898367 L36.3687507,0 Z M13.1836735,0 C13.9843423,0.0238777783 14.6351214,0.653529799 14.6854009,1.45297504 C14.7356805,2.25242028 14.168919,2.95864719 13.377551,3.08265307 L3.10204083,3.08265307 L3.10204083,13.1836735 C3.07816305,13.9843423 2.44851103,14.6351214 1.64906578,14.6854009 C0.849620543,14.7356805 0.143393639,14.168919 0.0193877559,13.377551 L0.0193877559,1.55102039 C0.0217069043,0.778591162 0.59204642,0.125593759 1.35714287,0.0193877559 L13.1836735,0.0193877559 L13.1836735,0 Z" id="形状"></path>
                </g>
            </g>
        </g>
    </g>
</svg>