<?xml version="1.0" encoding="UTF-8"?>
<svg width="60px" height="60px" viewBox="0 0 60 60" version="1.1" xmlns="http://www.w3.org/2000/svg" xmlns:xlink="http://www.w3.org/1999/xlink">
    <title>政务服务</title>
    <defs>
        <linearGradient x1="15.4549933%" y1="11.9080157%" x2="85.3944781%" y2="88.2122766%" id="linearGradient-1">
            <stop stop-color="#68C4FA" offset="0%"></stop>
            <stop stop-color="#007AFF" offset="100%"></stop>
        </linearGradient>
        <circle id="path-2" cx="30" cy="30" r="30"></circle>
        <filter x="-34.3%" y="-40.0%" width="168.6%" height="180.0%" filterUnits="objectBoundingBox" id="filter-3">
            <feOffset dx="0" dy="2" in="SourceAlpha" result="shadowOffsetOuter1"></feOffset>
            <feGaussianBlur stdDeviation="2" in="shadowOffsetOuter1" result="shadowBlurOuter1"></feGaussianBlur>
            <feColorMatrix values="0 0 0 0 0   0 0 0 0 0   0 0 0 0 0  0 0 0 0.244312206 0" type="matrix" in="shadowBlurOuter1" result="shadowMatrixOuter1"></feColorMatrix>
            <feMerge>
                <feMergeNode in="shadowMatrixOuter1"></feMergeNode>
                <feMergeNode in="SourceGraphic"></feMergeNode>
            </feMerge>
        </filter>
    </defs>
    <g id="小程序" stroke="none" stroke-width="1" fill="none" fill-rule="evenodd">
        <g id="H5" transform="translate(-33.000000, -595.000000)">
            <g id="编组-20" transform="translate(33.000000, 595.000000)">
                <g id="椭圆形备份-9">
                    <use fill="#0097FE" xlink:href="#path-2"></use>
                    <use fill="url(#linearGradient-1)" xlink:href="#path-2"></use>
                </g>
                <g id="政务信息" filter="url(#filter-3)" transform="translate(13.000000, 14.000000)" fill="#FFFFFF" fill-rule="nonzero">
                    <g id="编组-6" transform="translate(0.018659, 0.004065)">
                        <path d="M28.3939791,9.02137646 C28.2130636,9.02137646 28.065309,8.87291636 28.065309,8.69270637 L28.065309,5.07710026 C28.065309,4.89736065 27.9174957,4.74901814 27.7366389,4.74901814 L17.411871,4.74901814 C17.2314258,4.74901814 17.0832009,4.60020526 17.0832009,4.42034805 L17.0832009,3.46502935 C17.0832009,3.28476057 17.2314258,3.13635927 17.411871,3.13635927 L20.4580371,3.13635927 C20.6394818,3.13635927 20.7874127,2.98801676 20.7874127,2.80768918 L20.7874127,0.327611755 C20.7874127,0.147989732 20.6394818,2.30926389e-14 20.4580371,2.30926389e-14 L16.670864,2.30926389e-14 C16.4900073,2.30926389e-14 16.3420763,0.148048528 16.3420763,0.327611755 L16.3420763,4.42040685 C16.3420763,4.60026406 16.1943218,4.74907693 16.0134062,4.74907693 L5.90765368,4.74907693 C5.72609139,4.74907693 5.57833684,4.89741944 5.57833684,5.07715906 L5.57833684,8.69276517 C5.57833684,8.87291636 5.4304059,9.02143525 5.24890241,9.02143526 L0.3284349,9.02143526 C0.147695752,9.02143526 4.97379915e-14,9.16960138 4.97379915e-14,9.34963497 L4.97379915e-14,29.4791195 C4.97379915e-14,29.6592707 0.147695752,29.8077896 0.3284349,29.8077896 L6.46933263,29.8077896 C6.65024817,29.8077896 6.79806151,29.6593295 6.79806151,29.4791195 L6.79806151,14.099535 C6.79806151,13.9189135 6.9377022,13.7203591 7.10738768,13.6591524 L16.9179251,10.1330927 C17.0876106,10.0711805 17.3664216,10.0711805 17.5365187,10.1330927 L27.345645,13.6591524 C27.5157421,13.7203591 27.6392726,13.7707474 27.6199287,13.7707474 C27.601408,13.7707474 27.5853566,13.9189135 27.5853566,14.099535 L27.5853566,29.4790607 C27.5853566,29.6592119 27.73317,29.8077896 27.9146147,29.8077896 L33.3143878,29.8077896 C33.495127,29.8077896 33.6430579,29.6592707 33.6430579,29.4790607 L33.6430579,9.34957617 C33.6430579,9.16948378 33.495127,9.02137646 33.3143878,9.02137646 L28.3939791,9.02137646 Z" id="路径"></path>
                        <path d="M9.3701548,29.1491559 C9.3701548,29.5121629 9.66642825,29.8077308 10.027789,29.8077308 L11.3265356,29.8077308 C11.688249,29.8077308 11.9844637,29.5121629 11.9844637,29.1491559 L11.9844637,16.0830208 C11.9844637,15.7218365 11.688249,15.4262686 11.3265356,15.4262686 L10.027789,15.4262686 C9.66642825,15.4262686 9.3701548,15.7218365 9.3701548,16.0830208 L9.3701548,29.1491559 Z M13.6842583,29.1491559 C13.6842583,29.5121629 13.9805906,29.8077308 14.3421865,29.8077308 L15.6407567,29.8077308 C16.002235,29.8077308 16.2985084,29.5121629 16.2985084,29.1491559 L16.2985084,16.0830208 C16.2985084,15.7218365 16.0022938,15.4262686 15.6407567,15.4262686 L14.3421865,15.4262686 C13.9805906,15.4262686 13.6842583,15.7218365 13.6842583,16.0830208 L13.6842583,29.1491559 Z M17.9982443,29.1491559 C17.9982443,29.5121629 18.2948117,29.8077308 18.6564076,29.8077308 L19.955507,29.8077308 C20.3176908,29.8077308 20.6132587,29.5121629 20.6132587,29.1491559 L20.6132587,16.0830208 C20.6132587,15.7218365 20.3177496,15.4262686 19.955507,15.4262686 L18.6564076,15.4262686 C18.2948117,15.4262686 17.9982443,15.7218365 17.9982443,16.0830208 L17.9982443,29.1491559 Z M22.3130534,29.1491559 C22.3130534,29.5121629 22.608974,29.8077308 22.9711579,29.8077308 L24.2697281,29.8077308 C24.6317944,29.8077308 24.9273623,29.5121629 24.9273623,29.1491559 L24.9273623,16.0830208 C24.9273623,15.7218365 24.6318532,15.4262686 24.2697281,15.4262686 L22.9711579,15.4262686 C22.608974,15.4262686 22.3130534,15.7218365 22.3130534,16.0830208 L22.3130534,29.1491559 Z" id="形状"></path>
                    </g>
                </g>
            </g>
        </g>
    </g>
</svg>