<?xml version="1.0" encoding="UTF-8"?>
<svg width="60px" height="60px" viewBox="0 0 60 60" version="1.1" xmlns="http://www.w3.org/2000/svg" xmlns:xlink="http://www.w3.org/1999/xlink">
    <title>惠老地图</title>
    <defs>
        <linearGradient x1="20.4990469%" y1="23.8532598%" x2="76.1156917%" y2="78.653556%" id="linearGradient-1">
            <stop stop-color="#FF8E39" offset="0%"></stop>
            <stop stop-color="#FF5318" offset="100%"></stop>
        </linearGradient>
        <circle id="path-2" cx="30" cy="30" r="30"></circle>
        <filter x="-31.8%" y="-31.8%" width="163.6%" height="163.6%" filterUnits="objectBoundingBox" id="filter-4">
            <feOffset dx="0" dy="2" in="SourceAlpha" result="shadowOffsetOuter1"></feOffset>
            <feGaussianBlur stdDeviation="1.5" in="shadowOffsetOuter1" result="shadowBlurOuter1"></feGaussianBlur>
            <feColorMatrix values="0 0 0 0 0   0 0 0 0 0   0 0 0 0 0  0 0 0 0.155530383 0" type="matrix" in="shadowBlurOuter1" result="shadowMatrixOuter1"></feColorMatrix>
            <feMerge>
                <feMergeNode in="shadowMatrixOuter1"></feMergeNode>
                <feMergeNode in="SourceGraphic"></feMergeNode>
            </feMerge>
        </filter>
    </defs>
    <g id="小程序" stroke="none" stroke-width="1" fill="none" fill-rule="evenodd">
        <g id="H5" transform="translate(-33.000000, -363.000000)">
            <g id="编组-6备份-3" transform="translate(33.000000, 363.000000)">
                <g id="矩形备份-6-+-编组-7-蒙版">
                    <mask id="mask-3" fill="white">
                        <use xlink:href="#path-2"></use>
                    </mask>
                    <g id="蒙版">
                        <use fill="#31A890" xlink:href="#path-2"></use>
                        <use fill="url(#linearGradient-1)" xlink:href="#path-2"></use>
                    </g>
                </g>
                <g id="ditu" transform="translate(13.000000, 13.000000)" fill="#FFFFFF">
                    <g id="编组-4" filter="url(#filter-4)" transform="translate(0.000109, 0.005500)">
                        <path d="M32.8920911,26.93405 L29.5139912,16.2239 C29.2103046,15.2609228 28.3171191,14.6063499 27.3073911,14.6063499 L24.6893912,14.6063499 C22.9750412,17.3789 20.5803411,19.6559 18.9853412,21.1662 L18.7092411,21.428 C18.1137319,21.9950352 17.3227305,22.3109631 16.5004412,22.3102 C15.6755711,22.3107102 14.8822664,21.9931519 14.2855911,21.4236 L13.9649411,21.1189 C12.2830411,19.52445 9.94884114,17.303 8.28234114,14.6063499 L5.48174116,14.6063499 C4.46227527,14.6063499 3.56290689,15.2734896 3.26744116,16.2492 L0.102191148,26.7014 C-0.418658841,28.42125 1.13454114,30.052 2.87749115,29.6164 L10.0137411,27.8322 C10.6933668,27.6623107 11.4133688,27.8095471 11.9717411,28.2326 L17.6301411,32.5193 C18.1953041,32.9475981 18.9257156,33.0929506 19.6117911,32.91365 L31.2701411,29.8683 C31.8833021,29.7082691 32.4039676,29.303706 32.7105363,28.7490963 C33.017105,28.1944866 33.0827323,27.5383944 32.8920911,26.93405 L32.8920911,26.93405 Z" id="路径"></path>
                        <path d="M15.8030411,19.8297 C16.1935411,20.2015 16.8040411,20.2037 17.1945411,19.83245 C19.7047412,17.4482 24.5755412,13.01905 24.5755412,8.07619999 C24.5755412,3.61569998 20.9598411,-1.0658141e-14 16.4998911,-1.0658141e-14 C12.0399411,-1.0658141e-14 8.42424114,3.61569998 8.42424114,8.07564998 C8.42424114,13.035 13.2323411,17.3833 15.8030411,19.8297 L15.8030411,19.8297 Z M16.4998911,5.04405 C17.5928071,5.0293298 18.6090615,5.60396088 19.159813,6.54807676 C19.7105646,7.49219264 19.7105646,8.65965736 19.159813,9.60377324 C18.6090615,10.5478891 17.5928071,11.1225202 16.4998911,11.1078 C14.841357,11.0854616 13.5085767,9.73460959 13.5085767,8.075925 C13.5085767,6.41724041 14.841357,5.06638837 16.4998911,5.04405 Z" id="形状"></path>
                    </g>
                </g>
            </g>
        </g>
    </g>
</svg>