<?xml version="1.0" encoding="UTF-8"?>
<svg width="46px" height="46px" viewBox="0 0 46 46" version="1.1" xmlns="http://www.w3.org/2000/svg" xmlns:xlink="http://www.w3.org/1999/xlink">
    <title>编组 6</title>
    <g id="小程序" stroke="none" stroke-width="1" fill="none" fill-rule="evenodd">
        <g id="证明材料" transform="translate(-164.000000, -242.000000)">
            <g id="紧急联系人2备份-2" transform="translate(0.000000, 104.000000)">
                <g id="输入框-/-基础样式-/-6字标题备份-4" transform="translate(0.000000, 60.000000)">
                    <g id="编组-5" transform="translate(16.000000, 59.000000)">
                        <g id="编组-12" transform="translate(147.000000, 18.000000)">
                            <g id="编组-6" transform="translate(0.105634, 0.647887)">
                                <circle id="椭圆形" fill="#000000" opacity="0.400000006" cx="23.8943662" cy="23.3521127" r="23"></circle>
                                <path d="M31.2743333,19.370769 L28.3274847,19.370769 C27.3812092,19.370769 27.0096124,17.3740221 26.0352512,17.3740221 L21.7791721,17.3740221 C21.1245568,17.3740221 20.796169,19.370769 19.8153264,19.370769 L16.8684777,19.370769 C16.3262057,19.370769 15.8854747,19.8188838 15.8854747,20.3702408 L15.8854747,29.0272039 C15.8854747,29.5785608 16.3262057,30.0266756 16.8684777,30.0266756 L31.2764938,30.0266756 C31.8187658,30.0266756 32.2594968,29.5785608 32.2594968,29.0272039 L32.2594968,20.3702408 C32.2573364,19.8188838 31.8187658,19.370769 31.2743333,19.370769 Z M24.0714055,28.3616216 C21.900157,28.3616216 20.1415538,26.5735556 20.1415538,24.3659312 C20.1415538,22.1583067 21.900157,20.3702408 24.0714055,20.3702408 C26.242654,20.3702408 28.0012573,22.1583067 28.0012573,24.3659312 C28.0012573,26.571359 26.2404936,28.3616216 24.0714055,28.3616216 Z M28.8200664,21.3697125 C28.5478502,21.3697125 28.3296451,21.1456551 28.3296451,20.871075 C28.3296451,20.5942982 28.5500106,20.3724374 28.8200664,20.3724374 C29.0922826,20.3724374 29.3104877,20.5964948 29.3104877,20.871075 C29.3104877,21.1456551 29.0901222,21.3697125 28.8200664,21.3697125 Z M19.1585508,18.3734939 C19.1585508,18.188976 19.0116404,18.0396044 18.8301629,18.0396044 L17.8471599,18.0396044 C17.6656824,18.0396044 17.518772,18.188976 17.518772,18.3734939 L17.518772,18.7073834 L19.1563903,18.7073834 C19.1585508,18.7051867 19.1585508,18.5558151 19.1585508,18.3734939 L19.1585508,18.3734939 Z M24.0714055,21.3697125 C22.4445895,21.3697125 21.1245568,22.7118603 21.1245568,24.3659312 C21.1245568,26.020002 22.4445895,27.3621498 24.0714055,27.3621498 C25.6982216,27.3621498 27.0182542,26.020002 27.0182542,24.3659312 C27.0182542,22.7096637 25.6982216,21.3697125 24.0714055,21.3697125 Z" id="形状" fill="#FFFFFF" fill-rule="nonzero"></path>
                            </g>
                        </g>
                    </g>
                </g>
            </g>
        </g>
    </g>
</svg>