<?xml version="1.0" encoding="UTF-8"?>
<svg width="24px" height="24px" viewBox="0 0 24 24" version="1.1" xmlns="http://www.w3.org/2000/svg" xmlns:xlink="http://www.w3.org/1999/xlink">
    <title>形状</title>
    <g id="一期UI" stroke="none" stroke-width="1" fill="none" fill-rule="evenodd">
        <g id="注册成功备份" transform="translate(-117.000000, -350.000000)" fill="#FF5000" fill-rule="nonzero">
            <g id="反馈/对话框Dialog:1/大图标:4/按钮:强按钮" transform="translate(34.000000, 243.000000)">
                <g id="信息输入/按钮Button:2/主要操作:1/状态:#默认状态" transform="translate(16.000000, 91.000000)">
                    <g id="编组-2" transform="translate(67.000000, 15.000000)">
                        <path d="M23.9888372,17.9660464 L24,18.1013952 L24,24.1627904 C24,24.5728714 23.7028261,24.9225405 23.2981395,24.9888369 L23.1627907,25 L17.0302326,25 C16.5942658,25.0002526 16.2310752,24.665891 16.1953528,24.2313901 C16.1596304,23.7968892 16.4633343,23.407699 16.8934884,23.336744 L17.0302326,23.3255811 L22.3255814,23.3255811 L22.3255814,18.1013952 C22.3255814,17.6390173 22.7004128,17.2641859 23.1627907,17.2641859 C23.5728717,17.2641859 23.9225408,17.5613598 23.9888372,17.9660464 Z M1.66325579,17.992558 L1.67441861,18.1279069 L1.67441861,23.3255811 L7.02697674,23.3255811 C7.46294361,23.3253281 7.82613432,23.6596898 7.86185672,24.0941908 C7.89757911,24.5286917 7.59387504,24.917882 7.16372091,24.9888369 L7.02697674,24.9999997 L0.837209303,24.9999997 C0.427128282,24.9999997 0.0774592115,24.7028259 0.0111627798,24.2981393 L0,24.1627904 L0,18.1279069 C0,17.9058652 0.0882057269,17.6929177 0.245212928,17.5359105 C0.402220128,17.3789033 0.61516759,17.2906976 0.837209303,17.2906976 C1.24729031,17.2906976 1.59695936,17.5878715 1.66325579,17.992558 Z M18.2790698,6.02325599 C19.4350146,6.02325599 20.372093,6.96033439 20.372093,8.11627919 L20.372093,19.2790696 C20.372093,19.6643846 20.0597336,19.976744 19.6744186,19.976744 L5.72093023,19.976744 C4.5649854,19.976744 3.62790697,19.0396656 3.62790697,17.8837208 L3.62790697,8.11627919 C3.62790697,6.96033439 4.5649854,6.02325599 5.72093023,6.02325599 L18.2790698,6.02325599 Z M18.2790698,7.41860477 L5.72093023,7.41860477 C5.53589546,7.41860477 5.35843924,7.49210954 5.22759991,7.62294888 C5.09676058,7.75378821 5.02325582,7.93124443 5.02325582,8.11627919 L5.02325582,17.8837208 C5.02325582,18.0687556 5.09676058,18.2462118 5.22759991,18.3770511 C5.35843924,18.5078905 5.53589546,18.5813952 5.72093023,18.5813952 L18.9767442,18.5813952 L18.9767442,8.11627919 C18.9767442,7.93124443 18.9032394,7.75378821 18.7724001,7.62294888 C18.6415608,7.49210954 18.4641045,7.41860477 18.2790698,7.41860477 Z M12.6976744,14.3953488 L7.11627908,14.3953488 L7.11627908,13 L12.6976744,13 L12.6976744,14.3953488 Z M16.8837209,10.2093024 L16.8837209,11.6046512 L7.11627908,11.6046512 L7.11627908,10.2093024 L16.8837209,10.2093024 Z M7.02697674,1.00000014 C7.46294353,0.999747379 7.82613413,1.33410904 7.86185652,1.76860992 C7.8975789,2.20311079 7.59387495,2.59230103 7.16372091,2.66325604 L7.02697674,2.67441885 L1.67441861,2.67441885 L1.67441861,8.04093036 C1.67467162,8.47689722 1.34030992,8.84008792 0.905808954,8.87581031 C0.471307992,8.9115327 0.0821176967,8.60782865 0.0111627798,8.17767453 L0,8.04093036 L0,1.83720957 C0,1.42712856 0.297173869,1.0774595 0.701860455,1.01116307 L0.837209303,1.00000014 L7.02697674,1.00000014 Z M23.1627907,1.00000029 C23.5728717,1.00000029 23.9225408,1.29717415 23.9888372,1.70186072 L24,1.83720957 L24,8.00744199 C23.9995277,8.4431414 23.6649595,8.80564678 23.2306953,8.84098539 C22.7964311,8.876324 22.4076546,8.57268138 22.3367442,8.1427908 L22.3255814,8.00744199 L22.3255814,2.67441885 L17.1027907,2.67441885 C16.6668238,2.67467186 16.3036331,2.34031017 16.2679107,1.90580922 C16.2321883,1.47130827 16.5358924,1.08211798 16.9660465,1.01116307 L17.1027907,1.00000029 L23.1627907,1.00000029 Z" id="形状"></path>
                    </g>
                </g>
            </g>
        </g>
    </g>
</svg>