<?xml version="1.0" encoding="UTF-8"?>
<svg width="26px" height="21px" viewBox="0 0 26 21" version="1.1" xmlns="http://www.w3.org/2000/svg" xmlns:xlink="http://www.w3.org/1999/xlink">
    <title>材料</title>
    <g id="一期UI" stroke="none" stroke-width="1" fill="none" fill-rule="evenodd">
        <g id="上传证明材料" transform="translate(-16.000000, -236.000000)" fill="#666666" fill-rule="nonzero">
            <g id="材料" transform="translate(16.000000, 236.000000)">
                <path d="M23.0907495,0 L2.75985054,0 C1.19593524,0 0,1.28793025 0,2.75985054 L0,17.4790534 C0,19.0429688 1.19593524,20.238904 2.75985054,20.238904 L23.0907495,20.238904 C24.6546649,20.238904 25.8506001,19.0429688 25.8506001,17.4790534 L25.8506001,2.75985054 C25.8506001,1.28793025 24.6546649,0 23.0907495,0 Z M24.0106997,17.4790534 C24.0106997,18.0310236 23.6427197,18.3990036 23.0907495,18.3990036 L2.75985054,18.3990036 C2.20788043,18.3990036 1.83990036,18.0310236 1.83990036,17.4790534 L1.83990036,2.75985054 C1.83990036,2.20788043 2.20788043,1.83990036 2.75985054,1.83990036 L23.0907495,1.83990036 C23.6427197,1.83990036 24.0106997,2.20788043 24.0106997,2.75985054 L24.0106997,17.4790534 Z" id="形状"></path>
                <path d="M4.69174592,11.0394022 L10.119452,11.0394022 C10.6714221,11.0394022 11.0394022,10.6714221 11.0394022,10.119452 L11.0394022,4.69174592 C11.0394022,4.13977582 10.6714221,3.77179574 10.119452,3.77179574 L4.69174592,3.77179574 C4.13977582,3.77179574 3.77179574,4.13977582 3.77179574,4.69174592 L3.77179574,10.119452 C3.77179574,10.6714221 4.13977582,11.0394022 4.69174592,11.0394022 Z M5.61169611,5.61169611 L9.19950181,5.61169611 L9.19950181,9.19950181 L5.61169611,9.19950181 L5.61169611,5.61169611 Z" id="形状"></path>
                <path d="M21.1588542,3.67980072 L13.7992527,3.67980072 C13.2472826,3.67980072 12.8793025,4.0477808 12.8793025,4.59975091 C12.8793025,5.15172101 13.2472826,5.51970109 13.7992527,5.51970109 L21.1588542,5.51970109 C21.7108243,5.51970109 22.0788043,5.15172101 22.0788043,4.59975091 C22.0788043,4.0477808 21.7108243,3.67980072 21.1588542,3.67980072 Z" id="路径"></path>
                <path d="M17.4790534,9.19950181 C18.0310236,9.19950181 18.3990036,8.83152174 18.3990036,8.27955163 C18.3990036,7.72758152 18.0310236,7.35960145 17.4790534,7.35960145 L13.7992527,7.35960145 C13.2472826,7.35960145 12.8793025,7.72758152 12.8793025,8.27955163 C12.8793025,8.83152174 13.2472826,9.19950181 13.7992527,9.19950181 L17.4790534,9.19950181 Z" id="路径"></path>
                <path d="M21.1588542,14.7192029 L4.59975091,14.7192029 C4.0477808,14.7192029 3.67980072,15.087183 3.67980072,15.6391531 C3.67980072,16.1911232 4.0477808,16.5591033 4.59975091,16.5591033 L21.1588542,16.5591033 C21.7108243,16.5591033 22.0788043,16.1911232 22.0788043,15.6391531 C22.0788043,15.087183 21.7108243,14.7192029 21.1588542,14.7192029 Z" id="路径"></path>
            </g>
        </g>
    </g>
</svg>