<?xml version="1.0" encoding="UTF-8"?>
<svg width="41px" height="40px" viewBox="0 0 41 40" version="1.1" xmlns="http://www.w3.org/2000/svg" xmlns:xlink="http://www.w3.org/1999/xlink">
    <title>证件</title>
    <g id="小程序" stroke="none" stroke-width="1" fill="none" fill-rule="evenodd">
        <g id="H5" transform="translate(-55.000000, -161.000000)">
            <g id="编组-12" transform="translate(55.000000, 161.000000)">
                <g id="scan" transform="translate(2.000000, 2.000000)">
                    <path d="M2.07,5.45454545 L28.4005882,5.45454545 C29.5438177,5.45454545 30.4705882,6.38131602 30.4705882,7.52454545 L30.4705882,33.93 C30.4705882,35.0732294 29.5438177,36 28.4005882,36 L2.07,36 C0.926770568,36 2.61487786e-15,35.0732294 0,33.93 L0,7.52454545 C-5.84094436e-16,6.38131602 0.926770568,5.45454545 2.07,5.45454545 Z" id="矩形" stroke="#FFFFFF" stroke-width="2.8" transform="translate(15.235294, 20.727273) rotate(-360.000000) translate(-15.235294, -20.727273) "></path>
                    <path d="M11.6735753,30.5080214 L8.55917712,30.5038064 C7.41704263,30.5022607 6.49197861,29.5759439 6.49197861,28.4338083 L6.49197861,2.10743316 C6.49197861,0.964203723 7.41874918,0.0374331551 8.56197861,0.0374331551 L34.8921013,0.0374331551 C36.0221666,0.0374331551 36.9433932,0.943754057 36.9618259,2.07366901 L37.0374332,6.70835298 L37.0374332,6.70835298" id="路径-81" stroke="#FFFFFF" stroke-width="2.8" transform="translate(21.764706, 15.272727) rotate(-270.000000) translate(-21.764706, -15.272727) "></path>
                    <g id="编组-3" transform="translate(5.441176, 10.909091)" fill="#FFFFFF">
                        <path d="M0,3.48487884 C0,7.69986067 0,10.3885018 0,11.5508021 C0,13.2942527 2.35689807,19.6360677 9.58383501,19.6360677 C10.3455552,19.6506849 9.58383501,19.1241639 7.37552106,17.9936868 C5.16720711,16.8632098 4.33033772,14.7554402 4.33033772,13.1775961 C4.33033772,11.599752 5.10681395,11.5994055 6.0236,11.8478039 C6.94038604,12.0962023 8.09303481,13.1775961 9.58383501,13.1775961 C11.0746352,13.1775961 10.3201673,12.3207972 9.05159401,11.599752 C7.78302071,10.8787067 6.4344508,9.36469187 5.68307301,8.44369046 C4.93169522,7.52268904 4.61271818,5.94880668 2.94612834,4.63135916 C1.83506845,3.75306082 0.85302567,3.37090071 0,3.48487884 Z" id="路径-2"></path>
                        <path d="M8.09375,3.48487884 C8.09375,7.77763174 8.09375,10.4662728 8.09375,11.5508021 C8.09375,13.1775961 10.4506481,19.6360677 17.677585,19.6360677 C18.4393052,19.6506849 17.677585,19.1241639 15.4692711,17.9936868 C13.2609571,16.8632098 12.4240877,14.7554402 12.4240877,13.1775961 C12.4240877,11.599752 13.200564,11.5994055 14.11735,11.8478039 C15.034136,12.0962023 16.1867848,13.1775961 17.677585,13.1775961 C19.1683852,13.1775961 18.4139173,12.3207972 17.145344,11.599752 C15.8767707,10.8787067 14.5282008,9.36469187 13.776823,8.44369046 C13.0254452,7.52268904 12.7064682,5.94880668 11.0398783,4.63135916 C9.92881845,3.75306082 8.94677567,3.37090071 8.09375,3.48487884 Z" id="路径-2" transform="translate(13.296875, 11.550802) scale(-1, 1) translate(-13.296875, -11.550802) "></path>
                        <path d="M9.25442325,2.31016043 C9.54176486,2.31016043 9.88609337,5.07252884 10.4735384,6.24153542 C11.0609835,7.41054199 12.823078,8.95955441 12.7138936,9.19445282 C12.6047091,9.42935122 10.3570471,8.53655242 9.17004592,8.53655242 C7.98304475,8.53655242 5.97681666,9.45377715 5.79495294,9.19445282 C5.61308922,8.93512849 7.2907279,7.46772081 7.90690625,6.24153542 C8.52308461,5.01535002 8.96708164,2.31016043 9.25442325,2.31016043 Z" id="三角形" transform="translate(9.250000, 5.775401) rotate(-180.000000) translate(-9.250000, -5.775401) "></path>
                        <ellipse id="椭圆形" cx="9.25" cy="1.15508021" rx="1.15625" ry="1.15508021"></ellipse>
                    </g>
                </g>
            </g>
        </g>
    </g>
</svg>