<?xml version="1.0" encoding="UTF-8"?>
<svg width="23px" height="24px" viewBox="0 0 23 24" version="1.1" xmlns="http://www.w3.org/2000/svg" xmlns:xlink="http://www.w3.org/1999/xlink">
    <title>text</title>
    <g id="一期UI" stroke="none" stroke-width="1" fill="none" fill-rule="evenodd">
        <g id="实名信息1备份-2" transform="translate(-16.000000, -227.000000)" fill-rule="nonzero">
            <g id="text" transform="translate(16.000000, 227.000000)">
                <path d="M21.8697075,5.8052925 L16.33563,0.271215 C16.25076,0.186345 16.1502075,0.11808 16.0376625,0.071955 C15.9269625,0.0249075 15.806115,0 15.6825,0 L2.7675,0 C1.241685,0 0,1.241685 0,2.7675 L0,21.2175 C0,22.743315 1.241685,23.985 2.7675,23.985 L19.3725,23.985 C20.898315,23.985 22.14,22.743315 22.14,21.2175 L22.14,6.4575 C22.14,6.2130375 22.0431375,5.9778 21.8697075,5.8052925 Z M16.605,3.149415 L19.913085,6.4575 L16.605,6.4575 L16.605,3.149415 Z M19.3725,22.14 L2.7675,22.14 C2.2592025,22.14 1.845,21.72672 1.845,21.2175 L1.845,2.7675 C1.845,2.2592025 2.2592025,1.845 2.7675,1.845 L14.76,1.845 L14.76,7.38 C14.76,7.88922 15.1723575,8.3025 15.6825,8.3025 L20.295,8.3025 L20.295,21.2175 C20.295,21.72672 19.88172,22.14 19.3725,22.14 Z" id="形状" fill="#666666"></path>
                <path d="M4.6125,7.38 L10.1475,7.38 C10.65672,7.38 11.07,6.96672 11.07,6.4575 C11.07,5.94828 10.65672,5.535 10.1475,5.535 L4.6125,5.535 C4.10328,5.535 3.69,5.94828 3.69,6.4575 C3.69,6.96672 4.10328,7.38 4.6125,7.38 Z" id="路径" fill="#000000"></path>
                <path d="M13.8375,11.07 L4.6125,11.07 C4.10328,11.07 3.69,11.48328 3.69,11.9925 C3.69,12.50172 4.10328,12.915 4.6125,12.915 L13.8375,12.915 C14.3476425,12.915 14.76,12.50172 14.76,11.9925 C14.76,11.48328 14.3476425,11.07 13.8375,11.07 Z" id="路径" fill="#000000"></path>
                <path d="M13.8375,16.605 L4.6125,16.605 C4.10328,16.605 3.69,17.0173575 3.69,17.5275 C3.69,18.0376425 4.10328,18.45 4.6125,18.45 L13.8375,18.45 C14.3476425,18.45 14.76,18.0376425 14.76,17.5275 C14.76,17.0173575 14.3476425,16.605 13.8375,16.605 Z" id="路径" fill="#000000"></path>
            </g>
        </g>
    </g>
</svg>