<?xml version="1.0" encoding="UTF-8"?>
<svg width="111px" height="88px" viewBox="0 0 111 88" version="1.1" xmlns="http://www.w3.org/2000/svg" xmlns:xlink="http://www.w3.org/1999/xlink">
    <title>chenggong</title>
    <g id="一期UI" stroke="none" stroke-width="1" fill="none" fill-rule="evenodd">
        <g id="上传证明材料备份-3" transform="translate(-132.000000, -260.000000)">
            <g id="chenggong" transform="translate(132.000000, 260.000000)">
                <path d="M18.7086614,52.6619661 C18.7086614,70.648113 33.2898096,85.2283465 51.2759564,85.2283465 C69.2621033,85.2283465 83.8425197,70.6473813 83.8425197,52.6612344 C83.8425197,34.6750875 69.2617374,20.0944882 51.2755906,20.0944882 C33.2892835,20.0944882 18.7086614,34.675659 18.7086614,52.6619661 L18.7086614,52.6619661 Z" id="路径" fill="#2773FF" fill-rule="nonzero"></path>
                <path d="M51.6220472,17.3228346 C31.9137442,17.3228346 15.9370079,33.144457 15.9370079,52.6614173 C15.9370079,72.1783776 31.9137442,88 51.6220472,88 C71.3303503,88 87.3070866,72.1783776 87.3070866,52.6614173 C87.3000667,33.1473373 71.3274418,17.3297864 51.6220472,17.3228346 Z" id="形状" fill="#07C160" fill-rule="nonzero"></path>
                <path d="M24.2519685,8.31496063 C24.2519685,9.46301712 25.1826522,10.3937008 26.3307087,10.3937008 C27.4787651,10.3937008 28.4094488,9.46301712 28.4094488,8.31496063 C28.4094488,7.16690414 27.4787651,6.23622047 26.3307087,6.23622047 C25.1826522,6.23622047 24.2519685,7.16690414 24.2519685,8.31496063 Z" id="路径" fill="#FFD271" fill-rule="nonzero"></path>
                <path d="M73.4488189,6.48106308 C73.4488189,6.48106308 78.0214037,6.99573897 78.2976037,13.8571668 L78.2976037,0.123852488 C78.2847322,0.882930625 77.9929792,4.93428312 73.4488189,6.48161354 L73.4488189,6.48106308 Z M78.306693,0 L78.306693,0.123852488 C78.3092588,0.0825964914 78.3092588,0.0412559966 78.306693,0 L78.306693,0 Z M78.3008215,0.123852488 L78.3008215,13.8582677 C78.5770215,6.99573897 83.1496063,6.48216399 83.1496063,6.48216399 C78.605446,4.93428312 78.313693,0.880728803 78.3008215,0.123852488 Z M78.3102575,0.123852488 L78.3102575,5.75928194e-16 C78.3077176,0.0412565637 78.3077176,0.0825959242 78.3102575,0.123852488 L78.3102575,0.123852488 Z" id="形状" fill="#6894F4"></path>
                <path d="M90.7716535,34.7101401 C90.7716535,34.7101401 93.3837031,34.9967487 93.5419429,38.8031496 L93.5419429,31.1838216 C93.4855569,32.8345338 92.3659089,34.2599606 90.7716535,34.710684 L90.7716535,34.7101401 Z M93.5452169,31.1832778 L93.5452169,38.8009742 C93.7034568,34.9940295 96.3149606,34.7079648 96.3149606,34.7079648 C94.7209209,34.2570444 93.6015297,32.831664 93.5452169,31.1811024 L93.5452169,31.1832778 Z" id="形状" fill="#FFC64B" fill-rule="nonzero"></path>
                <path d="M1.38582677,51.4443412 C1.38582677,51.4443412 3.01757113,51.6247728 3.11649731,54.0472441 L3.11649731,49.2093879 C3.07836049,50.2559502 2.37951533,51.1584248 1.38582677,51.4443412 L1.38582677,51.4443412 Z M3.11972316,49.1968504 L3.11972316,54.0347066 C3.2181117,51.616051 4.8503937,51.4318037 4.8503937,51.4318037 C3.85743636,51.1461362 3.15877308,50.2447767 3.11972316,49.1990308 L3.11972316,49.1968504 Z" id="形状" fill="#6894F4"></path>
                <path d="M106.096819,53.7504023 C106.351433,53.7548497 106.596872,53.6550439 106.776588,53.4739796 C106.956568,53.2921975 107.055872,53.0452383 107.052021,52.7890044 L105.143821,52.7890044 C105.140268,53.0448567 105.239549,53.2913613 105.419254,53.4728739 C105.598252,53.6537866 105.842805,53.7539546 106.096819,53.7504023 L106.096819,53.7504023 Z M109.22684,50.6168755 L109.22684,48.1146979 C109.218138,46.6439209 108.213513,45.367674 106.789809,45.0187646 L106.789809,44.6903745 C106.814883,44.4251335 106.68868,44.168396 106.463696,44.0269602 C106.238873,43.8860199 105.953664,43.8860199 105.728841,44.0269602 C105.503857,44.168396 105.377654,44.4251335 105.402728,44.6903745 L105.402728,45.0176589 C103.977189,45.3604444 102.970332,46.6374711 102.965696,48.1086166 L102.965696,50.6107942 L102.019308,51.5920944 L102.019308,52.083021 L110.173228,52.083021 L110.173228,51.5920944 L109.22684,50.6107942 L109.22684,50.6168755 Z M11.4321345,75.2544235 L10.2527302,76.0494149 C7.14529457,78.1756577 5.57367362,79.2559173 5.57367362,79.2221937 L0.858810765,75.974228 L1.05324683e-05,75.434651 L1.05324683e-05,75.2184885 C1.05324683e-05,74.8215621 0.320631026,74.4997897 0.716136448,74.4997897 L10.7193138,74.4997897 C10.9143437,74.5024383 11.1000548,74.5839664 11.2343736,74.7259034 C11.3692233,74.8683872 11.441631,75.0591154 11.4354397,75.2555292 L11.4321345,75.2544235 Z M11.4321345,76.1212848 L11.4321345,82.4309075 C11.4321345,82.8278339 11.111514,83.1496063 10.7160086,83.1496063 L0.716136448,83.1496063 C0.525729864,83.1496063 0.343161779,83.0735085 0.208782661,82.9381279 C0.0744035433,82.8027473 -0.000721800545,82.6192325 5.2281295e-06,82.4281433 L5.2281295e-06,76.2981953 L0.427482618,76.5862276 L5.14234547,79.8314292 C5.38703328,80.012434 5.72065161,80.012434 5.96533941,79.8314292 L10.644396,76.6586504 C10.6928722,76.6227154 10.9330498,76.4424879 11.4315836,76.1190734 L11.4321345,76.1212848 Z M16.1370817,19.9864851 L15.2298053,20.604566 C12.7993841,22.2597847 11.578114,23.1034265 11.578114,23.0741257 L7.90659151,20.5487287 L7.23893936,20.1302248 L7.23893936,19.9643713 C7.23850286,19.815548 7.29699038,19.6726453 7.40153764,19.5671003 C7.5060849,19.4615554 7.64812784,19.402014 7.79641829,19.4015748 L15.5735457,19.4015748 C15.7255814,19.4032918 15.8704473,19.4667113 15.9751271,19.5773796 C16.08017,19.6884884 16.1363399,19.837286 16.1310222,19.990355 L16.1370817,19.9864851 Z M16.1370842,20.6604034 L16.1370842,25.5669049 C16.1375207,25.7157281 16.0790332,25.8586309 15.9744859,25.9641758 C15.8699386,26.0697208 15.7278957,26.1292621 15.5796053,26.1297013 L7.80302868,26.1297013 C7.65473823,26.1292621 7.5126953,26.0697208 7.40814804,25.9641758 C7.30360078,25.8586309 7.24511326,25.7157281 7.24554975,25.5669049 L7.24554975,20.8008261 L7.56946146,21.026387 L11.2442891,23.551784 C11.4361124,23.6966305 11.7002844,23.6966305 11.8921077,23.551784 L15.5344342,21.0838829 C15.7245681,20.9284087 15.9260114,20.7874093 16.1370842,20.6620619 L16.1370842,20.6604034 Z" id="形状" fill="#EEEEEE" fill-rule="nonzero"></path>
                <path d="M72.0947127,43.4932545 L49.01181,66.3520513 C47.971363,67.3796218 46.3603077,67.5790486 45.0964543,66.8367191 C44.8534963,66.7118061 44.6330154,66.5480508 44.443895,66.3520513 L31.1488288,53.186611 C30.3328493,52.3785538 30.014173,51.2007845 30.3128422,50.0969577 C30.6115114,48.9931308 31.4821511,48.1309439 32.5967998,47.8351744 C33.7114484,47.5394049 34.9007644,47.8549873 35.7167439,48.6630446 L46.7278525,59.5672493 L67.5273506,38.9702357 C68.3428712,38.1604966 69.5329329,37.8436039 70.6485605,38.1391119 C71.7641881,38.4346199 72.6355796,39.2975514 72.9339848,40.4023476 C73.2323899,41.5071439 72.9123904,42.6856516 72.0947127,43.4932545 L72.0947127,43.4932545 Z" id="路径" fill="#FFFFFF"></path>
            </g>
        </g>
    </g>
</svg>