<?xml version="1.0" encoding="UTF-8"?>
<svg width="18px" height="18px" viewBox="0 0 18 18" version="1.1" xmlns="http://www.w3.org/2000/svg" xmlns:xlink="http://www.w3.org/1999/xlink">
    <title>warning-circle</title>
    <defs>
        <path d="M9,0.111111111 C13.9091978,0.111111111 17.8888889,4.09080222 17.8888889,9 C17.8888889,13.9091978 13.9091978,17.8888889 9,17.8888889 C4.09080222,17.8888889 0.111111111,13.9091978 0.111111111,9 C0.111111111,4.09080222 4.09080222,0.111111111 9,0.111111111 Z M9,1.22222222 C4.70445195,1.22222222 1.22222222,4.70445195 1.22222222,9 C1.22222222,13.2955481 4.70445195,16.7777778 9,16.7777778 C13.2955481,16.7777778 16.7777778,13.2955481 16.7777778,9 C16.7777778,4.70445195 13.2955481,1.22222222 9,1.22222222 Z M9,6.77777778 C9.30682486,6.77777778 9.55555556,7.02650847 9.55555556,7.33333333 L9.55555556,12.8888889 L10.1111111,12.8888889 C10.417936,12.8888889 10.6666667,13.1376196 10.6666667,13.4444444 C10.6666667,13.7512693 10.417936,14 10.1111111,14 L7.88888889,14 C7.58206403,14 7.33333333,13.7512693 7.33333333,13.4444444 C7.33333333,13.1376196 7.58206403,12.8888889 7.88888889,12.8888889 L8.44444444,12.8888889 L8.44444444,7.88888889 L8.16666667,7.88888889 C7.85984181,7.88888889 7.61111111,7.64015819 7.61111111,7.33333333 C7.61111111,7.02650847 7.85984181,6.77777778 8.16666667,6.77777778 L9,6.77777778 Z M9,4 C9.46023729,4 9.83333333,4.37309604 9.83333333,4.83333333 C9.83333333,5.29357062 9.46023729,5.66666667 9,5.66666667 C8.53976271,5.66666667 8.16666667,5.29357062 8.16666667,4.83333333 C8.16666667,4.37309604 8.53976271,4 9,4 Z" id="path-1"></path>
    </defs>
    <g id="一期UI" stroke="none" stroke-width="1" fill="none" fill-rule="evenodd">
        <g id="上传证明材料" transform="translate(-142.000000, -295.000000)">
            <g id="紧急联系人2备份-2" transform="translate(0.000000, 273.000000)">
                <g id="warning-circle" transform="translate(142.000000, 22.000000)">
                    <mask id="mask-2" fill="white">
                        <use xlink:href="#path-1"></use>
                    </mask>
                    <use id="info" fill="#EB3030" xlink:href="#path-1"></use>
                    <g id="color" mask="url(#mask-2)" fill="#3088EB">
                        <g transform="translate(-1.000000, -1.000000)" id="矩形">
                            <rect x="0" y="0" width="20" height="20"></rect>
                        </g>
                    </g>
                </g>
            </g>
        </g>
    </g>
</svg>