<?xml version="1.0" encoding="UTF-8"?>
<svg width="37px" height="37px" viewBox="0 0 37 37" version="1.1" xmlns="http://www.w3.org/2000/svg" xmlns:xlink="http://www.w3.org/1999/xlink">
    <title>编组 2</title>
    <g id="小程序" stroke="none" stroke-width="1" fill="none" fill-rule="evenodd">
        <g id="H5" transform="translate(-291.000000, -162.000000)" fill="#FFFFFF" fill-rule="nonzero">
            <g id="编组-12" transform="translate(55.000000, 161.000000)">
                <g id="二维码" transform="translate(236.000000, 1.000000)">
                    <path d="M1.14523812,0 L15.9628571,0 C17.4710476,0.147992946 17.1080952,2.76605877 17.1080952,4.46621588 L17.1080952,12.5617828 C17.1080952,14.3218418 17.4428571,16.4783105 16.262381,16.9786677 C15.4924286,17.3028427 13.4274762,17.0755678 12.432,17.0755678 L4.57390476,17.0755678 C2.75914286,17.0755678 0.278380959,17.5036903 0,15.9480025 L0,1.12932716 C0.202619037,0.576115399 0.560285731,0.177943911 1.14523812,0.00176180366 L1.14523812,0 Z M3.182,3.33688872 L3.182,13.886672 L13.875,13.886672 L13.875,3.18889574 L3.23309523,3.18889574 C3.17495238,3.19770483 3.18023808,3.26641586 3.182,3.33688872 Z M21.0371429,0 L35.8547619,0 C36.4608571,0.221989419 36.8766667,0.628970039 37,1.3248893 L37,15.7506785 C36.8643333,16.3496976 36.5471905,16.8623875 35.9551905,17.0279987 C34.9896667,17.2957954 33.3828095,17.0755678 32.2252381,17.0755678 L24.6173333,17.0755678 C23.4703333,17.0755678 21.7683333,17.3151755 20.8380476,17.0279987 C19.5219047,16.6227798 19.8919048,14.0875196 19.8919048,12.3168896 L19.8919048,4.75867813 C19.8919048,2.71496594 19.4373333,0.285414956 21.0371429,0.00176180366 L21.0371429,0 Z M23.0756666,3.33688872 L23.0756666,13.886672 L33.7669048,13.886672 L33.7669048,3.18889574 L23.125,3.18889574 C23.0668571,3.19770483 23.0721428,3.26641586 23.0756666,3.33688872 Z M8.05719049,6.42888431 C9.546,6.15051661 10.7176667,7.1441836 10.7423334,8.49021473 C10.7758096,10.2626065 8.93814289,11.2386553 7.50923812,10.5004524 C5.87419049,9.65830199 5.98166669,6.8147231 8.05542856,6.42888431 L8.05719049,6.42888431 Z M27.9490952,6.42888431 C31.4552857,5.78229605 31.3883333,11.2633208 27.9490952,10.6977763 C25.7590476,10.3383648 25.6885714,6.84467407 27.9490952,6.42888431 Z M15.8641905,36.9982382 L1.19280953,36.9982382 C0.584952384,36.8150088 0.172666684,36.4344555 0,35.8213418 L0,21.0502357 C0.14447618,20.6185896 0.479238109,20.1147088 0.995476197,19.9720013 C1.96804763,19.7006809 3.55904761,19.9226703 4.72366668,19.9226703 L12.3333333,19.9226703 C13.4574286,19.9226703 15.0942381,19.6760154 16.112619,19.9720013 C17.4904286,20.3719346 17.1080952,22.8649112 17.1080952,24.6337793 L17.1080952,32.4351221 C17.1080952,34.3431741 17.5239048,36.8273415 15.8641905,36.9982382 Z M3.182,23.2595591 L3.182,33.8093424 L13.875,33.8093424 L13.875,23.1115661 L3.23309523,23.1115661 C3.17495238,23.1203752 3.18023808,23.1890862 3.182,23.2595591 Z M37,21.2475596 L37,25.3702204 C36.8837143,26.7585353 36.9823809,28.3617923 36.9506667,29.8346745 L26.3580952,29.8346745 L26.3580952,27.4297891 C25.362619,27.3152707 24.1521905,27.4121708 23.0756666,27.3804581 C22.9593809,30.4883101 23.0580476,33.8093424 23.0263333,37 L21.0864762,37 C19.4179524,36.6687777 19.8919048,34.1987048 19.8919048,32.23956 L19.8919048,24.6337793 C19.8919048,23.4885958 19.6575714,21.774344 19.943,20.8546736 C20.2812857,19.7570592 21.7524762,19.9209085 23.2236667,19.9209085 L30.4351428,19.9209085 L30.4351428,26.4484548 L33.7669048,26.4484548 C33.800381,24.2902242 33.7017143,21.9998571 33.8162381,19.9226703 C35.4195714,19.8292938 36.906619,19.8521975 37,21.2475596 L37,21.2475596 Z M8.30561905,26.3004619 C9.07428502,26.2088236 9.83417111,26.5300962 10.3039472,27.1453361 C10.7737233,27.7605759 10.8834758,28.578221 10.5925714,29.2955573 C9.73804764,31.5947336 5.65042858,30.7296795 6.41685716,27.8226751 C6.62828575,27.0192848 7.23790479,26.4185039 8.30561905,26.3004619 L8.30561905,26.3004619 Z M29.9382857,36.9982382 L26.3580952,36.9982382 C26.3898095,35.7385362 26.2911429,34.3484596 26.4074286,33.1715632 L29.9382857,33.1715632 L29.9382857,36.9982382 Z M37,33.1715632 L37,35.6733489 C36.8608095,36.3710299 36.4485238,36.7973906 35.8071905,36.9982382 L33.2700476,36.9982382 C33.3035238,35.7385362 33.2030952,34.3484596 33.3193809,33.1715632 L37,33.1715632 Z" id="形状"></path>
                </g>
            </g>
        </g>
    </g>
</svg>