<?xml version="1.0" encoding="UTF-8"?>
<svg width="60px" height="60px" viewBox="0 0 60 60" version="1.1" xmlns="http://www.w3.org/2000/svg" xmlns:xlink="http://www.w3.org/1999/xlink">
    <title>优待说明</title>
    <defs>
        <linearGradient x1="82.4545084%" y1="80.2839725%" x2="16.5020837%" y2="22.4049027%" id="linearGradient-1">
            <stop stop-color="#00C97E" offset="0%"></stop>
            <stop stop-color="#55D9A3" offset="100%"></stop>
        </linearGradient>
        <filter x="-26.7%" y="-28.6%" width="153.3%" height="157.1%" filterUnits="objectBoundingBox" id="filter-2">
            <feOffset dx="0" dy="2" in="SourceAlpha" result="shadowOffsetOuter1"></feOffset>
            <feGaussianBlur stdDeviation="1" in="shadowOffsetOuter1" result="shadowBlurOuter1"></feGaussianBlur>
            <feColorMatrix values="0 0 0 0 0   0 0 0 0 0   0 0 0 0 0  0 0 0 0.198804735 0" type="matrix" in="shadowBlurOuter1" result="shadowMatrixOuter1"></feColorMatrix>
            <feMerge>
                <feMergeNode in="shadowMatrixOuter1"></feMergeNode>
                <feMergeNode in="SourceGraphic"></feMergeNode>
            </feMerge>
        </filter>
    </defs>
    <g id="小程序" stroke="none" stroke-width="1" fill="none" fill-rule="evenodd">
        <g id="H5" transform="translate(-33.000000, -479.000000)">
            <g id="编组-31备份-2" transform="translate(33.000000, 479.000000)">
                <circle id="椭圆形备份-6" fill="url(#linearGradient-1)" cx="30" cy="30" r="30"></circle>
                <g id="编组-25" transform="translate(15.000000, 16.000000)" fill="#FFFFFF" fill-rule="nonzero">
                    <g id="说明-(2)" transform="translate(15.000000, 14.000000) scale(-1, 1) translate(-15.000000, -14.000000) " filter="url(#filter-2)">
                        <path d="M24.0021,1.77635684e-15 C24.2911073,1.77635684e-15 24.5801145,0.0138347526 24.8691217,0.0415042578 C25.776811,0.127035026 26.4707999,0.908232199 26.4689156,1.84232776 L26.4689156,22.1486687 C26.4690862,23.1213819 25.7172414,23.9193793 24.7686192,23.9533352 C23.2934506,23.9780835 21.8290337,24.2156068 20.4185105,24.6589075 C18.7213499,25.2813078 17.1744292,26.2699855 15.882397,27.5580566 L15.882397,4.85215481 C17.5514248,1.8671472 20.6450111,0.0184884416 24.0021,1.77635684e-15 Z M28.2359559,22.5760088 L28.2359559,4.04589458 C28.7038543,4.04524701 29.1526179,4.23617185 29.4824871,4.57622837 C29.8124409,4.91555988 29.998412,5.37460356 30,5.85363712 L30,24.2384848 C30,25.6742245 29.1232281,27.9984628 26.4749119,27.7648092 C25.2925644,27.6108008 24.1010403,27.5429938 22.9093227,27.5618995 C21.0212466,27.504294 19.132506,27.6508818 17.2744318,27.9992314 C18.3676369,27.1244942 19.6354607,26.5072884 20.9877747,26.1914905 C22.2710377,25.9515664 23.5715567,25.8214809 24.8758719,25.8025803 C26.6584019,25.8218006 28.1400053,24.4000207 28.238206,22.5760088 L28.2359559,22.5760088 Z M6.00165003,0 C9.35824396,0.0188776227 12.4512068,1.8675053 14.119853,4.85215481 L14.119853,27.5618995 C12.8296163,26.2714822 11.2821663,25.2824664 9.58373959,24.6627505 C8.17310646,24.2203319 6.70867048,23.9838405 5.23363084,23.9602525 C4.28450775,23.9258248 3.53331507,23.1257495 3.53632931,22.1525117 L3.53632931,1.84463355 C3.53564919,0.911575898 4.22941714,0.131960621 5.13612839,0.0468844414 C5.42362876,0.0156496594 5.71253849,0 6.00165003,0 Z M1.76779418,22.5760088 C1.76779418,24.0670876 2.84332106,25.7164974 5.16837921,25.8041175 C6.7074177,25.8625309 7.6681917,26.0346967 9.02272556,26.1930277 C10.4130153,26.4151001 11.7115148,27.0426764 12.7630691,28.0007686 C10.8972775,27.6317405 8.99611005,27.4849891 7.09742742,27.5634367 C5.73314332,27.5634367 5.49463736,27.7663464 3.5318383,27.7663464 C1.63050269,27.7312891 0.0836815144,26.1868828 0,24.240022 L0,5.85056273 C0,4.85217502 0.789789444,4.04282186 1.7640441,4.04282186 L1.7640441,22.5760088 L1.76779418,22.5760088 Z" id="形状"></path>
                    </g>
                </g>
            </g>
        </g>
    </g>
</svg>