<?xml version="1.0" encoding="UTF-8"?>
<svg width="27px" height="25px" viewBox="0 0 27 25" version="1.1" xmlns="http://www.w3.org/2000/svg" xmlns:xlink="http://www.w3.org/1999/xlink">
    <title>address_book</title>
    <g id="一期UI" stroke="none" stroke-width="1" fill="none" fill-rule="evenodd">
        <g id="上传证明材料备份-2" transform="translate(-16.000000, -234.000000)" fill="#666666" fill-rule="nonzero">
            <g id="紧急联系人2备份" transform="translate(0.000000, 232.000000)">
                <g id="address_book" transform="translate(16.000000, 2.000000)">
                    <path d="M2.8125,15 C2.295,15 1.875,14.5809375 1.875,14.0625 L1.875,9.375 C1.875,8.8575 2.295,8.4375 2.8125,8.4375 C3.33,8.4375 3.75,8.8575 3.75,9.375 L3.75,14.0625 C3.75,14.5809375 3.33,15 2.8125,15 Z" id="路径"></path>
                    <path d="M23.4375,24.375 L4.6875,24.375 C3.136875,24.375 1.875,23.1225 1.875,21.5821875 L1.875,19.6875 C1.875,19.1690625 2.295,18.75 2.8125,18.75 C3.33,18.75 3.75,19.1690625 3.75,19.6875 L3.75,21.5821875 C3.75,22.089375 4.1709375,22.5 4.6875,22.5 L23.4375,22.5 C23.955,22.5 24.375,22.08 24.375,21.5625 L24.375,2.8125 C24.375,2.2959375 23.955,1.875 23.4375,1.875 L4.6875,1.875 C4.14375,1.875 3.75,2.1721875 3.75,2.37375 L3.75,3.75 C3.75,4.2675 3.33,4.6875 2.8125,4.6875 C2.295,4.6875 1.875,4.2675 1.875,3.75 L1.875,2.37375 C1.875,1.065 3.136875,0 4.6875,0 L23.4375,0 C24.988125,0 26.25,1.261875 26.25,2.8125 L26.25,21.5625 C26.25,23.113125 24.988125,24.375 23.4375,24.375 Z" id="路径"></path>
                    <path d="M3.75,7.5 L0.9375,7.5 C0.42,7.5 0,7.08 0,6.5625 C0,6.045 0.42,5.625 0.9375,5.625 L3.75,5.625 C4.2675,5.625 4.6875,6.045 4.6875,6.5625 C4.6875,7.08 4.2675,7.5 3.75,7.5 Z" id="路径"></path>
                    <path d="M3.75,17.8125 L0.9375,17.8125 C0.42,17.8125 0,17.3934375 0,16.875 C0,16.3565625 0.42,15.9375 0.9375,15.9375 L3.75,15.9375 C4.2675,15.9375 4.6875,16.3565625 4.6875,16.875 C4.6875,17.3934375 4.2675,17.8125 3.75,17.8125 Z" id="路径"></path>
                    <path d="M7.4840625,20.6540625 C7.0575,20.6540625 6.6721875,20.3615625 6.571875,19.929375 C6.4546875,19.425 6.7678125,18.9215625 7.273125,18.804375 C7.40625,18.7734375 10.138125,18.140625 12.1875,17.9090625 L12.1875,17.3221875 C10.220625,15.6346875 9.375,13.2346875 9.375,9.414375 C9.375,5.6690625 11.2678125,3.7696875 15,3.7696875 C19.6490625,3.7696875 20.625,6.82875 20.625,9.3946875 C20.625,13.4671875 18.684375,15.93375 16.8984375,17.34 L16.905,17.92125 C18.9346875,18.1715625 21.6365625,18.7734375 21.7678125,18.8025 C22.273125,18.915 22.5909375,19.4165625 22.4775,19.921875 C22.3659375,20.42625 21.8709375,20.74875 21.358125,20.6315625 C21.3234375,20.6240625 17.788125,19.835625 15.91125,19.704375 C15.42375,19.670625 15.045,19.2675 15.039375,18.78 L15.0196875,16.8853125 C15.0159375,16.57875 15.1621875,16.29 15.4125,16.1128125 C16.9340625,15.0234375 18.75,12.9740625 18.75,9.3946875 C18.75,6.73125 17.6634375,5.6446875 15,5.6446875 C12.301875,5.6446875 11.25,6.70125 11.25,9.414375 C11.25,12.860625 11.9578125,14.8059375 13.693125,16.130625 C13.925625,16.3078125 14.0625,16.5825 14.0625,16.875 L14.0625,18.7696875 C14.0625,19.2703125 13.6696875,19.6828125 13.17,19.70625 C11.3071875,19.7953125 7.7334375,20.6221875 7.6978125,20.6296875 C7.6265625,20.6465625 7.5553125,20.6540625 7.4840625,20.6540625 Z" id="路径"></path>
                </g>
            </g>
        </g>
    </g>
</svg>