<?xml version="1.0" encoding="UTF-8"?>
<svg width="32px" height="32px" viewBox="0 0 32 32" version="1.1" xmlns="http://www.w3.org/2000/svg" xmlns:xlink="http://www.w3.org/1999/xlink">
    <title>huodongzhongxin</title>
    <defs>
        <linearGradient x1="0.718388332%" y1="18.6504806%" x2="91.1371368%" y2="93.9453125%" id="linearGradient-1">
            <stop stop-color="#FCC049" offset="0%"></stop>
            <stop stop-color="#FF6127" offset="100%"></stop>
        </linearGradient>
    </defs>
    <g id="页面-1" stroke="none" stroke-width="1" fill="none" fill-rule="evenodd">
        <g id="地图1" transform="translate(-307.000000, -694.000000)" fill="url(#linearGradient-1)" fill-rule="nonzero">
            <g id="活动中心" transform="translate(307.000000, 694.000000)">
                <path d="M31.5554149,7.97358273 L29.0177029,2.93848824 C28.4183697,1.7488126 27.2105974,1 25.8914199,1 L6.1085801,1 C4.7894026,1 3.58163034,1.7488126 2.98229714,2.93848824 L0.444585064,7.97358273 C-0.963985118,11.2425762 1.12115589,15.1056691 4.63258139,15.3943309 C6.59399764,15.5590985 8.49099799,14.6414476 9.59657703,12.9930582 C9.80817575,12.6754434 10.1618615,12.4850526 10.5402905,12.4850526 C10.9187195,12.4850526 11.2724052,12.6754434 11.4840039,12.9930582 C12.4662888,14.4537216 14.1222873,15.4128423 16,15.4128423 C17.8777127,15.4128422 19.5331398,14.4537216 20.5159961,12.9930582 C20.7275948,12.6754434 21.0812805,12.4850526 21.4597095,12.4850526 C21.8381385,12.4850526 22.1918242,12.6754434 22.403423,12.9930582 C23.509002,14.6414476 25.4060024,15.5590985 27.3674186,15.3943309 C30.8788441,15.1056691 32.9639851,11.2425762 31.5554149,7.97358273 Z M27.8742753,17.6660239 C27.557484,17.7056019 27.2386132,17.7256927 26.919419,17.7261859 C25.204392,17.7267607 23.5377382,17.1507201 22.1811374,16.0885075 C21.7572844,15.7523589 21.1615631,15.7523589 20.7377101,16.0885075 C19.381181,17.1504424 17.7148026,17.7264574 16,17.7261859 C14.284973,17.7267607 12.6183192,17.1507201 11.2617184,16.0885075 C10.8378655,15.7523589 10.2421441,15.7523589 9.81829113,16.0885075 C8.20373866,17.3522862 6.16160162,17.9196406 4.13601041,17.6671809 C3.81198192,17.6257894 3.48602346,17.7275096 3.2412525,17.9464035 C2.99648153,18.1652974 2.85655539,18.4802087 2.85715247,18.8108369 L2.85715247,28.6548399 C2.85715247,29.9500578 3.86686779,31 5.11258097,31 L26.8879905,31 C28.1337036,31 29.1434171,29.9500578 29.1434171,28.6548399 L29.1434171,18.8143077 C29.1428456,18.1241805 28.5497033,17.5780948 27.8742753,17.6660239 L27.8742753,17.6660239 Z M23.1319938,26.4010798 L8.86743483,26.4010798 C8.23886397,26.4010798 7.72457867,25.8804474 7.72457867,25.2441188 C7.72457867,24.6077902 8.23886393,24.0871577 8.86743483,24.0871577 L23.1319938,24.0871577 C23.7605646,24.0871577 24.2748499,24.6077902 24.2748499,25.2441188 C24.2748499,25.8804473 23.7605646,26.4010798 23.1319938,26.4010798 L23.1319938,26.4010798 Z" id="形状"></path>
            </g>
        </g>
    </g>
</svg>