<?xml version="1.0" encoding="UTF-8"?>
<svg width="32px" height="32px" viewBox="0 0 32 32" version="1.1" xmlns="http://www.w3.org/2000/svg" xmlns:xlink="http://www.w3.org/1999/xlink">
    <title>形状</title>
    <defs>
        <linearGradient x1="50%" y1="7.39646577%" x2="100%" y2="50%" id="linearGradient-1">
            <stop stop-color="#DCDCDE" offset="0%"></stop>
            <stop stop-color="#BDBDBF" offset="100%"></stop>
        </linearGradient>
        <path d="M19.1637597,8.95592512 C19.6625088,9.346571 20.2619905,9.24952373 20.6612355,8.75937373 C21.0604805,8.27168062 20.9609764,7.68448335 20.4609988,7.29260904 C19.6625088,6.60836454 19.2632638,5.92412005 19.1637597,4.94627693 C19.0642555,4.06548105 19.5630047,2.9905907 20.5617314,1.71914893 C20.9609764,1.42432186 20.9609764,0.741305818 20.4609988,0.349431509 C19.9622497,-0.0412143721 19.3639964,0.0558328917 18.9647514,0.545982892 C17.6662838,2.20807051 16.967298,3.6748352 17.0680306,5.23864712 C17.1675347,6.70664024 17.8665205,7.978082 19.1637597,8.95592512 L19.1637597,8.95592512 Z M26.7494145,12.8672976 L0,12.8672976 L0,17.9530646 C0,24.3102733 5.28968906,29.4930876 11.8778457,29.4930876 C17.0680306,29.4930876 21.5592296,26.1676839 23.1562096,21.6691141 C24.1549363,22.54991 25.3514428,23.0388316 26.7494145,23.0388316 C29.6436336,23.0388316 31.9395995,20.7895467 31.9395995,17.9530646 C31.9395995,15.1165825 29.6436336,12.8672976 26.7494145,12.8672976 Z M26.7494145,20.7895467 C25.7506878,20.7895467 24.7531896,20.3006251 24.2544404,19.518105 C24.2544404,19.4198293 23.9546996,19.1262306 23.7544629,18.832632 L23.7544629,15.2148582 L26.6499104,15.2148582 C28.2468904,15.2148582 29.5441295,16.4862999 29.5441295,18.0513403 C29.6436336,19.518105 28.3463945,20.7895467 26.7494145,20.7895467 L26.7494145,20.7895467 Z M11.6776089,8.95592512 C12.1763581,9.346571 12.7758398,9.24952373 13.1750848,8.75937373 C13.5743298,8.27168062 13.4748256,7.68448335 12.9760765,7.29260904 C12.1775865,6.60836454 11.7783415,5.92412005 11.6776089,4.94627693 C11.5781048,4.06548105 12.0768539,2.9905907 13.0755806,1.71914893 C13.4748256,1.23022736 13.3740931,0.643030127 12.974848,0.251155818 C12.5768315,-0.139490063 11.8778457,-0.0412143721 11.4786007,0.4477072 C10.1801331,2.10979482 9.48237569,3.5765595 9.58187984,5.14159986 C9.68138399,6.70664024 10.3803698,7.97808197 11.6776089,8.95592512 L11.6776089,8.95592512 Z M4.19268666,8.95592512 C4.6914358,9.346571 5.28968906,9.24952373 5.68893404,8.75937373 C6.08817903,8.27168062 5.98867491,7.68448335 5.48992578,7.29260904 C4.6914358,6.70664024 4.29219081,5.92412005 4.29219078,5.04455262 C4.19268664,4.16375674 4.69143577,3.08763793 5.68893404,1.91447189 C6.08817903,1.42555032 5.98867491,0.741305847 5.5894299,0.349431509 C5.19018491,-0.0412143721 4.39169493,0.0558328917 4.09195406,0.545982892 C2.6952108,2.10979482 2.09572909,3.6748352 2.09572909,5.23864712 C2.19523324,6.70664024 2.89421907,7.978082 4.19268666,8.95592512 L4.19268666,8.95592512 Z" id="path-2"></path>
    </defs>
    <g id="小程序/H5" stroke="none" stroke-width="1" fill="none" fill-rule="evenodd">
        <g id="小程序-惠老地图首页" transform="translate(-152.000000, -709.000000)" fill-rule="nonzero">
            <g id="分类索引" transform="translate(0.000000, 684.000000)">
                <g id="gongjiao备份-3" transform="translate(152.000000, 25.000000)">
                    <g id="形状" transform="translate(0.000000, 1.000000)">
                        <use fill="#999999" xlink:href="#path-2"></use>
                        <use fill="url(#linearGradient-1)" xlink:href="#path-2"></use>
                    </g>
                </g>
            </g>
        </g>
    </g>
</svg>