<?xml version="1.0" encoding="UTF-8"?>
<svg width="32px" height="32px" viewBox="0 0 32 32" version="1.1" xmlns="http://www.w3.org/2000/svg" xmlns:xlink="http://www.w3.org/1999/xlink">
    <title>全部</title>
    <defs>
        <linearGradient x1="0%" y1="0%" x2="100%" y2="100%" id="linearGradient-1">
            <stop stop-color="#FF8800" offset="0%"></stop>
            <stop stop-color="#FF5000" offset="100%"></stop>
        </linearGradient>
    </defs>
    <g id="小程序/H5" stroke="none" stroke-width="1" fill="none" fill-rule="evenodd">
        <g id="小程序-惠老地图首页" transform="translate(-21.000000, -709.000000)" fill="url(#linearGradient-1)" fill-rule="nonzero">
            <g id="分类索引" transform="translate(0.000000, 684.000000)">
                <g id="全部备份-2" transform="translate(21.000000, 25.000000)">
                    <g id="more" transform="translate(2.000000, 2.000000)">
                        <path d="M2,0 L11,0 C12.1045695,0 13,0.8954305 13,2 L13,11 C13,12.1045695 12.1045695,13 11,13 L2,13 C0.8954305,13 0,12.1045695 0,11 L0,2 C0,0.8954305 0.8954305,0 2,0 Z M17,0 L26,0 C27.1045695,0 28,0.8954305 28,2 L28,11 C28,12.1045695 27.1045695,13 26,13 L17,13 C15.8954305,13 15,12.1045695 15,11 L15,2 C15,0.8954305 15.8954305,0 17,0 Z M17,15 L26,15 C27.1045695,15 28,15.8954305 28,17 L28,26 C28,27.1045695 27.1045695,28 26,28 L17,28 C15.8954305,28 15,27.1045695 15,26 L15,17 C15,15.8954305 15.8954305,15 17,15 Z M2,15 L11,15 C12.1045695,15 13,15.8954305 13,17 L13,26 C13,27.1045695 12.1045695,28 11,28 L2,28 C0.8954305,28 0,27.1045695 0,26 L0,17 C0,15.8954305 0.8954305,15 2,15 Z" id="形状"></path>
                    </g>
                </g>
            </g>
        </g>
    </g>
</svg>