<?xml version="1.0" encoding="UTF-8"?>
<svg width="38px" height="38px" viewBox="0 0 38 38" version="1.1" xmlns="http://www.w3.org/2000/svg" xmlns:xlink="http://www.w3.org/1999/xlink">
    <title>KHCFDC_dianhua</title>
    <defs>
        <linearGradient x1="0%" y1="0%" x2="100%" y2="100%" id="linearGradient-1">
            <stop stop-color="#FF8800" offset="0%"></stop>
            <stop stop-color="#FF5000" offset="100%"></stop>
        </linearGradient>
    </defs>
    <g id="页面-1" stroke="none" stroke-width="1" fill="none" fill-rule="evenodd">
        <g id="地图-3" transform="translate(-101.000000, -730.000000)" fill="url(#linearGradient-1)" fill-rule="nonzero">
            <g id="KHCFDC_dianhua" transform="translate(101.000000, 730.000000)">
                <path d="M19,0 C8.55,0 0,8.55 0,19 C0,29.45 8.55,38 19,38 C29.45,38 38,29.45 38,19 C38,8.55 29.45,0 19,0 Z M28.025,26.125 L27.075,27.075 L26.8375,27.3125 L26.6,27.55 C25.4125,28.7375 21.375,30.4 14.25,23.5125 C7.6,16.8625 9.5,12.825 10.45,11.6375 L12.1125,9.975 C12.825,9.2625 14.0125,9.2625 14.725,9.975 L17.1,12.35 C17.8125,13.0625 17.8125,14.25 17.1,14.9625 L15.675,16.15 L15.4375,16.625 C14.725,17.3375 14.725,17.575 15.675,18.525 L19.2375,21.85 C20.9,23.275 21.1375,23.275 21.85,22.8 L23.0375,21.375 C23.75,20.6625 24.9375,20.425 25.65,21.1375 L28.025,23.5125 C28.7375,24.225 28.7375,25.4125 28.025,26.125 L28.025,26.125 Z" id="形状"></path>
            </g>
        </g>
    </g>
</svg>