<?xml version="1.0" encoding="UTF-8"?>
<svg width="32px" height="32px" viewBox="0 0 32 32" version="1.1" xmlns="http://www.w3.org/2000/svg" xmlns:xlink="http://www.w3.org/1999/xlink">
    <title>形状</title>
    <g id="养老地图" stroke="none" stroke-width="1" fill="none" fill-rule="evenodd">
        <g id="养老地图图标备份" transform="translate(-208.000000, -88.000000)" fill-rule="nonzero">
            <g id="养老院-(1)备份" transform="translate(208.000000, 88.000000)">
                <g id="编组-24" transform="translate(0.000000, 2.000000)">
                    <path d="M31.6576698,13.3217254 L16.8059235,0.253264741 C16.5825889,0.0506529482 16.3592544,7.10542736e-15 16.0800862,7.10542736e-15 L16.0242526,7.10542736e-15 L15.968419,7.10542736e-15 C15.6892508,7.10542736e-15 15.4659163,0.101305896 15.2425817,0.253264741 L0.335001797,13.3217254 C-0.111667266,13.726949 -0.111667266,14.3347843 0.335001797,14.7400079 C0.781670859,15.1452315 1.45167445,15.1452315 1.89834351,14.7400079 L4.63419152,12.3593194 L4.63419152,26.9473684 L27.6934819,26.9473684 L27.6934819,12.6125841 L30.1501617,14.7400079 C30.5968308,15.1452315 31.2668344,15.0945786 31.7135034,14.7400079 C32.1043388,14.3347843 32.1043388,13.676296 31.6576698,13.3217254 Z" id="形状" fill="#FF8565"></path>
                    <path d="M18.1198688,7.34467748 C19.118997,7.34467748 19.9182995,8.15512465 19.9182995,9.16818362 C19.9182995,10.1812426 19.118997,10.9916898 18.1198688,10.9916898 C17.1207407,10.9916898 16.3214381,10.1812426 16.3214381,9.16818362 C16.3214381,8.15512465 17.1207407,7.34467748 18.1198688,7.34467748 Z" id="路径" fill="#FFFFFF"></path>
                    <path d="M21.2671226,16.4622082 C21.0672969,16.7661258 20.8674713,16.9687376 20.5677329,17.1206965 C20.5677329,17.2726553 20.46782,17.3739612 20.3179508,17.3739612 L20.2679944,17.3739612 L20.2679944,26.2888801 C20.3679072,26.2888801 20.46782,26.390186 20.46782,26.5421448 C20.46782,26.6941037 20.3679072,26.7954096 20.218038,26.7954096 L19.3687791,26.7954096 C19.2189098,26.7954096 19.118997,26.6941037 19.118997,26.5421448 C19.118997,26.390186 19.2189098,26.2888801 19.3188226,26.2888801 L19.3188226,17.3739612 C19.1689534,17.3739612 19.0690406,17.2726553 19.0690406,17.1206965 L19.0690406,17.0193906 C19.0190842,17.0193906 18.9691278,16.9687376 18.9191714,16.9180847 C17.9200432,16.3102493 17.5203919,16.8674317 17.5203919,16.8674317 C17.3705227,17.0700435 17.1207407,17.1206965 16.920915,16.9687376 C16.7210894,16.8167788 16.671133,16.5128611 16.8210022,16.3102493 C16.9708715,16.0569846 17.3705227,15.7530669 17.9200432,15.7024139 L16.920915,15.0945786 C16.7710458,14.9932727 16.671133,14.8919668 16.6211766,14.7400079 L15.7219612,13.2204195 C15.32231,13.8282548 15.0225715,14.4360902 14.8227459,15.0945786 C14.473051,16.0569846 14.2732254,17.0193906 14.1733126,17.9817966 L15.3722664,21.527503 C15.572092,22.0340324 15.6220484,22.5405619 15.572092,23.0977444 L15.3722664,26.0356154 C15.3722664,26.4914919 15.0225715,26.8967155 14.5729639,26.8967155 L14.223269,26.8967155 C13.7736613,26.8967155 13.4239665,26.4408389 13.4739229,25.9849624 L13.6737485,22.5405619 L12.6246639,19.4507321 L12.4747947,19.552038 L12.8244896,21.6794618 C12.9244024,22.1859913 12.9244024,22.6925208 12.8244896,23.1990503 L12.2250127,26.1875742 C12.1750563,26.5927978 11.8253614,26.9473684 11.4257101,26.9473684 L10.9761025,26.9473684 C10.5264948,26.8460625 10.2267563,26.390186 10.3266692,25.9343095 L11.0260589,22.489909 L10.4765384,19.4000791 C10.3266692,18.4883261 10.2767127,18.2350613 10.426582,17.2726553 C10.7263204,15.4998021 11.2258845,14.0308666 11.8753178,12.7645429 C12.5747075,11.4982192 13.4739229,10.5358132 14.473051,9.82667194 C14.6229203,9.72536605 14.7727895,9.62406015 14.9226587,9.62406015 C15.2223972,9.5734072 15.572092,9.72536605 15.7219612,10.0292837 L17.9200432,13.7776019 L20.218038,15.1958844 C20.46782,15.3478433 20.5677329,15.5504551 20.6176893,15.8037198 C20.7675585,15.7530669 20.9174277,15.7530669 21.0173405,15.8037198 C21.317079,15.9556787 21.3670354,16.2595964 21.2671226,16.4622082 L21.2671226,16.4622082 Z" id="路径" fill="#FFFFFF"></path>
                </g>
            </g>
        </g>
    </g>
</svg>