<?xml version="1.0" encoding="UTF-8"?>
<svg width="20px" height="20px" viewBox="0 0 20 20" version="1.1" xmlns="http://www.w3.org/2000/svg" xmlns:xlink="http://www.w3.org/1999/xlink">
    <title>驾车</title>
    <g id="小程序/H5" stroke="none" stroke-width="1" fill="none" fill-rule="evenodd">
        <g id="路线导航页面（驾车）" transform="translate(-16.000000, -181.000000)" fill="#FF5500" fill-rule="nonzero">
            <g id="编组" transform="translate(-1.000000, 0.000000)">
                <g id="编组-5" transform="translate(1.000000, 0.000000)">
                    <g id="编组-6" transform="translate(16.000000, 177.000000)">
                        <g id="驾车" transform="translate(0.000000, 4.000000)">
                            <path d="M18.092026,6.92936482 L16.3575042,2.54730911 C16.0322814,1.7128589 15.3240183,1 13.9894001,1 L6.00578174,1 C4.67357263,1 3.96771862,1.7128589 3.64008673,2.54730911 L1.90556492,6.92936482 C1.21898338,7.01519399 0,7.80672962 0,9.30397172 L0,15.9771893 L1.95133703,15.9771893 L1.95133703,17.3647608 C1.95133703,19.5581728 4.59166466,19.5319472 4.59166466,17.3647608 L4.59166466,15.9771893 L15.4083353,15.9771893 L15.4083353,17.3647608 C15.4083353,19.5319472 18.048663,19.5581728 18.048663,17.3647608 L18.048663,15.9771893 L20,15.9771893 L20,9.30397172 C19.9975909,7.80672962 18.7786076,7.01519399 18.092026,6.92936482 Z M5.00602265,3.43659463 C5.16983859,2.95261351 5.41315346,2.60214441 5.98650927,2.59499198 L14.0134907,2.59499198 C14.5820284,2.59976027 14.8277523,2.95022936 14.9915683,3.43659463 L16.2972778,6.82684665 L3.70031318,6.82684665 L5.00602265,3.43659463 Z M4.2447603,12.6012421 C3.41845338,12.6012421 2.74873524,11.9265295 2.74873524,11.0920793 C2.74873524,10.2576291 3.41845338,9.58053236 4.2447603,9.58053236 C5.07106721,9.58053236 5.74078535,10.255245 5.74078535,11.0920793 C5.74078535,11.9265295 5.07106721,12.6012421 4.2447603,12.6012421 Z M15.7504216,12.6012421 C14.9241147,12.6012421 14.2543965,11.9265295 14.2543965,11.0920793 C14.2543965,10.2576291 14.9241147,9.58053236 15.7504216,9.58053236 C16.5767285,9.58053236 17.2464531,10.255245 17.2464531,11.0920793 C17.2488557,11.9265295 16.5791376,12.6012421 15.7504216,12.6012421 Z" id="形状"></path>
                        </g>
                    </g>
                </g>
            </g>
        </g>
    </g>
</svg>