<?xml version="1.0" encoding="UTF-8"?>
<svg width="32px" height="32px" viewBox="0 0 32 32" version="1.1" xmlns="http://www.w3.org/2000/svg" xmlns:xlink="http://www.w3.org/1999/xlink">
    <title>政务服务</title>
    <g id="养老地图" stroke="none" stroke-width="1" fill="none" fill-rule="evenodd">
        <g id="养老地图图标备份" transform="translate(-340.000000, -88.000000)" fill-rule="nonzero">
            <g id="政务服务备份" transform="translate(340.000000, 88.000000)">
                <g id="编组-22" transform="translate(0.500000, 1.000000)">
                    <path d="M9.2627047,25.7591819 L12.3680326,25.7591819 L18.5786884,25.7591819 L21.6840163,25.7591819 L27.8946721,25.7591819 L30.223668,25.7591819 C30.5342008,25.7591819 30.8447336,26.0832637 30.8447336,26.4073455 L30.8447336,27.379591 C30.8447336,28.1897955 30.223668,29 29.2920697,29 L1.80991774,29 C1.03358576,29 0.257253786,28.3518364 0.257253786,27.379591 L0.257253786,26.4073455 C0.257253786,26.0832637 0.567786576,25.7591819 0.878319366,25.7591819 L3.20731529,25.7591819 L9.2627047,25.7591819 Z M6.5,11 C7.32842712,11 8,11.6715729 8,12.5 L8,26 L8,26 L5,26 L5,12.5 C5,11.6715729 5.67157288,11 6.5,11 Z M12.5,11 C13.3284271,11 14,11.6715729 14,12.5 L14,26 L14,26 L11,26 L11,12.5 C11,11.6715729 11.6715729,11 12.5,11 Z M18.5,11 C19.3284271,11 20,11.6715729 20,12.5 L20,26 L20,26 L17,26 L17,12.5 C17,11.6715729 17.6715729,11 18.5,11 Z M24.5,11 C25.3284271,11 26,11.6715729 26,12.5 L26,26 L26,26 L23,26 L23,12.5 C23,11.6715729 23.6715729,11 24.5,11 Z M16.5602253,0.346514551 L16.7154917,0.508555455 L30.5342008,11.5273369 C31,11.6893778 31,12.1755005 31,12.6616233 C30.8447336,12.9857051 30.5342008,13.3097869 30.0684016,13.3097869 L1.03358576,13.3097869 C0.567786576,13.3097869 0.257253786,13.147746 0.101987391,12.6616233 C-0.0532790036,12.3375415 -0.0532790036,11.8514187 0.257253786,11.6893778 L0.412520181,11.5273369 L14.2312293,0.508555455 C14.8522949,-0.139608162 15.7838933,-0.139608162 16.5602253,0.346514551 Z" id="形状" fill="#75CB6A"></path>
                    <rect id="矩形备份-41" fill="#FFFFFF" x="8" y="13" width="3" height="13"></rect>
                    <rect id="矩形备份-42" fill="#FFFFFF" x="14" y="13" width="3" height="13"></rect>
                    <rect id="矩形备份-43" fill="#FFFFFF" x="20" y="13" width="3" height="13"></rect>
                </g>
            </g>
        </g>
    </g>
</svg>