<?xml version="1.0" encoding="UTF-8"?>
<svg width="32px" height="32px" viewBox="0 0 32 32" version="1.1" xmlns="http://www.w3.org/2000/svg" xmlns:xlink="http://www.w3.org/1999/xlink">
    <title>形状</title>
    <g id="养老地图" stroke="none" stroke-width="1" fill="none" fill-rule="evenodd">
        <g id="养老地图图标备份" transform="translate(-516.000000, -21.000000)" fill-rule="nonzero">
            <g id="gongjiao备份-4" transform="translate(516.000000, 21.000000)">
                <g id="美食" transform="translate(4.000000, 2.000000)">
                    <path d="M22.1443299,15.967984 C22.0265096,15.827914 21.9234168,15.7158579 21.8497791,15.6038019 C21.7614138,15.4777389 21.6583211,15.3516758 21.5699558,15.2396198 C21.1870398,14.7633817 20.7893962,14.2871436 20.7893962,12.3681841 L21.0103093,1.96098049 C21.0103093,0.882441221 20.1119293,0 18.9926362,0 C17.8733432,0 16.9749632,0.882441221 16.9749632,1.96098049 L17.1664212,12.3541771 C17.1664212,14.2311156 16.7540501,14.7633817 16.4005891,15.2256128 C16.2974963,15.3516758 16.1944035,15.4777389 16.1207658,15.6178089 C16.0618557,15.7298649 15.9587629,15.841921 15.826215,15.981991 C15.1929308,16.7243622 14,18.0970485 14,21.3466733 C14,25.3246623 16.0029455,28 19.0073638,28 C21.9970545,28 24,25.3246623 24,21.3466733 C23.9852725,18.0550275 22.7923417,16.6963482 22.1443299,15.967984 L22.1443299,15.967984 Z" id="路径" fill="#999999"></path>
                    <path d="M9,8.93103448 L8.64511041,0 L6.35962145,0 L6.35962145,7.46855984 C6.35962145,7.6673428 6.20347003,7.82352941 6.01892744,7.82352941 C5.83438486,7.82352941 5.67823344,7.6673428 5.67823344,7.46855984 L5.67823344,0 L3.32176656,0 L3.32176656,7.46855984 C3.32176656,7.6673428 3.16561514,7.82352941 2.98107256,7.82352941 C2.79652997,7.82352941 2.64037855,7.6673428 2.64037855,7.46855984 L2.64037855,0 L0.440063091,0 L0,8.94523327 C0,11.0892495 0.596214511,12.36714 1.80283912,12.8782961 L1.85962145,12.7221095 L1.80283912,12.8924949 C1.8170347,12.8924949 2.75394322,13.2900609 2.75394322,15.4766734 L2.55520505,26.0121704 C2.55520505,27.1054767 3.42113565,28 4.5,28 C5.57886435,28 6.44479495,27.1054767 6.44479495,26.0121704 L6.2318612,15.4766734 C6.2318612,13.2758621 7.16876972,12.8924949 7.1829653,12.8782961 L7.0977918,12.6511156 L7.1829653,12.8640974 C8.40378549,12.36714 9,11.0892495 9,8.93103448 Z" id="路径" fill="#E1E1E1"></path>
                </g>
            </g>
        </g>
    </g>
</svg>