<?xml version="1.0" encoding="UTF-8"?>
<svg width="40px" height="47px" viewBox="0 0 40 47" version="1.1" xmlns="http://www.w3.org/2000/svg" xmlns:xlink="http://www.w3.org/1999/xlink">
    <title>icon/人力资源社会保障局</title>
    <defs>
        <filter x="-23.5%" y="-20.0%" width="147.1%" height="140.0%" filterUnits="objectBoundingBox" id="filter-1">
            <feOffset dx="0" dy="2" in="SourceAlpha" result="shadowOffsetOuter1"></feOffset>
            <feGaussianBlur stdDeviation="1" in="shadowOffsetOuter1" result="shadowBlurOuter1"></feGaussianBlur>
            <feColorMatrix values="0 0 0 0 0.423573831   0 0 0 0 0.446570659   0 0 0 0 0.573907382  0 0 0 0.201076267 0" type="matrix" in="shadowBlurOuter1" result="shadowMatrixOuter1"></feColorMatrix>
            <feMerge>
                <feMergeNode in="shadowMatrixOuter1"></feMergeNode>
                <feMergeNode in="SourceGraphic"></feMergeNode>
            </feMerge>
        </filter>
    </defs>
    <g id="小程序/H5" stroke="none" stroke-width="1" fill="none" fill-rule="evenodd">
        <g id="地图1" transform="translate(-204.000000, -288.000000)" fill-rule="nonzero">
            <g id="编组-2备份-9" transform="translate(204.000000, 288.000000)">
                <g id="icon/人力资源社会保障局" filter="url(#filter-1)" transform="translate(3.333333, 0.000000)">
                    <g id="编组">
                        <path d="M16.6428257,0.0152826529 C25.837857,0.0152826529 33.2703688,7.58472711 33.2703688,16.8951731 C33.2703688,23.1471293 28.2752592,30.1903609 18.5403218,38.4425127 C17.445563,39.370632 15.8400884,39.370632 14.7453296,38.4425127 C5.01039223,30.1903609 0.0152826529,23.1471293 0.0152826529,16.8951731 C0.0152826529,7.58374904 7.44779439,0.0152826529 16.6428257,0.0152826529 Z" id="形状" fill="#FF8000"></path>
                        <path d="M16.6428257,3.92764575 C10.1610182,3.92764575 4.9057365,9.18292744 4.9057365,15.664735 C4.9057365,22.1465425 10.1610182,27.4018242 16.6428257,27.4018242 C23.1246332,27.4018242 28.3799149,22.1465425 28.3799149,15.664735 C28.3799149,9.18292744 23.1246332,3.92764575 16.6428257,3.92764575 Z" id="路径" fill="#FFFFFF"></path>
                        <path d="M23.7252977,13.5454545 C23.6406987,13.0606061 23.3869015,12.6565657 22.9639063,12.3333333 C23.0485053,12.0909091 23.0485053,11.8484848 23.0485053,11.6060606 C23.0485053,9.90909091 21.3565243,8.61616162 19.5799442,8.93939394 C18.9877509,7.80808081 17.8033642,7 16.3651803,7 C14.6731993,7 13.1504164,8.21212121 12.8966192,9.82828283 C12.1352278,10.0707071 11.4584354,10.6363636 11.2046382,11.3636364 C10.5278458,11.6868687 9.93565243,12.2525253 9.85105338,13.0606061 C9.17426097,13.2222222 8.66666667,13.7878788 8.66666667,14.5151515 C8.66666667,15.3232323 9.34345907,16.0505051 10.2740486,16.0505051 L10.3586477,16.0505051 C10.4432467,16.6969697 10.866242,17.2626263 11.6276335,17.5858586 C11.9660297,17.7474747 12.3890249,17.8282828 12.8120202,17.8282828 C13.1504164,17.8282828 13.4888126,17.7474747 13.7426097,17.6666667 C14.5040012,17.4242424 15.0115955,16.8585859 15.1807936,16.2121212 C15.2653926,16.2121212 15.4345907,16.2929293 15.5191898,16.2929293 L16.1113832,16.1313131 L16.6189775,17.7474747 L14.8423974,21.8686869 C13.4888126,22.1111111 12.3890249,22.5151515 11.7968316,23 L21.9487177,23 C21.3565243,22.4343434 20.2567367,22.030303 18.9031518,21.8686869 L18.3109585,20.8181818 L18.4801566,17.989899 L17.464968,15.8080808 L17.549567,15.8080808 L17.9725623,14.5959596 C18.1417604,14.5959596 18.7339537,16.2121212 18.9031518,16.2121212 L21.1873262,17.6666667 C21.7795196,18.0707071 22.6255101,17.9090909 23.0485053,17.2626263 C23.3023025,16.8585859 23.3023025,16.4545455 23.1331044,16.0505051 L23.3023025,16.0505051 C24.063694,16.0505051 24.6558873,15.4848485 24.6558873,14.7575758 C24.7404864,14.1919192 24.3174911,13.7070707 23.7252977,13.5454545 Z" id="路径" fill="#FF8000"></path>
                    </g>
                </g>
            </g>
        </g>
    </g>
</svg>