<?xml version="1.0" encoding="UTF-8"?>
<svg width="20px" height="20px" viewBox="0 0 20 20" version="1.1" xmlns="http://www.w3.org/2000/svg" xmlns:xlink="http://www.w3.org/1999/xlink">
    <title>形状</title>
    <g id="小程序/H5" stroke="none" stroke-width="1" fill="none" fill-rule="evenodd">
        <g id="交通方式" transform="translate(-295.000000, -9.000000)" fill="#FF5000" fill-rule="nonzero">
            <g id="编组-6备份" transform="translate(26.000000, 5.000000)">
                <g id="编组-39" transform="translate(269.000000, 0.000000)">
                    <g id="步行" transform="translate(0.000000, 4.000000)">
                        <path d="M10.6231787,3.93980061 C11.6967983,3.93980061 12.588286,3.04831288 12.588286,1.97708972 C12.588286,0.905866564 11.6944018,0.0143788344 10.6231787,0.0143788344 C9.54955905,0.0143788344 8.65567485,0.905866564 8.65567485,1.97708972 C8.65807132,3.04831288 9.55195552,3.93980061 10.6231787,3.93980061 Z M14.9152607,8.93404908 L12.502013,8.04256135 L10.9826495,5.27703221 C10.8939801,5.18836273 10.8029141,5.09969325 10.8029141,5.0086273 L10.6231787,4.83128834 C9.99769939,4.20580905 9.10381518,4.11713957 8.29860046,4.47421396 L4.09758436,5.9025115 C3.74050997,5.99118098 3.47210506,6.34825537 3.38343558,6.70532975 L3.0263612,10.0052722 C2.93769172,10.5396856 3.38343558,11.0764954 3.9202454,11.1651649 L4.00891488,11.1651649 C4.54572469,11.1651649 4.99146856,10.8080905 4.99146856,10.2736771 L5.25987347,7.68788344 L6.86790644,7.15347009 C6.59950153,7.77894939 6.33109663,8.40203221 6.15375767,8.84777607 C5.79668328,9.65059433 5.79668328,10.7218175 6.24242715,11.6133052 L3.47210506,18.0358512 C3.20370015,18.6613305 3.47929448,19.444977 4.09758436,19.7301572 C4.80454371,20.0560775 5.64810199,19.4497699 5.88535276,18.927339 L7.94152607,14.2901649 C9.19248466,16.5212807 10.6231787,19.1070744 10.6231787,19.1957439 C10.8915836,19.6414877 11.3373275,19.9098926 11.7854678,19.9098926 C11.9652032,19.9098926 12.2312117,19.8212232 12.4109471,19.7325537 C13.0364264,19.3754793 13.3048313,18.572661 12.9477569,17.9495782 C12.8590874,17.7722393 10.7142446,13.758148 9.28355061,11.3496933 L10.5345092,8.58416411 L10.9802531,9.38698236 C11.0689225,9.65538727 11.3373275,9.74405675 11.5170629,9.83272623 L14.287385,10.89676 C14.3760544,10.89676 14.5557899,10.9854294 14.6444594,10.9854294 C15.0902032,10.9854294 15.4496741,10.7170245 15.627013,10.2712807 C15.718079,9.73686733 15.4496741,9.11378451 14.9152607,8.93404908 L14.9152607,8.93404908 Z" id="形状" transform="translate(9.329785, 9.962136) scale(-1, 1) translate(-9.329785, -9.962136) "></path>
                    </g>
                </g>
            </g>
        </g>
    </g>
</svg>