<?xml version="1.0" encoding="UTF-8"?>
<svg width="24px" height="24px" viewBox="0 0 24 24" version="1.1" xmlns="http://www.w3.org/2000/svg" xmlns:xlink="http://www.w3.org/1999/xlink">
    <title>操作-外链</title>
    <g id="小程序/H5" stroke="none" stroke-width="1" fill="none" fill-rule="evenodd">
        <g id="地点（商户）详情页面——景点类" transform="translate(-221.000000, -1558.000000)" fill="#333333" fill-rule="nonzero">
            <g id="编组-10" transform="translate(0.000000, 1551.000000)">
                <g id="编组-6" transform="translate(215.000000, 7.000000)">
                    <g id="操作-外链" transform="translate(6.000000, 0.000000)">
                        <path d="M20.404908,15.0368098 C20.404908,14.6132786 20.7482479,14.2699387 21.1717791,14.2699387 C21.5953104,14.2699387 21.9386503,14.6132786 21.9386503,15.0368098 L21.9386503,20.4072086 C21.9382272,21.2528252 21.2528252,21.9382272 20.4072086,21.9386503 L3.53144172,21.9386503 C2.68582514,21.9382272 2.00042313,21.2528252 2,20.4072086 L2,3.53144172 C2,2.68558282 2.68634969,2 3.53144172,2 L8.90184049,2 C9.32537174,2 9.66871166,2.34333992 9.66871166,2.76687117 C9.66871166,3.19040242 9.32537174,3.53374233 8.90184049,3.53374233 L4.30214724,3.53374233 C4.09804072,3.53271614 3.90199712,3.61334327 3.7576702,3.7576702 C3.61334327,3.90199712 3.53271614,4.09804072 3.53374233,4.30214724 L3.53374233,19.6365031 C3.53271614,19.8406096 3.61334327,20.0366532 3.7576702,20.1809801 C3.90199712,20.325307 4.09804072,20.4059342 4.30214724,20.404908 L19.6365031,20.404908 C19.8406096,20.4059342 20.0366532,20.325307 20.1809801,20.1809801 C20.325307,20.0366532 20.4059342,19.8406096 20.404908,19.6365031 L20.404908,15.0368098 Z M8.77760736,16.2944785 C8.6340146,16.4378417 8.4392338,16.5181079 8.23632606,16.5175353 C8.03341833,16.5169566 7.83909606,16.4355866 7.69631902,16.291411 C7.55195434,16.1487354 7.47045318,15.9543757 7.4698743,15.7514049 C7.46930157,15.5484341 7.54969868,15.3536151 7.69325153,15.2101227 L19.2315951,3.67868098 L15.0107362,3.69631902 C14.808947,3.69756596 14.6151166,3.61769321 14.4727883,3.47464394 C14.3304601,3.33159466 14.2515678,3.13736312 14.2538344,2.93558282 C14.2579501,2.51525721 14.5965715,2.17493427 15.0168712,2.16871166 L21.1334356,2.14338557 C21.3346171,2.14196269 21.5279771,2.22124427 21.6702376,2.36350473 C21.8124981,2.5057652 21.8917796,2.69912524 21.8903568,2.90030675 L21.8650307,9.01687117 C21.8588081,9.43717086 21.5184851,9.7757922 21.0981595,9.77990798 C20.8965114,9.78196746 20.7024787,9.70298364 20.5595965,9.56067812 C20.4167142,9.4183726 20.3369463,9.22466091 20.3381902,9.02300613 L20.3558282,4.72392638 L8.77760736,16.2944785 Z" id="形状"></path>
                    </g>
                </g>
            </g>
        </g>
    </g>
</svg>