<?xml version="1.0" encoding="UTF-8"?>
<svg width="32px" height="32px" viewBox="0 0 32 32" version="1.1" xmlns="http://www.w3.org/2000/svg" xmlns:xlink="http://www.w3.org/1999/xlink">
    <title>形状</title>
    <g id="养老地图" stroke="none" stroke-width="1" fill="none" fill-rule="evenodd">
        <g id="养老地图图标备份" transform="translate(-296.000000, -88.000000)" fill-rule="nonzero">
            <g id="日间照料备份" transform="translate(296.000000, 88.000000)">
                <path d="M16.5,3.32568891 C15.5536686,3.32568891 14.8176331,2.59819447 14.8176331,1.66284446 C14.8176331,0.727494447 15.5536686,0 16.5,0 C17.4463314,0 18.1823669,0.727494447 18.1823669,1.66284446 C18.1823669,2.59819447 17.4463314,3.32568891 16.5,3.32568891 Z M26.2787577,8.00243896 C25.7004441,7.27494451 25.805592,6.2356667 26.5416275,5.66406394 C27.277663,5.09246117 28.3291424,5.19638893 28.907456,5.92388338 C29.4857696,6.65137783 29.3806217,7.69065563 28.6445861,8.2622584 C27.9085506,8.83386117 26.8570713,8.7299334 26.2787577,8.00243896 Z M28.6971601,18.4471807 C28.907456,17.5637946 29.8012134,16.9921918 30.6949708,17.2000474 C31.5887283,17.4079029 32.1670419,18.2912891 31.956746,19.1746752 C31.7464501,20.0580613 30.8526927,20.6296641 29.9589353,20.4218085 C29.0651779,20.213953 28.4868643,19.3305668 28.6971601,18.4471807 Z M21.9151185,26.8653308 C22.756302,26.4496197 23.7552073,26.8133669 24.1232251,27.6447891 C24.5438168,28.4762114 24.175799,29.4635253 23.3346156,29.8272725 C22.4934321,30.2429836 21.4945268,29.8792364 21.126509,29.0478142 C20.7584912,28.2163919 21.0739351,27.229078 21.9151185,26.8653308 Z M11.0848815,26.8653308 C11.926065,27.2810419 12.2415087,28.2683558 11.873491,29.0478142 C11.4528992,29.8792364 10.4539939,30.1910197 9.66538441,29.8272725 C8.82420093,29.4115614 8.50875715,28.4242475 8.87677493,27.6447891 C9.24479271,26.8133669 10.2436981,26.4496197 11.0848815,26.8653308 Z M4.30283986,18.4471807 C4.51313573,19.3305669 3.93482208,20.213953 3.04106468,20.4218085 C2.14730729,20.629664 1.25354986,20.1100252 1.04325399,19.1746752 C0.832958122,18.2912891 1.41127177,17.4079029 2.30502916,17.2000474 C3.19878659,16.9921918 4.09254403,17.5637946 4.30283986,18.4471807 Z M6.72124232,8.00243896 C6.14292871,8.7299334 5.09144937,8.8338612 4.35541385,8.2622584 C3.61937833,7.6906556 3.51423038,6.65137783 4.09254403,5.92388338 C4.67085767,5.19638893 5.72233698,5.09246113 6.4583725,5.66406394 C7.19440802,6.23566674 7.29955597,7.32690839 6.72124232,8.00243896 Z M16.5,5.19638893 C10.8220117,5.19638893 6.19550264,9.76921121 6.19550264,15.3813113 C6.19550264,20.9934113 10.8220117,25.6181974 16.5,25.6181974 C22.1779883,25.6181974 26.8044974,21.0453752 26.8044974,15.4332751 C26.8044974,9.82117513 22.1779883,5.19638893 16.5,5.19638893 Z" id="形状" fill="#FE5E32"></path>
                <path d="M18.6619241,17.8990515 L15.1388889,17.8990515 C14.5426829,17.8990515 14.054878,17.4112466 14.054878,16.8150407 L14.054878,13.2920054 C14.054878,12.6957995 14.5426829,12.2079946 15.1388889,12.2079946 C15.7350948,12.2079946 16.2228997,12.6957995 16.2228997,13.2920054 L16.2228997,15.7310298 L18.6619241,15.7310298 C19.2581301,15.7310298 19.7459349,16.2188347 19.7459349,16.8150407 C19.7459349,17.4112466 19.2581301,17.8990515 18.6619241,17.8990515 Z" id="路径" fill="#FFFFFF"></path>
            </g>
        </g>
    </g>
</svg>