<?xml version="1.0" encoding="UTF-8"?>
<svg width="32px" height="32px" viewBox="0 0 32 32" version="1.1" xmlns="http://www.w3.org/2000/svg" xmlns:xlink="http://www.w3.org/1999/xlink">
    <title>形状</title>
    <g id="养老地图" stroke="none" stroke-width="1" fill="none" fill-rule="evenodd">
        <g id="养老地图图标备份" transform="translate(-604.000000, -88.000000)">
            <g id="gongjiao备份-7" transform="translate(604.000000, 88.000000)">
                <path d="M25.9060403,27.1843575 L25.9060403,29.0614525 C25.9060403,29.5307263 25.4228188,30 24.9395973,30 L21.8791946,30 C21.3959731,30 20.9127517,29.5307262 20.9127517,29.0614525 L20.9127517,27.1843575 L10.9261745,27.1843575 L10.9261745,29.0614525 C10.9261745,29.5307263 10.442953,30 9.95973157,30 L6.89932885,30 C6.41610736,30 5.93288592,29.5307262 5.93288592,29.0614525 L5.93288592,27.1843575 C4.80536912,27.1843575 4,26.2458101 4,25.3072626 L4,5.75418993 C4,4.65921784 5.93288592,3.87709494 7.06040267,3.87709499 C7.06040267,3.87709499 11.0872483,2 16.0805369,2 C21.0738255,2 26.0671141,3.87709499 26.0671141,3.87709499 C27.1946309,3.87709499 28,4.81564246 28,5.75418993 L28,25.3072626 C27.8389262,26.24581 27.0335571,27.1843575 25.9060403,27.1843575 M8.5,24 C9.90624998,24 11,22.8333333 11,21.5 C11,20 9.90624998,19 8.5,19 C7.09374997,19 6,20.1666667 6,21.5 C6.15624999,23 7.25000001,24 8.5,24 M20.032258,4 L11.9677419,4 C11.4838709,4 11,4.5 11,5 C11,5.5 11.483871,6 11.9677419,6 L20.032258,6 C20.516129,6 21,5.5 21,5 C21,4.5 20.516129,4 20.032258,4 M26,8.97959182 C26,8.48979588 25.516129,8 25.032258,8 L6.96774192,8 C6.48387093,8 6,8.48979594 6,8.97959182 L6,15.0204081 C6,15.5102041 6.48387098,16 6.96774192,16 L25.032258,16 C25.516129,16 26,15.5102041 26,15.0204081 L26,8.97959182 M23.5,19 C22.09375,19 21,20.1666667 21,21.5 C21,23 22.09375,24 23.5,24 C24.90625,24 26,22.8333333 26,21.5 C25.84375,20.1666666 24.75,19 23.5,19" id="形状" fill="#70B9FA" fill-rule="nonzero"></path>
                <rect id="矩形" fill="#FFFFFF" x="6" y="8" width="20" height="8" rx="1"></rect>
                <rect id="矩形" fill="#FFFFFF" x="11" y="4" width="10" height="2" rx="1"></rect>
                <circle id="椭圆形" fill="#FFFFFF" cx="8.5" cy="21.5" r="2.5"></circle>
                <circle id="椭圆形备份-49" fill="#FFFFFF" cx="23.5" cy="21.5" r="2.5"></circle>
            </g>
        </g>
    </g>
</svg>