<?xml version="1.0" encoding="UTF-8"?>
<svg width="20px" height="20px" viewBox="0 0 20 20" version="1.1" xmlns="http://www.w3.org/2000/svg" xmlns:xlink="http://www.w3.org/1999/xlink">
    <title>公交 (2)</title>
    <g id="小程序/H5" stroke="none" stroke-width="1" fill="none" fill-rule="evenodd">
        <g id="交通方式" transform="translate(-107.000000, -9.000000)" fill="#FF5000" fill-rule="nonzero">
            <g id="编组-6备份" transform="translate(26.000000, 5.000000)">
                <g id="编组-38" transform="translate(81.000000, 0.000000)">
                    <g id="公交-(2)" transform="translate(2.000000, 4.000000)">
                        <path d="M15.7331731,1.63221154 C15.5913462,1.3125 15.3990385,1.03365385 15.1586538,0.790865385 C14.9182692,0.550480769 14.6370192,0.358173077 14.3197115,0.216346154 C14,0.0745192308 13.65625,0.00480769231 13.2884615,0.00480769231 L2.65865385,0.00480769231 C2.29086538,0.00480769231 1.94711538,0.0769230769 1.62740385,0.216346154 C1.30769231,0.358173077 1.02884615,0.550480769 0.788461538,0.790865385 C0.548076923,1.03125 0.355769231,1.3125 0.213942308,1.63221154 C0.0721153846,1.95192308 0.00240384615,2.29567308 0.00240384615,2.66346154 L0.00240384615,14.6394231 C0.00240384615,15.0072115 0.00480769231,15.3509615 0.0120192308,15.6706731 C0.0192307692,15.9903846 0.0576923077,16.2692308 0.129807692,16.5096154 C0.199519231,16.75 0.329326923,16.9423077 0.512019231,17.0841346 C0.697115385,17.2259615 0.966346154,17.2956731 1.31971154,17.2956731 L1.31971154,18.6153846 C1.31971154,18.9831731 1.45192308,19.3004808 1.71394231,19.5625 C1.97596154,19.8245192 2.29086538,19.9567308 2.66105769,19.9567308 C3.02884615,19.9567308 3.34134615,19.8245192 3.59615385,19.5625 C3.85096154,19.3004808 3.97836538,18.9855769 3.97836538,18.6153846 L3.97836538,17.2956731 L11.9711538,17.2956731 L11.9711538,18.6153846 C11.9711538,18.9831731 12.0985577,19.3004808 12.3533654,19.5625 C12.6081731,19.8245192 12.9206731,19.9567308 13.2884615,19.9567308 C13.65625,19.9567308 13.9735577,19.8245192 14.2355769,19.5625 C14.4975962,19.3004808 14.6298077,18.9855769 14.6298077,18.6153846 L14.6298077,17.2956731 C14.9975962,17.2956731 15.2740385,17.2259615 15.4591346,17.0841346 C15.6442308,16.9423077 15.7716346,16.75 15.8413462,16.5096154 C15.9110577,16.2692308 15.9471154,15.9855769 15.9471154,15.6586538 L15.9471154,2.66346154 C15.9471154,2.29567308 15.875,1.95192308 15.7331731,1.63221154 Z M4.80528846,1.51442308 C4.93269231,1.38701923 5.08894231,1.32211538 5.27403846,1.32211538 L10.6730769,1.32211538 C10.8581731,1.32211538 11.0144231,1.38461538 11.1418269,1.51442308 C11.2692308,1.64182692 11.3341346,1.79807692 11.3341346,1.98317308 C11.3341346,2.18269231 11.2716346,2.34375 11.1418269,2.47355769 C11.0144231,2.60096154 10.8581731,2.66586538 10.6730769,2.66586538 L5.27403846,2.66586538 C5.08894231,2.66586538 4.93269231,2.60096154 4.80528846,2.47355769 C4.67788462,2.34615385 4.61298077,2.18269231 4.61298077,1.98317308 C4.61538462,1.79807692 4.67788462,1.64423077 4.80528846,1.51442308 Z M3.96634615,14.5649038 C3.77403846,14.7572115 3.54567308,14.8509615 3.27644231,14.8509615 C2.99278846,14.8509615 2.75961538,14.7548077 2.57451923,14.5649038 C2.38942308,14.3725962 2.29807692,14.1418269 2.29807692,13.8725962 C2.29807692,13.6033654 2.38942308,13.3725962 2.57451923,13.1802885 C2.75961538,12.9879808 2.99278846,12.8942308 3.27644231,12.8942308 C3.54567308,12.8942308 3.77644231,12.9903846 3.96634615,13.1802885 C4.15865385,13.3725962 4.25240385,13.6009615 4.25240385,13.8725962 C4.25240385,14.1442308 4.15625,14.3725962 3.96634615,14.5649038 Z M13.2355769,14.5336538 C13.0576923,14.71875 12.8413462,14.8100962 12.5865385,14.8100962 C12.3173077,14.8100962 12.09375,14.71875 11.9158654,14.5336538 C11.7379808,14.3485577 11.6490385,14.1298077 11.6490385,13.875 C11.6490385,13.6201923 11.7379808,13.3990385 11.9158654,13.2163462 C12.09375,13.03125 12.3173077,12.9399038 12.5865385,12.9399038 C12.8413462,12.9399038 13.0576923,13.03125 13.2355769,13.2163462 C13.4134615,13.4014423 13.5024038,13.6201923 13.5024038,13.875 C13.5024038,14.1298077 13.4134615,14.3485577 13.2355769,14.5336538 Z M14.6274038,9.30048077 L1.31971154,9.30048077 L1.31971154,3.98317308 L14.6298077,3.98317308 L14.6298077,9.30048077 L14.6274038,9.30048077 Z" id="形状"></path>
                    </g>
                </g>
            </g>
        </g>
    </g>
</svg>