<?xml version="1.0" encoding="UTF-8"?>
<svg width="25px" height="24px" viewBox="0 0 25 24" version="1.1" xmlns="http://www.w3.org/2000/svg" xmlns:xlink="http://www.w3.org/1999/xlink">
    <title>形状</title>
    <g id="小程序/H5" stroke="none" stroke-width="1" fill="none" fill-rule="evenodd">
        <g id="搜索页面-召回信息地图页（唯一结果展示）" transform="translate(-163.000000, -706.000000)" fill="#333333" fill-rule="nonzero">
            <g id="编组" transform="translate(-30.065209, 0.000000)">
                <g id="卡片" transform="translate(44.000000, 541.000000)">
                    <g id="打车" transform="translate(150.000000, 165.000000)">
                        <path d="M18.2898773,9.28220859 L19.9693252,9.28220859 L19.4907975,4.49693252 C19.3962763,3.55645819 18.6047215,2.8404908 17.6595092,2.8404908 L6.26687117,2.8404908 C5.32165891,2.8404908 4.53010405,3.55645819 4.43558282,4.49693252 L3.95705521,9.28220859 L9.24846626,9.28220859 L6.6,6.63282209 C6.25125257,6.27173722 6.25624015,5.69777475 6.6112099,5.34280499 C6.96617965,4.98783524 7.54014213,4.98284766 7.90122699,5.33159509 L11.804908,9.23619632 C11.8205521,9.25092025 11.8343558,9.26656442 11.8481595,9.28220859 L15.690184,9.28220859 L13.0417178,6.63282209 C12.6929704,6.27173722 12.6979579,5.69777475 13.0529277,5.34280499 C13.4078974,4.98783524 13.9818599,4.98284766 14.3429448,5.33159509 L18.2466258,9.23619632 C18.2622699,9.25092025 18.2760736,9.26656442 18.2898773,9.28220859 L18.2898773,9.28220859 Z M5.52147239,20.3251534 L5.52147239,21.7055215 C5.52147239,22.4678777 4.90346054,23.0858896 4.14110429,23.0858896 C3.37874804,23.0858896 2.7607362,22.4678777 2.7607362,21.7055215 L2.7607362,20.2092025 C1.1355554,19.7889114 0,18.3228192 0,16.6441718 L0,12.9631902 C0,11.758589 0.57791411,10.690184 1.47239264,10.0184049 L2.42208589,3.37055215 C2.61627992,2.01033001 3.78120032,1 5.15521472,1 L18.7711656,1 C20.14518,1 21.3101004,2.01033001 21.5042945,3.37055215 L22.4539877,10.0184049 C23.3484663,10.690184 23.9263804,11.758589 23.9263804,12.9631902 L23.9263804,16.6441718 C23.9263804,18.3228192 22.790825,19.7889114 21.1656442,20.2092025 L21.1656442,21.7055215 C21.1656442,22.4678777 20.5476323,23.0858896 19.7852761,23.0858896 C19.0229198,23.0858896 18.404908,22.4678777 18.404908,21.7055215 L18.404908,20.3251534 L5.52147239,20.3251534 Z M3.6809816,11.1226994 C2.6645066,11.1226994 1.8404908,11.9467152 1.8404908,12.9631902 L1.8404908,16.6441718 C1.8404908,17.6606468 2.6645066,18.4846626 3.6809816,18.4846626 L20.2453988,18.4846626 C21.2618738,18.4846626 22.0858896,17.6606468 22.0858896,16.6441718 L22.0858896,12.9631902 C22.0858896,11.9467152 21.2618738,11.1226994 20.2453988,11.1226994 L3.6809816,11.1226994 Z M6.44171779,12.9631902 C7.45819279,12.9631902 8.28220859,13.787206 8.28220859,14.803681 C8.28220859,15.820156 7.45819279,16.6441718 6.44171779,16.6441718 C5.42524279,16.6441718 4.60122699,15.820156 4.60122699,14.803681 C4.60122699,13.787206 5.42524279,12.9631902 6.44171779,12.9631902 Z M17.4846626,12.9631902 C18.5011376,12.9631902 19.3251534,13.787206 19.3251534,14.803681 C19.3251534,15.820156 18.5011376,16.6441718 17.4846626,16.6441718 C16.4681876,16.6441718 15.6441718,15.820156 15.6441718,14.803681 C15.6441718,13.787206 16.4681876,12.9631902 17.4846626,12.9631902 Z" id="形状"></path>
                    </g>
                </g>
            </g>
        </g>
    </g>
</svg>