<?xml version="1.0" encoding="UTF-8"?>
<svg width="32px" height="32px" viewBox="0 0 32 32" version="1.1" xmlns="http://www.w3.org/2000/svg" xmlns:xlink="http://www.w3.org/1999/xlink">
    <title>爱心餐</title>
    <g id="养老地图" stroke="none" stroke-width="1" fill="none" fill-rule="evenodd">
        <g id="养老地图图标备份" transform="translate(-252.000000, -21.000000)">
            <g id="编组-21" transform="translate(252.000000, 21.000000)">
                <g id="爱心餐" transform="translate(1.000000, 14.422860)" fill="#E1E1E1">
                    <path d="M17.0271468,8.56453519 C16.6750091,8.56453519 15.5030875,8.07266481 13.5113819,7.08892404 C13.2788693,6.97409842 12.9972906,7.06948629 12.8824515,7.30199223 C12.8770262,7.31297646 12.8720328,7.32416881 12.8674829,7.33554359 C12.7627729,7.59731857 12.8891889,7.89450897 13.1503931,8.00063474 C15.4433358,8.93224723 16.7986123,9.4353401 17.2162224,9.50991334 C17.8362464,9.6206319 18.704548,7.56851539 18.8879709,7.1245639 L19.48513,7.05193015 C21.0993527,6.75401563 22.2968317,6.50191479 23.077567,6.29562763 C26.5185583,5.3864432 27.9935334,4.40487132 28.9389115,5.35024947 C30.0730063,6.48434424 26.7236224,8.92529166 24.7792476,10.4552915 C22.8348729,11.9852913 19.2960544,13.8586528 17.2162224,13.8586528 C14.5691636,13.8586528 10.1292999,12.2075135 7.00613839,11.5897453 C4.92403071,11.1778998 2.59209794,11.0518494 0.0103400735,11.211594 L0.0103400735,11.211594 L0.0103400735,3.6485688 C3.53975184,1.1275604 5.99773503,-0.0699185924 7.38428965,0.0561318277 C10.9735478,0.426158439 13.7676077,2.49691279 17.9725249,5.35024947 C18.3506762,5.72840074 18.3506762,6.35865284 17.9725249,7.24100578 L17.9725249,7.24100578 C17.7204241,8.12335872 17.4052981,8.56453519 17.0271468,8.56453519 Z" id="形状结合"></path>
                </g>
                <g id="助餐服务" transform="translate(12.733029, 2.000000)" fill-rule="nonzero">
                    <path d="M0.978594277,10.6731719 L14.3993191,10.6731719 C14.6551074,10.6731719 14.8591938,10.5643258 15.0632803,10.3493547 C15.2673667,10.1343837 15.3181616,9.91850558 15.3689564,9.64911147 C15.3689564,9.37971736 15.2673667,9.11032326 15.0632803,8.94886818 C14.8591938,8.73389713 14.6551074,8.62595806 14.3993191,8.62595808 L14.2977294,8.62595808 C14.0936429,7.27898753 13.5829733,5.50116782 12.7158326,4.47801442 C11.8477849,3.45395398 10.7765578,2.70019471 9.55203916,2.32286154 C9.55203916,2.21492249 9.60283402,2.10698343 9.60283402,2.05346743 C9.60283402,1.51467922 9.39874757,1.02940699 9.04136952,0.598557825 C8.68764122,0.214123592 8.18682261,-0.0013141913 7.6644663,0.00625359922 C7.1528896,0.00625359922 6.69392185,0.222131708 6.33654381,0.598557825 C5.92837092,1.02940699 5.77507933,1.51467921 5.77507931,2.05346743 L5.77507931,2.32286154 C4.52583866,2.70223348 3.42229915,3.45417207 2.61219291,4.47801442 C1.74414522,5.50116782 1.23347558,7.27898753 1.02938913,8.62595808 L0.97950133,8.62595808 C0.87700458,8.62595808 0.724620026,8.68038113 0.622123291,8.73389713 C0.520533594,8.78741312 0.418036844,8.84092914 0.316447146,8.94886818 C0.230558664,9.04446132 0.161546658,9.15396037 0.112360699,9.27268535 C0.0606588055,9.37971736 0.0606588055,9.54117241 0.00986394967,9.70353452 C0.00986394967,9.97292863 0.112360699,10.2423227 0.316447146,10.4037778 C0.4688317,10.6187489 0.724620041,10.6731719 0.978594277,10.6731719 Z M7.66355924,0.867951932 C7.97014244,0.867951932 8.22502373,0.976798031 8.47990503,1.1917691 C8.68399148,1.40674016 8.83728307,1.67613427 8.83728307,1.99904437 L8.83728307,2.05346743 C8.58240177,2.05346743 8.42911018,2.05346743 8.22502373,1.99904437 L7.10209474,1.99904437 C6.94880315,2.05346743 6.74471671,2.05346743 6.54063026,2.05346743 L6.54063026,1.99904437 C6.54063026,1.67613425 6.64312701,1.40674015 6.8980083,1.1917691 C7.10209474,0.975890993 7.35697605,0.867951932 7.66355924,0.867951932 Z M14.3485242,11.4804472 L0.97950133,11.4804472 C0.724620026,11.4804472 0.520533579,11.5892933 0.316447146,11.7507483 C0.112360699,11.9657194 0.0606588055,12.1815975 0.00986394967,12.4509916 C0.00986394967,12.7203857 0.112360699,12.9897798 0.316447146,13.1512349 C0.520533594,13.366206 0.724620041,13.420629 0.97950133,13.420629 L14.4002261,13.420629 C14.6560144,13.420629 14.8601009,13.3117829 15.0641873,13.1512349 C15.2682738,12.9353568 15.3190686,12.7203857 15.3698635,12.4509916 C15.3698635,12.1815975 15.2682738,11.9122034 15.0641873,11.7507483 C14.8601009,11.5883862 14.6560144,11.4813542 14.3494312,11.4813542 L14.3485242,11.4804472 Z" id="形状" fill="#999999"></path>
                    <path d="M3.53012839,6.20141109 C3.83671159,5.71704593 4.24488448,5.28528971 4.70385223,4.90886359 C5.16281998,4.53153042 5.67348961,4.31565231 6.28574896,4.15419725 L6.43904056,4.15419725 C6.59233215,4.15419725 6.69392186,4.2086203 6.7964186,4.31565231 C6.8980083,4.42449841 6.94880315,4.53153042 6.94880315,4.63946948 C6.94880315,4.69389253 6.94880315,4.80092454 6.8980083,4.85444054 L6.74471671,5.01589559 C6.69392185,5.07031864 6.64312701,5.07031864 6.54063026,5.1247417 C6.23495411,5.23177371 5.92837092,5.33971276 5.67348961,5.50116782 C5.41860831,5.66262288 5.16281997,5.82407793 4.95873352,6.03995603 C4.75464708,6.25583414 4.55056063,6.4708052 4.39726904,6.7401993 C4.39726904,6.79462235 4.34647418,6.84813835 4.29567934,6.90165436 C4.24488448,6.95607741 4.19318259,6.95607741 4.14238773,7.00959342 C4.04079804,6.90165438 3.98909614,6.90165438 3.93830129,6.90165436 C3.80083478,6.90491563 3.66933981,6.84550927 3.58092325,6.7401993 C3.47933355,6.63226026 3.42763164,6.52432119 3.42763164,6.4172892 C3.47933354,6.36286615 3.47933354,6.25583414 3.53012839,6.20141109 L3.53012839,6.20141109 Z" id="路径" fill="#FFFFFF"></path>
                </g>
            </g>
        </g>
    </g>
</svg>