<?xml version="1.0" encoding="UTF-8"?>
<svg width="32px" height="32px" viewBox="0 0 32 32" version="1.1" xmlns="http://www.w3.org/2000/svg" xmlns:xlink="http://www.w3.org/1999/xlink">
    <title>超市</title>
    <g id="养老地图" stroke="none" stroke-width="1" fill="none" fill-rule="evenodd">
        <g id="养老地图图标备份" transform="translate(-472.000000, -88.000000)">
            <g id="超市备份" transform="translate(472.000000, 88.000000)">
                <rect id="矩形" fill="#FFFFFF" x="6" y="15" width="20" height="8"></rect>
                <path d="M6.35220488,22.3572958 L25.3320966,22.3572958 L25.3320966,15.988428 C25.3320966,15.988428 25.6018137,15.9791286 25.7240397,15.988428 L27.3110775,15.988428 L27.3110775,27.1225425 C27.3110775,27.7497048 26.5039261,28.54979 25.7891357,28.54979 L5.89779888,28.54979 C5.17834215,28.54979 4.37585709,27.7497048 4.37585709,27.1225425 L4.37585709,15.988428 L6.35213822,15.988428 L6.35220488,22.3572958 Z M25.7240063,6.16303656 L5.9555954,6.16303656 C5.30326797,6.16303656 4.76980006,5.68019894 4.76980006,5.08230157 C4.76980006,4.48640408 5.30056814,4.00356645 5.9555954,4.00356645 L25.7240063,4.00356645 C26.3816668,4.00356645 26.9151013,4.4870707 26.9151013,5.08230157 C26.9151013,5.68086556 26.3817001,6.16303656 25.7240063,6.16303656 Z M27.2120502,7.93146352 L27.3120502,8.03146352 L27.2207989,8.03146352 L27.2120502,7.93146352 L27.2120502,7.93146352 Z" id="形状" fill="#738AFF" fill-rule="nonzero"></path>
                <path d="M26.2202431,17.5469518 C24.310358,17.5469518 22.7605512,16.0326096 22.7605512,14.1617554 C22.7605512,16.0325762 21.2107445,17.5469518 19.3008593,17.5469518 C17.3916409,17.5469518 15.8411674,16.0326096 15.8411674,14.1617554 C15.8411674,16.0325762 14.2913607,17.5469518 12.3814756,17.5469518 C10.4715904,17.5469518 8.92178365,16.0326096 8.92178365,14.1617554 C8.92178365,16.0325762 7.37197687,17.5469518 5.46209175,17.5469518 C3.55220663,17.5469518 2.00236652,16.0326096 2.00236652,14.1617888 L4.37325725,7.96472819 L27.2187164,7.96472819 L29.6773052,14.1617888 C29.679935,16.0326096 28.1301283,17.5469518 26.2202431,17.5469518 Z" id="路径" fill="#738AFF" fill-rule="nonzero"></path>
            </g>
        </g>
    </g>
</svg>