<?xml version="1.0" encoding="UTF-8"?>
<svg width="32px" height="32px" viewBox="0 0 32 32" version="1.1" xmlns="http://www.w3.org/2000/svg" xmlns:xlink="http://www.w3.org/1999/xlink">
    <title>形状</title>
    <g id="养老地图" stroke="none" stroke-width="1" fill="none" fill-rule="evenodd">
        <g id="养老地图图标备份" transform="translate(-648.000000, -88.000000)" fill-rule="nonzero">
            <g id="云商药店-备份" transform="translate(648.000000, 88.000000)">
                <path d="M7.08739317,6.08628936 C5.81594946,6.05867905 4.57192561,6.45793449 3.55401198,7.22028827 C2.60512098,7.95216171 2.03472575,9.07121151 2.00001345,10.2690545 L2.00001345,24.3293487 C2.05619262,25.5887961 2.61568063,26.7729552 3.55293507,27.6161148 C4.51881671,28.4939892 5.77896215,28.9774485 7.0841624,28.9708827 L24.9126068,28.9708827 C27.647978,29.0378192 29.9225099,26.880288 29.9999865,24.1451951 L29.9999865,10.4575159 C30.0207587,9.22228004 29.4693934,8.04680276 28.5062956,7.27305744 C27.4793619,6.47526417 26.2083241,6.05678419 24.9082991,6.08844317 L23.6353773,6.08844317 L23.6353773,4.81336747 C23.5214153,2.75470153 21.8764819,1.11162421 19.8176887,0.999986547 L12.1780037,0.999986547 C10.1140649,1.1009731 8.46304893,2.75059189 8.36031506,4.81444443 L8.36031506,6.08736627 L7.08739317,6.08628936 Z M21.0906105,6.08628936 L10.9061587,6.08628936 L10.9061587,4.81336747 C10.8697813,4.46626416 10.9920818,4.1212938 11.2389696,3.87461502 C11.4858575,3.62793624 11.8309313,3.50592802 12.1780037,3.5425995 L19.8144579,3.5425995 C20.1616084,3.50599087 20.5067438,3.62797805 20.7537864,3.87460257 C21.0008289,4.12122709 21.1234004,4.46615546 21.0873797,4.81336747 L21.0873797,6.0852124 L21.0906105,6.08628936 Z" id="形状" fill="#B5B3F8"></path>
                <path d="M17.7230753,23.3741189 L14.3027709,23.3741189 C13.7126176,23.3741189 13.6630791,22.8011963 13.6630791,22.2142738 L13.6630791,19.8558146 L11.316466,19.8558146 C10.7424666,19.8558146 10.1318518,19.8051992 10.1318518,19.2096613 L10.1318518,15.7872031 C10.1318518,15.1895114 10.7435435,15.1410499 11.316466,15.1410499 L13.6630791,15.1410499 L13.6630791,12.777206 C13.6630791,12.1870527 13.7126175,11.6108994 14.3027709,11.6108994 L17.7230753,11.6108994 C18.3121516,11.6108994 18.36169,12.1870527 18.36169,12.777206 L18.36169,15.1399729 L20.7083031,15.1399729 C21.071736,15.0934556 21.439785,15.1790661 21.7453791,15.3812035 C21.8486709,15.490323 21.9024298,15.6371861 21.8939943,15.7872031 L21.8939943,19.2075075 C21.8939943,19.8062762 21.2823026,19.8536607 20.7093801,19.8536607 L18.3584592,19.8536607 L18.3584592,22.2153507 C18.3584592,22.8259655 18.3089209,23.3741189 17.7230753,23.3741189 Z" id="路径" fill="#FFFFFF"></path>
            </g>
        </g>
    </g>
</svg>