<?xml version="1.0" encoding="UTF-8"?>
<svg width="25px" height="24px" viewBox="0 0 25 24" version="1.1" xmlns="http://www.w3.org/2000/svg" xmlns:xlink="http://www.w3.org/1999/xlink">
    <title>路径</title>
    <g id="小程序/H5" stroke="none" stroke-width="1" fill="none" fill-rule="evenodd">
        <g id="搜索页面-召回信息地图页（唯一结果展示）" transform="translate(-239.000000, -717.000000)" fill="#FFFFFF" fill-rule="nonzero">
            <g id="编组" transform="translate(-30.065209, 0.000000)">
                <g id="卡片" transform="translate(44.000000, 541.000000)">
                    <g id="路线-(2)" transform="translate(226.000000, 176.000000)">
                        <path d="M9.3346226,23.2258047 C9.03761278,23.2291377 8.75142435,23.1143688 8.53906453,22.9066918 C8.3267047,22.6990148 8.20558395,22.4154562 8.20236821,22.1184443 L8.20236821,6.1989476 L5.31076469,6.1989476 C5.20324236,6.20052478 5.10416925,6.14085574 5.05528166,6.04507713 C4.99947206,5.95038006 5.00635189,5.83135914 5.07270097,5.74372327 L9.03268809,0.127741527 C9.08653773,0.0495634616 9.17583068,0.00339246653 9.27075183,0.00462028646 C9.36375614,0.0036212183 9.45103865,0.0494445375 9.50300915,0.126580237 L13.4688027,5.74256198 C13.5306631,5.83127039 13.5380888,5.94701017 13.4880718,6.0428965 C13.4380548,6.13878283 13.3388865,6.19892018 13.230739,6.1989476 L10.333329,6.1989476 L10.333329,16.8386549 L11.1984875,15.8666581 C13.4737253,13.3010092 16.7344699,11.8264938 20.1636197,11.8126068 C20.6585128,11.8055318 21.0965679,12.1314543 21.2320033,12.6075074 C21.3144132,12.9266719 21.2442022,13.2660093 21.0419063,13.5262664 C20.8396103,13.7865235 20.5280886,13.9382918 20.1984582,13.9371805 C15.3131235,13.878197 11.1405018,17.448769 10.4436512,22.2845082 C10.3548022,22.8277585 9.88509014,23.2263989 9.3346226,23.2258047 Z" id="路径"></path>
                    </g>
                </g>
            </g>
        </g>
    </g>
</svg>