<?xml version="1.0" encoding="UTF-8"?>
<svg width="24px" height="20px" viewBox="0 0 24 20" version="1.1" xmlns="http://www.w3.org/2000/svg" xmlns:xlink="http://www.w3.org/1999/xlink">
    <title>形状</title>
    <g id="小程序/H5" stroke="none" stroke-width="1" fill="none" fill-rule="evenodd">
        <g id="交通方式" transform="translate(-198.000000, -9.000000)" fill="#FF5000" fill-rule="nonzero">
            <g id="编组-6备份" transform="translate(26.000000, 5.000000)">
                <g id="编组-45" transform="translate(172.000000, 0.000000)">
                    <g id="骑行" transform="translate(0.000000, 4.000000)">
                        <path d="M15.3924742,3.45898438 C16.3148479,3.45898438 17.1219249,2.70956616 17.1219249,1.72951297 C17.1219249,0.749438996 16.3148479,0 15.3924742,0 C14.412421,0 13.6629613,0.749418218 13.6629613,1.72951297 C13.6629613,2.70954538 14.4124003,3.45898438 15.3924742,3.45898438 Z M18.2748712,10.3769323 C15.6230469,10.3769323 13.489985,12.510015 13.489985,15.1619016 C13.489985,17.8137675 15.6230677,19.9468085 18.2748712,19.9468085 C20.9268201,19.9468085 23.0598404,17.8137675 23.0598404,15.1619016 C23.0598404,12.510015 20.9268201,10.3769323 18.2748712,10.3769323 L18.2748712,10.3769323 Z M18.2748712,18.5632064 C16.4301238,18.5632064 14.9312666,17.0642869 14.9312666,15.2194564 C14.9312666,13.3747299 16.4301238,11.8757896 18.2748712,11.8757896 C20.119764,11.8757896 21.6186212,13.3747091 21.6186212,15.2194564 C21.6186212,17.0642869 20.119764,18.5632064 18.2748712,18.5632064 L18.2748712,18.5632064 Z M14.2394448,8.47444315 L18.274892,8.47303025 C18.2805851,8.47315492 18.2861951,8.47344581 18.2919091,8.47344581 C18.7693235,8.47344581 19.1563123,8.08589594 19.1563123,7.60779588 C19.1563123,7.12973737 18.7693235,6.7421875 18.2919091,6.7421875 C18.2693027,6.7421875 18.2469664,6.74333029 18.2247964,6.74507563 L15.2194564,6.74507563 L13.3747299,3.63189827 C13.0864154,3.17073221 12.5676321,2.82484209 11.991107,2.82484209 C11.5299202,2.82484209 11.1263713,2.99781832 10.83814,3.28602892 L7.26381732,6.86028923 C6.97556516,7.14858295 6.80258893,7.55211104 6.80258893,8.01331865 C6.80258893,8.58980219 7.14849983,9.10866855 7.60968667,9.45451712 L10.8380984,11.4146443 L10.8380984,16.1418925 L12.5675698,16.1418925 L12.5675698,9.91576629 L10.37687,8.30157081 L12.6252286,6.05321227 L14.239424,8.47444315 L14.2394448,8.47444315 Z M4.78492769,10.3769323 C2.1329995,10.3769323 0,12.510015 0,15.1619016 C0,17.8137675 2.13302028,19.9468085 4.78492769,19.9468085 C7.43679355,19.9468085 9.56983461,17.8137675 9.56983461,15.1619016 C9.56983461,12.510015 7.43679355,10.3769323 4.78492769,10.3769323 Z M4.78492769,18.5632064 C2.94009724,18.5632064 1.44121925,17.0642869 1.44121925,15.2194564 C1.44121925,13.3747299 2.94009724,11.8757896 4.78492769,11.8757896 C6.62971659,11.8757896 8.1285738,13.3747091 8.1285738,15.2194564 C8.18623255,17.0642869 6.68735455,18.5632064 4.78492769,18.5632064 Z" id="形状"></path>
                    </g>
                </g>
            </g>
        </g>
    </g>
</svg>