<?xml version="1.0" encoding="UTF-8"?>
<svg width="20px" height="20px" viewBox="0 0 20 20" version="1.1" xmlns="http://www.w3.org/2000/svg" xmlns:xlink="http://www.w3.org/1999/xlink">
    <title>操作-删除</title>
    <g id="小程序/H5" stroke="none" stroke-width="1" fill="none" fill-rule="evenodd">
        <g id="导航位置选点页面" transform="translate(-122.000000, -417.000000)" fill="#999999" fill-rule="nonzero">
            <g id="编组-3" transform="translate(122.000000, 415.000000)">
                <g id="操作-删除" transform="translate(0.000000, 2.000000)">
                    <path d="M3.80952381,4.28571429 L3.80952381,18.5678571 C3.80857542,18.9467382 3.95817641,19.3104779 4.225416,19.579057 C4.4926556,19.8476362 4.85564274,19.999054 5.23452381,20 L15.2416667,20 C15.6205477,19.999054 15.9835349,19.8476362 16.2507745,19.579057 C16.5180141,19.3104779 16.6676151,18.9467382 16.6666667,18.5678571 L16.6666667,4.28571429 L18.0952381,4.28571429 C18.4897272,4.28571429 18.8095238,3.96591768 18.8095238,3.57142857 C18.8095238,3.17693946 18.4897272,2.85714286 18.0952381,2.85714286 L2.38095238,2.85714286 C1.98646327,2.85714286 1.66666667,3.17693946 1.66666667,3.57142857 C1.66666667,3.96591768 1.98646327,4.28571429 2.38095238,4.28571429 L3.80952381,4.28571429 Z M7.38094663,0.714285714 C7.38094663,0.32 7.70452381,0 8.09309524,0 L12.3830952,0 C12.7759524,0 13.0952381,0.317142857 13.0952381,0.714285714 C13.0952381,1.10857143 12.7716667,1.42857179 12.3830952,1.42857179 L8.09309524,1.42857179 C7.90379282,1.42876302 7.72221995,1.35350093 7.5885641,1.2194429 C7.45490824,1.08538488 7.38019203,0.903586702 7.38094663,0.714285714 Z M5.23809524,4.99428571 C5.23809524,4.60285714 5.55952381,4.28571429 5.95738095,4.28571429 L14.5188095,4.28571429 C14.9166667,4.28571429 15.2380952,4.61071429 15.2380952,4.99428571 L15.2380952,17.8628571 C15.2380952,18.2542857 14.9166667,18.5714286 14.5188095,18.5714286 L5.95738095,18.5714286 C5.56427727,18.5714286 5.2439508,18.2559172 5.23809524,17.8628571 L5.23809524,4.99428571 Z M6.66666667,6.42857143 C6.66666667,6.03357143 6.98380952,5.71357143 7.38095238,5.71357143 C7.7752381,5.71357143 8.0952381,6.03142857 8.0952381,6.42785714 L8.0952381,16.4278571 C8.0952381,16.8221429 7.77809524,17.1421429 7.38095238,17.1421429 C6.98666667,17.1421429 6.66666667,16.8242857 6.66666667,16.4278571 L6.66666667,6.42857143 Z M9.52380952,6.42857143 C9.52380952,6.03357143 9.84095238,5.71357143 10.2380952,5.71357143 C10.632381,5.71357143 10.952381,6.03142857 10.952381,6.42785714 L10.952381,16.4278571 C10.952381,16.8221429 10.6352381,17.1421429 10.2380952,17.1421429 C9.84380952,17.1421429 9.52380952,16.8242857 9.52380952,16.4278571 L9.52380952,6.42857143 Z M12.3809524,6.42857143 C12.3809524,6.03357143 12.6980952,5.71357143 13.0952381,5.71357143 C13.4895238,5.71357143 13.8095238,6.03142857 13.8095238,6.42785714 L13.8095238,16.4278571 C13.8095238,16.8221429 13.492381,17.1421429 13.0952381,17.1421429 C12.7009524,17.1421429 12.3809524,16.8242857 12.3809524,16.4278571 L12.3809524,6.42857143 Z" id="形状"></path>
                </g>
            </g>
        </g>
    </g>
</svg>