<?xml version="1.0" encoding="UTF-8"?>
<svg width="32px" height="32px" viewBox="0 0 32 32" version="1.1" xmlns="http://www.w3.org/2000/svg" xmlns:xlink="http://www.w3.org/1999/xlink">
    <title>医院</title>
    <g id="养老地图" stroke="none" stroke-width="1" fill="none" fill-rule="evenodd">
        <g id="养老地图图标备份" transform="translate(-384.000000, -21.000000)" fill-rule="nonzero">
            <g id="医院-(1)" transform="translate(384.000000, 21.000000)">
                <path d="M21.2297755,30.6703297 L21.2297755,27.9730533 L24.4297824,27.9730533 C25.3134494,27.9730533 26.029803,27.3692345 26.029803,26.6243862 C26.029803,25.8795379 25.3134494,25.275719 24.4297824,25.275719 L21.2297755,25.275719 L21.2297755,22.5784427 L24.4297824,22.5784427 C25.3134493,22.5784426 26.0298029,21.9746238 26.0298029,21.2297755 C26.0298029,20.4849272 25.3134493,19.8811084 24.4297824,19.8811083 L21.2297755,19.8811083 L21.2297755,17.183832 L24.4297824,17.183832 C25.3134399,17.183832 26.0297858,16.5800196 26.0297858,15.8351793 C26.0297858,15.090339 25.3134399,14.4865267 24.4297824,14.4865267 L21.2297755,14.4865267 L21.2297755,10.4405542 L26.029803,10.4405542 C26.8784944,10.4405542 27.6924252,10.7247347 28.2925374,11.2305784 C28.8926496,11.7364221 29.2297755,12.4224923 29.2297755,13.1378595 L29.2297755,30.6703297 L21.2297755,30.6703297 L21.2297755,30.6703297 Z" id="路径" fill="#E1E1E1"></path>
                <path d="M21.8811373,30.6703297 L3,30.6703297 L3,3.69727636 C3,2.98190917 3.28418049,2.29584198 3.7900242,1.79000371 C4.2958679,1.28416544 4.98193814,1 5.69730533,1 L19.183832,1 C20.6734966,1 21.8811373,2.20761176 21.8811373,3.69727636 L21.8811373,30.6703297 L21.8811373,30.6703297 Z" id="形状" fill="#999999"></path>
                <path d="M15.1378885,6.39461066 L13.7892213,6.39461066 L13.7892213,5.04594351 C13.7892213,4.30111121 13.1854154,3.69730533 12.4405831,3.69730533 C11.6957508,3.69730533 11.091945,4.30111121 11.091945,5.04594351 L11.091945,6.39461066 L9.74327782,6.39461066 C8.99844553,6.39461068 8.39463968,6.99841656 8.39463968,7.74324884 C8.39463968,8.48808112 8.99844553,9.091887 9.74327782,9.09188702 L11.091916,9.09188702 L11.091916,10.4405542 C11.091916,11.1853945 11.6957284,11.7892068 12.4405687,11.7892068 C13.185409,11.7892068 13.7892213,11.1853945 13.7892213,10.4405542 L13.7892213,9.09191599 L15.1378885,9.09191599 C15.8827288,9.09191599 16.4865411,8.48810363 16.4865411,7.74326333 C16.4865411,6.99842303 15.8827288,6.39461066 15.1378885,6.39461066 L15.1378885,6.39461066 Z" id="路径" fill="#FFFFFF"></path>
                <path d="M16.4865267,14.4865267 L8.39461066,14.4865267 C7.64977839,14.4865267 7.04597254,15.0903326 7.04597254,15.8351648 C7.04597254,16.5799971 7.64977839,17.183803 8.39461066,17.183803 L16.4865267,17.183803 C17.231359,17.183803 17.8351648,16.5799971 17.8351648,15.8351648 C17.8351648,15.0903325 17.231359,14.4865267 16.4865267,14.4865267 L16.4865267,14.4865267 Z" id="路径" fill="#FFFFFF"></path>
                <path d="M22,14.4865267 L22,17.183803 L25.7605691,17.183803 C26.4450879,17.183803 27,16.5799971 27,15.8351648 C27,15.0903325 26.4450879,14.4865267 25.7605691,14.4865267 L22,14.4865267 Z" id="路径备份" fill="#FFFFFF"></path>
                <path d="M22,19.9 L22,22.5972764 L25.7605691,22.5972764 C26.4450879,22.5972764 27,21.9934705 27,21.2486382 C27,20.5038059 26.4450879,19.9 25.7605691,19.9 L22,19.9 Z" id="路径备份-2" fill="#FFFFFF"></path>
                <path d="M22,25.3 L22,27.9972764 L25.7605691,27.9972764 C26.4450879,27.9972764 27,27.3934705 27,26.6486382 C27,25.9038059 26.4450879,25.3 25.7605691,25.3 L22,25.3 Z" id="路径备份-3" fill="#FFFFFF"></path>
                <path d="M16.4865267,19.8811083 L8.39461066,19.8811083 C7.64977036,19.8811083 7.045958,20.4849207 7.045958,21.229761 C7.045958,21.9746013 7.64977036,22.5784137 8.39461066,22.5784137 L16.4865267,22.5784137 C17.231359,22.5784137 17.8351648,21.9746078 17.8351648,21.2297755 C17.8351648,20.4849432 17.231359,19.8811373 16.4865267,19.8811373 L16.4865267,19.8811083 Z" id="路径" fill="#FFFFFF"></path>
                <path d="M16.4865267,25.275719 L8.39461066,25.275719 C7.64977036,25.275719 7.045958,25.8795314 7.045958,26.6243717 C7.045958,27.369212 7.64977036,27.9730243 8.39461066,27.9730243 L16.4865267,27.9730243 C17.231359,27.9730243 17.8351648,27.3692185 17.8351648,26.6243862 C17.8351648,25.8795539 17.231359,25.275748 16.4865267,25.275748 L16.4865267,25.275719 Z" id="路径" fill="#FFFFFF"></path>
            </g>
        </g>
    </g>
</svg>