<?xml version="1.0" encoding="UTF-8"?>
<svg width="32px" height="32px" viewBox="0 0 32 32" version="1.1" xmlns="http://www.w3.org/2000/svg" xmlns:xlink="http://www.w3.org/1999/xlink">
    <title>形状</title>
    <g id="养老地图" stroke="none" stroke-width="1" fill="none" fill-rule="evenodd">
        <g id="养老地图图标备份" transform="translate(-560.000000, -21.000000)" fill-rule="nonzero">
            <g id="住宿-(3)" transform="translate(560.000000, 21.000000)">
                <path d="M1,23.2638014 L30.1800189,23.2638014 L30.1800189,18.4004982 L1,18.4004982 L1,23.2638014 Z M1.81050298,28.9377787 L4.24224017,28.9377787 L4.24224017,24.0744755 L1.81050298,24.0744755 L1.81050298,28.9377787 L1.81050298,28.9377787 Z M26.9377502,28.9377787 L29.3694874,28.9377787 L29.3694874,24.0744755 L26.9377502,24.0744755 L26.9377502,28.9377787 L26.9377502,28.9377787 Z" id="形状" fill="#999999"></path>
                <path d="M15.5899952,9.48445181 C3.52248727,9.48445181 1,16.7794637 1,16.7794637 L30.1800189,16.7794637 C30.1800189,16.7794637 27.0285288,9.48445181 15.5900237,9.48445181 L15.5899952,9.48445181 Z" id="路径" fill="#E1E1E1"></path>
                <path d="M5.66311666,8.98434208 C6.9737579,6.26412175 11.3864488,5.43330627 13.3699416,7.63470198 L13.8788667,8.86922841 C14.5403639,8.82700579 14.8791147,8.69571629 15.564034,8.69163667 L15.7383449,8.69078081 C16.3818689,8.69078081 16.6801944,8.8351365 17.3019224,8.86919988 L17.8067964,7.63467346 C19.7911736,5.43327774 24.2029516,6.26406469 25.5144202,8.98431355 L25.2720681,10.5470637 C26.4903902,11.0561315 27.6145672,12.0278507 28.5587847,12.726692 L28.5587847,5.43168013 C24.8101014,3.62495172 20.835898,3 15.5900237,3 L15.5372454,3.00077028 C10.2970769,3.0259612 6.40888782,3.62252677 2.6210345,5.43168013 L2.6210345,12.726692 C3.56385402,12.0432848 4.68797402,11.1038316 5.91359946,10.5955912 L5.66311666,8.98434208 Z" id="路径" fill="#999999"></path>
            </g>
        </g>
    </g>
</svg>