<?xml version="1.0" encoding="UTF-8"?>
<svg width="32px" height="32px" viewBox="0 0 32 32" version="1.1" xmlns="http://www.w3.org/2000/svg" xmlns:xlink="http://www.w3.org/1999/xlink">
    <title>形状</title>
    <g id="养老地图" stroke="none" stroke-width="1" fill="none" fill-rule="evenodd">
        <g id="养老地图图标备份" transform="translate(-428.000000, -21.000000)" fill-rule="nonzero">
            <g id="景点" transform="translate(428.000000, 21.000000)">
                <path d="M7.13544694,8.23255814 L24.8098656,8.23255814 C24.8098656,8.23255814 27.7866097,7.67441861 27.7866097,4.88372093 L22.3912609,4.88372093 C22.3912609,4.88372093 21.0889353,5.06976745 20.9028888,2 L19.4145167,2 L19.4145167,3.39534883 L12.5307958,3.39534883 L12.5307958,2 L11.0424237,2 C10.8563772,5.06976745 9.55405159,4.88372093 9.55405159,4.88372093 L4.15870277,4.88372093 C4.15870277,7.67441861 7.13544694,8.23255814 7.13544694,8.23255814 Z" id="路径" fill="#999999"></path>
                <path d="M24.5307958,17.8139324 L6.48428416,17.8139324 C5.81732464,17.8112195 5.17689252,18.0749586 4.70527696,18.5465742 C4.2336614,19.0181898 3.96992226,19.6586219 3.9726352,20.3255814 L3.9726352,29.4418605 C3.9929123,29.7413212 4.23133501,29.9797439 4.53079578,30 L10.4842842,30 C11.5105184,29.9969351 12.3416843,29.1657692 12.3447493,28.1395349 L12.3447493,26 C12.3347511,25.0451751 12.7630606,24.1384698 13.5069212,23.5397527 C14.2507818,22.9410357 15.2280756,22.7164017 16.1587028,22.9302326 C17.6405089,23.2546845 18.6899792,24.5762396 18.6703307,26.0930233 L18.6703307,28.1395349 C18.6733956,29.1657692 19.5045615,29.9969351 20.5307958,30 L26.4842842,30 C26.7837449,29.9797439 27.0221676,29.7413212 27.0424447,29.4418605 L27.0424447,20.3255814 C27.0451577,19.6586219 26.7814185,19.0181898 26.309803,18.5465742 C25.8381874,18.0749586 25.1977553,17.8112195 24.5307958,17.8139324 L24.5307958,17.8139324 Z" id="路径" fill="#999999"></path>
                <path d="M25.5540516,11.5813954 C24.1587028,11.5813954 24.0656795,9.62790697 24.0656795,9.62790697 L7.87963299,9.62790697 C7.87963299,9.62790697 7.78660975,11.5813953 6.39126089,11.5813954 L2.01916789,11.5813954 C2.01916789,11.5813954 3.50753999,16.3255814 6.39126089,16.3255814 L25.5540516,16.3255814 C28.5307958,16.3255814 29.9261446,11.5813954 29.9261446,11.5813954 L25.5540516,11.5813954 Z" id="路径" fill="#E1E1E1"></path>
            </g>
        </g>
    </g>
</svg>