<?xml version="1.0" encoding="UTF-8"?>
<svg width="35px" height="36px" viewBox="0 0 35 36" version="1.1" xmlns="http://www.w3.org/2000/svg" xmlns:xlink="http://www.w3.org/1999/xlink">
    <title>定位/其他/normal</title>
    <g id="养老地图" stroke="none" stroke-width="1" fill="none" fill-rule="evenodd">
        <g id="养老地图图标备份" transform="translate(-654.000000, -159.000000)">
            <g id="定位/其他/normal备份-2" transform="translate(654.000000, 159.000000)">
                <path d="M16.7517483,2.29895105 C20.4666356,2.29895105 23.8298349,3.80470667 26.2643124,6.23918412 C28.6987898,8.67366158 30.2045455,12.0368609 30.2045455,15.7517483 C30.2045455,18.6373899 29.1403247,21.3261366 27.4352659,23.5326833 C25.6061136,25.8998216 23.0391751,27.71361 20.2467466,28.6212859 C19.464081,28.8756905 18.4383903,29.9143643 17.2042245,31.8017362 C17.0009052,31.9561775 16.8149697,32.0342204 16.6511211,32.0350277 C14.9489571,29.8420013 14.0311169,28.9446799 13.4173791,28.7881837 C10.4771609,28.0384614 7.92422411,26.3200751 6.11811801,23.9931693 C4.35095542,21.7164365 3.29895105,18.8569369 3.29895105,15.7517483 C3.29895105,12.0368609 4.80470667,8.67366158 7.23918412,6.23918412 C9.67366158,3.80470667 13.0368609,2.29895105 16.7517483,2.29895105 Z" id="椭圆形" stroke="#FD714D" stroke-width="0.597902098" fill="#FF8565"></path>
                <g id="编组-25" transform="translate(9.400000, 8.000000)" fill="#FFFFFF" fill-rule="nonzero">
                    <path d="M0.357493746,4.97654506 L6.78711149,8.63603864 C6.96498538,8.72497559 7.23441199,8.72497559 7.50122282,8.63603864 L13.9308406,4.97654506 C14.3781411,4.70973424 14.3781411,3.99562291 13.9308406,3.72619629 L7.50122282,0.0667027065 C7.32334894,-0.0222342355 7.05392232,-0.0222342355 6.78711149,0.0667027065 L0.357493746,3.72881208 C-0.0898067564,3.99562291 -0.0898067564,4.62079729 0.357493746,4.97654506 Z" id="路径"></path>
                    <path d="M0.357493746,7.94808524 L6.78711149,11.5186419 C6.87604843,11.6075788 7.05392232,11.6075788 7.14547505,11.6075788 C7.23441199,11.6075788 7.41228588,11.6075788 7.50383861,11.5186419 L13.9334564,7.94808524 C14.2918199,7.77021136 14.3807569,7.32291085 14.2002672,6.96716309 C14.0223933,6.60879953 13.5750928,6.51986258 13.219345,6.70035226 L7.14285926,10.093035 L1.07160507,6.70035226 C0.713241514,6.52247838 0.268556804,6.61141532 0.0906829199,6.96716309 C-0.0898067564,7.32552665 -0.000869814467,7.77021136 0.357493746,7.94808524 Z" id="路径"></path>
                    <path d="M13.2141134,10.0093297 L7.14285926,13.4020124 L1.07160507,10.0093297 C0.713241514,9.83145578 0.268556804,9.92039272 0.0906829199,10.2761405 C-0.087190964,10.634504 0.00174597794,11.0791888 0.357493746,11.2570626 L6.78711149,14.8276193 C6.87604843,14.9165562 7.05392232,14.9165562 7.14547505,14.9165562 C7.23441199,14.9165562 7.41228588,14.9165562 7.50383861,14.8276193 L13.9334564,11.2570626 C14.2918199,11.0791888 14.3807569,10.6318883 14.2002672,10.2761405 C14.0171617,9.92039272 13.572477,9.83145578 13.2141134,10.0093297 L13.2141134,10.0093297 Z" id="路径"></path>
                </g>
            </g>
        </g>
    </g>
</svg>