<?xml version="1.0" encoding="UTF-8"?>
<svg width="35px" height="36px" viewBox="0 0 35 36" version="1.1" xmlns="http://www.w3.org/2000/svg" xmlns:xlink="http://www.w3.org/1999/xlink">
    <title>定位/助餐点/normal</title>
    <g id="养老地图" stroke="none" stroke-width="1" fill="none" fill-rule="evenodd">
        <g id="养老地图图标备份" transform="translate(-245.000000, -159.000000)">
            <g id="定位/助餐点/normal" transform="translate(245.000000, 159.000000)">
                <path d="M17.0244755,2.7534965 C20.7393629,2.7534965 24.1025622,4.25925212 26.5370397,6.69372958 C28.9715171,9.12820704 30.4772727,12.4914063 30.4772727,16.2062937 C30.4772727,19.0919353 29.413052,21.780682 27.7079932,23.9872288 C25.8788408,26.3543671 23.3119023,28.1681554 20.5194739,29.0758313 C19.7368082,29.330236 18.7111176,30.3689097 17.4769517,32.2562817 C17.2736325,32.4107229 17.087697,32.4887658 16.9238483,32.4895732 C15.2216844,30.2965467 14.3038442,29.3992254 13.6901064,29.2427292 C10.7498881,28.4930068 8.19695138,26.7746205 6.39084528,24.4477147 C4.62368269,22.1709819 3.57167832,19.3114824 3.57167832,16.2062937 C3.57167832,12.4914063 5.07743394,9.12820704 7.5119114,6.69372958 C9.94638886,4.25925212 13.3095882,2.7534965 17.0244755,2.7534965 Z" id="椭圆形" stroke="#EFB302" stroke-width="0.597902098" fill="#FFBE00"></path>
                <g id="编组-21备份" transform="translate(8.181818, 6.545455)">
                    <g id="爱心餐" transform="translate(0.562500, 8.112859)" fill="#FFFFFF">
                        <path d="M9.57777007,4.81755104 C9.37969361,4.81755104 8.72049321,4.54087668 7.60016886,3.98752795 C7.46938019,3.92291604 7.310981,3.97657555 7.24637952,4.10736938 C7.24332758,4.11354842 7.24051864,4.11984453 7.23795915,4.12624327 C7.17906405,4.27348102 7.25016783,4.4406385 7.39707672,4.50034917 C8.68686875,5.02438623 9.44921822,5.30737859 9.68412511,5.34932625 C10.0329407,5.41161476 10.5214543,4.25694472 10.6245299,4.00745524 L10.9603856,3.96671071 C11.8683859,3.79913379 12.5419678,3.65732707 12.9811314,3.54129054 C14.916689,3.0298743 15.7463625,2.47774012 16.2781377,3.00951533 C16.916066,3.64744363 15.0320376,5.02047656 13.9383268,5.88110146 C12.844616,6.74172637 10.8540306,7.79549222 9.68412511,7.79549222 C8.19515453,7.79549222 5.6977312,6.86672634 3.94095285,6.51923172 C2.76976727,6.28756864 1.45805509,6.21666527 0.00581629136,6.30652163 L0.00581629136,6.30652163 L0.00581629136,2.05231995 C1.99111041,0.634252725 3.37372596,-0.0393292082 4.15366293,0.0315741531 C6.17262063,0.239714122 7.74427935,1.40451345 10.1095453,3.00951533 C10.3222554,3.22222541 10.3222554,3.57674222 10.1095453,4.07306575 L10.1095453,4.07306575 C9.96773856,4.56938928 9.79048016,4.81755104 9.57777007,4.81755104 Z" id="形状结合"></path>
                    </g>
                    <g id="助餐服务" transform="translate(7.162329, 1.125000)" fill-rule="nonzero">
                        <path d="M0.550459281,6.00365919 L8.09961697,6.00365919 C8.24349791,6.00365919 8.35829653,5.94243326 8.47309516,5.82151204 C8.58789379,5.70059082 8.61646589,5.57915939 8.64503799,5.4276252 C8.64503799,5.27609102 8.58789379,5.12455683 8.47309516,5.03373835 C8.35829653,4.91281713 8.24349791,4.85210141 8.09961697,4.85210142 L8.04247276,4.85210142 C7.92767413,4.09443049 7.64042246,3.0944069 7.15265585,2.51888311 C6.66437903,1.94284911 6.06181379,1.51885952 5.37302203,1.30660962 C5.37302203,1.2458939 5.40159413,1.18517818 5.40159413,1.15507543 C5.40159413,0.852007062 5.28679551,0.579041432 5.08577035,0.336688776 C4.88679818,0.120444521 4.60508772,-0.000739232608 4.31126229,0.00351764956 C4.0235004,0.00351764956 3.76533104,0.124949086 3.56430589,0.336688776 C3.33470864,0.579041432 3.24848212,0.852007054 3.24848211,1.15507543 L3.24848211,1.30660962 C2.54578424,1.52000633 1.92504327,1.94297179 1.46935851,2.51888311 C0.981081689,3.0944069 0.693830014,4.09443049 0.579031388,4.85210142 L0.550969498,4.85210142 C0.493315076,4.85210142 0.407598765,4.88271438 0.349944351,4.91281713 C0.292800146,4.94291988 0.235145725,4.97302264 0.17800152,5.03373835 C0.129689249,5.08750949 0.0908699954,5.14910271 0.0632028933,5.21588551 C0.0341205781,5.27609102 0.0341205781,5.36690948 0.00554847169,5.45823817 C0.00554847169,5.60977235 0.0632028933,5.76130654 0.17800152,5.85212501 C0.263717831,5.97304623 0.407598773,6.00365919 0.550459281,6.00365919 Z M4.31075207,0.488222962 C4.48320512,0.488222962 4.62657585,0.549448892 4.76994658,0.67037012 C4.88474521,0.79129134 4.97097173,0.942825525 4.97097173,1.12446246 L4.97097173,1.15507543 C4.82760099,1.15507543 4.74137447,1.15507543 4.62657585,1.12446246 L3.99492829,1.12446246 C3.90870177,1.15507543 3.79390315,1.15507543 3.67910452,1.15507543 L3.67910452,1.12446246 C3.67910452,0.942825517 3.73675894,0.791291332 3.88012967,0.67037012 C3.99492829,0.548938684 4.13829903,0.488222962 4.31075207,0.488222962 Z M8.07104486,6.45775154 L0.550969498,6.45775154 C0.407598765,6.45775154 0.292800138,6.51897747 0.17800152,6.60979594 C0.0632028933,6.73071716 0.0341205781,6.8521486 0.00554847169,7.00368279 C0.00554847169,7.15521698 0.0632028933,7.30675116 0.17800152,7.39756963 C0.292800146,7.51849085 0.407598773,7.54910382 0.550969498,7.54910382 L8.10012718,7.54910382 C8.24400812,7.54910382 8.35880675,7.48787789 8.47360538,7.39756963 C8.588404,7.2761382 8.61697611,7.15521698 8.64554821,7.00368279 C8.64554821,6.85214861 8.588404,6.70061442 8.47360538,6.60979594 C8.35880675,6.51846725 8.24400812,6.45826176 8.07155508,6.45826176 L8.07104486,6.45775154 Z" id="形状" fill="#FFFFFF"></path>
                        <path d="M1.98569722,3.48829374 C2.15815027,3.21583833 2.38774752,2.97297546 2.64591688,2.76123577 C2.90408624,2.54898586 3.19133791,2.42755443 3.53573379,2.33673596 L3.62196032,2.33673596 C3.70818684,2.33673596 3.76533105,2.36734892 3.82298546,2.42755443 C3.88012967,2.48878036 3.90870177,2.54898586 3.90870177,2.60970158 C3.90870177,2.64031455 3.90870177,2.70052006 3.88012967,2.7306228 L3.79390315,2.82144127 C3.76533104,2.85205423 3.73675894,2.85205423 3.67910452,2.88266721 C3.50716169,2.94287271 3.33470864,3.00358843 3.19133791,3.0944069 C3.04796717,3.18522537 2.90408623,3.27604384 2.78928761,3.39747527 C2.67448898,3.5189067 2.55969035,3.63982792 2.47346383,3.79136211 C2.47346383,3.82197507 2.44489173,3.85207782 2.41631963,3.88218058 C2.38774752,3.91279354 2.35866521,3.91279354 2.3300931,3.9428963 C2.2729489,3.88218059 2.24386658,3.88218059 2.21529447,3.88218058 C2.13796956,3.88401504 2.06400364,3.85059896 2.01426933,3.79136211 C1.95712512,3.73064639 1.9280428,3.66993067 1.9280428,3.60972517 C1.95712511,3.57911221 1.95712511,3.5189067 1.98569722,3.48829374 L1.98569722,3.48829374 Z" id="路径" fill="#FFBE00"></path>
                    </g>
                </g>
            </g>
        </g>
    </g>
</svg>