<?xml version="1.0" encoding="UTF-8"?>
<svg width="35px" height="36px" viewBox="0 0 35 36" version="1.1" xmlns="http://www.w3.org/2000/svg" xmlns:xlink="http://www.w3.org/1999/xlink">
    <title>定位/商超/normal</title>
    <g id="养老地图" stroke="none" stroke-width="1" fill="none" fill-rule="evenodd">
        <g id="养老地图图标备份" transform="translate(-449.000000, -159.000000)">
            <g id="定位/商超/normal" transform="translate(449.000000, 159.000000)">
                <path d="M17.1818182,2.7534965 C20.9401545,2.7534965 24.3426895,4.2768633 26.8056404,6.73981418 C29.2685912,9.20276505 30.791958,12.6053 30.791958,16.3636364 C30.791958,19.2830633 29.7153053,22.0033032 27.9902794,24.2356896 C26.1397793,26.6304544 23.54288,28.4654067 20.7178625,29.3836756 C19.924959,29.6414081 18.8855581,30.6957697 17.634315,32.6113173 C17.4308321,32.7658189 17.2448207,32.8438832 17.0809423,32.844696 C15.3600935,30.6220649 14.4301021,29.711058 13.8084532,29.5525446 C10.8338468,28.7940536 8.25104988,27.0555713 6.42381963,24.7014501 C4.63598808,22.3980884 3.57167832,19.505144 3.57167832,16.3636364 C3.57167832,12.6053 5.09504511,9.20276505 7.55799599,6.73981418 C10.0209469,4.2768633 13.4234818,2.7534965 17.1818182,2.7534965 Z" id="椭圆形" stroke="#6A7FEA" stroke-width="0.597902098" fill="#738AFF"></path>
                <g id="超市备份" transform="translate(9.000000, 9.000000)">
                    <rect id="矩形" fill="#738AFF" x="2.35636364" y="6.48" width="11.7818182" height="4.71272727"></rect>
                    <path d="M2.56384433,10.8141161 L13.744726,10.8141161 L13.744726,7.06227396 C13.744726,7.06227396 13.9036139,7.05679574 13.9756161,7.06227396 L14.9105257,7.06227396 L14.9105257,13.6212796 C14.9105257,13.9907352 14.4350401,14.4620581 14.0139636,14.4620581 L2.29615789,14.4620581 C1.87233247,14.4620581 1.39959581,13.9907352 1.39959581,13.6212796 L1.39959581,7.06227396 L2.56380506,7.06227396 L2.56384433,10.8141161 Z M13.9755965,1.27422517 L2.33020529,1.27422517 C1.94592513,1.27422517 1.63166404,0.989789918 1.63166404,0.637574013 C1.63166404,0.286536219 1.94433468,0.00210096454 2.33020529,0.00210096454 L13.9755965,0.00210096454 C14.3630182,0.00210096454 14.6772597,0.286928923 14.6772597,0.637574013 C14.6772597,0.990182622 14.3630379,1.27422517 13.9755965,1.27422517 Z M14.8521895,2.31598942 L14.9521895,2.41598942 L14.8609383,2.41598942 L14.8521895,2.31598942 L14.8521895,2.31598942 Z" id="形状" fill="#FFFFFF" fill-rule="nonzero"></path>
                    <path d="M14.2679251,7.98038616 C13.1428291,7.98038616 12.229852,7.08830091 12.229852,5.98619775 C12.229852,7.08828127 11.3168749,7.98038616 10.191779,7.98038616 C9.0670757,7.98038616 8.15370592,7.08830091 8.15370592,5.98619775 C8.15370592,7.08828127 7.24072883,7.98038616 6.11563287,7.98038616 C4.99053691,7.98038616 4.07755982,7.08830091 4.07755982,5.98619775 C4.07755982,7.08828127 3.16458274,7.98038616 2.03948678,7.98038616 C0.914390817,7.98038616 0.00139409796,7.08830091 0.00139409796,5.98621738 L1.39806427,2.33558533 L14.8561166,2.33558533 L16.3044489,5.98621738 C16.3059981,7.08830091 15.393021,7.98038616 14.2679251,7.98038616 Z" id="路径" fill="#FFFFFF" fill-rule="nonzero"></path>
                </g>
            </g>
        </g>
    </g>
</svg>