<?xml version="1.0" encoding="UTF-8"?>
<svg width="48px" height="50px" viewBox="0 0 48 50" version="1.1" xmlns="http://www.w3.org/2000/svg" xmlns:xlink="http://www.w3.org/1999/xlink">
    <title>定位/商超/normal</title>
    <g id="养老地图" stroke="none" stroke-width="1" fill="none" fill-rule="evenodd">
        <g id="养老地图图标备份" transform="translate(-545.000000, -216.000000)">
            <g id="定位/商超/normal备份" transform="translate(545.000000, 216.000000)">
                <path d="M23.8636364,3.90909091 C29.0601338,3.90909091 33.7646792,6.01538765 37.1701003,9.42080875 C40.5755214,12.8262299 42.6818182,17.5307753 42.6818182,22.7272727 C42.6818182,26.7629748 41.1928032,30.523001 38.8082949,33.6088352 C36.2485486,36.9214481 32.656391,39.4597994 28.748598,40.7300234 C27.639453,41.0905498 26.1803973,42.556297 24.4291378,45.2348336 C24.1699397,45.4295829 23.9333632,45.5317987 23.7231536,45.5328414 C21.4070579,42.4777836 20.0795557,41.1874801 19.1993574,40.9630395 C15.0864826,39.914303 11.5153864,37.5105235 8.98895276,34.25558 C6.51700122,31.0708289 5.04545455,27.0708834 5.04545455,22.7272727 C5.04545455,17.5307753 7.15175129,12.8262299 10.5571724,9.42080875 C13.9625935,6.01538765 18.6671389,3.90909091 23.8636364,3.90909091 Z" id="椭圆形" stroke="#6A7FEA" fill="#738AFF"></path>
                <g id="超市备份" transform="translate(12.500000, 12.500000)">
                    <rect id="矩形" fill="#738AFF" x="3.27272727" y="9" width="16.3636364" height="6.54545455"></rect>
                    <path d="M3.5608949,15.0196057 L19.0898972,15.0196057 L19.0898972,9.80871383 C19.0898972,9.80871383 19.3105748,9.8011052 19.4105779,9.80871383 L20.7090634,9.80871383 L20.7090634,18.9184439 C20.7090634,19.4315766 20.0486668,20.0861918 19.4638383,20.0861918 L3.18910817,20.0861918 C2.60046176,20.0861918 1.94388307,19.4315766 1.94388307,18.9184439 L1.94388307,9.80871383 L3.56084036,9.80871383 L3.5608949,15.0196057 Z M19.4105506,1.76975718 L3.23639624,1.76975718 C2.7026738,1.76975718 2.26620005,1.37470822 2.26620005,0.885519463 C2.26620005,0.397966971 2.70046484,0.0029180063 3.23639624,0.0029180063 L19.4105506,0.0029180063 C19.9486364,0.0029180063 20.3850829,0.398512393 20.3850829,0.885519463 C20.3850829,1.37525364 19.9486637,1.76975718 19.4105506,1.76975718 Z M20.628041,3.21665197 L20.7669299,3.35554086 L20.640192,3.35554086 L20.628041,3.21665197 L20.628041,3.21665197 Z" id="形状" fill="#FFFFFF" fill-rule="nonzero"></path>
                    <path d="M19.8165626,11.0838697 C18.2539293,11.0838697 16.9859056,9.84486237 16.9859056,8.31416354 C16.9859056,9.8448351 15.7178818,11.0838697 14.1552486,11.0838697 C12.5931607,11.0838697 11.3245915,9.84486237 11.3245915,8.31416354 C11.3245915,9.8448351 10.0565678,11.0838697 8.49393454,11.0838697 C6.93130126,11.0838697 5.66327753,9.84486237 5.66327753,8.31416354 C5.66327753,9.8448351 4.39525381,11.0838697 2.83262053,11.0838697 C1.26998725,11.0838697 0.00193624717,9.84486237 0.00193624717,8.31419081 L1.94175593,3.24386852 L20.6334953,3.24386852 L22.6450679,8.31419081 C22.6472196,9.84486237 21.3791959,11.0838697 19.8165626,11.0838697 Z" id="路径" fill="#FFFFFF" fill-rule="nonzero"></path>
                </g>
            </g>
        </g>
    </g>
</svg>