<?xml version="1.0" encoding="UTF-8"?>
<svg width="48px" height="50px" viewBox="0 0 48 50" version="1.1" xmlns="http://www.w3.org/2000/svg" xmlns:xlink="http://www.w3.org/1999/xlink">
    <title>定位/养老院/normal</title>
    <g id="养老地图" stroke="none" stroke-width="1" fill="none" fill-rule="evenodd">
        <g id="养老地图图标备份" transform="translate(-204.000000, -216.000000)">
            <g id="定位/养老院/normal备份-2" transform="translate(204.000000, 216.000000)">
                <path d="M23.6451049,3.90909091 C28.7812565,3.90909091 33.4311691,5.99092769 36.7970438,9.35680237 C40.1629185,12.7226771 42.2447552,17.3725896 42.2447552,22.5087413 C42.2447552,26.4975194 40.773007,30.2138049 38.4162306,33.2637508 C35.886134,36.5379934 32.3355888,39.0469504 28.4730583,40.3024618 C27.3781111,40.6583732 25.938087,42.102388 24.2105287,44.7417579 C23.951553,44.9364074 23.7150871,45.0385825 23.5049271,45.039618 C21.2144785,42.0253035 19.9040941,40.7543529 19.0349868,40.5327404 C14.9698733,39.4961825 11.4402496,37.120314 8.94315505,33.9031697 C6.49991041,30.7554033 5.04545455,26.801909 5.04545455,22.5087413 C5.04545455,17.3725896 7.12729132,12.7226771 10.493166,9.35680237 C13.8590407,5.99092769 18.5089533,3.90909091 23.6451049,3.90909091 Z" id="椭圆形" stroke="#FD714D" fill="#FF8565"></path>
                <g id="养老院-(1)备份" transform="translate(11.188811, 9.527972)" fill-rule="nonzero">
                    <g id="编组-24" transform="translate(0.000000, 0.779989)">
                        <path d="M24.6460771,10.4851771 L13.0837199,0.199337967 C12.9098499,0.0398675934 12.7359799,3.55271368e-15 12.5186423,3.55271368e-15 L12.4751748,3.55271368e-15 L12.4317073,3.55271368e-15 C12.2143698,3.55271368e-15 12.0404997,0.0797351867 11.8666297,0.199337967 L0.260805048,10.4851771 C-0.0869350161,10.8041178 -0.0869350161,11.2825289 0.260805048,11.6014697 C0.608545112,11.9204104 1.13015521,11.9204104 1.47789527,11.6014697 L3.60780317,9.72769278 L3.60780317,21.2095597 L21.559884,21.2095597 L21.559884,9.92703075 L23.4724543,11.6014697 C23.8201944,11.9204104 24.3418045,11.8805428 24.6895446,11.6014697 C24.9938171,11.2825289 24.9938171,10.7642502 24.6460771,10.4851771 Z" id="形状" fill="#FFFFFF"></path>
                        <path d="M14.1066505,5.78080104 C14.8844901,5.78080104 15.5067618,6.41868253 15.5067618,7.2160344 C15.5067618,8.01338627 14.8844901,8.65126776 14.1066505,8.65126776 C13.3288109,8.65126776 12.7065392,8.01338627 12.7065392,7.2160344 C12.7065392,6.41868253 13.3288109,5.78080104 14.1066505,5.78080104 Z" id="路径" fill="#FF8565"></path>
                        <path d="M16.5568453,12.9569678 C16.4012774,13.1961734 16.2457095,13.3556438 16.0123576,13.4752466 C16.0123576,13.5948493 15.9345736,13.6745845 15.8178977,13.6745845 L15.7790057,13.6745845 L15.7790057,20.691281 C15.8567897,20.691281 15.9345736,20.7710161 15.9345736,20.8906189 C15.9345736,21.0102217 15.8567897,21.0899569 15.7401137,21.0899569 L15.07895,21.0899569 C14.9622741,21.0899569 14.8844901,21.0102217 14.8844901,20.8906189 C14.8844901,20.7710161 14.9622741,20.691281 15.0400581,20.691281 L15.0400581,13.6745845 C14.9233821,13.6745845 14.8455982,13.5948493 14.8455982,13.4752466 L14.8455982,13.3955114 C14.8067062,13.3955114 14.7678142,13.3556438 14.7289222,13.3157762 C13.9510826,12.8373651 13.6399467,13.2759086 13.6399467,13.2759086 C13.5232708,13.435379 13.3288109,13.4752466 13.173243,13.3556438 C13.0176751,13.236041 12.9787831,12.9968354 13.095459,12.8373651 C13.212135,12.6380271 13.5232708,12.3988215 13.9510826,12.3589539 L13.173243,11.8805428 C13.056567,11.8008076 12.9787831,11.7210724 12.9398911,11.6014697 L12.2398354,10.4054419 C11.9286996,10.883853 11.6953477,11.3622641 11.5397798,11.8805428 C11.2675359,12.6380271 11.111968,13.3955114 11.034184,14.1529956 L11.9675916,16.9437272 C12.1231595,17.3424031 12.1620515,17.741079 12.1231595,18.1796226 L11.9675916,20.491943 C11.9675916,20.8507513 11.6953477,21.1696921 11.3453199,21.1696921 L11.073076,21.1696921 C10.7230482,21.1696921 10.4508043,20.8108837 10.4896963,20.4520754 L10.6452642,17.741079 L9.82853262,15.3091559 L9.71185668,15.388891 L9.98410054,17.06333 C10.0618845,17.4620059 10.0618845,17.8606818 9.98410054,18.2593578 L9.51739677,20.6115458 C9.47850479,20.9304865 9.20626093,21.2095597 8.89512508,21.2095597 L8.54509725,21.2095597 C8.19506942,21.1298245 7.96171754,20.7710161 8.0395015,20.4122078 L8.58398923,17.7012115 L8.15617744,15.2692883 C8.0395015,14.5516716 8.00060952,14.3523336 8.11728546,13.5948493 C8.35063735,12.1994836 8.73955716,11.0433234 9.24515291,10.0466335 C9.78964064,9.04994369 10.4896963,8.29245942 11.2675359,7.73431311 C11.3842119,7.65457793 11.5008878,7.57484274 11.6175637,7.57484274 C11.8509156,7.53497515 12.1231595,7.65457793 12.2398354,7.89378349 L13.9510826,10.8439854 L15.7401137,11.960278 C15.9345736,12.0798808 16.0123576,12.2393512 16.0512496,12.4386891 C16.1679255,12.3988215 16.2846014,12.3988215 16.3623854,12.4386891 C16.5957373,12.5582919 16.6346293,12.7974975 16.5568453,12.9569678 L16.5568453,12.9569678 Z" id="路径" fill="#FF8565"></path>
                    </g>
                </g>
            </g>
        </g>
    </g>
</svg>