<?xml version="1.0" encoding="UTF-8"?>
<svg width="48px" height="50px" viewBox="0 0 48 50" version="1.1" xmlns="http://www.w3.org/2000/svg" xmlns:xlink="http://www.w3.org/1999/xlink">
    <title>定位/药店/normal</title>
    <g id="养老地图" stroke="none" stroke-width="1" fill="none" fill-rule="evenodd">
        <g id="养老地图图标备份" transform="translate(-772.000000, -216.000000)">
            <g id="定位/药店/normal备份" transform="translate(772.000000, 216.000000)">
                <path d="M23.6451049,3.90909091 C28.7812565,3.90909091 33.4311691,5.99092769 36.7970438,9.35680237 C40.1629185,12.7226771 42.2447552,17.3725896 42.2447552,22.5087413 C42.2447552,26.4975194 40.773007,30.2138049 38.4162306,33.2637508 C35.886134,36.5379934 32.3355888,39.0469504 28.4730583,40.3024618 C27.3781111,40.6583732 25.938087,42.102388 24.2105287,44.7417579 C23.951553,44.9364074 23.7150871,45.0385825 23.5049271,45.039618 C21.2144785,42.0253035 19.9040941,40.7543529 19.0349868,40.5327404 C14.9698733,39.4961825 11.4402496,37.120314 8.94315505,33.9031697 C6.49991041,30.7554033 5.04545455,26.801909 5.04545455,22.5087413 C5.04545455,17.3725896 7.12729132,12.7226771 10.493166,9.35680237 C13.8590407,5.99092769 18.5089533,3.90909091 23.6451049,3.90909091 Z" id="椭圆形" stroke="#9E9CE0" fill="#B5B3F8"></path>
                <g id="云商药店-备份" transform="translate(13.636364, 11.363636)" fill-rule="nonzero">
                    <path d="M3.71643982,3.71563346 C2.78762541,3.69546359 1.87884176,3.98712747 1.13523602,4.54404175 C0.442052662,5.07868956 0.025367837,5.89617724 9.82776965e-06,6.77122491 L9.82776965e-06,17.0425437 C0.0410498043,17.9625946 0.449766696,18.8276458 1.13444932,19.4435903 C1.84004467,20.0848947 2.76060547,20.4380711 3.71407967,20.4332747 L16.7381056,20.4332747 C18.7363476,20.4821731 20.3979374,18.9060546 20.4545356,16.9080159 L20.4545356,6.90889962 C20.4697101,6.00653575 20.066927,5.14782669 19.3633653,4.58259066 C18.6131702,3.99978714 17.6846523,3.69407936 16.7349588,3.71720686 L15.8050646,3.71720686 L15.8050646,2.78573922 C15.7218131,1.28184365 14.5201573,0.0815436601 13.0161687,-9.82776987e-06 L7.43522995,-9.82776987e-06 C5.92748247,0.073762818 4.72138315,1.27884148 4.64633406,2.78652596 L4.64633406,3.71642016 L3.71643982,3.71563346 Z M13.9460629,3.71563346 L6.50612245,3.71563346 L6.50612245,2.78573922 C6.47954802,2.53217349 6.56889091,2.28016593 6.74924729,2.09996227 C6.92960366,1.91975861 7.18168682,1.83062924 7.43522995,1.85741847 L13.0138085,1.85741847 C13.2674087,1.83067515 13.5195369,1.91978916 13.7000063,2.09995318 C13.8804757,2.2801172 13.9700165,2.53209408 13.9437027,2.78573922 L13.9437027,3.71484672 L13.9460629,3.71563346 Z" id="形状" fill="#FFFFFF"></path>
                    <path d="M11.4860128,16.3447297 L8.98741378,16.3447297 C8.55629533,16.3447297 8.52010652,15.9261986 8.52010652,15.4974403 L8.52010652,13.7745399 L6.80585993,13.7745399 C6.38654214,13.7745399 5.94047617,13.7375644 5.94047617,13.3025123 L5.94047617,10.8023399 C5.94047617,10.3657145 6.38732888,10.3303124 6.80585993,10.3303124 L8.52010652,10.3303124 L8.52010652,8.60347841 C8.52010652,8.17235995 8.55629529,7.75146873 8.98741378,7.75146873 L11.4860128,7.75146873 C11.9163445,7.75146873 11.9525333,8.17235991 11.9525333,8.60347841 L11.9525333,10.3295257 L13.6667799,10.3295257 C13.9322746,10.2955438 14.2011416,10.358084 14.4243841,10.5057493 C14.4998408,10.5854632 14.5391127,10.6927496 14.5329504,10.8023399 L14.5329504,13.3009389 C14.5329504,13.7383511 14.0860977,13.7729664 13.6675666,13.7729664 L11.9501732,13.7729664 L11.9501732,15.498227 C11.9501732,15.944293 11.9139844,16.3447297 11.4860128,16.3447297 Z" id="路径" fill="#B5B3F8"></path>
                </g>
            </g>
        </g>
    </g>
</svg>