<?xml version="1.0" encoding="UTF-8"?>
<svg width="35px" height="36px" viewBox="0 0 35 36" version="1.1" xmlns="http://www.w3.org/2000/svg" xmlns:xlink="http://www.w3.org/1999/xlink">
    <title>定位/药店/normal</title>
    <g id="养老地图" stroke="none" stroke-width="1" fill="none" fill-rule="evenodd">
        <g id="养老地图图标备份" transform="translate(-613.000000, -159.000000)">
            <g id="定位/药店/normal" transform="translate(613.000000, 159.000000)">
                <path d="M17.0244755,2.7534965 C20.7393629,2.7534965 24.1025622,4.25925212 26.5370397,6.69372958 C28.9715171,9.12820704 30.4772727,12.4914063 30.4772727,16.2062937 C30.4772727,19.0919353 29.413052,21.780682 27.7079932,23.9872288 C25.8788408,26.3543671 23.3119023,28.1681554 20.5194739,29.0758313 C19.7368082,29.330236 18.7111176,30.3689097 17.4769517,32.2562817 C17.2736325,32.4107229 17.087697,32.4887658 16.9238483,32.4895732 C15.2216844,30.2965467 14.3038442,29.3992254 13.6901064,29.2427292 C10.7498881,28.4930068 8.19695138,26.7746205 6.39084528,24.4477147 C4.62368269,22.1709819 3.57167832,19.3114824 3.57167832,16.2062937 C3.57167832,12.4914063 5.07743394,9.12820704 7.5119114,6.69372958 C9.94638886,4.25925212 13.3095882,2.7534965 17.0244755,2.7534965 Z" id="椭圆形" stroke="#9E9CE0" stroke-width="0.597902098" fill="#B5B3F8"></path>
                <g id="云商药店-备份" transform="translate(9.818182, 8.181818)" fill-rule="nonzero">
                    <path d="M2.67583667,2.67525609 C2.0070903,2.66073378 1.35276607,2.87073178 0.817369936,3.27171006 C0.318277917,3.65665648 0.0182648426,4.24524761 7.07599429e-06,4.87528193 L7.07599429e-06,12.2706315 C0.0295558591,12.9330681 0.323832021,13.555905 0.816803511,13.999385 C1.32483217,14.4611242 1.98763594,14.7154112 2.67413737,14.7119578 L12.0514361,14.7119578 C13.4901703,14.7471647 14.686515,13.6123593 14.7272657,12.1737714 L14.7272657,4.97440773 C14.7381912,4.32470574 14.4481875,3.70643522 13.941623,3.29946528 C13.4014825,2.87984674 12.7329497,2.65973714 12.0491703,2.67638894 L11.3796465,2.67638894 L11.3796465,2.00573224 C11.3197055,0.92292743 10.4545132,0.0587114353 9.37164144,-7.07599429e-06 L5.35336556,-7.07599429e-06 C4.26778738,0.053109229 3.39939586,0.920765866 3.34536052,2.00629869 L3.34536052,2.67582252 L2.67583667,2.67525609 Z M10.0411653,2.67525609 L4.68440817,2.67525609 L4.68440817,2.00573224 C4.66527457,1.82316491 4.72960145,1.64171947 4.85945805,1.51197284 C4.98931464,1.3822262 5.17081451,1.31805305 5.35336556,1.3373413 L9.36994213,1.3373413 C9.55253429,1.31808611 9.73406656,1.38224819 9.86400452,1.51196629 C9.99394248,1.64168438 10.0584119,1.82310774 10.039466,2.00573224 L10.039466,2.67468964 L10.0411653,2.67525609 Z" id="形状" fill="#FFFFFF"></path>
                    <path d="M8.2699292,11.7682054 L6.47093792,11.7682054 C6.16053263,11.7682054 6.13447669,11.466863 6.13447669,11.158157 L6.13447669,9.91766871 L4.90021915,9.91766871 C4.59831034,9.91766871 4.27714284,9.89104634 4.27714284,9.57780887 L4.27714284,7.77768475 C4.27714284,7.46331443 4.5988768,7.43782494 4.90021915,7.43782494 L6.13447669,7.43782494 L6.13447669,6.19450445 C6.13447669,5.88409917 6.16053261,5.58105748 6.47093792,5.58105748 L8.2699292,5.58105748 C8.57976806,5.58105748 8.60582397,5.88409914 8.60582397,6.19450445 L8.60582397,7.43725849 L9.84008152,7.43725849 C10.0312377,7.41279157 10.224822,7.45782051 10.3855565,7.5641395 C10.4398854,7.62153352 10.4681611,7.69877969 10.4637243,7.77768475 L10.4637243,9.57667602 C10.4637243,9.8916128 10.1419903,9.91653583 9.84064798,9.91653583 L8.60412467,9.91653583 L8.60412467,11.1587234 C8.60412467,11.479891 8.57806876,11.7682054 8.2699292,11.7682054 Z" id="路径" fill="#B5B3F8"></path>
                </g>
            </g>
        </g>
    </g>
</svg>