<?xml version="1.0" encoding="UTF-8"?>
<svg width="35px" height="36px" viewBox="0 0 35 36" version="1.1" xmlns="http://www.w3.org/2000/svg" xmlns:xlink="http://www.w3.org/1999/xlink">
    <title>定位/日间照料/normal</title>
    <g id="养老地图" stroke="none" stroke-width="1" fill="none" fill-rule="evenodd">
        <g id="养老地图图标备份" transform="translate(-286.000000, -159.000000)">
            <g id="定位/日间照料/normal" transform="translate(286.000000, 159.000000)">
                <path d="M17.1818182,2.7534965 C20.9401545,2.7534965 24.3426895,4.2768633 26.8056404,6.73981418 C29.2685912,9.20276505 30.791958,12.6053 30.791958,16.3636364 C30.791958,19.2830633 29.7153053,22.0033032 27.9902794,24.2356896 C26.1397793,26.6304544 23.54288,28.4654067 20.7178625,29.3836756 C19.924959,29.6414081 18.8855581,30.6957697 17.634315,32.6113173 C17.4308321,32.7658189 17.2448207,32.8438832 17.0809423,32.844696 C15.3600935,30.6220649 14.4301021,29.711058 13.8084532,29.5525446 C10.8338468,28.7940536 8.25104988,27.0555713 6.42381963,24.7014501 C4.63598808,22.3980884 3.57167832,19.505144 3.57167832,16.3636364 C3.57167832,12.6053 5.09504511,9.20276505 7.55799599,6.73981418 C10.0209469,4.2768633 13.4234818,2.7534965 17.1818182,2.7534965 Z" id="椭圆形" stroke="#E93F10" stroke-width="0.597902098" fill="#FE5E32"></path>
                <g id="日间照料备份" transform="translate(8.181818, 6.136364)" fill-rule="nonzero">
                    <path d="M9,2.40450426 C8.45051726,2.40450426 8.02314179,1.96800759 8.02314179,1.40679758 C8.02314179,0.845587578 8.45051726,0.409090909 9,0.409090909 C9.54948274,0.409090909 9.97685821,0.845587578 9.97685821,1.40679758 C9.97685821,1.96800759 9.54948274,2.40450426 9,2.40450426 Z M14.6779883,5.21055428 C14.3421933,4.77405762 14.403247,4.15049093 14.8306224,3.80752927 C15.2579979,3.46456761 15.8685343,3.52692427 16.2043293,3.96342094 C16.5401243,4.3999176 16.4790706,5.02348429 16.0516952,5.36644595 C15.6243197,5.70940761 15.0137833,5.64705095 14.6779883,5.21055428 Z M16.082222,11.4773994 C16.2043293,10.9473677 16.7232852,10.604406 17.2422411,10.7291193 C17.7611971,10.8538327 18.0969921,11.3838643 17.9748848,11.913896 C17.8527775,12.4439277 17.3338216,12.7868894 16.8148657,12.662176 C16.2959098,12.5374627 15.9601147,12.007431 16.082222,11.4773994 Z M12.1442624,16.5282894 C12.6326915,16.2788627 13.212701,16.4971111 13.4263887,16.9959644 C13.6706033,17.4948177 13.4569156,18.0872061 12.9684865,18.3054544 C12.4800574,18.5548811 11.9000478,18.3366327 11.6863601,17.8377794 C11.4726723,17.3389261 11.6558333,16.7465377 12.1442624,16.5282894 Z M5.85573764,16.5282894 C6.34416675,16.7777161 6.52732766,17.3701044 6.31363992,17.8377794 C6.06942536,18.3366328 5.4894158,18.5237027 5.03151353,18.3054544 C4.54308441,18.0560277 4.35992351,17.4636394 4.57361125,16.9959644 C4.78729899,16.497111 5.36730855,16.2788627 5.85573764,16.5282894 Z M1.91777798,11.4773994 C2.03988526,12.007431 1.70409024,12.5374627 1.18513433,12.662176 C0.666178426,12.7868893 0.147222498,12.475106 0.0251152201,11.913896 C-0.0969920583,11.3838643 0.238802963,10.8538327 0.757758869,10.7291193 C1.2767148,10.604406 1.79567072,10.9473677 1.91777798,11.4773994 Z M3.32201167,5.21055428 C2.98621667,5.64705095 2.37568028,5.70940763 1.94830482,5.36644595 C1.52092935,5.02348427 1.4598757,4.3999176 1.79567072,3.96342094 C2.13146575,3.52692427 2.74200212,3.46456759 3.16937758,3.80752927 C3.59675304,4.15049095 3.65780669,4.80523594 3.32201167,5.21055428 Z M9,3.52692427 C5.70310355,3.52692427 3.01674347,6.27061764 3.01674347,9.63787767 C3.01674347,13.0051377 5.70310355,15.7800094 9,15.7800094 C12.2968965,15.7800094 14.9832565,13.036316 14.9832565,9.669056 C14.9832565,6.30179599 12.2968965,3.52692427 9,3.52692427 Z" id="形状" fill="#FFFFFF"></path>
                    <path d="M10.8311688,11.0454545 L8.8051948,11.0454545 C8.46233766,11.0454545 8.18181818,10.7649351 8.18181818,10.4220779 L8.18181818,8.39610389 C8.18181818,8.05324675 8.46233766,7.77272727 8.8051948,7.77272727 C9.14805193,7.77272727 9.42857141,8.05324675 9.42857143,8.39610389 L9.42857143,9.79870129 L10.8311688,9.79870129 C11.174026,9.79870129 11.4545455,10.0792208 11.4545455,10.4220779 C11.4545455,10.7649351 11.174026,11.0454545 10.8311688,11.0454545 Z" id="路径" fill="#FE5E32"></path>
                </g>
            </g>
        </g>
    </g>
</svg>