<?xml version="1.0" encoding="UTF-8"?>
<svg width="48px" height="50px" viewBox="0 0 48 50" version="1.1" xmlns="http://www.w3.org/2000/svg" xmlns:xlink="http://www.w3.org/1999/xlink">
    <title>定位/住宿/normal</title>
    <g id="养老地图" stroke="none" stroke-width="1" fill="none" fill-rule="evenodd">
        <g id="养老地图图标备份" transform="translate(-658.000000, -216.000000)">
            <g id="定位/住宿/normal备份" transform="translate(658.000000, 216.000000)">
                <path d="M23.6451049,3.90909091 C28.7812565,3.90909091 33.4311691,5.99092769 36.7970438,9.35680237 C40.1629185,12.7226771 42.2447552,17.3725896 42.2447552,22.5087413 C42.2447552,26.4975194 40.773007,30.2138049 38.4162306,33.2637508 C35.886134,36.5379934 32.3355888,39.0469504 28.4730583,40.3024618 C27.3781111,40.6583732 25.938087,42.102388 24.2105287,44.7417579 C23.951553,44.9364074 23.7150871,45.0385825 23.5049271,45.039618 C21.2144785,42.0253035 19.9040941,40.7543529 19.0349868,40.5327404 C14.9698733,39.4961825 11.4402496,37.120314 8.94315505,33.9031697 C6.49991041,30.7554033 5.04545455,26.801909 5.04545455,22.5087413 C5.04545455,17.3725896 7.12729132,12.7226771 10.493166,9.35680237 C13.8590407,5.99092769 18.5089533,3.90909091 23.6451049,3.90909091 Z" id="椭圆形" stroke="#6A7FEA" fill="#738AFF"></path>
                <g id="住宿-(3)备份" transform="translate(12.500000, 11.363636)" fill="#FFFFFF" fill-rule="nonzero">
                    <path d="M3.63193473,4.7192552 C4.65274631,2.57408807 8.08963339,1.91890656 9.63450497,3.65492834 L10.0308885,4.6284765 C10.546105,4.59517973 10.8099459,4.49164476 11.343405,4.48842757 L11.4791695,4.48775264 C11.9803873,4.48775264 12.2127425,4.60159161 12.6969841,4.628454 L13.0902124,3.65490584 C14.6357728,1.91888406 18.0719489,2.57404308 19.0934048,4.71923271 L18.9046455,5.95161829 C19.8535529,6.35306939 20.7291342,7.11936763 21.4645514,7.67047423 L21.4645514,1.91762418 C18.5448361,0.492837244 15.4494713,0 11.3636475,0 L11.3225404,0.000607441139 C7.24116057,0.0204730162 4.21278921,0.490924929 1.26256577,1.91762418 L1.26256577,7.67047423 C1.99689417,7.13153895 2.87243102,6.39068574 3.82702682,5.98988708 L3.63193473,4.7192552 Z M11.3636253,5.11364199 C1.96467509,5.11364199 0,10.866492 0,10.866492 L22.7272727,10.866492 C22.7272727,10.866492 20.2726899,5.11364199 11.3636475,5.11364199 L11.3636253,5.11364199 Z M0,15.980044 L22.7272727,15.980044 L22.7272727,12.1448407 L0,12.1448407 L0,15.980044 Z M0.631271777,20.4545455 L2.52526487,20.4545455 L2.52526487,16.6193421 L0.631271777,16.6193421 L0.631271777,20.4545455 L0.631271777,20.4545455 Z M20.2019856,20.4545455 L22.0959787,20.4545455 L22.0959787,16.6193421 L20.2019856,16.6193421 L20.2019856,20.4545455 L20.2019856,20.4545455 Z" id="形状"></path>
                </g>
            </g>
        </g>
    </g>
</svg>