<?xml version="1.0" encoding="UTF-8"?>
<svg width="35px" height="36px" viewBox="0 0 35 36" version="1.1" xmlns="http://www.w3.org/2000/svg" xmlns:xlink="http://www.w3.org/1999/xlink">
    <title>定位/养老院/normal备份</title>
    <g id="养老地图" stroke="none" stroke-width="1" fill="none" fill-rule="evenodd">
        <g id="养老地图图标备份" transform="translate(-490.000000, -159.000000)">
            <g id="定位/养老院/normal备份" transform="translate(490.000000, 159.000000)">
                <path d="M17.0244755,2.7534965 C20.7393629,2.7534965 24.1025622,4.25925212 26.5370397,6.69372958 C28.9715171,9.12820704 30.4772727,12.4914063 30.4772727,16.2062937 C30.4772727,19.0919353 29.413052,21.780682 27.7079932,23.9872288 C25.8788408,26.3543671 23.3119023,28.1681554 20.5194739,29.0758313 C19.7368082,29.330236 18.7111176,30.3689097 17.4769517,32.2562817 C17.2736325,32.4107229 17.087697,32.4887658 16.9238483,32.4895732 C15.2216844,30.2965467 14.3038442,29.3992254 13.6901064,29.2427292 C10.7498881,28.4930068 8.19695138,26.7746205 6.39084528,24.4477147 C4.62368269,22.1709819 3.57167832,19.3114824 3.57167832,16.2062937 C3.57167832,12.4914063 5.07743394,9.12820704 7.5119114,6.69372958 C9.94638886,4.25925212 13.3095882,2.7534965 17.0244755,2.7534965 Z" id="椭圆形" stroke="#EFB302" stroke-width="0.597902098" fill="#FFBE00"></path>
                <g id="gongjiao备份-6" transform="translate(4.090909, 1.636364)" fill="#FFFFFF" fill-rule="nonzero">
                    <g id="美食" transform="translate(6.545455, 6.545455)">
                        <path d="M12.9414915,9.3319387 C12.8726355,9.25007959 12.8123864,9.1845923 12.7693514,9.11910501 C12.7177094,9.04543181 12.6574604,8.97175861 12.6058183,8.90627132 C12.3820362,8.62795034 12.1496471,8.34962936 12.1496471,7.22815953 L12.2787522,1.14602756 C12.2787522,0.515712402 11.7537249,0 11.0995926,0 C10.4454603,0 9.92043303,0.515712402 9.92043303,1.14602756 L10.0323241,7.21997362 C10.0323241,8.31688572 9.79132797,8.62795034 9.58475986,8.89808541 C9.52451084,8.97175861 9.46426181,9.04543181 9.42122678,9.12729092 C9.38679877,9.19277821 9.32654974,9.2582655 9.2490867,9.34012461 C8.87898552,9.7739779 8.18181818,10.5761972 8.18181818,12.4753286 C8.18181818,14.8001273 9.35237075,16.3636364 11.1081996,16.3636364 C12.8554215,16.3636364 14.025974,14.8001273 14.025974,12.4753286 C14.017367,10.5516395 13.3201997,9.75760608 12.9414915,9.3319387 L12.9414915,9.3319387 Z M5.25974026,5.21943574 L5.05233725,0 L3.71666189,0 L3.71666189,4.36474276 C3.71666189,4.48091462 3.62540456,4.57219251 3.517555,4.57219251 C3.40970544,4.57219251 3.31844811,4.48091462 3.31844811,4.36474276 L3.31844811,0 L1.94129215,0 L1.94129215,4.36474276 C1.94129215,4.48091462 1.85003482,4.57219251 1.74218526,4.57219251 C1.6343357,4.57219251 1.54307837,4.48091462 1.54307837,4.36474276 L1.54307837,0 L0.257179729,0 L0,5.22773373 C0,6.48073022 0.348437052,7.22754933 1.05360728,7.52627697 L1.08679176,7.43499908 L1.05360728,7.53457496 C1.0619034,7.53457496 1.60944733,7.76691868 1.60944733,9.04480915 L1.49330165,15.2019178 C1.49330165,15.840863 1.99936499,16.3636364 2.62987013,16.3636364 C3.26037527,16.3636364 3.76643861,15.840863 3.76643861,15.2019178 L3.6419968,9.04480915 C3.6419968,7.75862069 4.18954074,7.53457496 4.19783686,7.52627697 L4.14806014,7.39350913 L4.19783686,7.51797898 C4.91130321,7.22754933 5.25974026,6.48073022 5.25974026,5.21943574 Z" id="形状"></path>
                    </g>
                </g>
            </g>
        </g>
    </g>
</svg>