<?xml version="1.0" encoding="UTF-8"?>
<svg width="48px" height="50px" viewBox="0 0 48 50" version="1.1" xmlns="http://www.w3.org/2000/svg" xmlns:xlink="http://www.w3.org/1999/xlink">
    <title>定位/公交/normal</title>
    <g id="养老地图" stroke="none" stroke-width="1" fill="none" fill-rule="evenodd">
        <g id="养老地图图标备份" transform="translate(-715.000000, -216.000000)">
            <g id="定位/公交/normal备份" transform="translate(715.000000, 216.000000)">
                <path d="M23.6451049,3.70804196 C28.8367746,3.70804196 33.5369495,5.81238191 36.9392069,9.21463929 C40.3414642,12.6168967 42.4458042,17.3170715 42.4458042,22.5087413 C42.4458042,26.5427073 40.9590322,30.3018745 38.5753176,33.3866816 C36.0205784,36.6928148 32.435303,39.2259418 28.5352082,40.4936635 C27.4589938,40.8434858 26.055622,42.2842946 24.359817,44.8807542 C24.0454324,45.1229042 23.7572603,45.2394261 23.5059178,45.2406645 C23.2596981,45.2418777 23.0624394,45.1213827 22.9330717,44.9269396 C21.0983112,42.2124568 19.8344818,40.9440846 18.9853111,40.7275557 C14.8762773,39.6797986 11.3084266,37.2783713 8.784334,34.026444 C6.31465632,30.8446224 4.84440559,26.8483698 4.84440559,22.5087413 C4.84440559,17.3170715 6.94874554,12.6168967 10.3510029,9.21463929 C13.7532603,5.81238191 18.4534351,3.70804196 23.6451049,3.70804196 Z" id="椭圆形" stroke="#66ACEA" stroke-width="0.597902098" fill="#70B9FA"></path>
                <g id="gongjiao备份-7" transform="translate(13.636364, 10.227273)" fill="#FFFFFF" fill-rule="nonzero">
                    <path d="M18.6699207,20.4418487 L18.6699207,21.9654647 C18.6699207,22.3463687 18.2580842,22.7272727 17.8462477,22.7272727 L15.23795,22.7272727 C14.8261135,22.7272727 14.414277,22.3463687 14.414277,21.9654647 L14.414277,20.4418487 L5.90298964,20.4418487 L5.90298964,21.9654647 C5.90298964,22.3463687 5.49115314,22.7272727 5.07931668,22.7272727 L2.47101891,22.7272727 C2.05918241,22.7272727 1.64734595,22.3463687 1.64734595,21.9654647 L1.64734595,20.4418487 C0.686394137,20.4418487 0,19.6800406 0,18.9182326 L0,3.04723208 C0,2.15845604 1.64734595,1.52361602 2.60829773,1.52361606 C2.60829773,1.52361606 6.04026845,0 10.2959121,0 C14.5515558,0 18.8071995,1.52361606 18.8071995,1.52361606 C19.7681513,1.52361606 20.4545455,2.28542407 20.4545455,3.04723208 L20.4545455,18.9182326 C20.3172666,19.6800406 19.6308725,20.4418487 18.6699207,20.4418487 M3.83522725,17.8571429 C5.03373578,17.8571429 5.96590909,16.9101731 5.96590909,15.8279221 C5.96590909,14.6103896 5.03373578,13.7987013 3.83522725,13.7987013 C2.63671873,13.7987013 1.70454545,14.745671 1.70454545,15.8279221 C1.83771306,17.0454545 2.76988637,17.8571429 3.83522725,17.8571429 M13.6638563,1.62337662 L6.79068913,1.62337662 C6.37829909,1.62337662 5.96590909,2.0292208 5.96590909,2.43506494 C5.96590909,2.84090907 6.37829913,3.24675325 6.79068913,3.24675325 L13.6638563,3.24675325 C14.0762463,3.24675325 14.4886364,2.84090907 14.4886364,2.43506494 C14.4886364,2.0292208 14.0762463,1.62337662 13.6638563,1.62337662 M18.75,5.6652531 C18.75,5.26769146 18.33761,4.87012987 17.9252199,4.87012987 L2.5293255,4.87012987 C2.11693545,4.87012987 1.70454545,5.26769151 1.70454545,5.6652531 L1.70454545,10.5685131 C1.70454545,10.9660747 2.1169355,11.3636364 2.5293255,11.3636364 L17.9252199,11.3636364 C18.33761,11.3636364 18.75,10.9660747 18.75,10.5685131 L18.75,5.6652531 M16.6193182,13.7987013 C15.4208096,13.7987013 14.4886364,14.745671 14.4886364,15.8279221 C14.4886364,17.0454545 15.4208097,17.8571429 16.6193182,17.8571429 C17.8178267,17.8571429 18.75,16.9101731 18.75,15.8279221 C18.6168324,14.745671 17.6846591,13.7987013 16.6193182,13.7987013" id="形状"></path>
                </g>
            </g>
        </g>
    </g>
</svg>