<?xml version="1.0" encoding="UTF-8"?>
<svg width="48px" height="50px" viewBox="0 0 48 50" version="1.1" xmlns="http://www.w3.org/2000/svg" xmlns:xlink="http://www.w3.org/1999/xlink">
    <title>定位/政务服务/normal</title>
    <g id="养老地图" stroke="none" stroke-width="1" fill="none" fill-rule="evenodd">
        <g id="养老地图图标备份" transform="translate(-374.000000, -216.000000)">
            <g id="定位/政务服务/normal备份" transform="translate(374.000000, 216.000000)">
                <path d="M23.8636364,3.90909091 C29.0601338,3.90909091 33.7646792,6.01538765 37.1701003,9.42080875 C40.5755214,12.8262299 42.6818182,17.5307753 42.6818182,22.7272727 C42.6818182,26.7629748 41.1928032,30.523001 38.8082949,33.6088352 C36.2485486,36.9214481 32.656391,39.4597994 28.748598,40.7300234 C27.639453,41.0905498 26.1803973,42.556297 24.4291378,45.2348336 C24.1699397,45.4295829 23.9333632,45.5317987 23.7231536,45.5328414 C21.4070579,42.4777836 20.0795557,41.1874801 19.1993574,40.9630395 C15.0864826,39.914303 11.5153864,37.5105235 8.98895276,34.25558 C6.51700122,31.0708289 5.04545455,27.0708834 5.04545455,22.7272727 C5.04545455,17.5307753 7.15175129,12.8262299 10.5571724,9.42080875 C13.9625935,6.01538765 18.6671389,3.90909091 23.8636364,3.90909091 Z" id="椭圆形" stroke="#64B35A" fill="#75CB6A"></path>
                <g id="编组-28" transform="translate(12.500000, 10.227273)" fill-rule="nonzero">
                    <path d="M6.90755677,19.2096172 L9.22331976,19.2096172 L13.8548458,19.2096172 L16.1706087,19.2096172 L20.8021347,19.2096172 L22.538957,19.2096172 C22.7705333,19.2096172 23.0021096,19.4512975 23.0021096,19.6929778 L23.0021096,20.4180188 C23.0021096,21.0222196 22.538957,21.6264205 21.8442281,21.6264205 L1.34972558,21.6264205 C0.770784836,21.6264205 0.191844088,21.1430598 0.191844088,20.4180188 L0.191844088,19.6929778 C0.191844088,19.4512975 0.423420387,19.2096172 0.654996687,19.2096172 L2.39181893,19.2096172 L6.90755677,19.2096172 Z M4.84730114,8.203125 C5.46509125,8.203125 5.96590909,8.70394284 5.96590909,9.32173295 L5.96590909,19.3892045 L5.96590909,19.3892045 L3.72869318,19.3892045 L3.72869318,9.32173295 C3.72869318,8.70394284 4.22951102,8.203125 4.84730114,8.203125 Z M9.32173295,8.203125 C9.93952307,8.203125 10.4403409,8.70394284 10.4403409,9.32173295 L10.4403409,19.3892045 L10.4403409,19.3892045 L8.203125,19.3892045 L8.203125,9.32173295 C8.203125,8.70394284 8.70394284,8.203125 9.32173295,8.203125 Z M13.7961648,8.203125 C14.4139549,8.203125 14.9147727,8.70394284 14.9147727,9.32173295 L14.9147727,19.3892045 L14.9147727,19.3892045 L12.6775568,19.3892045 L12.6775568,9.32173295 C12.6775568,8.70394284 13.1783747,8.203125 13.7961648,8.203125 Z M18.2705966,8.203125 C18.8883867,8.203125 19.3892045,8.70394284 19.3892045,9.32173295 L19.3892045,19.3892045 L19.3892045,19.3892045 L17.1519886,19.3892045 L17.1519886,9.32173295 C17.1519886,8.70394284 17.6528065,8.203125 18.2705966,8.203125 Z M12.3495998,0.258409288 L12.465388,0.379249451 L22.7705333,8.59638053 C23.1178977,8.71722069 23.1178977,9.07974118 23.1178977,9.44226167 C23.0021096,9.68394199 22.7705333,9.92562232 22.4231688,9.92562232 L0.770784836,9.92562232 C0.423420387,9.92562232 0.191844088,9.80478215 0.0760559382,9.44226167 C-0.0397322115,9.20058134 -0.0397322115,8.83806085 0.191844088,8.71722069 L0.307632238,8.59638053 L10.6127776,0.379249451 C11.0759302,-0.1041112 11.7706591,-0.1041112 12.3495998,0.258409288 Z" id="形状" fill="#FFFFFF"></path>
                    <rect id="矩形备份-41" fill="#75CB6A" x="5.96590909" y="9.69460227" width="2.23721591" height="9.69460227"></rect>
                    <rect id="矩形备份-42" fill="#75CB6A" x="10.4403409" y="9.69460227" width="2.23721591" height="9.69460227"></rect>
                    <rect id="矩形备份-43" fill="#75CB6A" x="14.9147727" y="9.69460227" width="2.23721591" height="9.69460227"></rect>
                </g>
            </g>
        </g>
    </g>
</svg>