<?xml version="1.0" encoding="UTF-8"?>
<svg width="48px" height="50px" viewBox="0 0 48 50" version="1.1" xmlns="http://www.w3.org/2000/svg" xmlns:xlink="http://www.w3.org/1999/xlink">
    <title>定位/景点/normal</title>
    <g id="养老地图" stroke="none" stroke-width="1" fill="none" fill-rule="evenodd">
        <g id="养老地图图标备份" transform="translate(-488.000000, -216.000000)">
            <g id="定位/景点/normal备份" transform="translate(488.000000, 216.000000)">
                <path d="M23.8636364,3.90909091 C29.0601338,3.90909091 33.7646792,6.01538765 37.1701003,9.42080875 C40.5755214,12.8262299 42.6818182,17.5307753 42.6818182,22.7272727 C42.6818182,26.7629748 41.1928032,30.523001 38.8082949,33.6088352 C36.2485486,36.9214481 32.656391,39.4597994 28.748598,40.7300234 C27.639453,41.0905498 26.1803973,42.556297 24.4291378,45.2348336 C24.1699397,45.4295829 23.9333632,45.5317987 23.7231536,45.5328414 C21.4070579,42.4777836 20.0795557,41.1874801 19.1993574,40.9630395 C15.0864826,39.914303 11.5153864,37.5105235 8.98895276,34.25558 C6.51700122,31.0708289 5.04545455,27.0708834 5.04545455,22.7272727 C5.04545455,17.5307753 7.15175129,12.8262299 10.5571724,9.42080875 C13.9625935,6.01538765 18.6671389,3.90909091 23.8636364,3.90909091 Z" id="椭圆形" stroke="#B076E6" fill="#C382FF"></path>
                <g id="景点备份-2" transform="translate(12.500000, 10.795455)" fill="#FFFFFF" fill-rule="nonzero">
                    <path d="M4.16666666,5.0588946 L18.5606061,5.0588946 C18.5606061,5.0588946 20.9848485,4.60585926 20.9848485,2.34068257 L16.5909091,2.34068257 C16.5909091,2.34068257 15.530303,2.49169436 15.3787879,0 L14.1666667,0 L14.1666667,1.13258833 L8.56060606,1.13258833 L8.56060606,0 L7.34848484,0 C7.19696968,2.49169436 6.13636362,2.34068257 6.13636362,2.34068257 L1.74242424,2.34068257 C1.74242424,4.60585926 4.16666666,5.0588946 4.16666666,5.0588946 Z M18.3333333,12.8359841 L3.63636364,12.8359841 C3.09319585,12.8337821 2.57163181,13.047856 2.18755095,13.4306609 C1.8034701,13.8134657 1.58868254,14.333297 1.59089194,14.8746602 L1.59089194,22.2742374 C1.60740549,22.5173062 1.8015755,22.7108311 2.04545453,22.7272727 L6.89393939,22.7272727 C7.72969838,22.724785 8.40659484,22.0501373 8.4090909,21.2171549 L8.4090909,19.4805195 C8.40094844,18.7054992 8.74976116,17.9695372 9.3555567,17.4835655 C9.96135224,16.9975939 10.7572544,16.8152611 11.5151515,16.9888251 C12.7219255,17.252179 13.5766077,18.3248698 13.5606061,19.5560254 L13.5606061,21.2171549 C13.5631021,22.0501373 14.2399986,22.724785 15.0757576,22.7272727 L19.9242424,22.7272727 C20.1681215,22.7108311 20.3622915,22.5173062 20.378805,22.2742374 L20.378805,14.8746602 C20.3810144,14.333297 20.1662269,13.8134657 19.782146,13.4306609 C19.3980652,13.047856 18.8765011,12.8337821 18.3333333,12.8359841 L18.3333333,12.8359841 Z M19.1666667,7.77710662 C18.0303031,7.77710662 17.9545455,6.19148293 17.9545455,6.19148293 L4.77272727,6.19148293 C4.77272727,6.19148293 4.6969697,7.7771066 3.56060605,7.77710662 L0,7.77710662 C0,7.77710662 1.21212122,11.627907 3.56060605,11.627907 L19.1666667,11.627907 C21.5909091,11.627907 22.7272727,7.77710662 22.7272727,7.77710662 L19.1666667,7.77710662 Z" id="形状"></path>
                </g>
            </g>
        </g>
    </g>
</svg>