<?xml version="1.0" encoding="UTF-8"?>
<svg width="35px" height="36px" viewBox="0 0 35 36" version="1.1" xmlns="http://www.w3.org/2000/svg" xmlns:xlink="http://www.w3.org/1999/xlink">
    <title>定位/养老院/normal</title>
    <g id="养老地图" stroke="none" stroke-width="1" fill="none" fill-rule="evenodd">
        <g id="养老地图图标备份" transform="translate(-204.000000, -159.000000)">
            <g id="定位/养老院/normal" transform="translate(204.000000, 159.000000)">
                <path d="M17.0244755,2.7534965 C20.7393629,2.7534965 24.1025622,4.25925212 26.5370397,6.69372958 C28.9715171,9.12820704 30.4772727,12.4914063 30.4772727,16.2062937 C30.4772727,19.0919353 29.413052,21.780682 27.7079932,23.9872288 C25.8788408,26.3543671 23.3119023,28.1681554 20.5194739,29.0758313 C19.7368082,29.330236 18.7111176,30.3689097 17.4769517,32.2562817 C17.2736325,32.4107229 17.087697,32.4887658 16.9238483,32.4895732 C15.2216844,30.2965467 14.3038442,29.3992254 13.6901064,29.2427292 C10.7498881,28.4930068 8.19695138,26.7746205 6.39084528,24.4477147 C4.62368269,22.1709819 3.57167832,19.3114824 3.57167832,16.2062937 C3.57167832,12.4914063 5.07743394,9.12820704 7.5119114,6.69372958 C9.94638886,4.25925212 13.3095882,2.7534965 17.0244755,2.7534965 Z" id="椭圆形" stroke="#FD714D" stroke-width="0.597902098" fill="#FF8565"></path>
                <g id="养老院-(1)备份" transform="translate(8.055944, 6.860140)" fill-rule="nonzero">
                    <g id="编组-24" transform="translate(0.000000, 0.561592)">
                        <path d="M17.7451755,7.54932748 L9.42027834,0.143523336 C9.29509192,0.0287046672 9.16990549,3.55271368e-15 9.01342246,3.55271368e-15 L8.98212586,3.55271368e-15 L8.95082925,3.55271368e-15 C8.79434622,3.55271368e-15 8.6691598,0.0574093344 8.54397338,0.143523336 L0.187779635,7.54932748 C-0.0625932116,7.77896482 -0.0625932116,8.12342082 0.187779635,8.35305816 C0.438152481,8.5826955 0.81371175,8.5826955 1.0640846,8.35305816 L2.59761828,7.0039388 L2.59761828,15.270883 L15.5231165,15.270883 L15.5231165,7.14746214 L16.9001671,8.35305816 C17.15054,8.5826955 17.5260992,8.55399083 17.7764721,8.35305816 C17.9955483,8.12342082 17.9955483,7.75026015 17.7451755,7.54932748 Z" id="形状" fill="#FFFFFF"></path>
                        <path d="M10.1567884,4.16217675 C10.7168329,4.16217675 11.1648685,4.62145142 11.1648685,5.19554477 C11.1648685,5.76963811 10.7168329,6.22891279 10.1567884,6.22891279 C9.59674385,6.22891279 9.14870823,5.76963811 9.14870823,5.19554477 C9.14870823,4.62145142 9.59674385,4.16217675 10.1567884,4.16217675 Z" id="路径" fill="#FF8565"></path>
                        <path d="M11.9209286,9.32901685 C11.8089197,9.50124485 11.6969108,9.61606352 11.5288975,9.70217752 C11.5288975,9.78829152 11.472893,9.84570086 11.3888863,9.84570086 L11.3608841,9.84570086 L11.3608841,14.8977223 C11.4168886,14.8977223 11.472893,14.9551316 11.472893,15.0412456 C11.472893,15.1273596 11.4168886,15.184769 11.3328819,15.184769 L10.856844,15.184769 C10.7728373,15.184769 10.7168329,15.1273596 10.7168329,15.0412456 C10.7168329,14.9551316 10.7728373,14.8977223 10.8288418,14.8977223 L10.8288418,9.84570086 C10.7448351,9.84570086 10.6888307,9.78829152 10.6888307,9.70217752 L10.6888307,9.64476819 C10.6608284,9.64476819 10.6328262,9.61606352 10.604824,9.58735885 C10.0447795,9.24290285 9.82076166,9.55865419 9.82076166,9.55865419 C9.73675498,9.67347285 9.59674385,9.70217752 9.48473494,9.61606352 C9.37272604,9.52994952 9.34472381,9.35772152 9.42873049,9.24290285 C9.51273717,9.09937951 9.73675498,8.92715151 10.0447795,8.89844684 L9.48473494,8.55399083 C9.40072826,8.4965815 9.34472381,8.43917216 9.31672159,8.35305816 L8.81268151,7.49191815 C8.5886637,7.83637415 8.42065035,8.18083016 8.30864144,8.55399083 C8.11262586,9.09937951 8.00061695,9.64476819 7.9446125,10.1901569 L8.61666593,12.1994836 C8.72867483,12.4865302 8.75667706,12.7735769 8.72867483,13.0893283 L8.61666593,14.754199 C8.61666593,15.012541 8.42065035,15.2421783 8.16863031,15.2421783 L7.97261473,15.2421783 C7.72059469,15.2421783 7.52457911,14.9838363 7.55258133,14.7254943 L7.66459024,12.7735769 L7.07654349,11.0225922 L6.99253681,11.0800015 L7.18855239,12.2855976 C7.24455684,12.5726442 7.24455684,12.8596909 7.18855239,13.1467376 L6.85252568,14.840313 C6.82452345,15.0699503 6.62850787,15.270883 6.40449006,15.270883 L6.15247002,15.270883 C5.90044999,15.2134736 5.73243663,14.9551316 5.78844108,14.6967896 L6.18047225,12.7448722 L5.87244776,10.9938875 C5.78844108,10.4772035 5.76043885,10.3336802 5.84444553,9.78829152 C6.01245889,8.78362817 6.29248115,7.95119282 6.65651009,7.23357614 C7.04854126,6.51595946 7.55258133,5.97057078 8.11262586,5.56870544 C8.19663254,5.51129611 8.28063921,5.45388677 8.36464589,5.45388677 C8.53265925,5.42518211 8.72867483,5.51129611 8.81268151,5.68352411 L10.0447795,7.80766948 L11.3328819,8.61140017 C11.472893,8.69751417 11.5288975,8.81233284 11.5568997,8.95585617 C11.6409064,8.92715151 11.724913,8.92715151 11.7809175,8.95585617 C11.9489309,9.04197018 11.9769331,9.21419818 11.9209286,9.32901685 L11.9209286,9.32901685 Z" id="路径" fill="#FF8565"></path>
                    </g>
                </g>
            </g>
        </g>
    </g>
</svg>