<?xml version="1.0" encoding="UTF-8"?>
<svg width="35px" height="36px" viewBox="0 0 35 36" version="1.1" xmlns="http://www.w3.org/2000/svg" xmlns:xlink="http://www.w3.org/1999/xlink">
    <title>定位/景点/normal</title>
    <g id="养老地图" stroke="none" stroke-width="1" fill="none" fill-rule="evenodd">
        <g id="养老地图图标备份" transform="translate(-408.000000, -159.000000)">
            <g id="定位/景点/normal" transform="translate(408.000000, 159.000000)">
                <path d="M17.1818182,2.7534965 C20.9401545,2.7534965 24.3426895,4.2768633 26.8056404,6.73981418 C29.2685912,9.20276505 30.791958,12.6053 30.791958,16.3636364 C30.791958,19.2830633 29.7153053,22.0033032 27.9902794,24.2356896 C26.1397793,26.6304544 23.54288,28.4654067 20.7178625,29.3836756 C19.924959,29.6414081 18.8855581,30.6957697 17.634315,32.6113173 C17.4308321,32.7658189 17.2448207,32.8438832 17.0809423,32.844696 C15.3600935,30.6220649 14.4301021,29.711058 13.8084532,29.5525446 C10.8338468,28.7940536 8.25104988,27.0555713 6.42381963,24.7014501 C4.63598808,22.3980884 3.57167832,19.505144 3.57167832,16.3636364 C3.57167832,12.6053 5.09504511,9.20276505 7.55799599,6.73981418 C10.0209469,4.2768633 13.4234818,2.7534965 17.1818182,2.7534965 Z" id="椭圆形" stroke="#B076E6" stroke-width="0.597902098" fill="#C382FF"></path>
                <g id="景点备份-2" transform="translate(9.000000, 7.772727)" fill="#FFFFFF" fill-rule="nonzero">
                    <path d="M2.99999999,3.64240411 L13.3636364,3.64240411 C13.3636364,3.64240411 15.1090909,3.31621867 15.1090909,1.68529145 L11.9454546,1.68529145 C11.9454546,1.68529145 11.1818182,1.79401994 11.0727273,0 L10.2,0 L10.2,0.815463601 L6.16363636,0.815463601 L6.16363636,0 L5.29090909,0 C5.18181817,1.79401994 4.41818181,1.68529145 4.41818181,1.68529145 L1.25454545,1.68529145 C1.25454545,3.31621867 2.99999999,3.64240411 2.99999999,3.64240411 Z M13.2,9.24190856 L2.61818182,9.24190856 C2.22710101,9.24032308 1.8515749,9.39445634 1.57503669,9.67007583 C1.29849847,9.94569531 1.14385143,10.3199738 1.1454422,10.7097554 L1.1454422,16.0374509 C1.15733195,16.2124605 1.29713436,16.3517984 1.47272726,16.3636364 L4.96363636,16.3636364 C5.56538283,16.3618452 6.05274828,15.8760989 6.05454545,15.2763516 L6.05454545,14.025974 C6.04868288,13.4679595 6.29982803,12.9380668 6.73600082,12.5881672 C7.17217361,12.2382676 7.74522314,12.106988 8.2909091,12.2319541 C9.15978635,12.4215689 9.77515755,13.1939063 9.76363636,14.0803383 L9.76363636,15.2763516 C9.76543353,15.8760989 10.252799,16.3618452 10.8545454,16.3636364 L14.3454545,16.3636364 C14.5210475,16.3517984 14.6608499,16.2124605 14.6727396,16.0374509 L14.6727396,10.7097554 C14.6743304,10.3199738 14.5196833,9.94569532 14.2431451,9.67007583 C13.9666069,9.39445635 13.5910808,9.24032308 13.2,9.24190856 L13.2,9.24190856 Z M13.8,5.59951677 C12.9818182,5.59951677 12.9272727,4.45786771 12.9272727,4.45786771 L3.43636363,4.45786771 C3.43636363,4.45786771 3.38181818,5.59951675 2.56363635,5.59951677 L0,5.59951677 C0,5.59951677 0.872727278,8.37209303 2.56363635,8.37209303 L13.8,8.37209303 C15.5454546,8.37209303 16.3636364,5.59951677 16.3636364,5.59951677 L13.8,5.59951677 Z" id="形状"></path>
                </g>
            </g>
        </g>
    </g>
</svg>