<?xml version="1.0" encoding="UTF-8"?>
<svg width="47px" height="52px" viewBox="0 0 47 52" version="1.1" xmlns="http://www.w3.org/2000/svg" xmlns:xlink="http://www.w3.org/1999/xlink">
    <title>休闲定位备份 2</title>
    <defs>
        <filter x="-23.5%" y="-20.0%" width="147.1%" height="140.0%" filterUnits="objectBoundingBox" id="filter-1">
            <feOffset dx="0" dy="2" in="SourceAlpha" result="shadowOffsetOuter1"></feOffset>
            <feGaussianBlur stdDeviation="1" in="shadowOffsetOuter1" result="shadowBlurOuter1"></feGaussianBlur>
            <feColorMatrix values="0 0 0 0 0.423573831   0 0 0 0 0.446570659   0 0 0 0 0.573907382  0 0 0 0.201076267 0" type="matrix" in="shadowBlurOuter1" result="shadowMatrixOuter1"></feColorMatrix>
            <feMerge>
                <feMergeNode in="shadowMatrixOuter1"></feMergeNode>
                <feMergeNode in="SourceGraphic"></feMergeNode>
            </feMerge>
        </filter>
        <linearGradient x1="22.5652188%" y1="25.8670652%" x2="64.2537496%" y2="84.1860304%" id="linearGradient-2">
            <stop stop-color="#FFBE65" offset="0%"></stop>
            <stop stop-color="#FD8935" offset="100%"></stop>
        </linearGradient>
    </defs>
    <g id="小程序/H5" stroke="none" stroke-width="1" fill="none" fill-rule="evenodd">
        <g id="地图分类定位" transform="translate(-154.000000, -13.000000)">
            <g id="休闲定位备份-2" transform="translate(160.000000, 19.000000)">
                <g id="icon/人力资源社会保障局" filter="url(#filter-1)" transform="translate(0.333333, 0.000000)">
                    <g id="编组">
                        <path d="M16.6428257,0.0152826529 C25.837857,0.0152826529 33.2703688,7.58472711 33.2703688,16.8951731 C33.2703688,23.1471293 28.2752592,30.1903609 18.5403218,38.4425127 C17.445563,39.370632 15.8400884,39.370632 14.7453296,38.4425127 C5.01039223,30.1903609 0.0152826529,23.1471293 0.0152826529,16.8951731 C0.0152826529,7.58374904 7.44779439,0.0152826529 16.6428257,0.0152826529 Z" id="形状" fill="url(#linearGradient-2)" fill-rule="nonzero"></path>
                        <g id="活动中心" transform="translate(7.666667, 8.000000)" fill="#FFFFFF" fill-rule="nonzero">
                            <path d="M17.7499209,3.95169688 L16.3224579,1.09847667 C15.9853329,0.424327139 15.305961,0 14.5639237,0 L3.43607631,0 C2.69403896,0 2.01466707,0.424327139 1.67754214,1.09847667 L0.250079099,3.95169688 C-0.542241629,5.80412649 0.630650187,7.99321249 2.60582703,8.15678751 C3.70912367,8.25015584 4.77618637,7.73015367 5.39807458,6.79606634 C5.51709886,6.61608457 5.71604708,6.50819646 5.9289134,6.50819646 C6.14177972,6.50819646 6.34072794,6.61608457 6.45975222,6.79606634 C7.01228745,7.62377555 7.94378663,8.1672773 9,8.16727728 C10.0562134,8.16727726 10.9873911,7.62377555 11.5402478,6.79606634 C11.6592721,6.61608457 11.8582203,6.50819646 12.0710866,6.50819646 C12.2839529,6.50819646 12.4829011,6.61608457 12.6019254,6.79606634 C13.2238136,7.73015367 14.2908763,8.25015584 15.394173,8.15678751 C17.3693498,7.99321249 18.5422416,5.80412649 17.7499209,3.95169688 Z M15.6792799,9.44408022 C15.5010848,9.46650773 15.3217199,9.47789255 15.1421732,9.47817199 C14.1774705,9.47849773 13.2399777,9.1520747 12.4768898,8.55015426 C12.2384725,8.35967004 11.9033792,8.35967004 11.6649619,8.55015426 C10.9019143,9.15191738 9.96457646,9.47832586 9,9.47817199 C8.0352973,9.47849773 7.09780456,9.1520747 6.33471662,8.55015426 C6.09629932,8.35967004 5.76120606,8.35967004 5.52278876,8.55015426 C4.61460299,9.2662955 3.46590091,9.58779636 2.32650586,9.44473582 C2.14423983,9.42128065 1.9608882,9.47892211 1.82320453,9.60296199 C1.68552086,9.72700186 1.60681241,9.90545159 1.60714827,10.0928076 L1.60714827,15.671076 C1.60714827,16.4050328 2.17511313,17 2.8758268,17 L15.1244946,17 C15.8252083,17 16.3931721,16.4050328 16.3931721,15.671076 L16.3931721,10.0947744 C16.3928507,9.70370227 16.0592081,9.39425375 15.6792799,9.44408022 L15.6792799,9.44408022 Z M13.0117465,14.3939452 L4.98793209,14.3939452 C4.63436098,14.3939452 4.3450755,14.0989202 4.3450755,13.738334 C4.3450755,13.3777478 4.63436096,13.0827227 4.98793209,13.0827227 L13.0117465,13.0827227 C13.3653176,13.0827227 13.6546031,13.3777478 13.6546031,13.738334 C13.6546031,14.0989202 13.3653176,14.3939452 13.0117465,14.3939452 L13.0117465,14.3939452 Z" id="形状"></path>
                        </g>
                        <g id="gongjiao备份-5" transform="translate(7.000000, 7.000000)"></g>
                    </g>
                </g>
            </g>
        </g>
    </g>
</svg>