<?xml version="1.0" encoding="UTF-8"?>
<svg width="35px" height="36px" viewBox="0 0 35 36" version="1.1" xmlns="http://www.w3.org/2000/svg" xmlns:xlink="http://www.w3.org/1999/xlink">
    <title>定位/医院/normal</title>
    <g id="养老地图" stroke="none" stroke-width="1" fill="none" fill-rule="evenodd">
        <g id="养老地图图标备份" transform="translate(-367.000000, -159.000000)">
            <g id="定位/医院/normal" transform="translate(367.000000, 159.000000)">
                <path d="M17.1818182,2.7534965 C20.9401545,2.7534965 24.3426895,4.2768633 26.8056404,6.73981418 C29.2685912,9.20276505 30.791958,12.6053 30.791958,16.3636364 C30.791958,19.2830633 29.7153053,22.0033032 27.9902794,24.2356896 C26.1397793,26.6304544 23.54288,28.4654067 20.7178625,29.3836756 C19.924959,29.6414081 18.8855581,30.6957697 17.634315,32.6113173 C17.4308321,32.7658189 17.2448207,32.8438832 17.0809423,32.844696 C15.3600935,30.6220649 14.4301021,29.711058 13.8084532,29.5525446 C10.8338468,28.7940536 8.25104988,27.0555713 6.42381963,24.7014501 C4.63598808,22.3980884 3.57167832,19.505144 3.57167832,16.3636364 C3.57167832,12.6053 5.09504511,9.20276505 7.55799599,6.73981418 C10.0209469,4.2768633 13.4234818,2.7534965 17.1818182,2.7534965 Z" id="椭圆形" stroke="#66ACEA" stroke-width="0.597902098" fill="#70B9FA"></path>
                <g id="活动中心备份-4" transform="translate(10.636364, 7.363636)" fill-rule="nonzero">
                    <g id="医院-(1)">
                        <path d="M9.76299639,16.3440573 L9.76299639,14.9066929 L11.4682632,14.9066929 C11.9391647,14.9066929 12.3209058,14.584921 12.3209058,14.1879953 C12.3209058,13.7910695 11.9391647,13.4692976 11.4682632,13.4692976 L9.76299639,13.4692976 L9.76299639,12.0319333 L11.4682632,12.0319333 C11.9391647,12.0319332 12.3209057,11.7101614 12.3209057,11.3132356 C12.3209057,10.9163099 11.9391647,10.594538 11.4682632,10.594538 L9.76299639,10.594538 L9.76299639,9.15717363 L11.4682632,9.15717363 C11.9391596,9.15717363 12.3208966,8.83540519 12.3208966,8.43848372 C12.3208966,8.04156224 11.9391596,7.71979381 11.4682632,7.71979381 L9.76299639,7.71979381 L9.76299639,5.56371637 L12.3209058,5.56371637 C12.773169,5.56371637 13.2069084,5.71515466 13.526705,5.98471611 C13.8465017,6.25427755 14.0261543,6.61988077 14.0261543,7.00109618 L14.0261543,16.3440573 L9.76299639,16.3440573 L9.76299639,16.3440573 Z M10.1101037,16.3440573 L0.0484449761,16.3440573 L0.0484449761,1.97025911 C0.0484449761,1.5890437 0.199883265,1.22344211 0.469444713,0.953883556 C0.739006162,0.684325003 1.10460938,0.532894737 1.48582479,0.532894737 L8.67272386,0.532894737 C9.46655829,0.532894737 10.1101037,1.17642469 10.1101037,1.97025911 L10.1101037,16.3440573 L10.1101037,16.3440573 Z" id="形状" fill="#FFFFFF"></path>
                        <path d="M6.51666186,3.40765437 L5.79796424,3.40765437 L5.79796424,2.68895674 C5.79796424,2.29203953 5.47619926,1.97027455 5.07928205,1.97027455 C4.68236484,1.97027455 4.36059986,2.29203953 4.36059986,2.68895674 L4.36059986,3.40765437 L3.64190223,3.40765437 C3.24498503,3.40765438 2.92322007,3.72941935 2.92322007,4.12633655 C2.92322007,4.52325376 3.24498503,4.84501873 3.64190223,4.84501874 L4.36058442,4.84501874 L4.36058442,5.56371637 C4.36058442,5.96063784 4.68235285,6.28240628 5.07927433,6.28240628 C5.4761958,6.28240628 5.79796424,5.96063784 5.79796424,5.56371637 L5.79796424,4.84503418 L6.51666186,4.84503418 C6.91358334,4.84503418 7.23535177,4.52326575 7.23535177,4.12634427 C7.23535177,3.7294228 6.91358334,3.40765437 6.51666186,3.40765437 L6.51666186,3.40765437 Z" id="路径" fill="#70B9FA"></path>
                        <path d="M7.23534405,7.71979381 L2.92320461,7.71979381 C2.52628741,7.71979381 2.20452245,8.0415588 2.20452245,8.438476 C2.20452245,8.8353932 2.52628741,9.15715818 2.92320461,9.15715818 L7.23534405,9.15715818 C7.63226126,9.15715818 7.95402624,8.83539321 7.95402624,8.438476 C7.95402624,8.04155879 7.63226126,7.71979381 7.23534405,7.71979381 L7.23534405,7.71979381 Z" id="路径" fill="#70B9FA"></path>
                        <path d="M10.173445,7.71979381 L10.173445,9.15715818 L12.1774325,9.15715818 C12.5422089,9.15715818 12.8379187,8.83539321 12.8379187,8.438476 C12.8379187,8.04155879 12.5422089,7.71979381 12.1774325,7.71979381 L10.173445,7.71979381 Z" id="路径备份" fill="#70B9FA"></path>
                        <path d="M10.173445,10.6046053 L10.173445,12.0419696 L12.1774325,12.0419696 C12.5422089,12.0419696 12.8379187,11.7202047 12.8379187,11.3232875 C12.8379187,10.9263702 12.5422089,10.6046053 12.1774325,10.6046053 L10.173445,10.6046053 Z" id="路径备份-2" fill="#70B9FA"></path>
                        <path d="M10.173445,13.4822368 L10.173445,14.9196012 L12.1774325,14.9196012 C12.5422089,14.9196012 12.8379187,14.5978362 12.8379187,14.200919 C12.8379187,13.8040018 12.5422089,13.4822368 12.1774325,13.4822368 L10.173445,13.4822368 Z" id="路径备份-3" fill="#70B9FA"></path>
                        <path d="M7.23534405,10.594538 L2.92320461,10.594538 C2.52628313,10.594538 2.2045147,10.9163064 2.2045147,11.3132279 C2.2045147,11.7101494 2.52628313,12.0319178 2.92320461,12.0319178 L7.23534405,12.0319178 C7.63226126,12.0319178 7.95402624,11.7101528 7.95402624,11.3132356 C7.95402624,10.9163184 7.63226126,10.5945534 7.23534405,10.5945534 L7.23534405,10.594538 Z" id="路径" fill="#70B9FA"></path>
                        <path d="M7.23534405,13.4692976 L2.92320461,13.4692976 C2.52628313,13.4692976 2.2045147,13.7910661 2.2045147,14.1879875 C2.2045147,14.584909 2.52628313,14.9066774 2.92320461,14.9066774 L7.23534405,14.9066774 C7.63226126,14.9066774 7.95402624,14.5849125 7.95402624,14.1879953 C7.95402624,13.791078 7.63226126,13.4693131 7.23534405,13.4693131 L7.23534405,13.4692976 Z" id="路径" fill="#70B9FA"></path>
                    </g>
                </g>
            </g>
        </g>
    </g>
</svg>