<?xml version="1.0" encoding="UTF-8"?>
<svg width="48px" height="50px" viewBox="0 0 48 50" version="1.1" xmlns="http://www.w3.org/2000/svg" xmlns:xlink="http://www.w3.org/1999/xlink">
    <title>定位/助餐点/normal</title>
    <g id="养老地图" stroke="none" stroke-width="1" fill="none" fill-rule="evenodd">
        <g id="养老地图图标备份" transform="translate(-261.000000, -216.000000)">
            <g id="定位/助餐点/normal备份" transform="translate(261.000000, 216.000000)">
                <path d="M23.6451049,3.90909091 C28.7812565,3.90909091 33.4311691,5.99092769 36.7970438,9.35680237 C40.1629185,12.7226771 42.2447552,17.3725896 42.2447552,22.5087413 C42.2447552,26.4975194 40.773007,30.2138049 38.4162306,33.2637508 C35.886134,36.5379934 32.3355888,39.0469504 28.4730583,40.3024618 C27.3781111,40.6583732 25.938087,42.102388 24.2105287,44.7417579 C23.951553,44.9364074 23.7150871,45.0385825 23.5049271,45.039618 C21.2144785,42.0253035 19.9040941,40.7543529 19.0349868,40.5327404 C14.9698733,39.4961825 11.4402496,37.120314 8.94315505,33.9031697 C6.49991041,30.7554033 5.04545455,26.801909 5.04545455,22.5087413 C5.04545455,17.3725896 7.12729132,12.7226771 10.493166,9.35680237 C13.8590407,5.99092769 18.5089533,3.90909091 23.6451049,3.90909091 Z" id="椭圆形" stroke="#EFB302" fill="#FFBE00"></path>
                <g id="编组-21备份" transform="translate(11.363636, 9.090909)">
                    <g id="爱心餐" transform="translate(0.781250, 11.267859)" fill="#FFFFFF">
                        <path d="M13.3024584,6.69104312 C13.0273509,6.69104312 12.1117871,6.30676938 10.5557671,5.53822191 C10.3741166,5.44851439 10.1541332,5.52303616 10.0644152,5.70468143 C10.0601767,5.71326286 10.0562757,5.72200688 10.052721,5.73089343 C9.97091636,5.93540513 10.0696788,6.16758514 10.2737446,6.25049589 C12.0651061,6.97831815 13.1239158,7.37135945 13.4501738,7.4296198 C13.9346942,7.51614131 14.6132832,5.91206347 14.7563396,5.56579352 L15.2227578,5.50932043 C16.4838693,5.27657471 17.4193998,5.07962093 18.0293492,4.91845908 C20.7176237,4.20815875 21.8699479,3.44130572 22.6085246,4.1798824 C23.4945361,5.06589394 20.87783,6.97288411 19.3587872,8.16819648 C17.8397444,9.36350884 15.0750425,10.8270725 13.4501738,10.8270725 C11.3821591,10.8270725 7.91351556,9.53711991 5.47354562,9.05448849 C3.84689899,8.73273422 2.02507651,8.63425733 0.00807818245,8.75905782 L0.00807818245,8.75905782 L0.00807818245,2.85044438 C2.76543112,0.880906562 4.68573049,-0.0546239003 5.76897629,0.0438529904 C8.57308421,0.332936281 10.7559435,1.95071312 14.0410351,4.1798824 C14.3364658,4.47531307 14.3364658,4.96769753 14.0410351,5.65703576 L14.0410351,5.65703576 C13.8440813,6.346374 13.5978891,6.69104312 13.3024584,6.69104312 Z" id="形状结合"></path>
                    </g>
                    <g id="助餐服务" transform="translate(9.947679, 1.562500)" fill-rule="nonzero">
                        <path d="M0.764526779,8.33841555 L11.249468,8.33841555 C11.4493026,8.33841555 11.6087452,8.25337953 11.7681877,8.08543339 C11.9276303,7.91748726 11.9673137,7.74883248 12.0069972,7.53836834 C12.0069972,7.32790419 11.9276303,7.11744004 11.7681877,6.99130327 C11.6087452,6.82335713 11.4493026,6.73902974 11.249468,6.73902975 L11.1701011,6.73902975 C11.0106585,5.68670901 10.6116979,4.29778736 9.93424423,3.49844877 C9.25608198,2.69840155 8.41918582,2.10952712 7.46253059,1.81473558 C7.46253059,1.7304082 7.50221408,1.64608081 7.50221408,1.60427143 C7.50221408,1.18334314 7.34277154,0.804224212 7.06356994,0.467623301 C6.7872197,0.167284056 6.39595516,-0.00102671196 5.98786429,0.00488562439 C5.588195,0.00488562439 5.22962644,0.173540397 4.95042485,0.467623301 C4.63153978,0.804224212 4.51178072,1.18334313 4.51178071,1.60427143 L4.51178071,1.81473558 C3.53581145,2.11111991 2.67367121,2.69857193 2.04077571,3.49844877 C1.36261346,4.29778736 0.963652797,5.68670901 0.80421026,6.73902975 L0.765235414,6.73902975 C0.685159828,6.73902975 0.566109396,6.78154776 0.486033821,6.82335713 C0.40666687,6.8651665 0.326591284,6.90697589 0.247224333,6.99130327 C0.180123956,7.06598541 0.126208327,7.15153154 0.0877817963,7.24428543 C0.0473896918,7.32790419 0.0473896918,7.45404094 0.00770621068,7.58088634 C0.00770621068,7.79135049 0.0877817963,8.00181464 0.247224333,8.1279514 C0.366274765,8.29589754 0.566109407,8.33841555 0.764526779,8.33841555 Z M5.98715566,0.678087447 C6.22667378,0.678087447 6.42579979,0.763123462 6.62492581,0.931069611 C6.78436834,1.09901575 6.9041274,1.3094799 6.9041274,1.56175341 L6.9041274,1.60427143 C6.70500138,1.60427143 6.58524233,1.60427143 6.42579979,1.56175341 L5.54851152,1.56175341 C5.42875246,1.60427143 5.26930993,1.60427143 5.10986739,1.60427143 L5.10986739,1.56175341 C5.10986739,1.30947988 5.18994297,1.09901574 5.38906898,0.931069611 C5.54851152,0.762414838 5.74763754,0.678087447 5.98715566,0.678087447 Z M11.2097845,8.96909936 L0.765235414,8.96909936 C0.566109396,8.96909936 0.406666859,9.05413538 0.247224333,9.18027214 C0.0877817963,9.34821828 0.0473896918,9.51687305 0.00770621068,9.72733721 C0.00770621068,9.93780136 0.0877817963,10.1482655 0.247224333,10.2744023 C0.40666687,10.4423484 0.566109407,10.4848664 0.765235414,10.4848664 L11.2501766,10.4848664 C11.4500113,10.4848664 11.6094538,10.3998304 11.7688964,10.2744023 C11.9283389,10.1057475 11.9680224,9.93780136 12.0077062,9.72733721 C12.0077062,9.51687306 11.9283389,9.30640892 11.7688964,9.18027214 C11.6094538,9.05342674 11.4500113,8.969808 11.2104932,8.969808 L11.2097845,8.96909936 Z" id="形状" fill="#FFFFFF"></path>
                        <path d="M2.75791281,4.84485241 C2.99743093,4.46644213 3.316316,4.12913258 3.67488456,3.83504968 C4.03345311,3.54025814 4.43241376,3.37160337 4.91074137,3.2454666 L5.03050044,3.2454666 C5.15025949,3.2454666 5.22962646,3.28798461 5.30970203,3.37160337 C5.38906898,3.45663938 5.42875246,3.54025814 5.42875246,3.62458553 C5.42875246,3.66710354 5.42875246,3.7507223 5.38906898,3.79253167 L5.26930993,3.91866843 C5.22962644,3.96118643 5.18994297,3.96118643 5.10986739,4.00370445 C4.8710579,4.08732321 4.63153978,4.17165059 4.43241376,4.29778736 C4.23328774,4.42392412 4.0334531,4.55006089 3.87401056,4.71871565 C3.71456803,4.88737042 3.55512549,5.05531656 3.43536644,5.26578071 C3.43536644,5.30829871 3.39568295,5.35010809 3.35599948,5.39191747 C3.316316,5.43443548 3.2759239,5.43443548 3.23624042,5.47624486 C3.15687347,5.39191748 3.11648136,5.39191748 3.07679788,5.39191747 C2.96940217,5.39446533 2.86667173,5.34805412 2.79759629,5.26578071 C2.71822934,5.18145332 2.67783722,5.09712593 2.67783722,5.01350719 C2.71822933,4.97098918 2.71822933,4.88737042 2.75791281,4.84485241 L2.75791281,4.84485241 Z" id="路径" fill="#FFBE00"></path>
                    </g>
                </g>
            </g>
        </g>
    </g>
</svg>