<?xml version="1.0" encoding="UTF-8"?>
<svg width="48px" height="50px" viewBox="0 0 48 50" version="1.1" xmlns="http://www.w3.org/2000/svg" xmlns:xlink="http://www.w3.org/1999/xlink">
    <title>定位/医院/normal</title>
    <g id="养老地图" stroke="none" stroke-width="1" fill="none" fill-rule="evenodd">
        <g id="养老地图图标备份" transform="translate(-431.000000, -216.000000)">
            <g id="定位/医院/normal备份" transform="translate(431.000000, 216.000000)">
                <path d="M23.8636364,3.90909091 C29.0601338,3.90909091 33.7646792,6.01538765 37.1701003,9.42080875 C40.5755214,12.8262299 42.6818182,17.5307753 42.6818182,22.7272727 C42.6818182,26.7629748 41.1928032,30.523001 38.8082949,33.6088352 C36.2485486,36.9214481 32.656391,39.4597994 28.748598,40.7300234 C27.639453,41.0905498 26.1803973,42.556297 24.4291378,45.2348336 C24.1699397,45.4295829 23.9333632,45.5317987 23.7231536,45.5328414 C21.4070579,42.4777836 20.0795557,41.1874801 19.1993574,40.9630395 C15.0864826,39.914303 11.5153864,37.5105235 8.98895276,34.25558 C6.51700122,31.0708289 5.04545455,27.0708834 5.04545455,22.7272727 C5.04545455,17.5307753 7.15175129,12.8262299 10.5571724,9.42080875 C13.9625935,6.01538765 18.6671389,3.90909091 23.8636364,3.90909091 Z" id="椭圆形" stroke="#66ACEA" fill="#70B9FA"></path>
                <g id="活动中心备份-4" transform="translate(14.772727, 10.227273)" fill-rule="nonzero">
                    <g id="医院-(1)">
                        <path d="M13.5597172,22.7000795 L13.5597172,20.7037401 L15.9281434,20.7037401 C16.5821732,20.7037401 17.1123691,20.2568347 17.1123691,19.705549 C17.1123691,19.1542632 16.5821732,18.7073578 15.9281434,18.7073578 L13.5597172,18.7073578 L13.5597172,16.7110184 L15.9281434,16.7110184 C16.5821732,16.7110184 17.1123691,16.264113 17.1123691,15.7128273 C17.1123691,15.1615415 16.5821732,14.7146361 15.9281434,14.7146361 L13.5597172,14.7146361 L13.5597172,12.7182967 L15.9281434,12.7182967 C16.5821662,12.7182967 17.1123564,12.2713961 17.1123564,11.7201163 C17.1123564,11.1688364 16.5821662,10.7219358 15.9281434,10.7219358 L13.5597172,10.7219358 L13.5597172,7.72738384 L17.1123691,7.72738384 C17.7405125,7.72738384 18.3429283,7.9377148 18.7870903,8.3121057 C19.2312524,8.6864966 19.4807698,9.19427885 19.4807698,9.7237447 L19.4807698,22.7000795 L13.5597172,22.7000795 L13.5597172,22.7000795 Z M14.0418107,22.7000795 L0.067284689,22.7000795 L0.067284689,2.73647099 C0.067284689,2.20700514 0.277615645,1.69922515 0.652006546,1.32483827 C1.02639745,0.950451393 1.5341797,0.740131579 2.06364554,0.740131579 L12.0454498,0.740131579 C13.1479976,0.740131579 14.0418107,1.63392318 14.0418107,2.73647099 L14.0418107,22.7000795 L14.0418107,22.7000795 Z" id="形状" fill="#FFFFFF"></path>
                        <path d="M9.05091925,4.73285329 L8.0527281,4.73285329 L8.0527281,3.73466214 C8.0527281,3.18338823 7.60583231,2.73649243 7.0545584,2.73649243 C6.50328449,2.73649243 6.0563887,3.18338823 6.0563887,3.73466214 L6.0563887,4.73285329 L5.05819755,4.73285329 C4.50692365,4.7328533 4.06002787,5.1797491 4.06002787,5.73102299 C4.06002787,6.28229688 4.50692365,6.72919268 5.05819755,6.7291927 L6.05636725,6.7291927 L6.05636725,7.72738384 C6.05636725,8.27866367 6.50326785,8.72556427 7.05454768,8.72556427 C7.6058275,8.72556427 8.0527281,8.27866367 8.0527281,7.72738384 L8.0527281,6.72921414 L9.05091925,6.72921414 C9.60219908,6.72921414 10.0490997,6.28231354 10.0490997,5.73103371 C10.0490997,5.17975389 9.60219908,4.73285329 9.05091925,4.73285329 L9.05091925,4.73285329 Z" id="路径" fill="#70B9FA"></path>
                        <path d="M10.049089,10.7219358 L4.0600064,10.7219358 C3.50873251,10.7219358 3.06183673,11.1688317 3.06183673,11.7201056 C3.06183673,12.2713794 3.50873251,12.7182753 4.0600064,12.7182753 L10.049089,12.7182753 C10.6003629,12.7182753 11.0472587,12.2713795 11.0472587,11.7201056 C11.0472587,11.1688316 10.6003629,10.7219358 10.049089,10.7219358 L10.049089,10.7219358 Z" id="路径" fill="#70B9FA"></path>
                        <path d="M14.1297847,10.7219358 L14.1297847,12.7182753 L16.9131006,12.7182753 C17.4197346,12.7182753 17.8304426,12.2713795 17.8304426,11.7201056 C17.8304426,11.1688316 17.4197346,10.7219358 16.9131006,10.7219358 L14.1297847,10.7219358 Z" id="路径备份" fill="#70B9FA"></path>
                        <path d="M14.1297847,14.7286184 L14.1297847,16.7249578 L16.9131006,16.7249578 C17.4197346,16.7249578 17.8304426,16.278062 17.8304426,15.7267881 C17.8304426,15.1755142 17.4197346,14.7286184 16.9131006,14.7286184 L14.1297847,14.7286184 Z" id="路径备份-2" fill="#70B9FA"></path>
                        <path d="M14.1297847,18.7253289 L14.1297847,20.7216684 L16.9131006,20.7216684 C17.4197346,20.7216684 17.8304426,20.2747726 17.8304426,19.7234987 C17.8304426,19.1722247 17.4197346,18.7253289 16.9131006,18.7253289 L14.1297847,18.7253289 Z" id="路径备份-3" fill="#70B9FA"></path>
                        <path d="M10.049089,14.7146361 L4.0600064,14.7146361 C3.50872657,14.7146361 3.06182597,15.1615367 3.06182597,15.7128165 C3.06182597,16.2640964 3.50872657,16.710997 4.0600064,16.710997 L10.049089,16.710997 C10.6003629,16.710997 11.0472587,16.2641012 11.0472587,15.7128273 C11.0472587,15.1615534 10.6003629,14.7146576 10.049089,14.7146576 L10.049089,14.7146361 Z" id="路径" fill="#70B9FA"></path>
                        <path d="M10.049089,18.7073578 L4.0600064,18.7073578 C3.50872657,18.7073578 3.06182597,19.1542584 3.06182597,19.7055382 C3.06182597,20.2568181 3.50872657,20.7037187 4.0600064,20.7037187 L10.049089,20.7037187 C10.6003629,20.7037187 11.0472587,20.2568229 11.0472587,19.705549 C11.0472587,19.1542751 10.6003629,18.7073793 10.049089,18.7073793 L10.049089,18.7073578 Z" id="路径" fill="#70B9FA"></path>
                    </g>
                </g>
            </g>
        </g>
    </g>
</svg>