<?xml version="1.0" encoding="UTF-8"?>
<svg width="47px" height="52px" viewBox="0 0 47 52" version="1.1" xmlns="http://www.w3.org/2000/svg" xmlns:xlink="http://www.w3.org/1999/xlink">
    <title>风景定位备份</title>
    <defs>
        <filter x="-23.5%" y="-20.0%" width="147.1%" height="140.0%" filterUnits="objectBoundingBox" id="filter-1">
            <feOffset dx="0" dy="2" in="SourceAlpha" result="shadowOffsetOuter1"></feOffset>
            <feGaussianBlur stdDeviation="1" in="shadowOffsetOuter1" result="shadowBlurOuter1"></feGaussianBlur>
            <feColorMatrix values="0 0 0 0 0.423573831   0 0 0 0 0.446570659   0 0 0 0 0.573907382  0 0 0 0.201076267 0" type="matrix" in="shadowBlurOuter1" result="shadowMatrixOuter1"></feColorMatrix>
            <feMerge>
                <feMergeNode in="shadowMatrixOuter1"></feMergeNode>
                <feMergeNode in="SourceGraphic"></feMergeNode>
            </feMerge>
        </filter>
        <linearGradient x1="25.4249745%" y1="15.6036528%" x2="71.0550242%" y2="77.0172043%" id="linearGradient-2">
            <stop stop-color="#10CAC3" offset="0%"></stop>
            <stop stop-color="#01B9AD" offset="100%"></stop>
        </linearGradient>
    </defs>
    <g id="小程序/H5" stroke="none" stroke-width="1" fill="none" fill-rule="evenodd">
        <g id="地图分类定位" transform="translate(-106.000000, -13.000000)" fill-rule="nonzero">
            <g id="风景定位备份" transform="translate(112.000000, 19.000000)">
                <g id="icon/人力资源社会保障局" filter="url(#filter-1)" transform="translate(0.333333, 0.000000)">
                    <g id="编组">
                        <path d="M16.6428257,0.0152826529 C25.837857,0.0152826529 33.2703688,7.58472711 33.2703688,16.8951731 C33.2703688,23.1471293 28.2752592,30.1903609 18.5403218,38.4425127 C17.445563,39.370632 15.8400884,39.370632 14.7453296,38.4425127 C5.01039223,30.1903609 0.0152826529,23.1471293 0.0152826529,16.8951731 C0.0152826529,7.58374904 7.44779439,0.0152826529 16.6428257,0.0152826529 Z" id="形状结合" fill="url(#linearGradient-2)"></path>
                        <path d="M20.7064674,12.6218483 C20.5700567,12.5843685 20.532863,12.579212 20.4126376,12.6124984 C19.8327028,12.795965 19.1370181,14.2527427 18.5069537,15.9405993 C17.2636436,12.5797337 15.636442,8.89902548 14.3349913,8.4559689 C14.2071841,8.40879809 14.0831576,8.37507025 13.9072235,8.44059977 C11.7916407,9.12278089 8.57778265,21.6402827 8.57778265,21.6402827 L24.8902827,21.6402827 C24.8497988,21.5031241 22.3822864,13.1874567 20.7064674,12.6218483 Z M25.0509969,23.3277827 C25.5813541,23.3277827 26.0152827,23.7074701 26.0152827,24.1715327 C26.0152827,24.6355952 25.5813541,25.0152827 25.0509969,25.0152827 L25.0509969,25.0152827 L8.97956837,25.0152827 C8.44921122,25.0152827 8.01528265,24.6355952 8.01528265,24.1715327 C8.01528265,23.7074701 8.44921122,23.3277827 8.97956837,23.3277827 L8.97956837,23.3277827 Z M18.8631952,7.01528265 C19.8423895,7.01528265 20.6353703,7.79625964 20.6373322,8.75703149 C20.6373322,9.72069257 19.8424099,10.4994224 18.8631952,10.4994224 C17.881753,10.4994224 17.08914,9.71790366 17.08914,8.75705156 C17.08914,7.79304937 17.8841644,7.01528265 18.8631952,7.01528265 Z" id="形状" fill="#FFFFFF"></path>
                    </g>
                </g>
            </g>
        </g>
    </g>
</svg>