<?xml version="1.0" encoding="UTF-8"?>
<svg width="48px" height="50px" viewBox="0 0 48 50" version="1.1" xmlns="http://www.w3.org/2000/svg" xmlns:xlink="http://www.w3.org/1999/xlink">
    <title>定位/日间照料/normal</title>
    <g id="养老地图" stroke="none" stroke-width="1" fill="none" fill-rule="evenodd">
        <g id="养老地图图标备份" transform="translate(-318.000000, -216.000000)">
            <g id="定位/日间照料/normal备份" transform="translate(318.000000, 216.000000)">
                <path d="M23.8636364,3.90909091 C29.0601338,3.90909091 33.7646792,6.01538765 37.1701003,9.42080875 C40.5755214,12.8262299 42.6818182,17.5307753 42.6818182,22.7272727 C42.6818182,26.7629748 41.1928032,30.523001 38.8082949,33.6088352 C36.2485486,36.9214481 32.656391,39.4597994 28.748598,40.7300234 C27.639453,41.0905498 26.1803973,42.556297 24.4291378,45.2348336 C24.1699397,45.4295829 23.9333632,45.5317987 23.7231536,45.5328414 C21.4070579,42.4777836 20.0795557,41.1874801 19.1993574,40.9630395 C15.0864826,39.914303 11.5153864,37.5105235 8.98895276,34.25558 C6.51700122,31.0708289 5.04545455,27.0708834 5.04545455,22.7272727 C5.04545455,17.5307753 7.15175129,12.8262299 10.5571724,9.42080875 C13.9625935,6.01538765 18.6671389,3.90909091 23.8636364,3.90909091 Z" id="椭圆形" stroke="#E93F10" fill="#FE5E32"></path>
                <g id="日间照料备份" transform="translate(11.363636, 8.522727)" fill-rule="nonzero">
                    <path d="M12.5,3.33958925 C11.7368295,3.33958925 11.1432525,2.73334387 11.1432525,1.95388553 C11.1432525,1.17442719 11.7368295,0.568181818 12.5,0.568181818 C13.2631705,0.568181818 13.8567475,1.17442719 13.8567475,1.95388553 C13.8567475,2.73334387 13.2631705,3.33958925 12.5,3.33958925 Z M20.3860949,7.23688095 C19.919713,6.63063558 20.0045097,5.76457074 20.5980867,5.2882351 C21.1916637,4.81189946 22.0396309,4.89850593 22.5060129,5.5047513 C22.9723948,6.11099667 22.8875981,6.97706151 22.2940211,7.45339715 C21.7004441,7.92973279 20.8524768,7.84312632 20.3860949,7.23688095 Z M22.3364195,15.9408324 C22.5060129,15.2046773 23.226785,14.7283417 23.9475571,14.9015546 C24.6683292,15.0747676 25.1347112,15.8109227 24.9651177,16.5470778 C24.7955243,17.2832329 24.0747522,17.7595686 23.3539801,17.5863556 C22.633208,17.4131426 22.166826,16.6769875 22.3364195,15.9408324 Z M16.8670311,22.9559575 C17.5454048,22.6095316 18.3509737,22.9126543 18.6477622,23.6055061 C18.986949,24.298358 18.6901605,25.1211196 18.0117868,25.4242422 C17.333413,25.7706682 16.5278442,25.4675455 16.2310557,24.7746936 C15.9342671,24.0818417 16.1886573,23.2590802 16.8670311,22.9559575 Z M8.13296894,22.9559575 C8.81134271,23.3023834 9.06573286,24.125145 8.76894433,24.7746936 C8.42975745,25.4675455 7.62418862,25.7273649 6.98821323,25.4242422 C6.30983946,25.0778163 6.05544931,24.2550547 6.35223785,23.6055061 C6.64902638,22.9126542 7.45459521,22.6095316 8.13296894,22.9559575 Z M2.66358053,15.9408324 C2.83317397,16.6769875 2.366792,17.4131426 1.64601991,17.5863556 C0.925247814,17.7595685 0.204475692,17.3265361 0.0348822501,16.5470778 C-0.134711192,15.8109227 0.331670781,15.0747676 1.05244287,14.9015546 C1.773215,14.7283417 2.49398712,15.2046773 2.66358053,15.9408324 Z M4.6139051,7.23688095 C4.14752316,7.84312632 3.29955595,7.92973282 2.70597891,7.45339715 C2.11240188,6.97706148 2.02760514,6.11099667 2.49398712,5.5047513 C2.96036909,4.89850593 3.80833627,4.81189943 4.40191331,5.2882351 C4.99549034,5.76457077 5.08028707,6.67393881 4.6139051,7.23688095 Z M12.5,4.89850593 C7.92097715,4.89850593 4.18992148,8.70919116 4.18992148,13.3859412 C4.18992148,18.0626913 7.92097715,21.9166797 12.5,21.9166797 C17.0790228,21.9166797 20.8100785,18.1059945 20.8100785,13.4292444 C20.8100785,8.75249443 17.0790228,4.89850593 12.5,4.89850593 Z" id="形状" fill="#FFFFFF"></path>
                    <path d="M15.0432901,15.3409091 L12.2294372,15.3409091 C11.7532468,15.3409091 11.3636364,14.9512987 11.3636364,14.4751082 L11.3636364,11.6612554 C11.3636364,11.1850649 11.7532468,10.7954545 12.2294372,10.7954545 C12.7056277,10.7954545 13.0952381,11.1850649 13.0952381,11.6612554 L13.0952381,13.6093074 L15.0432901,13.6093074 C15.5194805,13.6093074 15.9090909,13.9989177 15.9090909,14.4751082 C15.9090909,14.9512987 15.5194805,15.3409091 15.0432901,15.3409091 Z" id="路径" fill="#FE5E32"></path>
                </g>
            </g>
        </g>
    </g>
</svg>