<?xml version="1.0" encoding="UTF-8"?>
<svg width="47px" height="52px" viewBox="0 0 47 52" version="1.1" xmlns="http://www.w3.org/2000/svg" xmlns:xlink="http://www.w3.org/1999/xlink">
    <title>休闲定位</title>
    <defs>
        <filter x="-23.5%" y="-20.0%" width="147.1%" height="140.0%" filterUnits="objectBoundingBox" id="filter-1">
            <feOffset dx="0" dy="2" in="SourceAlpha" result="shadowOffsetOuter1"></feOffset>
            <feGaussianBlur stdDeviation="1" in="shadowOffsetOuter1" result="shadowBlurOuter1"></feGaussianBlur>
            <feColorMatrix values="0 0 0 0 0.423573831   0 0 0 0 0.446570659   0 0 0 0 0.573907382  0 0 0 0.201076267 0" type="matrix" in="shadowBlurOuter1" result="shadowMatrixOuter1"></feColorMatrix>
            <feMerge>
                <feMergeNode in="shadowMatrixOuter1"></feMergeNode>
                <feMergeNode in="SourceGraphic"></feMergeNode>
            </feMerge>
        </filter>
        <linearGradient x1="22.1213761%" y1="18.2138105%" x2="66.8768044%" y2="86.4403579%" id="linearGradient-2">
            <stop stop-color="#B3BEFF" offset="0%"></stop>
            <stop stop-color="#7C89FF" offset="100%"></stop>
        </linearGradient>
    </defs>
    <g id="小程序/H5" stroke="none" stroke-width="1" fill="none" fill-rule="evenodd">
        <g id="地图分类定位" transform="translate(-58.000000, -13.000000)" fill-rule="nonzero">
            <g id="休闲定位" transform="translate(64.000000, 19.000000)">
                <g id="icon/人力资源社会保障局" filter="url(#filter-1)" transform="translate(0.333333, 0.000000)">
                    <g id="编组">
                        <path d="M16.6428257,0.0152826529 C25.837857,0.0152826529 33.2703688,7.58472711 33.2703688,16.8951731 C33.2703688,23.1471293 28.2752592,30.1903609 18.5403218,38.4425127 C17.445563,39.370632 15.8400884,39.370632 14.7453296,38.4425127 C5.01039223,30.1903609 0.0152826529,23.1471293 0.0152826529,16.8951731 C0.0152826529,7.58374904 7.44779439,0.0152826529 16.6428257,0.0152826529 Z" id="形状" fill="url(#linearGradient-2)"></path>
                        <g id="gongjiao备份-5" transform="translate(8.000000, 7.000000)" fill="#FFFFFF">
                            <g id="休闲" transform="translate(0.000000, 1.000000)">
                                <path d="M12.0000023,5.46149764 C12.31231,5.69999769 12.6876947,5.64074767 12.9376948,5.34149762 C13.1876948,5.04374756 13.1253871,4.68524748 12.8123101,4.44599744 C12.31231,4.02824736 12.06231,3.61049728 12.0000023,3.01349717 C11.9376946,2.47574707 12.2500023,1.81949695 12.875387,1.0432468 C13.1253871,0.863246763 13.1253871,0.446246689 12.8123101,0.206996648 C12.5000024,-0.0315034036 12.1253869,0.0277466194 11.8753869,0.326996672 C11.0623098,1.34174686 10.6246174,2.23724703 10.6876943,3.19199721 C10.750002,4.08824737 11.1876944,4.86449753 12.0000023,5.46149764 L12.0000023,5.46149764 Z M16.7500032,7.84949809 L0,7.84949809 L0,10.9544987 C0,14.8357494 3.31230832,18 7.43769371,18 C10.6876943,18 13.5,15.9697496 14.5,13.2232491 C15.1253875,13.7609992 15.8746184,14.0594993 16.7500032,14.0594993 C18.5623112,14.0594993 20,12.686249 20,10.9544987 C20,9.22274834 18.5623112,7.84949809 16.7500032,7.84949809 Z M16.7500032,12.686249 C16.1246184,12.686249 15.5000029,12.3877489 15.1876952,11.9099988 C15.1876952,11.8499988 15.0000028,11.6707488 14.8746182,11.4914988 L14.8746182,9.28274835 L16.6876955,9.28274835 C17.6876956,9.28274835 18.5000035,10.0589985 18.5000035,11.0144987 C18.5623112,11.9099988 17.7500034,12.686249 16.7500032,12.686249 L16.7500032,12.686249 Z M7.31230907,5.46149764 C7.62461682,5.69999769 8.00000151,5.64074767 8.25000155,5.34149762 C8.50000159,5.04374756 8.4376939,4.68524748 8.12538615,4.44599744 C7.62538606,4.02824736 7.37538601,3.61049728 7.31230907,3.01349717 C7.25000135,2.47574707 7.56230911,1.81949695 8.18769386,1.0432468 C8.4376939,0.744746734 8.37461697,0.386246677 8.12461691,0.146996636 C7.87538608,-0.0915034153 7.43769371,-0.0315034036 7.18769366,0.26699666 C6.37461658,1.28174685 5.93769342,2.17724702 6.00000113,3.13274719 C6.06230884,4.08824737 6.50000122,4.86449751 7.31230907,5.46149764 L7.31230907,5.46149764 Z M2.62538512,5.46149764 C2.93769287,5.69999769 3.31230793,5.64074767 3.56230837,5.34149762 C3.81230793,5.04374756 3.75000072,4.68524748 3.43769296,4.44599744 C2.93769287,4.08824737 2.68769283,3.61049728 2.68769281,3.07349718 C2.6253851,2.53574708 2.93769286,1.87874696 3.56230837,1.16249683 C3.81230793,0.863996769 3.75000072,0.446246706 3.50000066,0.206996648 C3.25000061,-0.0315034036 2.75000052,0.0277466194 2.56230817,0.326996672 C1.68769262,1.28174685 1.31230793,2.23724703 1.31230793,3.19199721 C1.37461564,4.08824737 1.81230793,4.86449753 2.62538512,5.46149764 L2.62538512,5.46149764 Z" id="形状"></path>
                            </g>
                        </g>
                    </g>
                </g>
            </g>
        </g>
    </g>
</svg>