<?xml version="1.0" encoding="UTF-8"?>
<svg width="35px" height="36px" viewBox="0 0 35 36" version="1.1" xmlns="http://www.w3.org/2000/svg" xmlns:xlink="http://www.w3.org/1999/xlink">
    <title>定位/住宿/normal</title>
    <g id="养老地图" stroke="none" stroke-width="1" fill="none" fill-rule="evenodd">
        <g id="养老地图图标备份" transform="translate(-531.000000, -159.000000)">
            <g id="定位/住宿/normal" transform="translate(531.000000, 159.000000)">
                <path d="M17.0244755,2.7534965 C20.7393629,2.7534965 24.1025622,4.25925212 26.5370397,6.69372958 C28.9715171,9.12820704 30.4772727,12.4914063 30.4772727,16.2062937 C30.4772727,19.0919353 29.413052,21.780682 27.7079932,23.9872288 C25.8788408,26.3543671 23.3119023,28.1681554 20.5194739,29.0758313 C19.7368082,29.330236 18.7111176,30.3689097 17.4769517,32.2562817 C17.2736325,32.4107229 17.087697,32.4887658 16.9238483,32.4895732 C15.2216844,30.2965467 14.3038442,29.3992254 13.6901064,29.2427292 C10.7498881,28.4930068 8.19695138,26.7746205 6.39084528,24.4477147 C4.62368269,22.1709819 3.57167832,19.3114824 3.57167832,16.2062937 C3.57167832,12.4914063 5.07743394,9.12820704 7.5119114,6.69372958 C9.94638886,4.25925212 13.3095882,2.7534965 17.0244755,2.7534965 Z" id="椭圆形" stroke="#6A7FEA" stroke-width="0.597902098" fill="#738AFF"></path>
                <g id="住宿-(3)备份" transform="translate(9.000000, 8.181818)" fill="#FFFFFF" fill-rule="nonzero">
                    <path d="M2.61499301,3.39786375 C3.34997734,1.85334341 5.82453604,1.38161272 6.93684358,2.6315484 L7.22223975,3.33250308 C7.59319558,3.3085294 7.78316106,3.23398423 8.1672516,3.23166785 L8.26500207,3.2311819 C8.62587888,3.2311819 8.79317457,3.31314596 9.14182857,3.33248688 L9.42495296,2.6315322 C10.5377565,1.38159652 13.0118032,1.85331101 13.7472515,3.39784755 L13.6113447,4.28516517 C14.2945581,4.57420996 14.9249766,5.1259447 15.454477,5.52274145 L15.454477,1.38068941 C13.352282,0.354842816 11.1236193,0 8.18182618,0 L8.15222907,0.00043735762 C5.21363561,0.0147405716 3.03320823,0.353465949 0.909047358,1.38068941 L0.909047358,5.52274145 C1.4377638,5.13470805 2.06815033,4.60129373 2.75545931,4.3127187 L2.61499301,3.39786375 Z M8.18181018,3.68182223 C1.41456606,3.68182223 0,7.82387427 0,7.82387427 L16.3636364,7.82387427 C16.3636364,7.82387427 14.5963367,3.68182223 8.18182618,3.68182223 L8.18181018,3.68182223 Z M0,11.5056317 L16.3636364,11.5056317 L16.3636364,8.74428528 L0,8.74428528 L0,11.5056317 Z M0.45451568,14.7272727 L1.81819071,14.7272727 L1.81819071,11.9659263 L0.45451568,11.9659263 L0.45451568,14.7272727 L0.45451568,14.7272727 Z M14.5454297,14.7272727 L15.9091047,14.7272727 L15.9091047,11.9659263 L14.5454297,11.9659263 L14.5454297,14.7272727 L14.5454297,14.7272727 Z" id="形状"></path>
                </g>
            </g>
        </g>
    </g>
</svg>