<?xml version="1.0" encoding="UTF-8"?>
<svg width="35px" height="36px" viewBox="0 0 35 36" version="1.1" xmlns="http://www.w3.org/2000/svg" xmlns:xlink="http://www.w3.org/1999/xlink">
    <title>定位/政务服务/normal</title>
    <g id="养老地图" stroke="none" stroke-width="1" fill="none" fill-rule="evenodd">
        <g id="养老地图图标备份" transform="translate(-326.000000, -159.000000)">
            <g id="定位/政务服务/normal" transform="translate(326.000000, 159.000000)">
                <path d="M17.1818182,2.7534965 C20.9401545,2.7534965 24.3426895,4.2768633 26.8056404,6.73981418 C29.2685912,9.20276505 30.791958,12.6053 30.791958,16.3636364 C30.791958,19.2830633 29.7153053,22.0033032 27.9902794,24.2356896 C26.1397793,26.6304544 23.54288,28.4654067 20.7178625,29.3836756 C19.924959,29.6414081 18.8855581,30.6957697 17.634315,32.6113173 C17.4308321,32.7658189 17.2448207,32.8438832 17.0809423,32.844696 C15.3600935,30.6220649 14.4301021,29.711058 13.8084532,29.5525446 C10.8338468,28.7940536 8.25104988,27.0555713 6.42381963,24.7014501 C4.63598808,22.3980884 3.57167832,19.505144 3.57167832,16.3636364 C3.57167832,12.6053 5.09504511,9.20276505 7.55799599,6.73981418 C10.0209469,4.2768633 13.4234818,2.7534965 17.1818182,2.7534965 Z" id="椭圆形" stroke="#64B35A" stroke-width="0.597902098" fill="#75CB6A"></path>
                <g id="编组-28" transform="translate(9.000000, 7.363636)" fill-rule="nonzero">
                    <path d="M4.97344087,13.8309244 L6.64079023,13.8309244 L9.97548894,13.8309244 L11.6428383,13.8309244 L14.977537,13.8309244 L16.228049,13.8309244 C16.394784,13.8309244 16.5615189,14.0049342 16.5615189,14.1789441 L16.5615189,14.7009736 C16.5615189,15.1359981 16.228049,15.5710227 15.7278442,15.5710227 L0.971802421,15.5710227 C0.554965082,15.5710227 0.138127743,15.2230031 0.138127743,14.7009736 L0.138127743,14.1789441 C0.138127743,14.0049342 0.304862679,13.8309244 0.471597614,13.8309244 L1.72210963,13.8309244 L4.97344087,13.8309244 Z M3.49005682,5.90625 C3.9348657,5.90625 4.29545455,6.26683884 4.29545455,6.71164773 L4.29545455,13.9602273 L4.29545455,13.9602273 L2.68465909,13.9602273 L2.68465909,6.71164773 C2.68465909,6.26683884 3.04524794,5.90625 3.49005682,5.90625 Z M6.71164773,5.90625 C7.15645661,5.90625 7.51704545,6.26683884 7.51704545,6.71164773 L7.51704545,13.9602273 L7.51704545,13.9602273 L5.90625,13.9602273 L5.90625,6.71164773 C5.90625,6.26683884 6.26683884,5.90625 6.71164773,5.90625 Z M9.93323864,5.90625 C10.3780475,5.90625 10.7386364,6.26683884 10.7386364,6.71164773 L10.7386364,13.9602273 L10.7386364,13.9602273 L9.12784091,13.9602273 L9.12784091,6.71164773 C9.12784091,6.26683884 9.48842975,5.90625 9.93323864,5.90625 Z M13.1548295,5.90625 C13.5996384,5.90625 13.9602273,6.26683884 13.9602273,6.71164773 L13.9602273,13.9602273 L13.9602273,13.9602273 L12.3494318,13.9602273 L12.3494318,6.71164773 C12.3494318,6.26683884 12.7100207,5.90625 13.1548295,5.90625 Z M8.89171186,0.186054688 L8.97507933,0.273059605 L16.394784,6.18939398 C16.6448864,6.2763989 16.6448864,6.53741365 16.6448864,6.7984284 C16.5615189,6.97243823 16.394784,7.14644807 16.1446816,7.14644807 L0.554965082,7.14644807 C0.304862679,7.14644807 0.138127743,7.05944315 0.0547602755,6.7984284 C-0.0286071923,6.62441856 -0.0286071923,6.36340381 0.138127743,6.2763989 L0.221495211,6.18939398 L7.64119984,0.273059605 C7.97466971,-0.0749600641 8.47487452,-0.0749600641 8.89171186,0.186054688 Z" id="形状" fill="#FFFFFF"></path>
                    <rect id="矩形备份-41" fill="#75CB6A" x="4.29545455" y="6.98011364" width="1.61079545" height="6.98011364"></rect>
                    <rect id="矩形备份-42" fill="#75CB6A" x="7.51704545" y="6.98011364" width="1.61079545" height="6.98011364"></rect>
                    <rect id="矩形备份-43" fill="#75CB6A" x="10.7386364" y="6.98011364" width="1.61079545" height="6.98011364"></rect>
                </g>
            </g>
        </g>
    </g>
</svg>