<?xml version="1.0" encoding="UTF-8"?>
<svg width="48px" height="50px" viewBox="0 0 48 50" version="1.1" xmlns="http://www.w3.org/2000/svg" xmlns:xlink="http://www.w3.org/1999/xlink">
    <title>定位/其他/normal</title>
    <g id="养老地图" stroke="none" stroke-width="1" fill="none" fill-rule="evenodd">
        <g id="养老地图图标备份" transform="translate(-828.000000, -216.000000)">
            <g id="定位/其他/normal备份-3" transform="translate(828.000000, 216.000000)">
                <path d="M24.0996503,3.41520979 C29.2592161,3.41520979 33.9303263,5.50653704 37.311545,8.88775573 C40.6927637,12.2689744 42.7840909,16.9400846 42.7840909,22.0996503 C42.7840909,26.107486 41.3060066,29.8418564 38.9378693,32.9065046 C36.3973799,36.1941967 32.8321876,38.7133472 28.9538148,39.9740081 C27.8667791,40.3273479 26.4422087,41.7699504 24.7280895,44.3913003 C24.4457017,44.605802 24.1874579,44.714195 23.9598904,44.7153163 C23.7551603,44.716325 23.5919509,44.615084 23.4839371,44.4527446 C21.6200317,41.6951425 20.3292813,40.4252793 19.4685821,40.2058107 C15.3849456,39.1645297 11.8392002,36.7778821 9.33071945,33.5460684 C6.87632697,30.3839396 5.41520979,26.4124124 5.41520979,22.0996503 C5.41520979,16.9400846 7.50653704,12.2689744 10.8877557,8.88775573 C14.2689744,5.50653704 18.9400846,3.41520979 24.0996503,3.41520979 Z" id="椭圆形" stroke="#FD714D" stroke-width="0.83041958" fill="#FF8565"></path>
                <g id="编组-25" transform="translate(14.000000, 11.000000)" fill="#FFFFFF" fill-rule="nonzero">
                    <path d="M0.496519091,6.91186814 L9.42654374,11.9944981 C9.6735908,12.1180216 10.0477944,12.1180216 10.418365,11.9944981 L19.3483897,6.91186814 C19.9696404,6.54129755 19.9696404,5.54947626 19.3483897,5.17527262 L10.418365,0.0926426479 C10.171318,-0.0308808826 9.79711433,-0.0308808826 9.42654374,0.0926426479 L0.496519091,5.17890567 C-0.124731606,5.54947626 -0.124731606,6.41777402 0.496519091,6.91186814 Z" id="路径"></path>
                    <path d="M0.496519091,11.0390073 L9.42654374,15.9981137 C9.55006727,16.1216373 9.79711433,16.1216373 9.92427091,16.1216373 C10.0477944,16.1216373 10.2948415,16.1216373 10.4219981,15.9981137 L19.3520227,11.0390073 C19.8497499,10.7919602 19.9732734,10.1707095 19.7225933,9.6766154 C19.4755462,9.17888823 18.8542956,9.0553647 18.3602014,9.30604481 L9.92063786,14.0181042 L1.48834038,9.30604481 C0.990613213,9.05899774 0.372995561,9.18252128 0.1259485,9.6766154 C-0.124731606,10.1743426 -0.00120807565,10.7919602 0.496519091,11.0390073 Z" id="路径"></path>
                    <path d="M18.3529353,13.9018467 L9.92063786,18.6139061 L1.48834038,13.9018467 C0.990613213,13.6547997 0.372995561,13.7783232 0.1259485,14.2724173 C-0.121098561,14.7701445 0.00242496937,15.3877622 0.496519091,15.6348092 L9.42654374,20.5939157 C9.55006727,20.7174392 9.79711433,20.7174392 9.92427091,20.7174392 C10.0477944,20.7174392 10.2948415,20.7174392 10.4219981,20.5939157 L19.3520227,15.6348092 C19.8497499,15.3877622 19.9732734,14.7665115 19.7225933,14.2724173 C19.4682802,13.7783232 18.8506625,13.6547997 18.3529353,13.9018467 L18.3529353,13.9018467 Z" id="路径"></path>
                </g>
            </g>
        </g>
    </g>
</svg>