<?xml version="1.0" encoding="UTF-8"?>
<svg width="35px" height="36px" viewBox="0 0 35 36" version="1.1" xmlns="http://www.w3.org/2000/svg" xmlns:xlink="http://www.w3.org/1999/xlink">
    <title>定位/公交/normal</title>
    <g id="养老地图" stroke="none" stroke-width="1" fill="none" fill-rule="evenodd">
        <g id="养老地图图标备份" transform="translate(-572.000000, -159.000000)">
            <g id="定位/公交/normal" transform="translate(572.000000, 159.000000)">
                <path d="M17.0244755,2.7534965 C20.7393629,2.7534965 24.1025622,4.25925212 26.5370397,6.69372958 C28.9715171,9.12820704 30.4772727,12.4914063 30.4772727,16.2062937 C30.4772727,19.0919353 29.413052,21.780682 27.7079932,23.9872288 C25.8788408,26.3543671 23.3119023,28.1681554 20.5194739,29.0758313 C19.7368082,29.330236 18.7111176,30.3689097 17.4769517,32.2562817 C17.2736325,32.4107229 17.087697,32.4887658 16.9238483,32.4895732 C15.2216844,30.2965467 14.3038442,29.3992254 13.6901064,29.2427292 C10.7498881,28.4930068 8.19695138,26.7746205 6.39084528,24.4477147 C4.62368269,22.1709819 3.57167832,19.3114824 3.57167832,16.2062937 C3.57167832,12.4914063 5.07743394,9.12820704 7.5119114,6.69372958 C9.94638886,4.25925212 13.3095882,2.7534965 17.0244755,2.7534965 Z" id="椭圆形" stroke="#66ACEA" stroke-width="0.597902098" fill="#70B9FA"></path>
                <g id="gongjiao备份-7" transform="translate(9.818182, 7.363636)" fill="#FFFFFF" fill-rule="nonzero">
                    <path d="M13.4423429,14.718131 L13.4423429,15.8151346 C13.4423429,16.0893855 13.1458206,16.3636364 12.8492983,16.3636364 L10.971324,16.3636364 C10.6748017,16.3636364 10.3782794,16.0893855 10.3782794,15.8151346 L10.3782794,14.718131 L4.25015254,14.718131 L4.25015254,15.8151346 C4.25015254,16.0893855 3.95363026,16.3636364 3.65710801,16.3636364 L1.77913361,16.3636364 C1.48261134,16.3636364 1.18608909,16.0893855 1.18608909,15.8151346 L1.18608909,14.718131 C0.494203778,14.718131 0,14.1696293 0,13.6211275 L0,2.1940071 C0,1.55408835 1.18608909,1.09700354 1.87797436,1.09700356 C1.87797436,1.09700356 4.34899329,0 7.41305674,0 C10.4771202,0 13.5411836,1.09700356 13.5411836,1.09700356 C14.2330689,1.09700356 14.7272727,1.64550533 14.7272727,2.1940071 L14.7272727,13.6211275 C14.628432,14.1696292 14.1342282,14.718131 13.4423429,14.718131 M2.76136362,12.8571429 C3.62428976,12.8571429 4.29545455,12.1753247 4.29545455,11.3961039 C4.29545455,10.5194805 3.62428976,9.93506494 2.76136362,9.93506494 C1.89843748,9.93506494 1.22727273,10.6168831 1.22727273,11.3961039 C1.3231534,12.2727273 1.99431819,12.8571429 2.76136362,12.8571429 M9.83797652,1.16883117 L4.88929618,1.16883117 C4.59237535,1.16883117 4.29545455,1.46103898 4.29545455,1.75324675 C4.29545455,2.04545453 4.59237538,2.33766234 4.88929618,2.33766234 L9.83797652,2.33766234 C10.1348974,2.33766234 10.4318182,2.04545453 10.4318182,1.75324675 C10.4318182,1.46103898 10.1348974,1.16883117 9.83797652,1.16883117 M13.5,4.07898223 C13.5,3.79273785 13.2030792,3.50649351 12.9061583,3.50649351 L1.82111436,3.50649351 C1.52419353,3.50649351 1.22727273,3.79273788 1.22727273,4.07898223 L1.22727273,7.60932943 C1.22727273,7.8955738 1.52419356,8.18181818 1.82111436,8.18181818 L12.9061583,8.18181818 C13.2030792,8.18181818 13.5,7.8955738 13.5,7.60932943 L13.5,4.07898223 M11.9659091,9.93506494 C11.1029829,9.93506494 10.4318182,10.6168831 10.4318182,11.3961039 C10.4318182,12.2727273 11.102983,12.8571429 11.9659091,12.8571429 C12.8288352,12.8571429 13.5,12.1753247 13.5,11.3961039 C13.4041193,10.6168831 12.7329545,9.93506494 11.9659091,9.93506494" id="形状"></path>
                </g>
            </g>
        </g>
    </g>
</svg>