<?xml version="1.0" encoding="UTF-8"?>
<svg width="48px" height="50px" viewBox="0 0 48 50" version="1.1" xmlns="http://www.w3.org/2000/svg" xmlns:xlink="http://www.w3.org/1999/xlink">
    <title>定位/养老院/normal备份</title>
    <g id="养老地图" stroke="none" stroke-width="1" fill="none" fill-rule="evenodd">
        <g id="养老地图图标备份" transform="translate(-602.000000, -216.000000)">
            <g id="定位/养老院/normal备份-3" transform="translate(602.000000, 216.000000)">
                <path d="M23.6451049,3.70804196 C28.8367746,3.70804196 33.5369495,5.81238191 36.9392069,9.21463929 C40.3414642,12.6168967 42.4458042,17.3170715 42.4458042,22.5087413 C42.4458042,26.5427073 40.9590322,30.3018745 38.5753176,33.3866816 C36.0205784,36.6928148 32.435303,39.2259418 28.5352082,40.4936635 C27.4589938,40.8434858 26.055622,42.2842946 24.359817,44.8807542 C24.0454324,45.1229042 23.7572603,45.2394261 23.5059178,45.2406645 C23.2596981,45.2418777 23.0624394,45.1213827 22.9330717,44.9269396 C21.0983112,42.2124568 19.8344818,40.9440846 18.9853111,40.7275557 C14.8762773,39.6797986 11.3084266,37.2783713 8.784334,34.026444 C6.31465632,30.8446224 4.84440559,26.8483698 4.84440559,22.5087413 C4.84440559,17.3170715 6.94874554,12.6168967 10.3510029,9.21463929 C13.7532603,5.81238191 18.4534351,3.70804196 23.6451049,3.70804196 Z" id="椭圆形" stroke="#EFB302" stroke-width="0.597902098" fill="#FFBE00"></path>
                <g id="gongjiao备份-6" transform="translate(5.681818, 2.272727)" fill="#FFFFFF" fill-rule="nonzero">
                    <g id="美食" transform="translate(9.090909, 9.090909)">
                        <path d="M17.9742937,12.961026 C17.8786604,12.8473328 17.7949812,12.7563782 17.7352103,12.6654236 C17.6634853,12.5630997 17.5798061,12.4607758 17.508081,12.3698213 C17.1972725,11.9832644 16.8745099,11.5967074 16.8745099,10.0391105 L17.0538225,1.59170494 C17.0538225,0.716267225 16.3246179,0 15.4161008,0 C14.5075837,0 13.7783792,0.716267225 13.7783792,1.59170494 L13.9337834,10.0277411 C13.9337834,11.5512302 13.5990666,11.9832644 13.3121665,12.358452 C13.2284873,12.4607758 13.1448081,12.5630997 13.0850372,12.6767929 C13.0372205,12.7677475 12.9535413,12.8587021 12.8459538,12.9723953 C12.3319243,13.5749693 11.3636364,14.6891628 11.3636364,17.3268452 C11.3636364,20.5557324 12.9894038,22.7272727 15.428055,22.7272727 C17.854752,22.7272727 19.4805195,20.5557324 19.4805195,17.3268452 C19.4685653,14.6550548 18.5002773,13.5522307 17.9742937,12.961026 L17.9742937,12.961026 Z M7.30519481,7.2492163 L7.01713507,0 L5.1620304,0 L5.1620304,6.06214273 C5.1620304,6.22349253 5.03528412,6.35026738 4.88549306,6.35026738 C4.735702,6.35026738 4.60895571,6.22349253 4.60895571,6.06214273 L4.60895571,0 L2.69623909,0 L2.69623909,6.06214273 C2.69623909,6.22349253 2.56949281,6.35026738 2.41970175,6.35026738 C2.26991069,6.35026738 2.14316441,6.22349253 2.14316441,6.06214273 L2.14316441,0 L0.357194068,0 L0,7.26074129 C0,9.0010142 0.48394035,10.038263 1.46334344,10.4531625 L1.509433,10.3263876 L1.46334344,10.4646874 C1.47486583,10.4646874 2.23534352,10.7873871 2.23534352,12.5622349 L2.07403007,21.1137747 C2.07403007,22.0011986 2.77689582,22.7272727 3.6525974,22.7272727 C4.52829899,22.7272727 5.23116473,22.0011986 5.23116473,21.1137747 L5.0583289,12.5622349 C5.0583289,10.7758621 5.81880659,10.4646874 5.83032898,10.4531625 L5.76119464,10.2687627 L5.83032898,10.4416375 C6.82125446,10.038263 7.30519481,9.0010142 7.30519481,7.2492163 Z" id="形状"></path>
                    </g>
                </g>
            </g>
        </g>
    </g>
</svg>