<?xml version="1.0" encoding="UTF-8"?>
<svg width="20px" height="20px" viewBox="0 0 20 20" version="1.1" xmlns="http://www.w3.org/2000/svg" xmlns:xlink="http://www.w3.org/1999/xlink">
    <title>形状</title>
    <defs>
        <linearGradient x1="0%" y1="0%" x2="100%" y2="100%" id="linearGradient-1">
            <stop stop-color="#FF8800" offset="0%"></stop>
            <stop stop-color="#FF5000" offset="100%"></stop>
        </linearGradient>
    </defs>
    <g id="页面-1" stroke="none" stroke-width="1" fill="none" fill-rule="evenodd">
        <g id="地图-3" transform="translate(-251.000000, -360.000000)" fill="url(#linearGradient-1)" fill-rule="nonzero">
            <path d="M270.440637,377.390102 L269.446213,378.380286 L269.197608,378.627832 L268.949002,378.875378 C267.705972,380.113107 263.479673,381.845929 256.021498,374.667097 C249.060534,367.735811 251.049381,363.52753 252.043804,362.2898 L253.784045,360.556978 C254.529862,359.814341 255.772892,359.814341 256.518709,360.556978 L259.004768,363.032438 C259.750585,363.775076 259.750585,365.012805 259.004768,365.755443 L257.513133,366.993173 L257.264527,367.488265 C256.518709,368.230902 256.518709,368.478448 257.513133,369.468632 L261.24222,372.934275 C262.982461,374.419551 263.231067,374.419551 263.976885,373.924459 L265.219914,372.439183 C265.965732,371.696546 267.208761,371.449 267.954578,372.191637 L270.440637,374.667097 C271.186454,375.409735 271.186454,376.647464 270.440637,377.390102 L270.440637,377.390102 Z" id="形状"></path>
        </g>
    </g>
</svg>