<?xml version="1.0" encoding="UTF-8"?>
<svg width="30px" height="31px" viewBox="0 0 30 31" version="1.1" xmlns="http://www.w3.org/2000/svg" xmlns:xlink="http://www.w3.org/1999/xlink">
    <title>红包 (2)备份 2</title>
    <g id="小程序/H5" stroke="none" stroke-width="1" fill="none" fill-rule="evenodd">
        <g id="地图1" transform="translate(-209.000000, -253.000000)" fill-rule="nonzero">
            <g id="红包-(2)备份-2" transform="translate(209.000000, 253.000000)">
                <path d="M18.8308328,28.4607224 L7.43296844,30.6861177 C5.71505929,31.0221558 4.0520135,29.9008858 3.71597538,28.1829766 L0.0881352881,9.58772444 C-0.24790283,7.86981528 0.873367217,6.2067695 2.59127637,5.87073138 L13.9891407,3.64533609 C15.7070499,3.30929797 17.3700956,4.43056802 17.7061338,6.14847717 L21.3374028,24.7437294 C21.666583,26.4616385 20.5487419,28.1246843 18.8308328,28.4607224 L18.8308328,28.4607224 Z" id="路径" fill="#FAB1A0"></path>
                <path d="M24.6360627,30.2815004 L7.23065978,28.8344791 C5.4887479,28.6904628 4.19260087,27.1577175 4.33661721,25.4158056 L6.20540062,2.92868336 C6.34941696,1.18677149 7.88216225,-0.109375539 9.62407413,0.0346407972 L27.0294771,1.48166208 C28.7713889,1.62567842 30.067536,3.15842371 29.9235196,4.90033559 L28.0547362,27.3874578 C27.9072909,29.1293697 26.3779746,30.4255167 24.6360627,30.2815004 L24.6360627,30.2815004 Z" id="路径" fill="#E74C3C"></path>
                <path d="M26.0762261,2.25317817 L10.4333088,0.953602181 C9.26403329,0.85759129 8.17019492,1.26906654 7.36781819,2.00286406 C7.24094666,7.68808038 11.5614367,12.5606331 17.3049454,13.0406876 C23.048454,13.520742 28.1164575,9.42313434 28.9256922,3.79621034 C28.2536159,2.93897025 27.2455016,2.34918906 26.0762261,2.25317817 Z" id="路径" fill="#C0392B"></path>
                <path d="M26.1448053,1.40622495 L10.5053169,0.106648965 C9.33604146,0.0106380744 8.24220309,0.422113321 7.43982636,1.15591084 C7.30952587,6.84112717 11.630016,11.7136799 17.3735246,12.1937343 C23.1170333,12.6737888 28.1850367,8.57618112 28.9942714,2.94582817 C28.3256241,2.09201703 27.3140808,1.50223584 26.1448053,1.40622495 Z" id="路径" fill="#FF7675"></path>
                <path d="M12.6998516,12.2280239 C12.6998516,15.0440488 14.9826908,17.326888 17.7987157,17.326888 C20.6147406,17.326888 22.8975798,15.0440488 22.8975798,12.2280239 C22.8975798,9.41199906 20.6147406,7.12915984 17.7987157,7.12915984 C14.9826908,7.12915984 12.6998516,9.41199906 12.6998516,12.2280239 L12.6998516,12.2280239 Z" id="路径" fill="#C0392B"></path>
                <path d="M12.3123791,11.7685432 C12.3123791,13.5902033 13.2841964,15.2734938 14.8617974,16.1843287 C16.4393984,17.0951636 18.3830879,17.0951636 19.960689,16.1843287 C21.53829,15.2734938 22.5101073,13.5902033 22.5101073,11.7685432 C22.5101073,9.94688323 21.53829,8.26359268 19.960689,7.35275776 C18.3830879,6.44192284 16.4393984,6.44192284 14.8617974,7.35275776 C13.2841964,8.26359268 12.3123791,9.94688323 12.3123791,11.7685432 L12.3123791,11.7685432 Z" id="路径" fill="#FFFFFF"></path>
                <path d="M16.5402872,14.5768618 L16.646585,13.3047175 L15.3744407,13.1984197 L15.4258751,12.5640621 L16.6980194,12.6703598 L16.7494538,12.0360022 L15.4773095,11.9297044 L15.5321729,11.2884888 L16.8043172,11.3947866 C16.385984,11.3124915 16.0773776,11.1581883 15.8819268,10.925019 C15.6864761,10.6952786 15.604181,10.3935301 15.6350417,10.0197734 L15.7413395,8.74762914 L17.0134838,8.85392692 L16.907186,10.1260712 C16.8934702,10.3009482 16.9414756,10.4518225 17.0580603,10.5889809 C17.1712159,10.7227103 17.3152323,10.7981475 17.4901093,10.8118633 C17.6684152,10.8255791 17.8227184,10.7775737 17.9598768,10.664418 C18.0936063,10.5512623 18.1690434,10.407246 18.1827593,10.232369 L18.289057,8.96022469 L19.5543434,9.06652246 L19.4480456,10.3386668 C19.417185,10.7089945 19.2868845,10.9935982 19.0571442,11.1890489 C18.8274038,11.3844997 18.5016526,11.4873685 18.0764615,11.4976554 L19.3417479,11.6039531 L19.2868845,12.2451687 L18.0215981,12.138871 L17.9701637,12.7732286 L19.2354501,12.8795264 L19.1840157,13.5138841 L17.9187293,13.4075863 L17.8124315,14.6797306 L16.5402872,14.5768618 L16.5402872,14.5768618 Z" id="路径" fill="#D81E06"></path>
            </g>
        </g>
    </g>
</svg>