<?xml version="1.0" encoding="UTF-8"?>
<svg width="24px" height="25px" viewBox="0 0 24 25" version="1.1" xmlns="http://www.w3.org/2000/svg" xmlns:xlink="http://www.w3.org/1999/xlink">
    <title>输入</title>
    <g id="我的" stroke="none" stroke-width="1" fill="none" fill-rule="evenodd">
        <g id="选择信息录入方式" transform="translate(-117.000000, -486.000000)" fill="#FF5500" fill-rule="nonzero">
            <g id="编组-6" transform="translate(34.000000, 152.000000)">
                <g id="输入" transform="translate(83.000000, 334.000000)">
                    <path d="M0.968707031,24.4373829 C0.717775384,24.4373829 0.476893664,24.3387579 0.298238281,24.1625508 C0.0435882521,23.9120273 -0.0498415122,23.5402707 0.056109375,23.1991211 C2.43044922,15.5407383 2.43419531,15.5365273 2.65157813,15.3135117 L16.9960547,0.585539062 C17.359043,0.213007813 17.8451875,0.0079296875 18.3654297,0.0079296875 C18.8851523,0.0079296875 19.3713242,0.212980469 19.7342852,0.585539062 L23.3394219,4.28700781 C24.0672578,5.03513281 24.0672578,6.20621094 23.3394219,6.95365234 L8.9604375,21.7180469 C8.73042188,21.9466406 8.72621094,21.9506328 1.26541406,24.3902969 C1.16961241,24.4215357 1.06947319,24.4373829 0.968707031,24.4373829 L0.968707031,24.4373829 Z M4.16371484,16.5002031 C3.93695313,17.1757852 3.13589063,19.7318516 2.43044922,21.9972539 C4.61814063,21.2789609 7.07226953,20.468082 7.73896484,20.2333906 L21.9705117,5.62045312 L18.3654023,1.91898438 L18.3644727,1.91805469 L4.16371484,16.5002031 Z M8.27675391,21.1011328 L8.29375391,21.1011328 L8.27675391,21.1011328 Z" id="形状"></path>
                    <path d="M18.7894766,10.3327383 C18.5450234,10.3327383 18.3005156,10.2394141 18.1139219,10.052793 L13.8140625,5.75293359 C13.4408203,5.37991016 13.4408203,4.77476562 13.8140625,4.40176953 C14.1873047,4.02852734 14.7919844,4.02852734 15.1652539,4.40176953 L19.4650859,8.70160156 C19.8383281,9.074625 19.8383281,9.67976953 19.4650859,10.052793 C19.2784648,10.2394141 19.0339844,10.3327383 18.7894766,10.3327383 L18.7894766,10.3327383 Z" id="路径"></path>
                    <path d="M23.0890352,21.4960156 L11.6227891,21.4960156 L11.6227891,22.929293 C11.6227891,23.4570273 12.050582,23.8848203 12.5783164,23.8848203 L22.1335078,23.8848203 C22.6612422,23.8848203 23.0890352,23.457 23.0890352,22.929293 L23.0890352,21.4960156 L23.0890352,21.4960156 Z" id="路径"></path>
                </g>
            </g>
        </g>
    </g>
</svg>