<?xml version="1.0" encoding="UTF-8"?>
<svg width="46px" height="46px" viewBox="0 0 46 46" version="1.1" xmlns="http://www.w3.org/2000/svg" xmlns:xlink="http://www.w3.org/1999/xlink">
    <title>113</title>
    <defs>
        <linearGradient x1="7.98611309%" y1="0%" x2="88.7371623%" y2="89.3693957%" id="linearGradient-1">
            <stop stop-color="#14C8F7" offset="0%"></stop>
            <stop stop-color="#2CA3F6" offset="100%"></stop>
        </linearGradient>
        <path d="M26.4142067,4.14830638 C25.976367,3.79326264 25.417186,3.61687987 24.8514961,3.6553797 C24.8219565,3.657278 24.4877092,3.67467914 23.9643441,3.67467914 C23.0974202,3.67467914 21.4056344,3.62279212 19.8027885,3.27223835 C17.732767,2.82044163 15.343589,0.724712269 14.6481234,0.310881653 C13.934934,-0.103627218 13.049516,-0.103627218 12.3363265,0.310881653 C12.2518817,0.361503136 9.75096689,2.73944726 7.30367295,3.27318751 C5.70179031,3.62374127 3.97725401,3.67594467 3.11097231,3.67594467 C2.58792825,3.67594467 2.25368094,3.65759439 2.22093049,3.65569608 C2.1756578,3.65348139 2.13006402,3.6512667 2.08414917,3.6512667 C1.56480186,3.64827643 1.06085682,3.82495922 0.660146463,4.15052107 C0.239527851,4.49854376 0.00064216582,4.98799021 0,5.5008491 L0,10.1244887 C0,27.2218943 12.5893398,29.4239288 13.1239429,29.5096689 C13.3677035,29.5478457 13.616037,29.5480592 13.8598649,29.5103017 C14.394789,29.4242451 27.0769221,27.2225271 27.0769221,10.1251215 L27.0769221,5.49989995 C27.0772429,4.98704106 26.8367518,4.49791099 26.4142067,4.14830638 Z" id="path-2"></path>
        <filter x="-35.1%" y="-18.6%" width="170.2%" height="164.3%" filterUnits="objectBoundingBox" id="filter-3">
            <feOffset dx="0" dy="4" in="SourceAlpha" result="shadowOffsetOuter1"></feOffset>
            <feGaussianBlur stdDeviation="2.5" in="shadowOffsetOuter1" result="shadowBlurOuter1"></feGaussianBlur>
            <feColorMatrix values="0 0 0 0 0.537254902   0 0 0 0 0.654901961   0 0 0 0 0.984313725  0 0 0 0.4 0" type="matrix" in="shadowBlurOuter1"></feColorMatrix>
        </filter>
        <path d="M21.7617153,11.9956197 L13.0337186,19.7514635 C12.8002913,20.1105597 12.365545,20.3285484 11.9012591,20.3171586 C11.4363311,20.3285484 11.002227,20.1118252 10.7681576,19.7514635 L6.10378612,15.6068297 C5.86733557,15.4067382 5.73129514,15.1149186 5.73129514,14.8078012 C5.73129514,14.5006838 5.86733557,14.2088642 6.10378612,14.0087728 C6.59953813,13.5677331 7.40545624,13.5677331 7.90185041,14.0087728 L11.9012591,17.5620844 L19.9633299,10.3975628 C20.4597241,9.95462482 21.265,9.95462482 21.7613942,10.3975628 C21.9978448,10.5976542 22.1338852,10.8894738 22.1338852,11.1965912 C22.1338852,11.5037086 21.9978448,11.7955283 21.7613942,11.9956197 L21.7617153,11.9956197 Z" id="path-4"></path>
    </defs>
    <g id="我的" stroke="none" stroke-width="1" fill="none" fill-rule="evenodd">
        <g id="定稿（小程序版）" transform="translate(-50.000000, -416.000000)" fill-rule="nonzero">
            <g id="编组-20" transform="translate(16.000000, 397.000000)">
                <g id="114备份" transform="translate(34.000000, 19.000000)">
                    <g id="实名认证" transform="translate(9.461538, 8.230769)">
                        <g id="形状">
                            <use fill="black" fill-opacity="1" filter="url(#filter-3)" xlink:href="#path-2"></use>
                            <use fill="#000000" xlink:href="#path-2"></use>
                            <use fill="url(#linearGradient-1)" xlink:href="#path-2"></use>
                        </g>
                        <g id="路径">
                            <use fill="#EEE1E1" xlink:href="#path-4"></use>
                            <use fill="#D0EDFE" xlink:href="#path-4"></use>
                        </g>
                    </g>
                </g>
            </g>
        </g>
    </g>
</svg>