<?xml version="1.0" encoding="UTF-8"?>
<svg width="47px" height="47px" viewBox="0 0 47 47" version="1.1" xmlns="http://www.w3.org/2000/svg" xmlns:xlink="http://www.w3.org/1999/xlink">
    <title>tuichu</title>
    <defs>
        <filter x="-56.5%" y="-67.3%" width="212.9%" height="234.6%" filterUnits="objectBoundingBox" id="filter-1">
            <feOffset dx="0" dy="4" in="SourceAlpha" result="shadowOffsetOuter1"></feOffset>
            <feGaussianBlur stdDeviation="2.5" in="shadowOffsetOuter1" result="shadowBlurOuter1"></feGaussianBlur>
            <feColorMatrix values="0 0 0 0 0.588235294   0 0 0 0 0.698039216   0 0 0 0 0.988235294  0 0 0 0.4 0" type="matrix" in="shadowBlurOuter1" result="shadowMatrixOuter1"></feColorMatrix>
            <feMerge>
                <feMergeNode in="shadowMatrixOuter1"></feMergeNode>
                <feMergeNode in="SourceGraphic"></feMergeNode>
            </feMerge>
        </filter>
        <linearGradient x1="7.33050293%" y1="0%" x2="89.3416405%" y2="89.3693957%" id="linearGradient-2">
            <stop stop-color="#14C8F7" offset="0%"></stop>
            <stop stop-color="#2CA3F6" offset="100%"></stop>
        </linearGradient>
        <linearGradient x1="50%" y1="0%" x2="50%" y2="100%" id="linearGradient-3">
            <stop stop-color="#B8D0FF" offset="0%"></stop>
            <stop stop-color="#7F9EFA" offset="100%"></stop>
        </linearGradient>
        <path d="M23.3678469,5.59906839 L18.3935228,0.636559873 C18.2635524,0.506589411 18.1217664,0.382526698 17.9977037,0.246648489 C17.8041527,0.0331565825 17.4969741,-0.0350058322 17.2312884,0.0765821834 C16.9656026,0.188170199 16.7992172,0.455229486 16.8161541,0.742899341 L16.8161541,7.9267212 L7.70640628,7.9267212 C7.4977938,7.90002624 7.28847568,7.97059907 7.13861322,8.11815595 C6.98875076,8.26571283 6.91494137,8.47391171 6.93839901,8.68291297 L6.93839901,16.4929561 C6.93164477,16.5656618 6.93164477,16.6388371 6.93839901,16.7115428 C7.01537561,17.0732565 7.3574655,17.3150344 7.72412953,17.2668712 L16.8043386,17.2668712 L16.8043386,24.2675528 C16.7689564,24.576444 16.9496193,24.8694109 17.2415119,24.9764826 C17.517002,25.08315 17.8298472,24.9995654 18.015427,24.7697114 L20.6207439,22.1821177 L29.7659382,13.0487389 C29.9317365,12.9191746 30.0281431,12.7200987 30.0270073,12.5096833 C30.0258308,12.2992679 29.9272425,12.1012633 29.7600305,11.9735287 L23.3678469,5.59906839 Z" id="path-4"></path>
    </defs>
    <g id="我的" stroke="none" stroke-width="1" fill="none" fill-rule="evenodd">
        <g id="定稿" transform="translate(-278.000000, -531.000000)" fill-rule="nonzero">
            <g id="编组-20" transform="translate(16.000000, 397.000000)">
                <g id="宫格备份-3" transform="translate(230.000000, 124.000000)">
                    <g id="114" transform="translate(32.000000, 10.000000)">
                        <g id="tuichu" filter="url(#filter-1)" transform="translate(7.911507, 10.327244)">
                            <path d="M11.8110657,22.3829811 L5.18257214,22.3829811 C4.9844805,22.3823682 4.78681511,22.3645783 4.59179732,22.3298114 C3.4787137,22.0687259 2.69268295,21.0745562 2.69541013,19.9312656 L2.69541013,5.23869575 C2.66855861,4.58006489 2.91802694,3.94015347 3.38357492,3.47348368 C3.84912291,3.00681389 4.48843207,2.75580619 5.14712565,2.78107248 L12.0650988,2.78107248 L12.0650988,0.110530676 L4.93444672,0.110530676 C4.21860937,0.103230123 3.51212547,0.27376072 2.87855033,0.607021132 C1.11552633,1.42533145 0.00128481857,3.20672797 0.0369234265,5.15007953 L0.0369234265,20.0080663 C0.0377429539,20.3332847 0.0693925388,20.6576929 0.131447398,20.9769371 C0.593498205,23.2633495 2.56755441,24.9316349 4.89900023,25.0060214 C7.26209952,25.0414678 9.62519882,25.0060214 11.9469439,25.0060214 C11.9823013,25.0095749 12.0179259,25.0095749 12.0532833,25.0060214 L12.0532833,22.3888889 L11.8110657,22.3829811 Z" id="路径" fill="#7C92F0"></path>
                            <g id="路径">
                                <use fill="#E14D31" xlink:href="#path-4"></use>
                                <use fill="url(#linearGradient-2)" xlink:href="#path-4"></use>
                                <use fill="url(#linearGradient-3)" xlink:href="#path-4"></use>
                            </g>
                        </g>
                    </g>
                </g>
            </g>
        </g>
    </g>
</svg>